ISO-10303-21;
HEADER;
FILE_DESCRIPTION (( 'STEP AP214' ),
    '1' );
FILE_NAME ('auxpart1.step',
    '2026-09-17T06:59:29',
    ( '' ),
    ( '' ),
    'SwSTEP 2.0',
    'SolidWorks 2023',
    '' );
FILE_SCHEMA (( 'AUTOMOTIVE_DESIGN' ));
ENDSEC;

DATA;
#1 = VERTEX_POINT ( 'NONE', #41 ) ;
#2 = UNCERTAINTY_MEASURE_WITH_UNIT (LENGTH_MEASURE( 1.000000000000000082E-05 ), #42, 'distance_accuracy_value', 'NONE');
#3 = CIRCLE ( 'NONE', #117, 2.500000000000002220 ) ;
#4 = ADVANCED_FACE ( 'NONE', ( #78 ), #118, .F. ) ;
#5 = SURFACE_STYLE_USAGE ( .BOTH. , #121 ) ;
#6 = FACE_OUTER_BOUND ( 'NONE', #46, .T. ) ;
#7 = DIRECTION ( 'NONE',  ( -0.000000000000000000, -1.000000000000000000, -0.000000000000000000 ) ) ;
#8 = VECTOR ( 'NONE', #7, 1000.000000000000000 ) ;
#9 = SURFACE_STYLE_FILL_AREA ( #103 ) ;
#10 = ORIENTED_EDGE ( 'NONE', *, *, #87, .F. ) ;
#11 =( GEOMETRIC_REPRESENTATION_CONTEXT ( 3 ) GLOBAL_UNCERTAINTY_ASSIGNED_CONTEXT ( ( #2 ) ) GLOBAL_UNIT_ASSIGNED_CONTEXT ( ( #42, #44, #28 ) ) REPRESENTATION_CONTEXT ( 'NONE', 'WORKASPACE' ) );
#12 = DIRECTION ( 'NONE',  ( 0.000000000000000000, 1.000000000000000000, 0.000000000000000000 ) ) ;
#13 = ADVANCED_BREP_SHAPE_REPRESENTATION ( 'auxpart1', ( #62, #73 ), #21 ) ;
#14 = AXIS2_PLACEMENT_3D ( 'NONE', #56, #71, #48 ) ;
#15 =( LENGTH_UNIT ( ) NAMED_UNIT ( * ) SI_UNIT ( .MILLI., .METRE. ) );
#16 = PLANE ( 'NONE',  #14 ) ;
#17 =( NAMED_UNIT ( * ) SI_UNIT ( $, .STERADIAN. ) SOLID_ANGLE_UNIT ( ) );
#18 = CARTESIAN_POINT ( 'NONE',  ( -33.23624800142280122, 0.000000000000000000, -21.43864852000172760 ) ) ;
#19 = PRESENTATION_STYLE_ASSIGNMENT (( #5 ) ) ;
#20 = AXIS2_PLACEMENT_3D ( 'NONE', #70, #57, #112 ) ;
#21 =( GEOMETRIC_REPRESENTATION_CONTEXT ( 3 ) GLOBAL_UNCERTAINTY_ASSIGNED_CONTEXT ( ( #114 ) ) GLOBAL_UNIT_ASSIGNED_CONTEXT ( ( #15, #79, #17 ) ) REPRESENTATION_CONTEXT ( 'NONE', 'WORKASPACE' ) );
#22 = PRODUCT_RELATED_PRODUCT_CATEGORY ( 'part', '', ( #86 ) ) ;
#23 = AXIS2_PLACEMENT_3D ( 'NONE', #64, #12, #47 ) ;
#24 = ORIENTED_EDGE ( 'NONE', *, *, #59, .F. ) ;
#25 = ORIENTED_EDGE ( 'NONE', *, *, #26, .T. ) ;
#26 = EDGE_CURVE ( 'NONE', #1, #119, #3, .T. ) ;
#27 = APPLICATION_PROTOCOL_DEFINITION ( 'draft international standard', 'automotive_design', 1998, #53 ) ;
#28 =( NAMED_UNIT ( * ) SI_UNIT ( $, .STERADIAN. ) SOLID_ANGLE_UNIT ( ) );
#29 = CARTESIAN_POINT ( 'NONE',  ( -33.23624800142280122, 0.000000000000000000, -23.93864852000172760 ) ) ;
#30 = CARTESIAN_POINT ( 'NONE',  ( -33.23624800142280122, 3.000000000000000000, -21.43864852000172760 ) ) ;
#31 = COLOUR_RGB ( '',0.7921568627450980005, 0.8196078431372548767, 0.9333333333333333481 ) ;
#32 = ORIENTED_EDGE ( 'NONE', *, *, #97, .T. ) ;
#33 = EDGE_LOOP ( 'NONE', ( #39, #25 ) ) ;
#34 = LINE ( 'NONE', #115, #49 ) ;
#35 = CARTESIAN_POINT ( 'NONE',  ( -33.23624800142280122, 3.000000000000000000, -21.43864852000172760 ) ) ;
#36 = DIRECTION ( 'NONE',  ( 0.000000000000000000, 0.000000000000000000, 1.000000000000000000 ) ) ;
#37 = FACE_OUTER_BOUND ( 'NONE', #33, .T. ) ;
#38 = ORIENTED_EDGE ( 'NONE', *, *, #26, .F. ) ;
#39 = ORIENTED_EDGE ( 'NONE', *, *, #59, .T. ) ;
#40 = EDGE_CURVE ( 'NONE', #119, #88, #69, .T. ) ;
#41 = CARTESIAN_POINT ( 'NONE',  ( -33.23624800142280122, 3.000000000000000000, -18.93864852000172405 ) ) ;
#42 =( LENGTH_UNIT ( ) NAMED_UNIT ( * ) SI_UNIT ( .MILLI., .METRE. ) );
#43 = CARTESIAN_POINT ( 'NONE',  ( -33.23624800142280122, 0.000000000000000000, -18.93864852000172405 ) ) ;
#44 =( NAMED_UNIT ( * ) PLANE_ANGLE_UNIT ( ) SI_UNIT ( $, .RADIAN. ) );
#45 = PRODUCT_DEFINITION_CONTEXT ( 'detailed design', #53, 'design' ) ;
#46 = EDGE_LOOP ( 'NONE', ( #63, #24, #110, #54 ) ) ;
#47 = DIRECTION ( 'NONE',  ( 0.000000000000000000, -0.000000000000000000, 1.000000000000000000 ) ) ;
#48 = DIRECTION ( 'NONE',  ( 0.000000000000000000, -0.000000000000000000, 1.000000000000000000 ) ) ;
#49 = VECTOR ( 'NONE', #61, 1000.000000000000000 ) ;
#50 = FACE_OUTER_BOUND ( 'NONE', #77, .T. ) ;
#51 = DIRECTION ( 'NONE',  ( 0.000000000000000000, 1.000000000000000000, 0.000000000000000000 ) ) ;
#52 = AXIS2_PLACEMENT_3D ( 'NONE', #30, #113, #111 ) ;
#53 = APPLICATION_CONTEXT ( 'automotive_design' ) ;
#54 = ORIENTED_EDGE ( 'NONE', *, *, #82, .T. ) ;
#55 = VERTEX_POINT ( 'NONE', #43 ) ;
#56 = CARTESIAN_POINT ( 'NONE',  ( -33.23624800142280122, 3.000000000000000000, -21.43864852000172760 ) ) ;
#57 = DIRECTION ( 'NONE',  ( 0.000000000000000000, 1.000000000000000000, 0.000000000000000000 ) ) ;
#58 = CLOSED_SHELL ( 'NONE', ( #109, #116, #93, #4 ) ) ;
#59 = EDGE_CURVE ( 'NONE', #119, #1, #68, .T. ) ;
#60 = PRODUCT_DEFINITION_SHAPE ( 'NONE', 'NONE',  #74 ) ;
#61 = DIRECTION ( 'NONE',  ( -0.000000000000000000, -1.000000000000000000, -0.000000000000000000 ) ) ;
#62 = MANIFOLD_SOLID_BREP ( 'Boss-Extrude1', #58 ) ;
#63 = ORIENTED_EDGE ( 'NONE', *, *, #97, .F. ) ;
#64 = CARTESIAN_POINT ( 'NONE',  ( -33.23624800142280122, 0.000000000000000000, -21.43864852000172760 ) ) ;
#65 = APPLICATION_PROTOCOL_DEFINITION ( 'draft international standard', 'automotive_design', 1998, #125 ) ;
#66 = PRODUCT_CONTEXT ( 'NONE', #125, 'mechanical' ) ;
#67 = DIRECTION ( 'NONE',  ( -0.000000000000000000, -1.000000000000000000, -0.000000000000000000 ) ) ;
#68 = CIRCLE ( 'NONE', #20, 2.500000000000002220 ) ;
#69 = LINE ( 'NONE', #101, #8 ) ;
#70 = CARTESIAN_POINT ( 'NONE',  ( -33.23624800142280122, 3.000000000000000000, -21.43864852000172760 ) ) ;
#71 = DIRECTION ( 'NONE',  ( 0.000000000000000000, 1.000000000000000000, 0.000000000000000000 ) ) ;
#72 = STYLED_ITEM ( 'NONE', ( #19 ), #62 ) ;
#73 = AXIS2_PLACEMENT_3D ( 'NONE', #89, #100, #96 ) ;
#74 = PRODUCT_DEFINITION ( 'UNKNOWN', '', #85, #45 ) ;
#75 = ORIENTED_EDGE ( 'NONE', *, *, #40, .F. ) ;
#76 = AXIS2_PLACEMENT_3D ( 'NONE', #104, #67, #81 ) ;
#77 = EDGE_LOOP ( 'NONE', ( #38, #32, #98, #75 ) ) ;
#78 = FACE_OUTER_BOUND ( 'NONE', #107, .T. ) ;
#79 =( NAMED_UNIT ( * ) PLANE_ANGLE_UNIT ( ) SI_UNIT ( $, .RADIAN. ) );
#80 = PRESENTATION_LAYER_ASSIGNMENT (  '', '', ( #72 ) ) ;
#81 = DIRECTION ( 'NONE',  ( 0.000000000000000000, 0.000000000000000000, -1.000000000000000000 ) ) ;
#82 = EDGE_CURVE ( 'NONE', #88, #55, #90, .T. ) ;
#83 = FILL_AREA_STYLE_COLOUR ( '', #31 ) ;
#84 = DIRECTION ( 'NONE',  ( 0.000000000000000000, 1.000000000000000000, 0.000000000000000000 ) ) ;
#85 = PRODUCT_DEFINITION_FORMATION_WITH_SPECIFIED_SOURCE ( 'ANY', '', #86, .NOT_KNOWN. ) ;
#86 = PRODUCT ( 'auxpart1', 'auxpart1', '', ( #66 ) ) ;
#87 = EDGE_CURVE ( 'NONE', #55, #88, #94, .T. ) ;
#88 = VERTEX_POINT ( 'NONE', #29 ) ;
#89 = CARTESIAN_POINT ( 'NONE',  ( 0.000000000000000000, 0.000000000000000000, 0.000000000000000000 ) ) ;
#90 = CIRCLE ( 'NONE', #105, 2.500000000000002220 ) ;
#91 = CARTESIAN_POINT ( 'NONE',  ( -33.23624800142280122, 3.000000000000000000, -23.93864852000172760 ) ) ;
#92 = CYLINDRICAL_SURFACE ( 'NONE', #76, 2.500000000000002220 ) ;
#93 = ADVANCED_FACE ( 'NONE', ( #37 ), #16, .T. ) ;
#94 = CIRCLE ( 'NONE', #108, 2.500000000000002220 ) ;
#95 = DIRECTION ( 'NONE',  ( 0.000000000000000000, 0.000000000000000000, 1.000000000000000000 ) ) ;
#96 = DIRECTION ( 'NONE',  ( 1.000000000000000000, 0.000000000000000000, 0.000000000000000000 ) ) ;
#97 = EDGE_CURVE ( 'NONE', #1, #55, #34, .T. ) ;
#98 = ORIENTED_EDGE ( 'NONE', *, *, #87, .T. ) ;
#99 = DIRECTION ( 'NONE',  ( 0.000000000000000000, 0.000000000000000000, 1.000000000000000000 ) ) ;
#100 = DIRECTION ( 'NONE',  ( 0.000000000000000000, 0.000000000000000000, 1.000000000000000000 ) ) ;
#101 = CARTESIAN_POINT ( 'NONE',  ( -33.23624800142280122, 3.000000000000000000, -23.93864852000172760 ) ) ;
#102 = SHAPE_DEFINITION_REPRESENTATION ( #60, #13 ) ;
#103 = FILL_AREA_STYLE ('',( #83 ) ) ;
#104 = CARTESIAN_POINT ( 'NONE',  ( -33.23624800142280122, 3.000000000000000000, -21.43864852000172760 ) ) ;
#105 = AXIS2_PLACEMENT_3D ( 'NONE', #124, #120, #36 ) ;
#106 = ORIENTED_EDGE ( 'NONE', *, *, #82, .F. ) ;
#107 = EDGE_LOOP ( 'NONE', ( #106, #10 ) ) ;
#108 = AXIS2_PLACEMENT_3D ( 'NONE', #18, #84, #99 ) ;
#109 = ADVANCED_FACE ( 'NONE', ( #50 ), #92, .T. ) ;
#110 = ORIENTED_EDGE ( 'NONE', *, *, #40, .T. ) ;
#111 = DIRECTION ( 'NONE',  ( 0.000000000000000000, 0.000000000000000000, -1.000000000000000000 ) ) ;
#112 = DIRECTION ( 'NONE',  ( 0.000000000000000000, 0.000000000000000000, 1.000000000000000000 ) ) ;
#113 = DIRECTION ( 'NONE',  ( -0.000000000000000000, -1.000000000000000000, -0.000000000000000000 ) ) ;
#114 = UNCERTAINTY_MEASURE_WITH_UNIT (LENGTH_MEASURE( 1.000000000000000082E-05 ), #15, 'distance_accuracy_value', 'NONE');
#115 = CARTESIAN_POINT ( 'NONE',  ( -33.23624800142280122, 3.000000000000000000, -18.93864852000172405 ) ) ;
#116 = ADVANCED_FACE ( 'NONE', ( #6 ), #123, .T. ) ;
#117 = AXIS2_PLACEMENT_3D ( 'NONE', #35, #51, #95 ) ;
#118 = PLANE ( 'NONE',  #23 ) ;
#119 = VERTEX_POINT ( 'NONE', #91 ) ;
#120 = DIRECTION ( 'NONE',  ( 0.000000000000000000, 1.000000000000000000, 0.000000000000000000 ) ) ;
#121 = SURFACE_SIDE_STYLE ('',( #9 ) ) ;
#122 = MECHANICAL_DESIGN_GEOMETRIC_PRESENTATION_REPRESENTATION (  '', ( #72 ), #11 ) ;
#123 = CYLINDRICAL_SURFACE ( 'NONE', #52, 2.500000000000002220 ) ;
#124 = CARTESIAN_POINT ( 'NONE',  ( -33.23624800142280122, 0.000000000000000000, -21.43864852000172760 ) ) ;
#125 = APPLICATION_CONTEXT ( 'automotive_design' ) ;
ENDSEC;
END-ISO-10303-21;
