ISO-10303-21;
HEADER;
FILE_DESCRIPTION (( 'STEP AP214' ),
    '1' );
FILE_NAME ('baseframe.step',
    '2026-09-17T06:59:33',
    ( '' ),
    ( '' ),
    'SwSTEP 2.0',
    'SolidWorks 2023',
    '' );
FILE_SCHEMA (( 'AUTOMOTIVE_DESIGN' ));
ENDSEC;

DATA;
#1 = CARTESIAN_POINT ( 'NONE',  ( -35.92135072115596017, 7.000000000000000888, 72.67276598253647535 ) ) ;
#2 = EDGE_CURVE ( 'NONE', #128, #159, #319, .T. ) ;
#3 = AXIS2_PLACEMENT_3D ( 'NONE', #414, #123, #87 ) ;
#4 = DIRECTION ( 'NONE',  ( -0.000000000000000000, -0.000000000000000000, 1.000000000000000000 ) ) ;
#5 = DIRECTION ( 'NONE',  ( -1.000000000000000000, 0.000000000000000000, 2.168404344971009361E-16 ) ) ;
#6 = LINE ( 'NONE', #150, #374 ) ;
#7 = DIRECTION ( 'NONE',  ( 1.000000000000000000, 0.000000000000000000, 0.000000000000000000 ) ) ;
#8 = ADVANCED_FACE ( 'NONE', ( #253 ), #360, .T. ) ;
#9 = CARTESIAN_POINT ( 'NONE',  ( -39.41770500893907325, 20.00000000000000000, 39.51192318391672842 ) ) ;
#10 = CARTESIAN_POINT ( 'NONE',  ( -33.41770500893908036, 20.00000000000000000, 70.51192318391672131 ) ) ;
#11 =( LENGTH_UNIT ( ) NAMED_UNIT ( * ) SI_UNIT ( .MILLI., .METRE. ) );
#12 = SURFACE_STYLE_USAGE ( .BOTH. , #83 ) ;
#13 = CLOSED_SHELL ( 'NONE', ( #365, #379, #413, #441, #396, #295, #361, #284, #8, #91, #26, #227, #268, #266, #43 ) ) ;
#14 = VECTOR ( 'NONE', #353, 1000.000000000000000 ) ;
#15 = DIRECTION ( 'NONE',  ( -1.000000000000000000, 0.000000000000000000, -0.000000000000000000 ) ) ;
#16 = VERTEX_POINT ( 'NONE', #140 ) ;
#17 = DIRECTION ( 'NONE',  ( 0.000000000000000000, -0.000000000000000000, -1.000000000000000000 ) ) ;
#18 = EDGE_LOOP ( 'NONE', ( #139, #344, #343, #389 ) ) ;
#19 = VERTEX_POINT ( 'NONE', #431 ) ;
#20 = VECTOR ( 'NONE', #296, 1000.000000000000000 ) ;
#21 = ORIENTED_EDGE ( 'NONE', *, *, #157, .F. ) ;
#22 = VECTOR ( 'NONE', #193, 1000.000000000000000 ) ;
#23 = DIRECTION ( 'NONE',  ( -0.000000000000000000, -1.000000000000000000, -0.000000000000000000 ) ) ;
#24 = ORIENTED_EDGE ( 'NONE', *, *, #448, .T. ) ;
#25 = VERTEX_POINT ( 'NONE', #31 ) ;
#26 = ADVANCED_FACE ( 'NONE', ( #294 ), #462, .F. ) ;
#27 = ORIENTED_EDGE ( 'NONE', *, *, #405, .T. ) ;
#28 = DIRECTION ( 'NONE',  ( 2.168404344971009361E-16, 0.000000000000000000, 1.000000000000000000 ) ) ;
#29 = CARTESIAN_POINT ( 'NONE',  ( -35.92135072115595307, 7.000000000000000888, 104.6727659825364753 ) ) ;
#30 = VECTOR ( 'NONE', #33, 1000.000000000000000 ) ;
#31 = CARTESIAN_POINT ( 'NONE',  ( -33.41770500893908036, 20.00000000000000000, 45.51192318391672131 ) ) ;
#32 = DIRECTION ( 'NONE',  ( -1.000000000000000000, -0.000000000000000000, -0.000000000000000000 ) ) ;
#33 = DIRECTION ( 'NONE',  ( 1.000000000000000000, 0.000000000000000000, 0.000000000000000000 ) ) ;
#34 = DIRECTION ( 'NONE',  ( 0.000000000000000000, 0.000000000000000000, -1.000000000000000000 ) ) ;
#35 = EDGE_CURVE ( 'NONE', #104, #211, #67, .T. ) ;
#36 = AXIS2_PLACEMENT_3D ( 'NONE', #328, #269, #7 ) ;
#37 = PLANE ( 'NONE',  #70 ) ;
#38 = LINE ( 'NONE', #254, #152 ) ;
#39 = EDGE_LOOP ( 'NONE', ( #163, #66, #417, #98 ) ) ;
#40 = LINE ( 'NONE', #366, #410 ) ;
#41 = LINE ( 'NONE', #333, #358 ) ;
#42 = APPLICATION_CONTEXT ( 'automotive_design' ) ;
#43 = ADVANCED_FACE ( 'NONE', ( #147 ), #37, .T. ) ;
#44 = LINE ( 'NONE', #119, #288 ) ;
#45 = LINE ( 'NONE', #262, #331 ) ;
#46 = LINE ( 'NONE', #224, #20 ) ;
#47 = EDGE_CURVE ( 'NONE', #128, #104, #73, .T. ) ;
#48 = DIRECTION ( 'NONE',  ( -1.000000000000000000, 0.000000000000000000, -0.000000000000000000 ) ) ;
#49 = CARTESIAN_POINT ( 'NONE',  ( -35.92135072115595307, 20.00000000000000000, 104.6727659825364753 ) ) ;
#50 = VECTOR ( 'NONE', #4, 1000.000000000000000 ) ;
#51 = VECTOR ( 'NONE', #107, 1000.000000000000000 ) ;
#52 = VECTOR ( 'NONE', #168, 1000.000000000000000 ) ;
#53 = ORIENTED_EDGE ( 'NONE', *, *, #446, .T. ) ;
#54 = FACE_BOUND ( 'NONE', #146, .T. ) ;
#55 = ORIENTED_EDGE ( 'NONE', *, *, #326, .T. ) ;
#56 = LINE ( 'NONE', #62, #289 ) ;
#57 = ORIENTED_EDGE ( 'NONE', *, *, #135, .T. ) ;
#58 = VERTEX_POINT ( 'NONE', #324 ) ;
#59 = CARTESIAN_POINT ( 'NONE',  ( -3.417705008939078581, 20.00000000000000000, 70.51192318391672131 ) ) ;
#60 = ORIENTED_EDGE ( 'NONE', *, *, #196, .T. ) ;
#61 = ORIENTED_EDGE ( 'NONE', *, *, #2, .F. ) ;
#62 = CARTESIAN_POINT ( 'NONE',  ( -33.41770500893908036, 20.00000000000000000, 70.51192318391672131 ) ) ;
#63 = EDGE_CURVE ( 'NONE', #419, #90, #434, .T. ) ;
#64 = VERTEX_POINT ( 'NONE', #287 ) ;
#65 = LINE ( 'NONE', #203, #14 ) ;
#66 = ORIENTED_EDGE ( 'NONE', *, *, #385, .F. ) ;
#67 = LINE ( 'NONE', #71, #459 ) ;
#68 = CARTESIAN_POINT ( 'NONE',  ( -33.41770500893908036, 0.000000000000000000, 70.51192318391672131 ) ) ;
#69 = DIRECTION ( 'NONE',  ( -2.168404344971008868E-16, -0.000000000000000000, -1.000000000000000000 ) ) ;
#70 = AXIS2_PLACEMENT_3D ( 'NONE', #257, #252, #185 ) ;
#71 = CARTESIAN_POINT ( 'NONE',  ( -39.41770500893907325, 0.000000000000000000, 39.51192318391672842 ) ) ;
#72 = EDGE_LOOP ( 'NONE', ( #281, #373, #355, #272 ) ) ;
#73 = LINE ( 'NONE', #285, #388 ) ;
#74 = LINE ( 'NONE', #191, #165 ) ;
#75 = DIRECTION ( 'NONE',  ( 1.000000000000000000, 0.000000000000000000, 0.000000000000000000 ) ) ;
#76 = VECTOR ( 'NONE', #406, 1000.000000000000000 ) ;
#77 = CARTESIAN_POINT ( 'NONE',  ( -33.41770500893908036, 20.00000000000000000, 45.51192318391672131 ) ) ;
#78 = EDGE_CURVE ( 'NONE', #100, #169, #425, .T. ) ;
#79 = CARTESIAN_POINT ( 'NONE',  ( -39.41770500893907325, 0.000000000000000000, 106.9619231839167242 ) ) ;
#80 = FACE_OUTER_BOUND ( 'NONE', #337, .T. ) ;
#81 = EDGE_CURVE ( 'NONE', #449, #19, #105, .T. ) ;
#82 = DIRECTION ( 'NONE',  ( 0.000000000000000000, 0.000000000000000000, -1.000000000000000000 ) ) ;
#83 = SURFACE_SIDE_STYLE ('',( #335 ) ) ;
#84 = VECTOR ( 'NONE', #330, 1000.000000000000000 ) ;
#85 = CARTESIAN_POINT ( 'NONE',  ( -33.41770500893908036, 20.00000000000000000, 70.51192318391672131 ) ) ;
#86 = CARTESIAN_POINT ( 'NONE',  ( -39.41770500893907325, 20.00000000000000000, 106.9619231839167242 ) ) ;
#87 = DIRECTION ( 'NONE',  ( 0.000000000000000000, 0.000000000000000000, -1.000000000000000000 ) ) ;
#88 = DIRECTION ( 'NONE',  ( 0.000000000000000000, -0.000000000000000000, -1.000000000000000000 ) ) ;
#89 = PRODUCT_DEFINITION_FORMATION_WITH_SPECIFIED_SOURCE ( 'ANY', '', #220, .NOT_KNOWN. ) ;
#90 = VERTEX_POINT ( 'NONE', #68 ) ;
#91 = ADVANCED_FACE ( 'NONE', ( #216 ), #321, .T. ) ;
#92 = CARTESIAN_POINT ( 'NONE',  ( -0.9213507211558933374, 20.00000000000000000, 104.6727659825364753 ) ) ;
#93 = ORIENTED_EDGE ( 'NONE', *, *, #157, .T. ) ;
#94 = LINE ( 'NONE', #375, #347 ) ;
#95 = ORIENTED_EDGE ( 'NONE', *, *, #35, .T. ) ;
#96 = ORIENTED_EDGE ( 'NONE', *, *, #47, .F. ) ;
#97 = PLANE ( 'NONE',  #198 ) ;
#98 = ORIENTED_EDGE ( 'NONE', *, *, #426, .T. ) ;
#99 = DIRECTION ( 'NONE',  ( -1.000000000000000000, 0.000000000000000000, 0.000000000000000000 ) ) ;
#100 = VERTEX_POINT ( 'NONE', #1 ) ;
#101 = APPLICATION_CONTEXT ( 'automotive_design' ) ;
#102 = ORIENTED_EDGE ( 'NONE', *, *, #78, .F. ) ;
#103 = LINE ( 'NONE', #145, #238 ) ;
#104 = VERTEX_POINT ( 'NONE', #255 ) ;
#105 = LINE ( 'NONE', #400, #175 ) ;
#106 = LINE ( 'NONE', #180, #137 ) ;
#107 = DIRECTION ( 'NONE',  ( -1.000000000000000000, 0.000000000000000000, 0.000000000000000000 ) ) ;
#108 = PRODUCT_CONTEXT ( 'NONE', #101, 'mechanical' ) ;
#109 = VECTOR ( 'NONE', #436, 1000.000000000000000 ) ;
#110 = VECTOR ( 'NONE', #151, 1000.000000000000000 ) ;
#111 = DIRECTION ( 'NONE',  ( 1.000000000000000000, 0.000000000000000000, -0.000000000000000000 ) ) ;
#112 = CARTESIAN_POINT ( 'NONE',  ( 2.582294991060919642, 20.00000000000000000, 39.51192318391672842 ) ) ;
#113 = EDGE_CURVE ( 'NONE', #290, #128, #399, .T. ) ;
#114 = CARTESIAN_POINT ( 'NONE',  ( -35.92135072115595307, 7.000000000000000888, 104.6727659825364753 ) ) ;
#115 = AXIS2_PLACEMENT_3D ( 'NONE', #134, #99, #390 ) ;
#116 = AXIS2_PLACEMENT_3D ( 'NONE', #282, #387, #88 ) ;
#117 = LINE ( 'NONE', #261, #76 ) ;
#118 = PLANE ( 'NONE',  #397 ) ;
#119 = CARTESIAN_POINT ( 'NONE',  ( -3.417705008939078581, 20.00000000000000000, 70.51192318391672131 ) ) ;
#120 = FILL_AREA_STYLE_COLOUR ( '', #166 ) ;
#121 = FACE_OUTER_BOUND ( 'NONE', #341, .T. ) ;
#122 = LINE ( 'NONE', #411, #460 ) ;
#123 = DIRECTION ( 'NONE',  ( 1.000000000000000000, -0.000000000000000000, 0.000000000000000000 ) ) ;
#124 = EDGE_CURVE ( 'NONE', #169, #239, #144, .T. ) ;
#125 = ORIENTED_EDGE ( 'NONE', *, *, #141, .T. ) ;
#126 = EDGE_LOOP ( 'NONE', ( #214, #423, #454, #381 ) ) ;
#127 = PLANE ( 'NONE',  #437 ) ;
#128 = VERTEX_POINT ( 'NONE', #112 ) ;
#129 = FACE_BOUND ( 'NONE', #18, .T. ) ;
#130 = ORIENTED_EDGE ( 'NONE', *, *, #2, .T. ) ;
#131 = PLANE ( 'NONE',  #115 ) ;
#132 = EDGE_CURVE ( 'NONE', #64, #104, #74, .T. ) ;
#133 = ORIENTED_EDGE ( 'NONE', *, *, #385, .T. ) ;
#134 = CARTESIAN_POINT ( 'NONE',  ( 2.582294991060919642, 20.00000000000000000, 78.51192318391672131 ) ) ;
#135 = EDGE_CURVE ( 'NONE', #58, #221, #153, .T. ) ;
#136 = VERTEX_POINT ( 'NONE', #298 ) ;
#137 = VECTOR ( 'NONE', #69, 1000.000000000000000 ) ;
#138 = DIRECTION ( 'NONE',  ( 0.000000000000000000, 0.000000000000000000, -1.000000000000000000 ) ) ;
#139 = ORIENTED_EDGE ( 'NONE', *, *, #432, .F. ) ;
#140 = CARTESIAN_POINT ( 'NONE',  ( -3.417705008939078581, 0.000000000000000000, 45.51192318391672131 ) ) ;
#141 = EDGE_CURVE ( 'NONE', #100, #19, #40, .T. ) ;
#142 = ORIENTED_EDGE ( 'NONE', *, *, #446, .F. ) ;
#143 = DIRECTION ( 'NONE',  ( 0.000000000000000000, 0.000000000000000000, 1.000000000000000000 ) ) ;
#144 = LINE ( 'NONE', #363, #395 ) ;
#145 = CARTESIAN_POINT ( 'NONE',  ( -18.41770500893907681, 20.00000000000000000, 106.9619231839167242 ) ) ;
#146 = EDGE_LOOP ( 'NONE', ( #362, #350, #306, #243 ) ) ;
#147 = FACE_OUTER_BOUND ( 'NONE', #386, .T. ) ;
#148 = DIRECTION ( 'NONE',  ( -0.000000000000000000, 1.000000000000000000, -0.000000000000000000 ) ) ;
#149 = PRODUCT_DEFINITION_SHAPE ( 'NONE', 'NONE',  #228 ) ;
#150 = CARTESIAN_POINT ( 'NONE',  ( -0.9213507211559002208, 20.00000000000000000, 72.67276598253647535 ) ) ;
#151 = DIRECTION ( 'NONE',  ( 1.000000000000000000, 0.000000000000000000, 0.000000000000000000 ) ) ;
#152 = VECTOR ( 'NONE', #148, 1000.000000000000000 ) ;
#153 = LINE ( 'NONE', #263, #429 ) ;
#154 = DIRECTION ( 'NONE',  ( 1.000000000000000000, 0.000000000000000000, 0.000000000000000000 ) ) ;
#155 = ADVANCED_BREP_SHAPE_REPRESENTATION ( 'baseframe', ( #354, #184 ), #403 ) ;
#156 = DIRECTION ( 'NONE',  ( 0.000000000000000000, 0.000000000000000000, -1.000000000000000000 ) ) ;
#157 = EDGE_CURVE ( 'NONE', #159, #211, #229, .T. ) ;
#158 = FACE_OUTER_BOUND ( 'NONE', #210, .T. ) ;
#159 = VERTEX_POINT ( 'NONE', #9 ) ;
#160 = DIRECTION ( 'NONE',  ( 1.000000000000000000, -0.000000000000000000, 0.000000000000000000 ) ) ;
#161 = ORIENTED_EDGE ( 'NONE', *, *, #305, .F. ) ;
#162 = EDGE_CURVE ( 'NONE', #290, #64, #46, .T. ) ;
#163 = ORIENTED_EDGE ( 'NONE', *, *, #340, .F. ) ;
#164 = DIRECTION ( 'NONE',  ( -1.000000000000000000, 0.000000000000000000, -0.000000000000000000 ) ) ;
#165 = VECTOR ( 'NONE', #82, 1000.000000000000000 ) ;
#166 = COLOUR_RGB ( '',0.7921568627450980005, 0.8196078431372548767, 0.9333333333333333481 ) ;
#167 = ORIENTED_EDGE ( 'NONE', *, *, #162, .F. ) ;
#168 = DIRECTION ( 'NONE',  ( -0.000000000000000000, -0.000000000000000000, 1.000000000000000000 ) ) ;
#169 = VERTEX_POINT ( 'NONE', #114 ) ;
#170 = UNCERTAINTY_MEASURE_WITH_UNIT (LENGTH_MEASURE( 1.000000000000000082E-05 ), #320, 'distance_accuracy_value', 'NONE');
#171 = CARTESIAN_POINT ( 'NONE',  ( -33.41770500893908036, 20.00000000000000000, 70.51192318391672131 ) ) ;
#172 = ORIENTED_EDGE ( 'NONE', *, *, #192, .F. ) ;
#173 = FACE_BOUND ( 'NONE', #246, .T. ) ;
#174 = ORIENTED_EDGE ( 'NONE', *, *, #196, .F. ) ;
#175 = VECTOR ( 'NONE', #393, 1000.000000000000000 ) ;
#176 = CARTESIAN_POINT ( 'NONE',  ( -33.41770500893908036, 0.000000000000000000, 70.51192318391672131 ) ) ;
#177 = EDGE_CURVE ( 'NONE', #136, #359, #44, .T. ) ;
#178 = DIRECTION ( 'NONE',  ( -0.000000000000000000, -1.000000000000000000, -0.000000000000000000 ) ) ;
#179 = ORIENTED_EDGE ( 'NONE', *, *, #183, .F. ) ;
#180 = CARTESIAN_POINT ( 'NONE',  ( -0.9213507211559002208, 7.000000000000000888, 72.67276598253647535 ) ) ;
#181 = ORIENTED_EDGE ( 'NONE', *, *, #162, .T. ) ;
#182 = VECTOR ( 'NONE', #327, 1000.000000000000000 ) ;
#183 = EDGE_CURVE ( 'NONE', #283, #100, #259, .T. ) ;
#184 = AXIS2_PLACEMENT_3D ( 'NONE', #394, #258, #75 ) ;
#185 = DIRECTION ( 'NONE',  ( 0.000000000000000000, -0.000000000000000000, 1.000000000000000000 ) ) ;
#186 = APPLICATION_PROTOCOL_DEFINITION ( 'draft international standard', 'automotive_design', 1998, #42 ) ;
#187 = DIRECTION ( 'NONE',  ( -0.000000000000000000, -1.000000000000000000, -0.000000000000000000 ) ) ;
#188 = PLANE ( 'NONE',  #318 ) ;
#189 = DIRECTION ( 'NONE',  ( -0.000000000000000000, -1.000000000000000000, -0.000000000000000000 ) ) ;
#190 = LINE ( 'NONE', #236, #22 ) ;
#191 = CARTESIAN_POINT ( 'NONE',  ( 2.582294991060919642, 0.000000000000000000, 78.51192318391672131 ) ) ;
#192 = EDGE_CURVE ( 'NONE', #25, #419, #438, .T. ) ;
#193 = DIRECTION ( 'NONE',  ( 1.000000000000000000, 0.000000000000000000, 0.000000000000000000 ) ) ;
#194 = DIRECTION ( 'NONE',  ( -0.000000000000000000, -0.000000000000000000, 1.000000000000000000 ) ) ;
#195 = LINE ( 'NONE', #85, #110 ) ;
#196 = EDGE_CURVE ( 'NONE', #384, #449, #6, .T. ) ;
#197 = AXIS2_PLACEMENT_3D ( 'NONE', #249, #5, #28 ) ;
#198 = AXIS2_PLACEMENT_3D ( 'NONE', #200, #339, #17 ) ;
#199 = ORIENTED_EDGE ( 'NONE', *, *, #183, .T. ) ;
#200 = CARTESIAN_POINT ( 'NONE',  ( 0.000000000000000000, 0.000000000000000000, 0.000000000000000000 ) ) ;
#201 = PRODUCT_RELATED_PRODUCT_CATEGORY ( 'part', '', ( #220 ) ) ;
#202 = ORIENTED_EDGE ( 'NONE', *, *, #464, .F. ) ;
#203 = CARTESIAN_POINT ( 'NONE',  ( -3.417705008939078581, 20.00000000000000000, 45.51192318391672131 ) ) ;
#204 = ORIENTED_EDGE ( 'NONE', *, *, #141, .F. ) ;
#205 = LINE ( 'NONE', #312, #52 ) ;
#206 = VECTOR ( 'NONE', #34, 1000.000000000000000 ) ;
#207 = EDGE_CURVE ( 'NONE', #19, #239, #117, .T. ) ;
#208 = ORIENTED_EDGE ( 'NONE', *, *, #207, .T. ) ;
#209 = CARTESIAN_POINT ( 'NONE',  ( -18.41770500893907681, 20.00000000000000000, 106.9619231839167242 ) ) ;
#210 = EDGE_LOOP ( 'NONE', ( #60, #241, #314, #364 ) ) ;
#211 = VERTEX_POINT ( 'NONE', #368 ) ;
#212 =( NAMED_UNIT ( * ) SI_UNIT ( $, .STERADIAN. ) SOLID_ANGLE_UNIT ( ) );
#213 = EDGE_LOOP ( 'NONE', ( #348, #233, #161, #93 ) ) ;
#214 = ORIENTED_EDGE ( 'NONE', *, *, #326, .F. ) ;
#215 =( GEOMETRIC_REPRESENTATION_CONTEXT ( 3 ) GLOBAL_UNCERTAINTY_ASSIGNED_CONTEXT ( ( #334 ) ) GLOBAL_UNIT_ASSIGNED_CONTEXT ( ( #11, #457, #212 ) ) REPRESENTATION_CONTEXT ( 'NONE', 'WORKASPACE' ) );
#216 = FACE_OUTER_BOUND ( 'NONE', #72, .T. ) ;
#217 =( NAMED_UNIT ( * ) PLANE_ANGLE_UNIT ( ) SI_UNIT ( $, .RADIAN. ) );
#218 = CARTESIAN_POINT ( 'NONE',  ( -35.92135072115596017, 7.000000000000000888, 72.67276598253647535 ) ) ;
#219 = CARTESIAN_POINT ( 'NONE',  ( 2.582294991060919642, 20.00000000000000000, 106.9619231839167242 ) ) ;
#220 = PRODUCT ( 'baseframe', 'baseframe', '', ( #108 ) ) ;
#221 = VERTEX_POINT ( 'NONE', #79 ) ;
#222 = APPLICATION_PROTOCOL_DEFINITION ( 'draft international standard', 'automotive_design', 1998, #101 ) ;
#223 = VECTOR ( 'NONE', #299, 1000.000000000000000 ) ;
#224 = CARTESIAN_POINT ( 'NONE',  ( 2.582294991060919642, 20.00000000000000000, 106.9619231839167242 ) ) ;
#225 = DIRECTION ( 'NONE',  ( -2.168404344971008868E-16, -0.000000000000000000, -1.000000000000000000 ) ) ;
#226 = PLANE ( 'NONE',  #444 ) ;
#227 = ADVANCED_FACE ( 'NONE', ( #121 ), #188, .F. ) ;
#228 = PRODUCT_DEFINITION ( 'UNKNOWN', '', #89, #256 ) ;
#229 = LINE ( 'NONE', #370, #231 ) ;
#230 = PRESENTATION_STYLE_ASSIGNMENT (( #12 ) ) ;
#231 = VECTOR ( 'NONE', #189, 1000.000000000000000 ) ;
#232 = STYLED_ITEM ( 'NONE', ( #230 ), #354 ) ;
#233 = ORIENTED_EDGE ( 'NONE', *, *, #135, .F. ) ;
#234 = LINE ( 'NONE', #86, #245 ) ;
#235 = DIRECTION ( 'NONE',  ( -2.168404344971009361E-16, 0.000000000000000000, -1.000000000000000000 ) ) ;
#236 = CARTESIAN_POINT ( 'NONE',  ( -18.41770500893907681, 0.000000000000000000, 106.9619231839167242 ) ) ;
#237 = CARTESIAN_POINT ( 'NONE',  ( -33.41770500893908036, 20.00000000000000000, 70.51192318391672131 ) ) ;
#238 = VECTOR ( 'NONE', #428, 1000.000000000000000 ) ;
#239 = VERTEX_POINT ( 'NONE', #49 ) ;
#240 = FACE_OUTER_BOUND ( 'NONE', #126, .T. ) ;
#241 = ORIENTED_EDGE ( 'NONE', *, *, #349, .F. ) ;
#242 = FACE_OUTER_BOUND ( 'NONE', #310, .T. ) ;
#243 = ORIENTED_EDGE ( 'NONE', *, *, #313, .T. ) ;
#244 = LINE ( 'NONE', #59, #301 ) ;
#245 = VECTOR ( 'NONE', #194, 1000.000000000000000 ) ;
#246 = EDGE_LOOP ( 'NONE', ( #311, #316, #303, #174 ) ) ;
#247 = CARTESIAN_POINT ( 'NONE',  ( -35.92135072115595307, 20.00000000000000000, 104.6727659825364753 ) ) ;
#248 = EDGE_LOOP ( 'NONE', ( #451, #96, #275, #181 ) ) ;
#249 = CARTESIAN_POINT ( 'NONE',  ( -35.92135072115596017, 7.000000000000000888, 72.67276598253647535 ) ) ;
#250 = ORIENTED_EDGE ( 'NONE', *, *, #124, .T. ) ;
#251 = ORIENTED_EDGE ( 'NONE', *, *, #305, .T. ) ;
#252 = DIRECTION ( 'NONE',  ( 0.000000000000000000, 1.000000000000000000, 0.000000000000000000 ) ) ;
#253 = FACE_OUTER_BOUND ( 'NONE', #277, .T. ) ;
#254 = CARTESIAN_POINT ( 'NONE',  ( -0.9213507211558933374, 7.000000000000000888, 104.6727659825364753 ) ) ;
#255 = CARTESIAN_POINT ( 'NONE',  ( 2.582294991060919642, 0.000000000000000000, 39.51192318391672842 ) ) ;
#256 = PRODUCT_DEFINITION_CONTEXT ( 'detailed design', #42, 'design' ) ;
#257 = CARTESIAN_POINT ( 'NONE',  ( 0.000000000000000000, 7.000000000000000888, 0.000000000000000000 ) ) ;
#258 = DIRECTION ( 'NONE',  ( 0.000000000000000000, 0.000000000000000000, 1.000000000000000000 ) ) ;
#259 = LINE ( 'NONE', #404, #84 ) ;
#260 = VECTOR ( 'NONE', #332, 1000.000000000000000 ) ;
#261 = CARTESIAN_POINT ( 'NONE',  ( -35.92135072115596017, 20.00000000000000000, 72.67276598253647535 ) ) ;
#262 = CARTESIAN_POINT ( 'NONE',  ( -39.41770500893907325, 0.000000000000000000, 78.51192318391672131 ) ) ;
#263 = CARTESIAN_POINT ( 'NONE',  ( -39.41770500893907325, 20.00000000000000000, 106.9619231839167242 ) ) ;
#264 = FILL_AREA_STYLE ('',( #120 ) ) ;
#265 = CARTESIAN_POINT ( 'NONE',  ( -0.9213507211559002208, 7.000000000000000888, 72.67276598253647535 ) ) ;
#266 = ADVANCED_FACE ( 'NONE', ( #80 ), #443, .F. ) ;
#267 = DIRECTION ( 'NONE',  ( 1.000000000000000000, 0.000000000000000000, -2.168404344971009361E-16 ) ) ;
#268 = ADVANCED_FACE ( 'NONE', ( #158 ), #226, .F. ) ;
#269 = DIRECTION ( 'NONE',  ( -0.000000000000000000, 0.000000000000000000, 1.000000000000000000 ) ) ;
#270 = ORIENTED_EDGE ( 'NONE', *, *, #63, .F. ) ;
#271 = FACE_OUTER_BOUND ( 'NONE', #422, .T. ) ;
#272 = ORIENTED_EDGE ( 'NONE', *, *, #192, .T. ) ;
#273 = EDGE_CURVE ( 'NONE', #359, #25, #122, .T. ) ;
#274 = LINE ( 'NONE', #247, #280 ) ;
#275 = ORIENTED_EDGE ( 'NONE', *, *, #113, .F. ) ;
#276 = DIRECTION ( 'NONE',  ( -1.000000000000000000, 0.000000000000000000, 0.000000000000000000 ) ) ;
#277 = EDGE_LOOP ( 'NONE', ( #401, #463, #458, #27 ) ) ;
#278 = CARTESIAN_POINT ( 'NONE',  ( -39.41770500893907325, 20.00000000000000000, 39.51192318391672842 ) ) ;
#279 = EDGE_CURVE ( 'NONE', #398, #136, #195, .T. ) ;
#280 = VECTOR ( 'NONE', #382, 1000.000000000000000 ) ;
#281 = ORIENTED_EDGE ( 'NONE', *, *, #367, .F. ) ;
#282 = CARTESIAN_POINT ( 'NONE',  ( 0.000000000000000000, 20.00000000000000000, 0.000000000000000000 ) ) ;
#283 = VERTEX_POINT ( 'NONE', #297 ) ;
#284 = ADVANCED_FACE ( 'NONE', ( #439 ), #118, .T. ) ;
#285 = CARTESIAN_POINT ( 'NONE',  ( 2.582294991060919642, 20.00000000000000000, 39.51192318391672842 ) ) ;
#286 = CARTESIAN_POINT ( 'NONE',  ( -0.9213507211559002208, 20.00000000000000000, 72.67276598253647535 ) ) ;
#287 = CARTESIAN_POINT ( 'NONE',  ( 2.582294991060919642, 0.000000000000000000, 106.9619231839167242 ) ) ;
#288 = VECTOR ( 'NONE', #408, 1000.000000000000000 ) ;
#289 = VECTOR ( 'NONE', #23, 1000.000000000000000 ) ;
#290 = VERTEX_POINT ( 'NONE', #300 ) ;
#291 = SHAPE_DEFINITION_REPRESENTATION ( #149, #155 ) ;
#292 = DIRECTION ( 'NONE',  ( -0.000000000000000000, 1.000000000000000000, -0.000000000000000000 ) ) ;
#293 = LINE ( 'NONE', #29, #30 ) ;
#294 = FACE_OUTER_BOUND ( 'NONE', #392, .T. ) ;
#295 = ADVANCED_FACE ( 'NONE', ( #369 ), #412, .F. ) ;
#296 = DIRECTION ( 'NONE',  ( -0.000000000000000000, -1.000000000000000000, -0.000000000000000000 ) ) ;
#297 = CARTESIAN_POINT ( 'NONE',  ( -0.9213507211559002208, 7.000000000000000888, 72.67276598253647535 ) ) ;
#298 = CARTESIAN_POINT ( 'NONE',  ( -3.417705008939078581, 20.00000000000000000, 70.51192318391672131 ) ) ;
#299 = DIRECTION ( 'NONE',  ( -0.000000000000000000, 1.000000000000000000, -0.000000000000000000 ) ) ;
#300 = CARTESIAN_POINT ( 'NONE',  ( 2.582294991060919642, 20.00000000000000000, 106.9619231839167242 ) ) ;
#301 = VECTOR ( 'NONE', #455, 1000.000000000000000 ) ;
#302 = DIRECTION ( 'NONE',  ( -1.000000000000000000, -0.000000000000000000, -0.000000000000000000 ) ) ;
#303 = ORIENTED_EDGE ( 'NONE', *, *, #81, .F. ) ;
#304 = DIRECTION ( 'NONE',  ( 0.000000000000000000, 0.000000000000000000, 1.000000000000000000 ) ) ;
#305 = EDGE_CURVE ( 'NONE', #159, #58, #234, .T. ) ;
#306 = ORIENTED_EDGE ( 'NONE', *, *, #340, .T. ) ;
#307 = CARTESIAN_POINT ( 'NONE',  ( -0.9213507211558933374, 7.000000000000000888, 104.6727659825364753 ) ) ;
#308 = EDGE_LOOP ( 'NONE', ( #55, #167, #142, #57 ) ) ;
#309 = FACE_OUTER_BOUND ( 'NONE', #308, .T. ) ;
#310 = EDGE_LOOP ( 'NONE', ( #251, #53, #377, #130 ) ) ;
#311 = ORIENTED_EDGE ( 'NONE', *, *, #424, .F. ) ;
#312 = CARTESIAN_POINT ( 'NONE',  ( -33.41770500893908036, 20.00000000000000000, 70.51192318391672131 ) ) ;
#313 = EDGE_CURVE ( 'NONE', #352, #16, #445, .T. ) ;
#314 = ORIENTED_EDGE ( 'NONE', *, *, #448, .F. ) ;
#315 = PLANE ( 'NONE',  #430 ) ;
#316 = ORIENTED_EDGE ( 'NONE', *, *, #207, .F. ) ;
#317 = EDGE_CURVE ( 'NONE', #211, #221, #45, .T. ) ;
#318 = AXIS2_PLACEMENT_3D ( 'NONE', #447, #156, #15 ) ;
#319 = LINE ( 'NONE', #465, #51 ) ;
#320 =( LENGTH_UNIT ( ) NAMED_UNIT ( * ) SI_UNIT ( .MILLI., .METRE. ) );
#321 = PLANE ( 'NONE',  #329 ) ;
#322 = DIRECTION ( 'NONE',  ( 0.000000000000000000, -0.000000000000000000, 1.000000000000000000 ) ) ;
#323 = MECHANICAL_DESIGN_GEOMETRIC_PRESENTATION_REPRESENTATION (  '', ( #232 ), #215 ) ;
#324 = CARTESIAN_POINT ( 'NONE',  ( -39.41770500893907325, 20.00000000000000000, 106.9619231839167242 ) ) ;
#325 = DIRECTION ( 'NONE',  ( -1.000000000000000000, 0.000000000000000000, 0.000000000000000000 ) ) ;
#326 = EDGE_CURVE ( 'NONE', #221, #64, #190, .T. ) ;
#327 = DIRECTION ( 'NONE',  ( -0.000000000000000000, -1.000000000000000000, -0.000000000000000000 ) ) ;
#328 = CARTESIAN_POINT ( 'NONE',  ( -35.92135072115595307, 7.000000000000000888, 104.6727659825364753 ) ) ;
#329 = AXIS2_PLACEMENT_3D ( 'NONE', #427, #322, #111 ) ;
#330 = DIRECTION ( 'NONE',  ( -1.000000000000000000, -0.000000000000000000, -0.000000000000000000 ) ) ;
#331 = VECTOR ( 'NONE', #407, 1000.000000000000000 ) ;
#332 = DIRECTION ( 'NONE',  ( 0.000000000000000000, 0.000000000000000000, -1.000000000000000000 ) ) ;
#333 = CARTESIAN_POINT ( 'NONE',  ( -33.41770500893908036, 0.000000000000000000, 70.51192318391672131 ) ) ;
#334 = UNCERTAINTY_MEASURE_WITH_UNIT (LENGTH_MEASURE( 1.000000000000000082E-05 ), #11, 'distance_accuracy_value', 'NONE');
#335 = SURFACE_STYLE_FILL_AREA ( #264 ) ;
#336 = LINE ( 'NONE', #409, #223 ) ;
#337 = EDGE_LOOP ( 'NONE', ( #357, #421, #202, #250 ) ) ;
#338 = ORIENTED_EDGE ( 'NONE', *, *, #47, .T. ) ;
#339 = DIRECTION ( 'NONE',  ( 0.000000000000000000, -1.000000000000000000, 0.000000000000000000 ) ) ;
#340 = EDGE_CURVE ( 'NONE', #90, #352, #41, .T. ) ;
#341 = EDGE_LOOP ( 'NONE', ( #383, #204, #179, #433 ) ) ;
#342 = DIRECTION ( 'NONE',  ( 0.000000000000000000, 0.000000000000000000, -1.000000000000000000 ) ) ;
#343 = ORIENTED_EDGE ( 'NONE', *, *, #177, .F. ) ;
#344 = ORIENTED_EDGE ( 'NONE', *, *, #273, .F. ) ;
#345 = FACE_OUTER_BOUND ( 'NONE', #391, .T. ) ;
#346 = ORIENTED_EDGE ( 'NONE', *, *, #78, .T. ) ;
#347 = VECTOR ( 'NONE', #276, 1000.000000000000000 ) ;
#348 = ORIENTED_EDGE ( 'NONE', *, *, #317, .T. ) ;
#349 = EDGE_CURVE ( 'NONE', #283, #449, #336, .T. ) ;
#350 = ORIENTED_EDGE ( 'NONE', *, *, #63, .T. ) ;
#351 = FACE_OUTER_BOUND ( 'NONE', #248, .T. ) ;
#352 = VERTEX_POINT ( 'NONE', #442 ) ;
#353 = DIRECTION ( 'NONE',  ( -0.000000000000000000, -1.000000000000000000, -0.000000000000000000 ) ) ;
#354 = MANIFOLD_SOLID_BREP ( 'Cut-Extrude3', #13 ) ;
#355 = ORIENTED_EDGE ( 'NONE', *, *, #273, .T. ) ;
#356 = CARTESIAN_POINT ( 'NONE',  ( -3.417705008939078581, 20.00000000000000000, 70.51192318391672131 ) ) ;
#357 = ORIENTED_EDGE ( 'NONE', *, *, #424, .T. ) ;
#358 = VECTOR ( 'NONE', #154, 1000.000000000000000 ) ;
#359 = VERTEX_POINT ( 'NONE', #420 ) ;
#360 = PLANE ( 'NONE',  #402 ) ;
#361 = ADVANCED_FACE ( 'NONE', ( #345 ), #315, .T. ) ;
#362 = ORIENTED_EDGE ( 'NONE', *, *, #367, .T. ) ;
#363 = CARTESIAN_POINT ( 'NONE',  ( -35.92135072115595307, 7.000000000000000888, 104.6727659825364753 ) ) ;
#364 = ORIENTED_EDGE ( 'NONE', *, *, #461, .T. ) ;
#365 = ADVANCED_FACE ( 'NONE', ( #173, #129, #242 ), #418, .F. ) ;
#366 = CARTESIAN_POINT ( 'NONE',  ( -35.92135072115596017, 7.000000000000000888, 72.67276598253647535 ) ) ;
#367 = EDGE_CURVE ( 'NONE', #16, #419, #94, .T. ) ;
#368 = CARTESIAN_POINT ( 'NONE',  ( -39.41770500893907325, 0.000000000000000000, 39.51192318391672842 ) ) ;
#369 = FACE_OUTER_BOUND ( 'NONE', #213, .T. ) ;
#370 = CARTESIAN_POINT ( 'NONE',  ( -39.41770500893907325, 20.00000000000000000, 39.51192318391672842 ) ) ;
#371 = DIRECTION ( 'NONE',  ( 0.000000000000000000, 0.000000000000000000, -1.000000000000000000 ) ) ;
#372 = CARTESIAN_POINT ( 'NONE',  ( -3.417705008939078581, 0.000000000000000000, 70.51192318391672131 ) ) ;
#373 = ORIENTED_EDGE ( 'NONE', *, *, #405, .F. ) ;
#374 = VECTOR ( 'NONE', #225, 1000.000000000000000 ) ;
#375 = CARTESIAN_POINT ( 'NONE',  ( -3.417705008939078581, 0.000000000000000000, 45.51192318391672131 ) ) ;
#376 = AXIS2_PLACEMENT_3D ( 'NONE', #209, #342, #164 ) ;
#377 = ORIENTED_EDGE ( 'NONE', *, *, #113, .T. ) ;
#378 = ORIENTED_EDGE ( 'NONE', *, *, #124, .F. ) ;
#379 = ADVANCED_FACE ( 'NONE', ( #240, #54 ), #97, .T. ) ;
#380 = ORIENTED_EDGE ( 'NONE', *, *, #432, .T. ) ;
#381 = ORIENTED_EDGE ( 'NONE', *, *, #132, .F. ) ;
#382 = DIRECTION ( 'NONE',  ( 1.000000000000000000, 0.000000000000000000, 0.000000000000000000 ) ) ;
#383 = ORIENTED_EDGE ( 'NONE', *, *, #81, .T. ) ;
#384 = VERTEX_POINT ( 'NONE', #92 ) ;
#385 = EDGE_CURVE ( 'NONE', #398, #90, #56, .T. ) ;
#386 = EDGE_LOOP ( 'NONE', ( #346, #456, #24, #199 ) ) ;
#387 = DIRECTION ( 'NONE',  ( 0.000000000000000000, -1.000000000000000000, 0.000000000000000000 ) ) ;
#388 = VECTOR ( 'NONE', #178, 1000.000000000000000 ) ;
#389 = ORIENTED_EDGE ( 'NONE', *, *, #279, .F. ) ;
#390 = DIRECTION ( 'NONE',  ( 0.000000000000000000, 0.000000000000000000, 1.000000000000000000 ) ) ;
#391 = EDGE_LOOP ( 'NONE', ( #270, #172, #380, #133 ) ) ;
#392 = EDGE_LOOP ( 'NONE', ( #208, #378, #102, #125 ) ) ;
#393 = DIRECTION ( 'NONE',  ( -1.000000000000000000, -0.000000000000000000, -0.000000000000000000 ) ) ;
#394 = CARTESIAN_POINT ( 'NONE',  ( 0.000000000000000000, 0.000000000000000000, 0.000000000000000000 ) ) ;
#395 = VECTOR ( 'NONE', #292, 1000.000000000000000 ) ;
#396 = ADVANCED_FACE ( 'NONE', ( #271 ), #127, .F. ) ;
#397 = AXIS2_PLACEMENT_3D ( 'NONE', #10, #371, #48 ) ;
#398 = VERTEX_POINT ( 'NONE', #171 ) ;
#399 = LINE ( 'NONE', #219, #206 ) ;
#400 = CARTESIAN_POINT ( 'NONE',  ( -35.92135072115596017, 20.00000000000000000, 72.67276598253647535 ) ) ;
#401 = ORIENTED_EDGE ( 'NONE', *, *, #313, .F. ) ;
#402 = AXIS2_PLACEMENT_3D ( 'NONE', #356, #325, #143 ) ;
#403 =( GEOMETRIC_REPRESENTATION_CONTEXT ( 3 ) GLOBAL_UNCERTAINTY_ASSIGNED_CONTEXT ( ( #170 ) ) GLOBAL_UNIT_ASSIGNED_CONTEXT ( ( #320, #217, #435 ) ) REPRESENTATION_CONTEXT ( 'NONE', 'WORKASPACE' ) );
#404 = CARTESIAN_POINT ( 'NONE',  ( -35.92135072115596017, 7.000000000000000888, 72.67276598253647535 ) ) ;
#405 = EDGE_CURVE ( 'NONE', #359, #16, #65, .T. ) ;
#406 = DIRECTION ( 'NONE',  ( 2.168404344971008868E-16, 0.000000000000000000, 1.000000000000000000 ) ) ;
#407 = DIRECTION ( 'NONE',  ( -0.000000000000000000, -0.000000000000000000, 1.000000000000000000 ) ) ;
#408 = DIRECTION ( 'NONE',  ( 0.000000000000000000, 0.000000000000000000, -1.000000000000000000 ) ) ;
#409 = CARTESIAN_POINT ( 'NONE',  ( -0.9213507211559002208, 7.000000000000000888, 72.67276598253647535 ) ) ;
#410 = VECTOR ( 'NONE', #440, 1000.000000000000000 ) ;
#411 = CARTESIAN_POINT ( 'NONE',  ( -33.41770500893908036, 20.00000000000000000, 45.51192318391672131 ) ) ;
#412 = PLANE ( 'NONE',  #3 ) ;
#413 = ADVANCED_FACE ( 'NONE', ( #309 ), #416, .F. ) ;
#414 = CARTESIAN_POINT ( 'NONE',  ( -39.41770500893907325, 20.00000000000000000, 78.51192318391672131 ) ) ;
#415 = VERTEX_POINT ( 'NONE', #307 ) ;
#416 = PLANE ( 'NONE',  #376 ) ;
#417 = ORIENTED_EDGE ( 'NONE', *, *, #279, .T. ) ;
#418 = PLANE ( 'NONE',  #116 ) ;
#419 = VERTEX_POINT ( 'NONE', #453 ) ;
#420 = CARTESIAN_POINT ( 'NONE',  ( -3.417705008939078581, 20.00000000000000000, 45.51192318391672131 ) ) ;
#421 = ORIENTED_EDGE ( 'NONE', *, *, #461, .F. ) ;
#422 = EDGE_LOOP ( 'NONE', ( #95, #21, #61, #338 ) ) ;
#423 = ORIENTED_EDGE ( 'NONE', *, *, #317, .F. ) ;
#424 = EDGE_CURVE ( 'NONE', #239, #384, #274, .T. ) ;
#425 = LINE ( 'NONE', #218, #109 ) ;
#426 = EDGE_CURVE ( 'NONE', #136, #352, #244, .T. ) ;
#427 = CARTESIAN_POINT ( 'NONE',  ( -3.417705008939078581, 20.00000000000000000, 45.51192318391672131 ) ) ;
#428 = DIRECTION ( 'NONE',  ( 1.000000000000000000, -0.000000000000000000, -0.000000000000000000 ) ) ;
#429 = VECTOR ( 'NONE', #187, 1000.000000000000000 ) ;
#430 = AXIS2_PLACEMENT_3D ( 'NONE', #237, #160, #138 ) ;
#431 = CARTESIAN_POINT ( 'NONE',  ( -35.92135072115596017, 20.00000000000000000, 72.67276598253647535 ) ) ;
#432 = EDGE_CURVE ( 'NONE', #25, #398, #205, .T. ) ;
#433 = ORIENTED_EDGE ( 'NONE', *, *, #349, .T. ) ;
#434 = LINE ( 'NONE', #176, #50 ) ;
#435 =( NAMED_UNIT ( * ) SI_UNIT ( $, .STERADIAN. ) SOLID_ANGLE_UNIT ( ) );
#436 = DIRECTION ( 'NONE',  ( 2.168404344971008868E-16, 0.000000000000000000, 1.000000000000000000 ) ) ;
#437 = AXIS2_PLACEMENT_3D ( 'NONE', #278, #304, #450 ) ;
#438 = LINE ( 'NONE', #77, #182 ) ;
#439 = FACE_OUTER_BOUND ( 'NONE', #39, .T. ) ;
#440 = DIRECTION ( 'NONE',  ( -0.000000000000000000, 1.000000000000000000, -0.000000000000000000 ) ) ;
#441 = ADVANCED_FACE ( 'NONE', ( #351 ), #131, .F. ) ;
#442 = CARTESIAN_POINT ( 'NONE',  ( -3.417705008939078581, 0.000000000000000000, 70.51192318391672131 ) ) ;
#443 = PLANE ( 'NONE',  #36 ) ;
#444 = AXIS2_PLACEMENT_3D ( 'NONE', #265, #267, #235 ) ;
#445 = LINE ( 'NONE', #372, #260 ) ;
#446 = EDGE_CURVE ( 'NONE', #58, #290, #103, .T. ) ;
#447 = CARTESIAN_POINT ( 'NONE',  ( -35.92135072115596017, 7.000000000000000888, 72.67276598253647535 ) ) ;
#448 = EDGE_CURVE ( 'NONE', #415, #283, #106, .T. ) ;
#449 = VERTEX_POINT ( 'NONE', #286 ) ;
#450 = DIRECTION ( 'NONE',  ( 1.000000000000000000, 0.000000000000000000, -0.000000000000000000 ) ) ;
#451 = ORIENTED_EDGE ( 'NONE', *, *, #132, .T. ) ;
#452 = PRESENTATION_LAYER_ASSIGNMENT (  '', '', ( #232 ) ) ;
#453 = CARTESIAN_POINT ( 'NONE',  ( -33.41770500893908036, 0.000000000000000000, 45.51192318391672131 ) ) ;
#454 = ORIENTED_EDGE ( 'NONE', *, *, #35, .F. ) ;
#455 = DIRECTION ( 'NONE',  ( -0.000000000000000000, -1.000000000000000000, -0.000000000000000000 ) ) ;
#456 = ORIENTED_EDGE ( 'NONE', *, *, #464, .T. ) ;
#457 =( NAMED_UNIT ( * ) PLANE_ANGLE_UNIT ( ) SI_UNIT ( $, .RADIAN. ) );
#458 = ORIENTED_EDGE ( 'NONE', *, *, #177, .T. ) ;
#459 = VECTOR ( 'NONE', #32, 1000.000000000000000 ) ;
#460 = VECTOR ( 'NONE', #302, 1000.000000000000000 ) ;
#461 = EDGE_CURVE ( 'NONE', #415, #384, #38, .T. ) ;
#462 = PLANE ( 'NONE',  #197 ) ;
#463 = ORIENTED_EDGE ( 'NONE', *, *, #426, .F. ) ;
#464 = EDGE_CURVE ( 'NONE', #169, #415, #293, .T. ) ;
#465 = CARTESIAN_POINT ( 'NONE',  ( 2.582294991060919642, 20.00000000000000000, 39.51192318391672842 ) ) ;
ENDSEC;
END-ISO-10303-21;
