ISO-10303-21;
HEADER;
FILE_DESCRIPTION (( 'STEP AP214' ),
    '1' );
FILE_NAME ('connecting rod 3 small.step',
    '2026-09-17T06:59:38',
    ( '' ),
    ( '' ),
    'SwSTEP 2.0',
    'SolidWorks 2023',
    '' );
FILE_SCHEMA (( 'AUTOMOTIVE_DESIGN' ));
ENDSEC;

DATA;
#1 = CARTESIAN_POINT ( 'NONE',  ( -75.54767520288476135, 20.49264576559323103, 39.92984109104386903 ) ) ;
#2 = AXIS2_PLACEMENT_3D ( 'NONE', #203, #155, #109 ) ;
#3 = CARTESIAN_POINT ( 'NONE',  ( -75.54767994694627475, 20.49373890735023451, 39.92984109104386903 ) ) ;
#4 = CARTESIAN_POINT ( 'NONE',  ( -76.28279291522912331, 21.78666363603161926, 37.75544336934976286 ) ) ;
#5 = CARTESIAN_POINT ( 'NONE',  ( -76.61313143851182872, 19.05121351903767746, 38.72443592857346317 ) ) ;
#6 = PRODUCT ( 'connecting rod 3 small', 'connecting rod 3 small', '', ( #259 ) ) ;
#7 = CARTESIAN_POINT ( 'NONE',  ( -75.64329115564541439, 21.02400503406536103, 37.09542338029257991 ) ) ;
#8 = AXIS2_PLACEMENT_3D ( 'NONE', #242, #33, #96 ) ;
#9 =( NAMED_UNIT ( * ) PLANE_ANGLE_UNIT ( ) SI_UNIT ( $, .RADIAN. ) );
#10 = ADVANCED_FACE ( 'NONE', ( #58 ), #281, .T. ) ;
#11 = EDGE_LOOP ( 'NONE', ( #119, #222, #126, #121, #152, #39, #285, #238 ) ) ;
#12 = CARTESIAN_POINT ( 'NONE',  ( -75.72216024196495709, 19.77793555114071111, 37.18270536698375395 ) ) ;
#13 = DIRECTION ( 'NONE',  ( -0.000000000000000000, -0.000000000000000000, -1.000000000000000000 ) ) ;
#14 = VECTOR ( 'NONE', #148, 1000.000000000000000 ) ;
#15 = VERTEX_POINT ( 'NONE', #53 ) ;
#16 = CARTESIAN_POINT ( 'NONE',  ( -67.11935075681036267, 20.49373890735023451, 38.46487538022313402 ) ) ;
#17 = ORIENTED_EDGE ( 'NONE', *, *, #128, .F. ) ;
#18 = DIRECTION ( 'NONE',  ( 1.000000000000000000, 0.000000000000000000, 0.000000000000000000 ) ) ;
#19 = CARTESIAN_POINT ( 'NONE',  ( -75.60874770802234934, 20.92438246168407545, 37.06050236019231647 ) ) ;
#20 = DIRECTION ( 'NONE',  ( 0.000000000000000000, 0.000000000000000000, 1.000000000000000000 ) ) ;
#21 =( GEOMETRIC_REPRESENTATION_CONTEXT ( 3 ) GLOBAL_UNCERTAINTY_ASSIGNED_CONTEXT ( ( #263 ) ) GLOBAL_UNIT_ASSIGNED_CONTEXT ( ( #176, #41, #98 ) ) REPRESENTATION_CONTEXT ( 'NONE', 'WORKASPACE' ) );
#22 = CARTESIAN_POINT ( 'NONE',  ( -76.68860480654748812, 21.94383524433573385, 38.25084128986093646 ) ) ;
#23 = CARTESIAN_POINT ( 'NONE',  ( -76.64053544298322151, 19.04337475255773882, 38.67727009291231610 ) ) ;
#24 = DIRECTION ( 'NONE',  ( -0.000000000000000000, -0.000000000000000000, -1.000000000000000000 ) ) ;
#25 = EDGE_CURVE ( 'NONE', #103, #169, #117, .T. ) ;
#26 = CARTESIAN_POINT ( 'NONE',  ( 0.000000000000000000, 0.000000000000000000, 0.000000000000000000 ) ) ;
#27 = B_SPLINE_CURVE_WITH_KNOTS ( 'NONE', 3,
 ( #82, #173, #283, #38, #270 ),
 .UNSPECIFIED., .F., .F.,
 ( 4, 1, 4 ),
 ( 0.005290186018421461078, 0.005293455695030256300, 0.005296725371639052389 ),
 .UNSPECIFIED. ) ;
#28 = EDGE_CURVE ( 'NONE', #34, #61, #179, .T. ) ;
#29 = DIRECTION ( 'NONE',  ( 0.000000000000000000, 0.000000000000000000, 1.000000000000000000 ) ) ;
#30 = ORIENTED_EDGE ( 'NONE', *, *, #71, .F. ) ;
#31 = VERTEX_POINT ( 'NONE', #275 ) ;
#32 = DIRECTION ( 'NONE',  ( -1.000000000000000000, 0.000000000000000000, 0.000000000000000000 ) ) ;
#33 = DIRECTION ( 'NONE',  ( 0.000000000000000000, 0.000000000000000000, 1.000000000000000000 ) ) ;
#34 = VERTEX_POINT ( 'NONE', #212 ) ;
#35 = FILL_AREA_STYLE ('',( #142 ) ) ;
#36 = AXIS2_PLACEMENT_3D ( 'NONE', #120, #32, #101 ) ;
#37 = EDGE_CURVE ( 'NONE', #61, #265, #94, .T. ) ;
#38 = CARTESIAN_POINT ( 'NONE',  ( -75.54766582148018017, 20.48831427596744348, 36.99991931103445353 ) ) ;
#39 = ORIENTED_EDGE ( 'NONE', *, *, #71, .T. ) ;
#40 = FACE_OUTER_BOUND ( 'NONE', #260, .T. ) ;
#41 =( NAMED_UNIT ( * ) PLANE_ANGLE_UNIT ( ) SI_UNIT ( $, .RADIAN. ) );
#42 = FACE_OUTER_BOUND ( 'NONE', #55, .T. ) ;
#43 = CARTESIAN_POINT ( 'NONE',  ( -76.69757434585937972, 19.02865585390175696, 38.41334991108231378 ) ) ;
#44 = CARTESIAN_POINT ( 'NONE',  ( -75.89280879733270524, 21.44910152146381677, 39.57953232001455035 ) ) ;
#45 = CARTESIAN_POINT ( 'NONE',  ( -77.04766582148015175, 20.48722920698391192, 40.00000000000000000 ) ) ;
#46 = CARTESIAN_POINT ( 'NONE',  ( -75.54766699798838658, 20.48939868743017456, 39.92983506345469635 ) ) ;
#47 = PRODUCT_DEFINITION ( 'UNKNOWN', '', #191, #165 ) ;
#48 = CYLINDRICAL_SURFACE ( 'NONE', #138, 1.500000000000001332 ) ;
#49 = DIRECTION ( 'NONE',  ( 0.000000000000000000, 0.000000000000000000, 1.000000000000000000 ) ) ;
#50 = AXIS2_PLACEMENT_3D ( 'NONE', #170, #269, #127 ) ;
#51 = APPLICATION_PROTOCOL_DEFINITION ( 'draft international standard', 'automotive_design', 1998, #52 ) ;
#52 = APPLICATION_CONTEXT ( 'automotive_design' ) ;
#53 = CARTESIAN_POINT ( 'NONE',  ( -75.54767994694627475, 20.49373890735023451, 39.92984109104386903 ) ) ;
#54 = DIRECTION ( 'NONE',  ( 1.000000000000000000, 0.000000000000000000, 0.000000000000000000 ) ) ;
#55 = EDGE_LOOP ( 'NONE', ( #105, #66, #145, #76, #84, #249 ) ) ;
#56 = AXIS2_PLACEMENT_3D ( 'NONE', #88, #256, #20 ) ;
#57 = CARTESIAN_POINT ( 'NONE',  ( -75.54766582148015175, 20.48722920698391192, 40.00000000000000000 ) ) ;
#58 = FACE_OUTER_BOUND ( 'NONE', #164, .T. ) ;
#59 = ORIENTED_EDGE ( 'NONE', *, *, #171, .F. ) ;
#60 = DIRECTION ( 'NONE',  ( 0.000000000000000000, 0.000000000000000000, 1.000000000000000000 ) ) ;
#61 = VERTEX_POINT ( 'NONE', #192 ) ;
#62 = EDGE_CURVE ( 'NONE', #175, #103, #27, .T. ) ;
#63 = CARTESIAN_POINT ( 'NONE',  ( -67.11935075681036267, 20.49373890735023451, 38.46487538022313402 ) ) ;
#64 = ORIENTED_EDGE ( 'NONE', *, *, #150, .F. ) ;
#65 = FACE_OUTER_BOUND ( 'NONE', #247, .T. ) ;
#66 = ORIENTED_EDGE ( 'NONE', *, *, #144, .T. ) ;
#67 = DIRECTION ( 'NONE',  ( -1.000000000000000000, 0.000000000000000000, 0.000000000000000000 ) ) ;
#68 = PLANE ( 'NONE',  #2 ) ;
#69 = B_SPLINE_CURVE_WITH_KNOTS ( 'NONE', 3,
 ( #240, #177, #46, #231, #1, #271 ),
 .UNSPECIFIED., .F., .F.,
 ( 4, 2, 4 ),
 ( 0.01053031382833816490, 0.01053353683200903765, 0.01053675983567990866 ),
 .UNSPECIFIED. ) ;
#70 = CARTESIAN_POINT ( 'NONE',  ( -76.69406596006804477, 21.94515599614625145, 38.66989333792543704 ) ) ;
#71 = EDGE_CURVE ( 'NONE', #103, #31, #286, .T. ) ;
#72 = CARTESIAN_POINT ( 'NONE',  ( -67.11935075681036267, 20.49373890735023451, 39.92984109104386903 ) ) ;
#73 = CARTESIAN_POINT ( 'NONE',  ( -78.54766582148015175, 20.48722920698391192, 19.35705671977072484 ) ) ;
#74 = AXIS2_PLACEMENT_3D ( 'NONE', #16, #104, #287 ) ;
#75 =( LENGTH_UNIT ( ) NAMED_UNIT ( * ) SI_UNIT ( .MILLI., .METRE. ) );
#76 = ORIENTED_EDGE ( 'NONE', *, *, #196, .F. ) ;
#77 = PRESENTATION_STYLE_ASSIGNMENT (( #85 ) ) ;
#78 = ORIENTED_EDGE ( 'NONE', *, *, #144, .F. ) ;
#79 = LINE ( 'NONE', #226, #14 ) ;
#80 = CARTESIAN_POINT ( 'NONE',  ( -77.04766582148015175, 20.48722920698391192, 40.00000000000000000 ) ) ;
#81 = ADVANCED_FACE ( 'NONE', ( #40 ), #166, .T. ) ;
#82 = CARTESIAN_POINT ( 'NONE',  ( -75.54767994694627475, 20.49373890735023451, 36.99990966940239900 ) ) ;
#83 = LINE ( 'NONE', #57, #221 ) ;
#84 = ORIENTED_EDGE ( 'NONE', *, *, #25, .F. ) ;
#85 = SURFACE_STYLE_USAGE ( .BOTH. , #288 ) ;
#86 = CARTESIAN_POINT ( 'NONE',  ( -75.56104628662326661, 20.71463104315087733, 39.91714436502131491 ) ) ;
#87 = VECTOR ( 'NONE', #198, 1000.000000000000000 ) ;
#88 = CARTESIAN_POINT ( 'NONE',  ( -67.11935075681036267, 20.49373890735023451, 38.46487538022313402 ) ) ;
#89 = CARTESIAN_POINT ( 'NONE',  ( -76.69656835672505224, 19.02889768162137329, 38.52287030135661183 ) ) ;
#90 = EDGE_CURVE ( 'NONE', #197, #195, #172, .T. ) ;
#91 = CARTESIAN_POINT ( 'NONE',  ( -76.14158940348181659, 21.69542643616473043, 37.60810322517981064 ) ) ;
#92 = CARTESIAN_POINT ( 'NONE',  ( -75.56106967767034632, 20.71443002243526266, 37.01263129536608432 ) ) ;
#93 = VECTOR ( 'NONE', #13, 1000.000000000000000 ) ;
#94 = LINE ( 'NONE', #140, #213 ) ;
#95 = APPLICATION_CONTEXT ( 'automotive_design' ) ;
#96 = DIRECTION ( 'NONE',  ( 1.000000000000000000, 0.000000000000000000, -0.000000000000000000 ) ) ;
#97 = ORIENTED_EDGE ( 'NONE', *, *, #258, .F. ) ;
#98 =( NAMED_UNIT ( * ) SI_UNIT ( $, .STERADIAN. ) SOLID_ANGLE_UNIT ( ) );
#99 = CARTESIAN_POINT ( 'NONE',  ( -75.93826035818123898, 19.47396938083991813, 37.40932630930804947 ) ) ;
#100 = AXIS2_PLACEMENT_3D ( 'NONE', #264, #60, #18 ) ;
#101 = DIRECTION ( 'NONE',  ( 0.000000000000000000, 0.000000000000000000, 1.000000000000000000 ) ) ;
#102 = CARTESIAN_POINT ( 'NONE',  ( -77.04766582148015175, 20.48722920698391192, 40.00000000000000000 ) ) ;
#103 = VERTEX_POINT ( 'NONE', #189 ) ;
#104 = DIRECTION ( 'NONE',  ( -1.000000000000000000, 0.000000000000000000, 0.000000000000000000 ) ) ;
#105 = ORIENTED_EDGE ( 'NONE', *, *, #137, .F. ) ;
#106 = CIRCLE ( 'NONE', #122, 1.500000000000001332 ) ;
#107 = CARTESIAN_POINT ( 'NONE',  ( -75.54766582148015175, 20.48722920698391192, 39.92982662776744718 ) ) ;
#108 = DIRECTION ( 'NONE',  ( -0.000000000000000000, -0.000000000000000000, -1.000000000000000000 ) ) ;
#109 = DIRECTION ( 'NONE',  ( 1.000000000000000000, 0.000000000000000000, -0.000000000000000000 ) ) ;
#110 = CARTESIAN_POINT ( 'NONE',  ( -75.95341246127341606, 21.51703559590457004, 39.51711659554211309 ) ) ;
#111 = EDGE_CURVE ( 'NONE', #34, #169, #83, .T. ) ;
#112 = CYLINDRICAL_SURFACE ( 'NONE', #280, 1.500000000000001332 ) ;
#113 = CARTESIAN_POINT ( 'NONE',  ( -75.78143458671907240, 21.29689059034188148, 39.69374689180552451 ) ) ;
#114 = APPLICATION_PROTOCOL_DEFINITION ( 'draft international standard', 'automotive_design', 1998, #95 ) ;
#115 = CIRCLE ( 'NONE', #267, 1.500000000000001332 ) ;
#116 = CARTESIAN_POINT ( 'NONE',  ( -75.87973893086511623, 19.54137169556026876, 37.34768552467885172 ) ) ;
#117 = B_SPLINE_CURVE_WITH_KNOTS ( 'NONE', 3,
 ( #217, #214, #136, #237, #215, #12, #194, #116, #99, #190, #157, #253, #181, #276, #135, #228, #178, #251, #43, #89, #183, #23, #5, #227, #289, #143, #241, #284, #220, #124, #209, #193 ),
 .UNSPECIFIED., .F., .F.,
 ( 4, 2, 2, 2, 2, 2, 2, 2, 2, 2, 2, 2, 2, 2, 2, 4 ),
 ( 0.005296725371639052389, 0.005623824650182751746, 0.005950923928726451970, 0.006278023207270151326, 0.006605122485813850683, 0.006932221764357550907, 0.007259321042901250264, 0.007586420321444950488, 0.007749969960716800166, 0.007913519599988649844, 0.008077069239260499522, 0.008240618878532349201, 0.008567718157076045088, 0.009221916714163417780, 0.009876115271250790473, 0.01053031382833816490 ),
 .UNSPECIFIED. ) ;
#118 = ADVANCED_FACE ( 'NONE', ( #65 ), #154, .F. ) ;
#119 = ORIENTED_EDGE ( 'NONE', *, *, #28, .F. ) ;
#120 = CARTESIAN_POINT ( 'NONE',  ( -67.11935075681036267, 20.49373890735023451, 38.46487538022313402 ) ) ;
#121 = ORIENTED_EDGE ( 'NONE', *, *, #258, .T. ) ;
#122 = AXIS2_PLACEMENT_3D ( 'NONE', #146, #201, #244 ) ;
#123 = CARTESIAN_POINT ( 'NONE',  ( -75.54766582148015175, 20.48722920698391192, 40.00000000000000000 ) ) ;
#124 = CARTESIAN_POINT ( 'NONE',  ( -75.59821634893205555, 20.05230429766107392, 39.87622541970530676 ) ) ;
#125 = CARTESIAN_POINT ( 'NONE',  ( -67.11935075681036267, 20.49373890735023451, 36.99990966940239900 ) ) ;
#126 = ORIENTED_EDGE ( 'NONE', *, *, #196, .T. ) ;
#127 = DIRECTION ( 'NONE',  ( 0.000000000000000000, 0.000000000000000000, 1.000000000000000000 ) ) ;
#128 = EDGE_CURVE ( 'NONE', #197, #15, #79, .T. ) ;
#129 = CLOSED_SHELL ( 'NONE', ( #81, #254, #10, #274, #250, #118, #234 ) ) ;
#130 = FACE_OUTER_BOUND ( 'NONE', #199, .T. ) ;
#131 = CARTESIAN_POINT ( 'NONE',  ( -76.28670693476645681, 21.78903365665598457, 39.17022519740944375 ) ) ;
#132 = CARTESIAN_POINT ( 'NONE',  ( -76.74118887012467383, 21.95578470911372548, 38.57007044748060309 ) ) ;
#133 = FACE_OUTER_BOUND ( 'NONE', #11, .T. ) ;
#134 = COLOUR_RGB ( '',0.7921568627450980005, 0.8196078431372548767, 0.9333333333333333481 ) ;
#135 = CARTESIAN_POINT ( 'NONE',  ( -76.52772947153569305, 19.07886399730354299, 38.07389435092296281 ) ) ;
#136 = CARTESIAN_POINT ( 'NONE',  ( -75.55992359826153404, 20.26832104699271397, 37.01344187762823879 ) ) ;
#137 = EDGE_CURVE ( 'NONE', #195, #175, #168, .T. ) ;
#138 = AXIS2_PLACEMENT_3D ( 'NONE', #229, #108, #202 ) ;
#139 = ORIENTED_EDGE ( 'NONE', *, *, #28, .T. ) ;
#140 = CARTESIAN_POINT ( 'NONE',  ( -78.54766582148015175, 20.48722920698391192, 40.00000000000000000 ) ) ;
#141 = ORIENTED_EDGE ( 'NONE', *, *, #167, .T. ) ;
#142 = FILL_AREA_STYLE_COLOUR ( '', #134 ) ;
#143 = CARTESIAN_POINT ( 'NONE',  ( -76.25841544488048385, 19.20307550707878619, 39.17867357007722973 ) ) ;
#144 = EDGE_CURVE ( 'NONE', #195, #197, #147, .T. ) ;
#145 = ORIENTED_EDGE ( 'NONE', *, *, #128, .T. ) ;
#146 = CARTESIAN_POINT ( 'NONE',  ( -77.04766582148015175, 20.48722920698391192, 19.35705671977072484 ) ) ;
#147 = CIRCLE ( 'NONE', #74, 1.464965710820734124 ) ;
#148 = DIRECTION ( 'NONE',  ( -1.000000000000000000, 0.000000000000000000, 0.000000000000000000 ) ) ;
#149 = ORIENTED_EDGE ( 'NONE', *, *, #167, .F. ) ;
#150 = EDGE_CURVE ( 'NONE', #31, #265, #205, .T. ) ;
#151 = DIRECTION ( 'NONE',  ( 0.000000000000000000, 0.000000000000000000, 1.000000000000000000 ) ) ;
#152 = ORIENTED_EDGE ( 'NONE', *, *, #62, .T. ) ;
#153 = ORIENTED_EDGE ( 'NONE', *, *, #137, .T. ) ;
#154 = PLANE ( 'NONE',  #36 ) ;
#155 = DIRECTION ( 'NONE',  ( 0.000000000000000000, 0.000000000000000000, 1.000000000000000000 ) ) ;
#156 = CARTESIAN_POINT ( 'NONE',  ( -75.54816662355653989, 20.60588048066153988, 39.92984109104386192 ) ) ;
#157 = CARTESIAN_POINT ( 'NONE',  ( -76.12780613782827288, 19.29964140174698528, 37.61183052034929375 ) ) ;
#158 = CARTESIAN_POINT ( 'NONE',  ( -76.75754479530779406, 21.95890545371695168, 38.51517936459291747 ) ) ;
#159 = CARTESIAN_POINT ( 'NONE',  ( -76.65795113458736409, 21.93610252247723835, 38.20459413868923804 ) ) ;
#160 = FACE_OUTER_BOUND ( 'NONE', #268, .T. ) ;
#161 =( NAMED_UNIT ( * ) SI_UNIT ( $, .STERADIAN. ) SOLID_ANGLE_UNIT ( ) );
#162 = UNCERTAINTY_MEASURE_WITH_UNIT (LENGTH_MEASURE( 1.000000000000000082E-05 ), #75, 'distance_accuracy_value', 'NONE');
#163 = MECHANICAL_DESIGN_GEOMETRIC_PRESENTATION_REPRESENTATION (  '', ( #245 ), #21 ) ;
#164 = EDGE_LOOP ( 'NONE', ( #141, #139 ) ) ;
#165 = PRODUCT_DEFINITION_CONTEXT ( 'detailed design', #95, 'design' ) ;
#166 = CYLINDRICAL_SURFACE ( 'NONE', #50, 1.464965710820734124 ) ;
#167 = EDGE_CURVE ( 'NONE', #61, #34, #115, .T. ) ;
#168 = LINE ( 'NONE', #125, #87 ) ;
#169 = VERTEX_POINT ( 'NONE', #107 ) ;
#170 = CARTESIAN_POINT ( 'NONE',  ( -67.11935075681036267, 20.49373890735023451, 38.46487538022313402 ) ) ;
#171 = EDGE_CURVE ( 'NONE', #265, #31, #106, .T. ) ;
#172 = CIRCLE ( 'NONE', #200, 1.464965710820734124 ) ;
#173 = CARTESIAN_POINT ( 'NONE',  ( -75.54767523895139902, 20.49265407618564439, 36.99990966940239190 ) ) ;
#174 = PRODUCT_DEFINITION_SHAPE ( 'NONE', 'NONE',  #47 ) ;
#175 = VERTEX_POINT ( 'NONE', #262 ) ;
#176 =( LENGTH_UNIT ( ) NAMED_UNIT ( * ) SI_UNIT ( .MILLI., .METRE. ) );
#177 = CARTESIAN_POINT ( 'NONE',  ( -75.54766582148016596, 20.48831387730873743, 39.92983144764033909 ) ) ;
#178 = CARTESIAN_POINT ( 'NONE',  ( -76.64307060350986944, 19.04266660092341468, 38.25718505722032603 ) ) ;
#179 = CIRCLE ( 'NONE', #236, 1.500000000000001332 ) ;
#180 = CARTESIAN_POINT ( 'NONE',  ( -67.11935075681036267, 20.49373890735023451, 36.99990966940239900 ) ) ;
#181 = CARTESIAN_POINT ( 'NONE',  ( -76.32778159174091570, 19.16918709297952716, 37.83322800638562455 ) ) ;
#182 = CARTESIAN_POINT ( 'NONE',  ( -76.49717051234502208, 21.88468876909432481, 38.93250621279342738 ) ) ;
#183 = CARTESIAN_POINT ( 'NONE',  ( -76.68246994847221742, 19.03220247011638833, 38.57703124553152918 ) ) ;
#184 = CARTESIAN_POINT ( 'NONE',  ( -76.49207066070101746, 21.88265176551114166, 37.99132337054775377 ) ) ;
#185 = CARTESIAN_POINT ( 'NONE',  ( -75.54815602936419339, 20.60343933314756271, 36.99990966940240611 ) ) ;
#186 = PRESENTATION_LAYER_ASSIGNMENT (  '', '', ( #245 ) ) ;
#187 = MANIFOLD_SOLID_BREP ( 'Cut-Extrude3', #129 ) ;
#188 = DIRECTION ( 'NONE',  ( 1.000000000000000000, 0.000000000000000000, 0.000000000000000000 ) ) ;
#189 = CARTESIAN_POINT ( 'NONE',  ( -75.54766582148015175, 20.48722920698391192, 36.99992413267882085 ) ) ;
#190 = CARTESIAN_POINT ( 'NONE',  ( -76.06203490695047265, 19.35320643049383804, 37.54113331798681941 ) ) ;
#191 = PRODUCT_DEFINITION_FORMATION_WITH_SPECIFIED_SOURCE ( 'ANY', '', #6, .NOT_KNOWN. ) ;
#192 = CARTESIAN_POINT ( 'NONE',  ( -78.54766582148015175, 20.48722920698391192, 40.00000000000000000 ) ) ;
#193 = CARTESIAN_POINT ( 'NONE',  ( -75.54766582148015175, 20.48722920698391192, 39.92982662776744718 ) ) ;
#194 = CARTESIAN_POINT ( 'NONE',  ( -75.77155953673505451, 19.69334483015541082, 37.23423091466244728 ) ) ;
#195 = VERTEX_POINT ( 'NONE', #180 ) ;
#196 = EDGE_CURVE ( 'NONE', #169, #15, #69, .T. ) ;
#197 = VERTEX_POINT ( 'NONE', #72 ) ;
#198 = DIRECTION ( 'NONE',  ( -1.000000000000000000, 0.000000000000000000, 0.000000000000000000 ) ) ;
#199 = EDGE_LOOP ( 'NONE', ( #59, #64 ) ) ;
#200 = AXIS2_PLACEMENT_3D ( 'NONE', #63, #219, #224 ) ;
#201 = DIRECTION ( 'NONE',  ( 0.000000000000000000, 0.000000000000000000, 1.000000000000000000 ) ) ;
#202 = DIRECTION ( 'NONE',  ( -1.000000000000000000, 0.000000000000000000, 0.000000000000000000 ) ) ;
#203 = CARTESIAN_POINT ( 'NONE',  ( -78.54766582148015175, 25.58253486653672581, 19.35705671977072484 ) ) ;
#204 = ADVANCED_BREP_SHAPE_REPRESENTATION ( 'connecting rod 3 small', ( #187, #272 ), #210 ) ;
#205 = CIRCLE ( 'NONE', #100, 1.500000000000001332 ) ;
#206 = CARTESIAN_POINT ( 'NONE',  ( -76.14721184541416221, 21.69997365530312905, 39.31576602142114041 ) ) ;
#207 = CARTESIAN_POINT ( 'NONE',  ( -76.56197101571686403, 21.90798472492813787, 38.07222839173517315 ) ) ;
#208 = CARTESIAN_POINT ( 'NONE',  ( -75.77162832008754378, 21.30167027750218267, 37.22584467822185417 ) ) ;
#209 = CARTESIAN_POINT ( 'NONE',  ( -75.54766582148015175, 20.26706508870229229, 39.92884830002866892 ) ) ;
#210 =( GEOMETRIC_REPRESENTATION_CONTEXT ( 3 ) GLOBAL_UNCERTAINTY_ASSIGNED_CONTEXT ( ( #162 ) ) GLOBAL_UNIT_ASSIGNED_CONTEXT ( ( #75, #9, #161 ) ) REPRESENTATION_CONTEXT ( 'NONE', 'WORKASPACE' ) );
#211 = SHAPE_DEFINITION_REPRESENTATION ( #174, #204 ) ;
#212 = CARTESIAN_POINT ( 'NONE',  ( -75.54766582148015175, 20.48722920698391192, 40.00000000000000000 ) ) ;
#213 = VECTOR ( 'NONE', #246, 1000.000000000000000 ) ;
#214 = CARTESIAN_POINT ( 'NONE',  ( -75.54766582148016596, 20.37867863022997383, 37.00040649120813185 ) ) ;
#215 = CARTESIAN_POINT ( 'NONE',  ( -75.63951807063442345, 19.96074801706978263, 37.09657164987336841 ) ) ;
#216 = ORIENTED_EDGE ( 'NONE', *, *, #37, .T. ) ;
#217 = CARTESIAN_POINT ( 'NONE',  ( -75.54766582148015175, 20.48722920698391192, 36.99992413267882085 ) ) ;
#218 = ORIENTED_EDGE ( 'NONE', *, *, #171, .T. ) ;
#219 = DIRECTION ( 'NONE',  ( -1.000000000000000000, 0.000000000000000000, 0.000000000000000000 ) ) ;
#220 = CARTESIAN_POINT ( 'NONE',  ( -75.76297236376233002, 19.68746288491449192, 39.70450936823046817 ) ) ;
#221 = VECTOR ( 'NONE', #266, 1000.000000000000000 ) ;
#222 = ORIENTED_EDGE ( 'NONE', *, *, #111, .T. ) ;
#223 = SURFACE_STYLE_FILL_AREA ( #35 ) ;
#224 = DIRECTION ( 'NONE',  ( 0.000000000000000000, 0.000000000000000000, 1.000000000000000000 ) ) ;
#225 = ORIENTED_EDGE ( 'NONE', *, *, #25, .T. ) ;
#226 = CARTESIAN_POINT ( 'NONE',  ( -67.11935075681036267, 20.49373890735023451, 39.92984109104386903 ) ) ;
#227 = CARTESIAN_POINT ( 'NONE',  ( -76.52468452487799766, 19.07998533776937933, 38.85975756467914977 ) ) ;
#228 = CARTESIAN_POINT ( 'NONE',  ( -76.61602382644960585, 19.05034306637035257, 38.21014779879206458 ) ) ;
#229 = CARTESIAN_POINT ( 'NONE',  ( -77.04766582148015175, 20.48722920698391192, 40.00000000000000000 ) ) ;
#230 = PRODUCT_RELATED_PRODUCT_CATEGORY ( 'part', '', ( #6 ) ) ;
#231 = CARTESIAN_POINT ( 'NONE',  ( -75.54767170585867575, 20.49156858748023069, 39.92983988515645422 ) ) ;
#232 = CARTESIAN_POINT ( 'NONE',  ( -76.56823746063136582, 21.91009904781186535, 38.85003081526360802 ) ) ;
#233 = CARTESIAN_POINT ( 'NONE',  ( -76.75540903501671153, 21.95848280707859956, 38.40348476494555996 ) ) ;
#234 = ADVANCED_FACE ( 'NONE', ( #130 ), #68, .F. ) ;
#235 = CARTESIAN_POINT ( 'NONE',  ( -76.73738185001366219, 21.95499956284523435, 38.34951821712392928 ) ) ;
#236 = AXIS2_PLACEMENT_3D ( 'NONE', #80, #29, #188 ) ;
#237 = CARTESIAN_POINT ( 'NONE',  ( -75.60565832265935171, 20.06071768474474482, 37.06132094772105035 ) ) ;
#238 = ORIENTED_EDGE ( 'NONE', *, *, #37, .F. ) ;
#239 = ORIENTED_EDGE ( 'NONE', *, *, #90, .F. ) ;
#240 = CARTESIAN_POINT ( 'NONE',  ( -75.54766582148015175, 20.48722920698391192, 39.92982662776744718 ) ) ;
#241 = CARTESIAN_POINT ( 'NONE',  ( -76.12134100028799821, 19.29499033640409777, 39.32548647754006765 ) ) ;
#242 = CARTESIAN_POINT ( 'NONE',  ( -77.04766582148015175, 20.48722920698391192, 40.00000000000000000 ) ) ;
#243 = ORIENTED_EDGE ( 'NONE', *, *, #90, .T. ) ;
#244 = DIRECTION ( 'NONE',  ( 1.000000000000000000, 0.000000000000000000, 0.000000000000000000 ) ) ;
#245 = STYLED_ITEM ( 'NONE', ( #77 ), #187 ) ;
#246 = DIRECTION ( 'NONE',  ( -0.000000000000000000, -0.000000000000000000, -1.000000000000000000 ) ) ;
#247 = EDGE_LOOP ( 'NONE', ( #239, #78 ) ) ;
#248 = DIRECTION ( 'NONE',  ( 1.000000000000000000, 0.000000000000000000, 0.000000000000000000 ) ) ;
#249 = ORIENTED_EDGE ( 'NONE', *, *, #62, .F. ) ;
#250 = ADVANCED_FACE ( 'NONE', ( #42 ), #255, .T. ) ;
#251 = CARTESIAN_POINT ( 'NONE',  ( -76.68446561121893978, 19.03170730041606262, 38.35899956110785780 ) ) ;
#252 = CARTESIAN_POINT ( 'NONE',  ( -75.64431200248441201, 21.02664693081162284, 39.83329327862185210 ) ) ;
#253 = CARTESIAN_POINT ( 'NONE',  ( -76.26046963590212613, 19.20784310491504243, 37.75774995208140439 ) ) ;
#254 = ADVANCED_FACE ( 'NONE', ( #133 ), #112, .T. ) ;
#255 = CYLINDRICAL_SURFACE ( 'NONE', #56, 1.464965710820734124 ) ;
#256 = DIRECTION ( 'NONE',  ( -1.000000000000000000, 0.000000000000000000, 0.000000000000000000 ) ) ;
#257 = CARTESIAN_POINT ( 'NONE',  ( -75.73010943894041702, 21.21139672965961864, 39.74609579693746042 ) ) ;
#258 = EDGE_CURVE ( 'NONE', #15, #175, #282, .T. ) ;
#259 = PRODUCT_CONTEXT ( 'NONE', #52, 'mechanical' ) ;
#260 = EDGE_LOOP ( 'NONE', ( #243, #153, #97, #17 ) ) ;
#261 = ORIENTED_EDGE ( 'NONE', *, *, #111, .F. ) ;
#262 = CARTESIAN_POINT ( 'NONE',  ( -75.54767994694627475, 20.49373890735023451, 36.99990966940239900 ) ) ;
#263 = UNCERTAINTY_MEASURE_WITH_UNIT (LENGTH_MEASURE( 1.000000000000000082E-05 ), #176, 'distance_accuracy_value', 'NONE');
#264 = CARTESIAN_POINT ( 'NONE',  ( -77.04766582148015175, 20.48722920698391192, 19.35705671977072484 ) ) ;
#265 = VERTEX_POINT ( 'NONE', #73 ) ;
#266 = DIRECTION ( 'NONE',  ( -0.000000000000000000, -0.000000000000000000, -1.000000000000000000 ) ) ;
#267 = AXIS2_PLACEMENT_3D ( 'NONE', #102, #151, #248 ) ;
#268 = EDGE_LOOP ( 'NONE', ( #261, #149, #216, #218, #30, #225 ) ) ;
#269 = DIRECTION ( 'NONE',  ( -1.000000000000000000, 0.000000000000000000, 0.000000000000000000 ) ) ;
#270 = CARTESIAN_POINT ( 'NONE',  ( -75.54766582148015175, 20.48722920698391192, 36.99992413267882085 ) ) ;
#271 = CARTESIAN_POINT ( 'NONE',  ( -75.54767994694627475, 20.49373890735023451, 39.92984109104386903 ) ) ;
#272 = AXIS2_PLACEMENT_3D ( 'NONE', #26, #49, #54 ) ;
#273 = CARTESIAN_POINT ( 'NONE',  ( -75.60918610674454499, 20.92600631076712503, 39.86880680013242539 ) ) ;
#274 = ADVANCED_FACE ( 'NONE', ( #160 ), #48, .T. ) ;
#275 = CARTESIAN_POINT ( 'NONE',  ( -75.54766582148015175, 20.48722920698391192, 19.35705671977072484 ) ) ;
#276 = CARTESIAN_POINT ( 'NONE',  ( -76.46091277368495298, 19.10477154780607378, 37.99139297511234759 ) ) ;
#277 = CARTESIAN_POINT ( 'NONE',  ( -76.66395058900914705, 21.93769987357848805, 38.71622238652611259 ) ) ;
#278 = CARTESIAN_POINT ( 'NONE',  ( -75.88746962554392894, 21.45400726154868210, 37.34416304849349899 ) ) ;
#279 = CARTESIAN_POINT ( 'NONE',  ( -75.54767994694627475, 20.49373890735023451, 36.99990966940239900 ) ) ;
#280 = AXIS2_PLACEMENT_3D ( 'NONE', #45, #24, #67 ) ;
#281 = PLANE ( 'NONE',  #8 ) ;
#282 = B_SPLINE_CURVE_WITH_KNOTS ( 'NONE', 3,
 ( #3, #156, #86, #273, #252, #257, #113, #44, #110, #206, #131, #182, #232, #277, #70, #132, #158, #233, #235, #22, #159, #207, #184, #4, #91, #278, #208, #7, #19, #92, #185, #279 ),
 .UNSPECIFIED., .F., .F.,
 ( 4, 2, 2, 2, 2, 2, 2, 2, 2, 2, 2, 2, 2, 2, 2, 4 ),
 ( 0.000000000000000000, 0.0003306366261513611583, 0.0006612732523027223166, 0.0009919098784540833665, 0.001322546504605444633, 0.001983819756908148518, 0.002314456383059493305, 0.002479774696135153556, 0.002645093009210813806, 0.002810411322286474490, 0.002975729635362135174, 0.003306366261513457409, 0.003967639513816114891, 0.004628912766118771505, 0.004959549392270116291, 0.005290186018421461078 ),
 .UNSPECIFIED. ) ;
#283 = CARTESIAN_POINT ( 'NONE',  ( -75.54766817622673614, 20.49048429498558122, 36.99991207940527005 ) ) ;
#284 = CARTESIAN_POINT ( 'NONE',  ( -75.87577785741740399, 19.53528918861984209, 39.58693764847569696 ) ) ;
#285 = ORIENTED_EDGE ( 'NONE', *, *, #150, .T. ) ;
#286 = LINE ( 'NONE', #123, #93 ) ;
#287 = DIRECTION ( 'NONE',  ( 0.000000000000000000, 0.000000000000000000, 1.000000000000000000 ) ) ;
#288 = SURFACE_SIDE_STYLE ('',( #223 ) ) ;
#289 = CARTESIAN_POINT ( 'NONE',  ( -76.45834908399871210, 19.10585398518141531, 38.94152914385733055 ) ) ;
ENDSEC;
END-ISO-10303-21;
