ISO-10303-21;
HEADER;
FILE_DESCRIPTION (( 'STEP AP214' ),
    '1' );
FILE_NAME ('connecting rod 3.step',
    '2026-09-17T06:59:42',
    ( '' ),
    ( '' ),
    'SwSTEP 2.0',
    'SolidWorks 2023',
    '' );
FILE_SCHEMA (( 'AUTOMOTIVE_DESIGN' ));
ENDSEC;

DATA;
#1 = EDGE_LOOP ( 'NONE', ( #123, #101 ) ) ;
#2 = AXIS2_PLACEMENT_3D ( 'NONE', #228, #19, #234 ) ;
#3 = PRODUCT_CONTEXT ( 'NONE', #15, 'mechanical' ) ;
#4 = EDGE_LOOP ( 'NONE', ( #204, #90, #67, #215, #257, #59 ) ) ;
#5 = SURFACE_STYLE_FILL_AREA ( #92 ) ;
#6 = CARTESIAN_POINT ( 'NONE',  ( -76.68860480654748812, 21.94383524433573385, 38.25084128986093646 ) ) ;
#7 = CARTESIAN_POINT ( 'NONE',  ( -67.11935075681036267, 20.49373890735023451, 38.46487538022313402 ) ) ;
#8 = ADVANCED_FACE ( 'NONE', ( #258 ), #186, .T. ) ;
#9 = ORIENTED_EDGE ( 'NONE', *, *, #240, .F. ) ;
#10 = DIRECTION ( 'NONE',  ( -1.000000000000000000, 0.000000000000000000, 0.000000000000000000 ) ) ;
#11 = AXIS2_PLACEMENT_3D ( 'NONE', #112, #10, #34 ) ;
#12 = APPLICATION_CONTEXT ( 'automotive_design' ) ;
#13 = ORIENTED_EDGE ( 'NONE', *, *, #51, .F. ) ;
#14 = CARTESIAN_POINT ( 'NONE',  ( -67.11935075681036267, 20.49373890735023451, 38.46487538022313402 ) ) ;
#15 = APPLICATION_CONTEXT ( 'automotive_design' ) ;
#16 = EDGE_LOOP ( 'NONE', ( #242, #252, #226, #39, #9, #33 ) ) ;
#17 = ORIENTED_EDGE ( 'NONE', *, *, #63, .F. ) ;
#18 = CARTESIAN_POINT ( 'NONE',  ( -77.04766582148015175, 20.48722920698391192, 0.000000000000000000 ) ) ;
#19 = DIRECTION ( 'NONE',  ( 0.000000000000000000, 0.000000000000000000, 1.000000000000000000 ) ) ;
#20 = ADVANCED_FACE ( 'NONE', ( #163 ), #142, .T. ) ;
#21 = AXIS2_PLACEMENT_3D ( 'NONE', #207, #77, #283 ) ;
#22 = MECHANICAL_DESIGN_GEOMETRIC_PRESENTATION_REPRESENTATION (  '', ( #100 ), #225 ) ;
#23 = CARTESIAN_POINT ( 'NONE',  ( -76.68446561121893978, 19.03170730041606262, 38.35899956110785780 ) ) ;
#24 = CARTESIAN_POINT ( 'NONE',  ( -76.49207066070101746, 21.88265176551114166, 37.99132337054775377 ) ) ;
#25 = EDGE_CURVE ( 'NONE', #274, #41, #150, .T. ) ;
#26 = CARTESIAN_POINT ( 'NONE',  ( -76.12780613782827288, 19.29964140174698528, 37.61183052034929375 ) ) ;
#27 = VECTOR ( 'NONE', #169, 1000.000000000000000 ) ;
#28 = ORIENTED_EDGE ( 'NONE', *, *, #287, .F. ) ;
#29 = DIRECTION ( 'NONE',  ( 0.000000000000000000, 0.000000000000000000, 1.000000000000000000 ) ) ;
#30 = CARTESIAN_POINT ( 'NONE',  ( -76.66395058900914705, 21.93769987357848805, 38.71622238652611259 ) ) ;
#31 = CARTESIAN_POINT ( 'NONE',  ( -75.54767994694627475, 20.49373890735023451, 39.92984109104386903 ) ) ;
#32 = PRESENTATION_STYLE_ASSIGNMENT (( #75 ) ) ;
#33 = ORIENTED_EDGE ( 'NONE', *, *, #256, .T. ) ;
#34 = DIRECTION ( 'NONE',  ( 0.000000000000000000, 0.000000000000000000, 1.000000000000000000 ) ) ;
#35 = EDGE_CURVE ( 'NONE', #274, #262, #173, .T. ) ;
#36 = CARTESIAN_POINT ( 'NONE',  ( -75.54767994694627475, 20.49373890735023451, 36.99990966940239900 ) ) ;
#37 = CARTESIAN_POINT ( 'NONE',  ( -75.87577785741740399, 19.53528918861984209, 39.58693764847569696 ) ) ;
#38 = AXIS2_PLACEMENT_3D ( 'NONE', #195, #89, #272 ) ;
#39 = ORIENTED_EDGE ( 'NONE', *, *, #114, .T. ) ;
#40 = CARTESIAN_POINT ( 'NONE',  ( -75.56106967767034632, 20.71443002243526266, 37.01263129536608432 ) ) ;
#41 = VERTEX_POINT ( 'NONE', #203 ) ;
#42 = CYLINDRICAL_SURFACE ( 'NONE', #243, 1.500000000000001332 ) ;
#43 = CARTESIAN_POINT ( 'NONE',  ( -75.60565832265935171, 20.06071768474474482, 37.06132094772105035 ) ) ;
#44 = DIRECTION ( 'NONE',  ( -0.000000000000000000, -0.000000000000000000, -1.000000000000000000 ) ) ;
#45 = CARTESIAN_POINT ( 'NONE',  ( -76.52772947153569305, 19.07886399730354299, 38.07389435092296281 ) ) ;
#46 = DIRECTION ( 'NONE',  ( -1.000000000000000000, 0.000000000000000000, 0.000000000000000000 ) ) ;
#47 = CARTESIAN_POINT ( 'NONE',  ( -76.06203490695047265, 19.35320643049383804, 37.54113331798681941 ) ) ;
#48 = VECTOR ( 'NONE', #44, 1000.000000000000000 ) ;
#49 = VERTEX_POINT ( 'NONE', #96 ) ;
#50 = CARTESIAN_POINT ( 'NONE',  ( -76.75754479530779406, 21.95890545371695168, 38.51517936459291747 ) ) ;
#51 = EDGE_CURVE ( 'NONE', #194, #41, #71, .T. ) ;
#52 = CARTESIAN_POINT ( 'NONE',  ( -75.54767523895139902, 20.49265407618564439, 36.99990966940239190 ) ) ;
#53 = B_SPLINE_CURVE_WITH_KNOTS ( 'NONE', 3,
 ( #276, #188, #151, #43, #280, #124, #76, #239, #212, #47, #26, #83, #148, #106, #45, #126, #99, #23, #82, #187, #261, #128, #264, #284, #66, #189, #145, #37, #121, #214, #81, #95 ),
 .UNSPECIFIED., .F., .F.,
 ( 4, 2, 2, 2, 2, 2, 2, 2, 2, 2, 2, 2, 2, 2, 2, 4 ),
 ( 0.005296725371639052389, 0.005623824650182751746, 0.005950923928726451970, 0.006278023207270151326, 0.006605122485813850683, 0.006932221764357550907, 0.007259321042901250264, 0.007586420321444950488, 0.007749969960716800166, 0.007913519599988649844, 0.008077069239260499522, 0.008240618878532349201, 0.008567718157076045088, 0.009221916714163417780, 0.009876115271250790473, 0.01053031382833816490 ),
 .UNSPECIFIED. ) ;
#54 = CLOSED_SHELL ( 'NONE', ( #8, #65, #20, #253, #109, #149, #87 ) ) ;
#55 = PRODUCT_RELATED_PRODUCT_CATEGORY ( 'part', '', ( #191 ) ) ;
#56 = DIRECTION ( 'NONE',  ( 0.000000000000000000, 0.000000000000000000, 1.000000000000000000 ) ) ;
#57 = DIRECTION ( 'NONE',  ( -1.000000000000000000, 0.000000000000000000, 0.000000000000000000 ) ) ;
#58 = ORIENTED_EDGE ( 'NONE', *, *, #35, .T. ) ;
#59 = ORIENTED_EDGE ( 'NONE', *, *, #165, .F. ) ;
#60 = CARTESIAN_POINT ( 'NONE',  ( -67.11935075681036267, 20.49373890735023451, 36.99990966940239900 ) ) ;
#61 = DIRECTION ( 'NONE',  ( -1.000000000000000000, 0.000000000000000000, 0.000000000000000000 ) ) ;
#62 = APPLICATION_PROTOCOL_DEFINITION ( 'draft international standard', 'automotive_design', 1998, #15 ) ;
#63 = EDGE_CURVE ( 'NONE', #262, #274, #198, .T. ) ;
#64 = DIRECTION ( 'NONE',  ( 1.000000000000000000, 0.000000000000000000, 0.000000000000000000 ) ) ;
#65 = ADVANCED_FACE ( 'NONE', ( #202 ), #42, .T. ) ;
#66 = CARTESIAN_POINT ( 'NONE',  ( -76.45834908399871210, 19.10585398518141531, 38.94152914385733055 ) ) ;
#67 = ORIENTED_EDGE ( 'NONE', *, *, #287, .T. ) ;
#68 = DIRECTION ( 'NONE',  ( 0.000000000000000000, 0.000000000000000000, 1.000000000000000000 ) ) ;
#69 = CARTESIAN_POINT ( 'NONE',  ( -75.54766582148015175, 20.48722920698391192, 40.00000000000000000 ) ) ;
#70 = EDGE_CURVE ( 'NONE', #79, #139, #190, .T. ) ;
#71 = CIRCLE ( 'NONE', #279, 1.500000000000001332 ) ;
#72 = CARTESIAN_POINT ( 'NONE',  ( -75.54766582148015175, 20.48722920698391192, 0.000000000000000000 ) ) ;
#73 = CARTESIAN_POINT ( 'NONE',  ( -75.54767170585867575, 20.49156858748023069, 39.92983988515645422 ) ) ;
#74 = CARTESIAN_POINT ( 'NONE',  ( -77.04766582148015175, 20.48722920698391192, 0.000000000000000000 ) ) ;
#75 = SURFACE_STYLE_USAGE ( .BOTH. , #251 ) ;
#76 = CARTESIAN_POINT ( 'NONE',  ( -75.77155953673505451, 19.69334483015541082, 37.23423091466244728 ) ) ;
#77 = DIRECTION ( 'NONE',  ( -1.000000000000000000, 0.000000000000000000, 0.000000000000000000 ) ) ;
#78 = AXIS2_PLACEMENT_3D ( 'NONE', #183, #120, #277 ) ;
#79 = VERTEX_POINT ( 'NONE', #141 ) ;
#80 = CARTESIAN_POINT ( 'NONE',  ( -75.60874770802234934, 20.92438246168407545, 37.06050236019231647 ) ) ;
#81 = CARTESIAN_POINT ( 'NONE',  ( -75.54766582148015175, 20.26706508870229229, 39.92884830002866892 ) ) ;
#82 = CARTESIAN_POINT ( 'NONE',  ( -76.69757434585937972, 19.02865585390175696, 38.41334991108231378 ) ) ;
#83 = CARTESIAN_POINT ( 'NONE',  ( -76.26046963590212613, 19.20784310491504243, 37.75774995208140439 ) ) ;
#84 = ORIENTED_EDGE ( 'NONE', *, *, #162, .T. ) ;
#85 = ORIENTED_EDGE ( 'NONE', *, *, #63, .T. ) ;
#86 = CARTESIAN_POINT ( 'NONE',  ( -76.75540903501671153, 21.95848280707859956, 38.40348476494555996 ) ) ;
#87 = ADVANCED_FACE ( 'NONE', ( #201 ), #132, .F. ) ;
#88 = DIRECTION ( 'NONE',  ( -0.000000000000000000, -0.000000000000000000, -1.000000000000000000 ) ) ;
#89 = DIRECTION ( 'NONE',  ( -1.000000000000000000, 0.000000000000000000, 0.000000000000000000 ) ) ;
#90 = ORIENTED_EDGE ( 'NONE', *, *, #230, .T. ) ;
#91 = AXIS2_PLACEMENT_3D ( 'NONE', #273, #181, #135 ) ;
#92 = FILL_AREA_STYLE ('',( #161 ) ) ;
#93 = CARTESIAN_POINT ( 'NONE',  ( -75.54767994694627475, 20.49373890735023451, 36.99990966940239900 ) ) ;
#94 =( NAMED_UNIT ( * ) SI_UNIT ( $, .STERADIAN. ) SOLID_ANGLE_UNIT ( ) );
#95 = CARTESIAN_POINT ( 'NONE',  ( -75.54766582148015175, 20.48722920698391192, 39.92982662776744718 ) ) ;
#96 = CARTESIAN_POINT ( 'NONE',  ( -67.11935075681036267, 20.49373890735023451, 39.92984109104386903 ) ) ;
#97 = ORIENTED_EDGE ( 'NONE', *, *, #159, .T. ) ;
#98 = DIRECTION ( 'NONE',  ( 0.000000000000000000, 0.000000000000000000, 1.000000000000000000 ) ) ;
#99 = CARTESIAN_POINT ( 'NONE',  ( -76.64307060350986944, 19.04266660092341468, 38.25718505722032603 ) ) ;
#100 = STYLED_ITEM ( 'NONE', ( #32 ), #107 ) ;
#101 = ORIENTED_EDGE ( 'NONE', *, *, #230, .F. ) ;
#102 = FACE_OUTER_BOUND ( 'NONE', #16, .T. ) ;
#103 = VERTEX_POINT ( 'NONE', #250 ) ;
#104 = CARTESIAN_POINT ( 'NONE',  ( -75.54766582148015175, 20.48722920698391192, 40.00000000000000000 ) ) ;
#105 = ADVANCED_BREP_SHAPE_REPRESENTATION ( 'connecting rod 3', ( #107, #2 ), #108 ) ;
#106 = CARTESIAN_POINT ( 'NONE',  ( -76.46091277368495298, 19.10477154780607378, 37.99139297511234759 ) ) ;
#107 = MANIFOLD_SOLID_BREP ( 'Cut-Extrude1', #54 ) ;
#108 =( GEOMETRIC_REPRESENTATION_CONTEXT ( 3 ) GLOBAL_UNCERTAINTY_ASSIGNED_CONTEXT ( ( #177 ) ) GLOBAL_UNIT_ASSIGNED_CONTEXT ( ( #208, #288, #144 ) ) REPRESENTATION_CONTEXT ( 'NONE', 'WORKASPACE' ) );
#109 = ADVANCED_FACE ( 'NONE', ( #192 ), #219, .F. ) ;
#110 = SHAPE_DEFINITION_REPRESENTATION ( #220, #105 ) ;
#111 = CARTESIAN_POINT ( 'NONE',  ( -75.54767994694627475, 20.49373890735023451, 36.99990966940239900 ) ) ;
#112 = CARTESIAN_POINT ( 'NONE',  ( -67.11935075681036267, 20.49373890735023451, 38.46487538022313402 ) ) ;
#113 = CARTESIAN_POINT ( 'NONE',  ( -75.54766817622673614, 20.49048429498558122, 36.99991207940527005 ) ) ;
#114 = EDGE_CURVE ( 'NONE', #41, #194, #217, .T. ) ;
#115 = ORIENTED_EDGE ( 'NONE', *, *, #70, .T. ) ;
#116 =( LENGTH_UNIT ( ) NAMED_UNIT ( * ) SI_UNIT ( .MILLI., .METRE. ) );
#117 = VERTEX_POINT ( 'NONE', #224 ) ;
#118 = CYLINDRICAL_SURFACE ( 'NONE', #222, 1.464965710820734124 ) ;
#119 = B_SPLINE_CURVE_WITH_KNOTS ( 'NONE', 3,
 ( #111, #52, #113, #197, #178 ),
 .UNSPECIFIED., .F., .F.,
 ( 4, 1, 4 ),
 ( 0.005290186018421461078, 0.005293455695030256300, 0.005296725371639052389 ),
 .UNSPECIFIED. ) ;
#120 = DIRECTION ( 'NONE',  ( 0.000000000000000000, 0.000000000000000000, 1.000000000000000000 ) ) ;
#121 = CARTESIAN_POINT ( 'NONE',  ( -75.76297236376233002, 19.68746288491449192, 39.70450936823046817 ) ) ;
#122 = EDGE_LOOP ( 'NONE', ( #171, #13 ) ) ;
#123 = ORIENTED_EDGE ( 'NONE', *, *, #159, .F. ) ;
#124 = CARTESIAN_POINT ( 'NONE',  ( -75.72216024196495709, 19.77793555114071111, 37.18270536698375395 ) ) ;
#125 = CARTESIAN_POINT ( 'NONE',  ( -76.28670693476645681, 21.78903365665598457, 39.17022519740944375 ) ) ;
#126 = CARTESIAN_POINT ( 'NONE',  ( -76.61602382644960585, 19.05034306637035257, 38.21014779879206458 ) ) ;
#127 = CARTESIAN_POINT ( 'NONE',  ( -67.11935075681036267, 20.49373890735023451, 39.92984109104386903 ) ) ;
#128 = CARTESIAN_POINT ( 'NONE',  ( -76.64053544298322151, 19.04337475255773882, 38.67727009291231610 ) ) ;
#129 = EDGE_CURVE ( 'NONE', #133, #139, #275, .T. ) ;
#130 =( NAMED_UNIT ( * ) PLANE_ANGLE_UNIT ( ) SI_UNIT ( $, .RADIAN. ) );
#131 = CARTESIAN_POINT ( 'NONE',  ( -67.11935075681036267, 20.49373890735023451, 36.99990966940239900 ) ) ;
#132 = PLANE ( 'NONE',  #11 ) ;
#133 = VERTEX_POINT ( 'NONE', #131 ) ;
#134 = AXIS2_PLACEMENT_3D ( 'NONE', #210, #166, #46 ) ;
#135 = DIRECTION ( 'NONE',  ( 1.000000000000000000, 0.000000000000000000, 0.000000000000000000 ) ) ;
#136 = CARTESIAN_POINT ( 'NONE',  ( -75.64431200248441201, 21.02664693081162284, 39.83329327862185210 ) ) ;
#137 = AXIS2_PLACEMENT_3D ( 'NONE', #168, #68, #238 ) ;
#138 = CARTESIAN_POINT ( 'NONE',  ( -77.04766582148015175, 20.48722920698391192, 40.00000000000000000 ) ) ;
#139 = VERTEX_POINT ( 'NONE', #36 ) ;
#140 = CIRCLE ( 'NONE', #38, 1.464965710820734124 ) ;
#141 = CARTESIAN_POINT ( 'NONE',  ( -75.54767994694627475, 20.49373890735023451, 39.92984109104386903 ) ) ;
#142 = PLANE ( 'NONE',  #137 ) ;
#143 = CARTESIAN_POINT ( 'NONE',  ( -75.78143458671907240, 21.29689059034188148, 39.69374689180552451 ) ) ;
#144 =( NAMED_UNIT ( * ) SI_UNIT ( $, .STERADIAN. ) SOLID_ANGLE_UNIT ( ) );
#145 = CARTESIAN_POINT ( 'NONE',  ( -76.12134100028799821, 19.29499033640409777, 39.32548647754006765 ) ) ;
#146 = ORIENTED_EDGE ( 'NONE', *, *, #218, .T. ) ;
#147 = CARTESIAN_POINT ( 'NONE',  ( -76.65795113458736409, 21.93610252247723835, 38.20459413868923804 ) ) ;
#148 = CARTESIAN_POINT ( 'NONE',  ( -76.32778159174091570, 19.16918709297952716, 37.83322800638562455 ) ) ;
#149 = ADVANCED_FACE ( 'NONE', ( #179 ), #118, .T. ) ;
#150 = LINE ( 'NONE', #152, #48 ) ;
#151 = CARTESIAN_POINT ( 'NONE',  ( -75.55992359826153404, 20.26832104699271397, 37.01344187762823879 ) ) ;
#152 = CARTESIAN_POINT ( 'NONE',  ( -78.54766582148015175, 20.48722920698391192, 40.00000000000000000 ) ) ;
#153 = PRESENTATION_LAYER_ASSIGNMENT (  '', '', ( #100 ) ) ;
#154 = CARTESIAN_POINT ( 'NONE',  ( -75.56104628662326661, 20.71463104315087733, 39.91714436502131491 ) ) ;
#155 = CARTESIAN_POINT ( 'NONE',  ( -75.54766582148015175, 20.48722920698391192, 39.92982662776744718 ) ) ;
#156 = VECTOR ( 'NONE', #88, 1000.000000000000000 ) ;
#157 = CARTESIAN_POINT ( 'NONE',  ( -75.54767520288476135, 20.49264576559323103, 39.92984109104386903 ) ) ;
#158 = ORIENTED_EDGE ( 'NONE', *, *, #240, .T. ) ;
#159 = EDGE_CURVE ( 'NONE', #49, #133, #271, .T. ) ;
#160 = LINE ( 'NONE', #69, #248 ) ;
#161 = FILL_AREA_STYLE_COLOUR ( '', #164 ) ;
#162 = EDGE_CURVE ( 'NONE', #262, #117, #175, .T. ) ;
#163 = FACE_OUTER_BOUND ( 'NONE', #229, .T. ) ;
#164 = COLOUR_RGB ( '',0.7921568627450980005, 0.8196078431372548767, 0.9333333333333333481 ) ;
#165 = EDGE_CURVE ( 'NONE', #139, #103, #119, .T. ) ;
#166 = DIRECTION ( 'NONE',  ( -0.000000000000000000, -0.000000000000000000, -1.000000000000000000 ) ) ;
#167 = LINE ( 'NONE', #127, #27 ) ;
#168 = CARTESIAN_POINT ( 'NONE',  ( -77.04766582148015175, 20.48722920698391192, 40.00000000000000000 ) ) ;
#169 = DIRECTION ( 'NONE',  ( -1.000000000000000000, 0.000000000000000000, 0.000000000000000000 ) ) ;
#170 = CARTESIAN_POINT ( 'NONE',  ( -76.69406596006804477, 21.94515599614625145, 38.66989333792543704 ) ) ;
#171 = ORIENTED_EDGE ( 'NONE', *, *, #114, .F. ) ;
#172 = CARTESIAN_POINT ( 'NONE',  ( -75.54767994694627475, 20.49373890735023451, 39.92984109104386903 ) ) ;
#173 = CIRCLE ( 'NONE', #266, 1.500000000000001332 ) ;
#174 = B_SPLINE_CURVE_WITH_KNOTS ( 'NONE', 3,
 ( #155, #247, #270, #73, #157, #31 ),
 .UNSPECIFIED., .F., .F.,
 ( 4, 2, 4 ),
 ( 0.01053031382833816490, 0.01053353683200903765, 0.01053675983567990866 ),
 .UNSPECIFIED. ) ;
#175 = LINE ( 'NONE', #269, #156 ) ;
#176 = CARTESIAN_POINT ( 'NONE',  ( -76.73738185001366219, 21.95499956284523435, 38.34951821712392928 ) ) ;
#177 = UNCERTAINTY_MEASURE_WITH_UNIT (LENGTH_MEASURE( 1.000000000000000082E-05 ), #208, 'distance_accuracy_value', 'NONE');
#178 = CARTESIAN_POINT ( 'NONE',  ( -75.54766582148015175, 20.48722920698391192, 36.99992413267882085 ) ) ;
#179 = FACE_OUTER_BOUND ( 'NONE', #4, .T. ) ;
#180 = EDGE_LOOP ( 'NONE', ( #97, #199, #278, #28 ) ) ;
#181 = DIRECTION ( 'NONE',  ( 0.000000000000000000, 0.000000000000000000, 1.000000000000000000 ) ) ;
#182 = CARTESIAN_POINT ( 'NONE',  ( -75.54815602936419339, 20.60343933314756271, 36.99990966940240611 ) ) ;
#183 = CARTESIAN_POINT ( 'NONE',  ( -77.04766582148015175, 20.48722920698391192, 40.00000000000000000 ) ) ;
#184 = CARTESIAN_POINT ( 'NONE',  ( -75.64329115564541439, 21.02400503406536103, 37.09542338029257991 ) ) ;
#185 = DIRECTION ( 'NONE',  ( -0.000000000000000000, -0.000000000000000000, -1.000000000000000000 ) ) ;
#186 = CYLINDRICAL_SURFACE ( 'NONE', #21, 1.464965710820734124 ) ;
#187 = CARTESIAN_POINT ( 'NONE',  ( -76.69656835672505224, 19.02889768162137329, 38.52287030135661183 ) ) ;
#188 = CARTESIAN_POINT ( 'NONE',  ( -75.54766582148016596, 20.37867863022997383, 37.00040649120813185 ) ) ;
#189 = CARTESIAN_POINT ( 'NONE',  ( -76.25841544488048385, 19.20307550707878619, 39.17867357007722973 ) ) ;
#190 = B_SPLINE_CURVE_WITH_KNOTS ( 'NONE', 3,
 ( #172, #245, #154, #268, #136, #216, #143, #209, #213, #232, #125, #281, #289, #30, #170, #244, #50, #86, #176, #6, #147, #235, #24, #237, #260, #267, #196, #184, #80, #40, #182, #93 ),
 .UNSPECIFIED., .F., .F.,
 ( 4, 2, 2, 2, 2, 2, 2, 2, 2, 2, 2, 2, 2, 2, 2, 4 ),
 ( 0.000000000000000000, 0.0003306366261513611583, 0.0006612732523027223166, 0.0009919098784540833665, 0.001322546504605444633, 0.001983819756908148518, 0.002314456383059493305, 0.002479774696135153556, 0.002645093009210813806, 0.002810411322286474490, 0.002975729635362135174, 0.003306366261513457409, 0.003967639513816114891, 0.004628912766118771505, 0.004959549392270116291, 0.005290186018421461078 ),
 .UNSPECIFIED. ) ;
#191 = PRODUCT ( 'connecting rod 3', 'connecting rod 3', '', ( #3 ) ) ;
#192 = FACE_OUTER_BOUND ( 'NONE', #122, .T. ) ;
#193 = PRODUCT_DEFINITION_CONTEXT ( 'detailed design', #12, 'design' ) ;
#194 = VERTEX_POINT ( 'NONE', #72 ) ;
#195 = CARTESIAN_POINT ( 'NONE',  ( -67.11935075681036267, 20.49373890735023451, 38.46487538022313402 ) ) ;
#196 = CARTESIAN_POINT ( 'NONE',  ( -75.77162832008754378, 21.30167027750218267, 37.22584467822185417 ) ) ;
#197 = CARTESIAN_POINT ( 'NONE',  ( -75.54766582148018017, 20.48831427596744348, 36.99991931103445353 ) ) ;
#198 = CIRCLE ( 'NONE', #78, 1.500000000000001332 ) ;
#199 = ORIENTED_EDGE ( 'NONE', *, *, #129, .T. ) ;
#200 = DIRECTION ( 'NONE',  ( 0.000000000000000000, 0.000000000000000000, 1.000000000000000000 ) ) ;
#201 = FACE_OUTER_BOUND ( 'NONE', #1, .T. ) ;
#202 = FACE_OUTER_BOUND ( 'NONE', #254, .T. ) ;
#203 = CARTESIAN_POINT ( 'NONE',  ( -78.54766582148015175, 20.48722920698391192, 0.000000000000000000 ) ) ;
#204 = ORIENTED_EDGE ( 'NONE', *, *, #129, .F. ) ;
#205 = ORIENTED_EDGE ( 'NONE', *, *, #25, .F. ) ;
#206 = CARTESIAN_POINT ( 'NONE',  ( -77.04766582148015175, 20.48722920698391192, 40.00000000000000000 ) ) ;
#207 = CARTESIAN_POINT ( 'NONE',  ( -67.11935075681036267, 20.49373890735023451, 38.46487538022313402 ) ) ;
#208 =( LENGTH_UNIT ( ) NAMED_UNIT ( * ) SI_UNIT ( .MILLI., .METRE. ) );
#209 = CARTESIAN_POINT ( 'NONE',  ( -75.89280879733270524, 21.44910152146381677, 39.57953232001455035 ) ) ;
#210 = CARTESIAN_POINT ( 'NONE',  ( -77.04766582148015175, 20.48722920698391192, 40.00000000000000000 ) ) ;
#211 = AXIS2_PLACEMENT_3D ( 'NONE', #74, #56, #255 ) ;
#212 = CARTESIAN_POINT ( 'NONE',  ( -75.93826035818123898, 19.47396938083991813, 37.40932630930804947 ) ) ;
#213 = CARTESIAN_POINT ( 'NONE',  ( -75.95341246127341606, 21.51703559590457004, 39.51711659554211309 ) ) ;
#214 = CARTESIAN_POINT ( 'NONE',  ( -75.59821634893205555, 20.05230429766107392, 39.87622541970530676 ) ) ;
#215 = ORIENTED_EDGE ( 'NONE', *, *, #218, .F. ) ;
#216 = CARTESIAN_POINT ( 'NONE',  ( -75.73010943894041702, 21.21139672965961864, 39.74609579693746042 ) ) ;
#217 = CIRCLE ( 'NONE', #91, 1.500000000000001332 ) ;
#218 = EDGE_CURVE ( 'NONE', #117, #79, #174, .T. ) ;
#219 = PLANE ( 'NONE',  #211 ) ;
#220 = PRODUCT_DEFINITION_SHAPE ( 'NONE', 'NONE',  #246 ) ;
#221 = DIRECTION ( 'NONE',  ( -1.000000000000000000, 0.000000000000000000, 0.000000000000000000 ) ) ;
#222 = AXIS2_PLACEMENT_3D ( 'NONE', #7, #57, #200 ) ;
#223 = ORIENTED_EDGE ( 'NONE', *, *, #165, .T. ) ;
#224 = CARTESIAN_POINT ( 'NONE',  ( -75.54766582148015175, 20.48722920698391192, 39.92982662776744718 ) ) ;
#225 =( GEOMETRIC_REPRESENTATION_CONTEXT ( 3 ) GLOBAL_UNCERTAINTY_ASSIGNED_CONTEXT ( ( #282 ) ) GLOBAL_UNIT_ASSIGNED_CONTEXT ( ( #116, #130, #94 ) ) REPRESENTATION_CONTEXT ( 'NONE', 'WORKASPACE' ) );
#226 = ORIENTED_EDGE ( 'NONE', *, *, #25, .T. ) ;
#227 = DIRECTION ( 'NONE',  ( -1.000000000000000000, 0.000000000000000000, 0.000000000000000000 ) ) ;
#228 = CARTESIAN_POINT ( 'NONE',  ( 0.000000000000000000, 0.000000000000000000, 0.000000000000000000 ) ) ;
#229 = EDGE_LOOP ( 'NONE', ( #58, #85 ) ) ;
#230 = EDGE_CURVE ( 'NONE', #133, #49, #140, .T. ) ;
#231 = DIRECTION ( 'NONE',  ( 0.000000000000000000, 0.000000000000000000, 1.000000000000000000 ) ) ;
#232 = CARTESIAN_POINT ( 'NONE',  ( -76.14721184541416221, 21.69997365530312905, 39.31576602142114041 ) ) ;
#233 = DIRECTION ( 'NONE',  ( 1.000000000000000000, 0.000000000000000000, 0.000000000000000000 ) ) ;
#234 = DIRECTION ( 'NONE',  ( 1.000000000000000000, 0.000000000000000000, 0.000000000000000000 ) ) ;
#235 = CARTESIAN_POINT ( 'NONE',  ( -76.56197101571686403, 21.90798472492813787, 38.07222839173517315 ) ) ;
#236 = CARTESIAN_POINT ( 'NONE',  ( -78.54766582148015175, 20.48722920698391192, 40.00000000000000000 ) ) ;
#237 = CARTESIAN_POINT ( 'NONE',  ( -76.28279291522912331, 21.78666363603161926, 37.75544336934976286 ) ) ;
#238 = DIRECTION ( 'NONE',  ( 1.000000000000000000, 0.000000000000000000, -0.000000000000000000 ) ) ;
#239 = CARTESIAN_POINT ( 'NONE',  ( -75.87973893086511623, 19.54137169556026876, 37.34768552467885172 ) ) ;
#240 = EDGE_CURVE ( 'NONE', #103, #194, #160, .T. ) ;
#241 = PRODUCT_DEFINITION_FORMATION_WITH_SPECIFIED_SOURCE ( 'ANY', '', #191, .NOT_KNOWN. ) ;
#242 = ORIENTED_EDGE ( 'NONE', *, *, #162, .F. ) ;
#243 = AXIS2_PLACEMENT_3D ( 'NONE', #138, #185, #61 ) ;
#244 = CARTESIAN_POINT ( 'NONE',  ( -76.74118887012467383, 21.95578470911372548, 38.57007044748060309 ) ) ;
#245 = CARTESIAN_POINT ( 'NONE',  ( -75.54816662355653989, 20.60588048066153988, 39.92984109104386192 ) ) ;
#246 = PRODUCT_DEFINITION ( 'UNKNOWN', '', #241, #193 ) ;
#247 = CARTESIAN_POINT ( 'NONE',  ( -75.54766582148016596, 20.48831387730873743, 39.92983144764033909 ) ) ;
#248 = VECTOR ( 'NONE', #263, 1000.000000000000000 ) ;
#249 = APPLICATION_PROTOCOL_DEFINITION ( 'draft international standard', 'automotive_design', 1998, #12 ) ;
#250 = CARTESIAN_POINT ( 'NONE',  ( -75.54766582148015175, 20.48722920698391192, 36.99992413267882085 ) ) ;
#251 = SURFACE_SIDE_STYLE ('',( #5 ) ) ;
#252 = ORIENTED_EDGE ( 'NONE', *, *, #35, .F. ) ;
#253 = ADVANCED_FACE ( 'NONE', ( #102 ), #285, .T. ) ;
#254 = EDGE_LOOP ( 'NONE', ( #17, #84, #146, #115, #223, #158, #265, #205 ) ) ;
#255 = DIRECTION ( 'NONE',  ( 1.000000000000000000, 0.000000000000000000, -0.000000000000000000 ) ) ;
#256 = EDGE_CURVE ( 'NONE', #103, #117, #53, .T. ) ;
#257 = ORIENTED_EDGE ( 'NONE', *, *, #256, .F. ) ;
#258 = FACE_OUTER_BOUND ( 'NONE', #180, .T. ) ;
#259 = VECTOR ( 'NONE', #227, 1000.000000000000000 ) ;
#260 = CARTESIAN_POINT ( 'NONE',  ( -76.14158940348181659, 21.69542643616473043, 37.60810322517981064 ) ) ;
#261 = CARTESIAN_POINT ( 'NONE',  ( -76.68246994847221742, 19.03220247011638833, 38.57703124553152918 ) ) ;
#262 = VERTEX_POINT ( 'NONE', #104 ) ;
#263 = DIRECTION ( 'NONE',  ( -0.000000000000000000, -0.000000000000000000, -1.000000000000000000 ) ) ;
#264 = CARTESIAN_POINT ( 'NONE',  ( -76.61313143851182872, 19.05121351903767746, 38.72443592857346317 ) ) ;
#265 = ORIENTED_EDGE ( 'NONE', *, *, #51, .T. ) ;
#266 = AXIS2_PLACEMENT_3D ( 'NONE', #206, #231, #64 ) ;
#267 = CARTESIAN_POINT ( 'NONE',  ( -75.88746962554392894, 21.45400726154868210, 37.34416304849349899 ) ) ;
#268 = CARTESIAN_POINT ( 'NONE',  ( -75.60918610674454499, 20.92600631076712503, 39.86880680013242539 ) ) ;
#269 = CARTESIAN_POINT ( 'NONE',  ( -75.54766582148015175, 20.48722920698391192, 40.00000000000000000 ) ) ;
#270 = CARTESIAN_POINT ( 'NONE',  ( -75.54766699798838658, 20.48939868743017456, 39.92983506345469635 ) ) ;
#271 = CIRCLE ( 'NONE', #286, 1.464965710820734124 ) ;
#272 = DIRECTION ( 'NONE',  ( 0.000000000000000000, 0.000000000000000000, 1.000000000000000000 ) ) ;
#273 = CARTESIAN_POINT ( 'NONE',  ( -77.04766582148015175, 20.48722920698391192, 0.000000000000000000 ) ) ;
#274 = VERTEX_POINT ( 'NONE', #236 ) ;
#275 = LINE ( 'NONE', #60, #259 ) ;
#276 = CARTESIAN_POINT ( 'NONE',  ( -75.54766582148015175, 20.48722920698391192, 36.99992413267882085 ) ) ;
#277 = DIRECTION ( 'NONE',  ( 1.000000000000000000, 0.000000000000000000, 0.000000000000000000 ) ) ;
#278 = ORIENTED_EDGE ( 'NONE', *, *, #70, .F. ) ;
#279 = AXIS2_PLACEMENT_3D ( 'NONE', #18, #98, #233 ) ;
#280 = CARTESIAN_POINT ( 'NONE',  ( -75.63951807063442345, 19.96074801706978263, 37.09657164987336841 ) ) ;
#281 = CARTESIAN_POINT ( 'NONE',  ( -76.49717051234502208, 21.88468876909432481, 38.93250621279342738 ) ) ;
#282 = UNCERTAINTY_MEASURE_WITH_UNIT (LENGTH_MEASURE( 1.000000000000000082E-05 ), #116, 'distance_accuracy_value', 'NONE');
#283 = DIRECTION ( 'NONE',  ( 0.000000000000000000, 0.000000000000000000, 1.000000000000000000 ) ) ;
#284 = CARTESIAN_POINT ( 'NONE',  ( -76.52468452487799766, 19.07998533776937933, 38.85975756467914977 ) ) ;
#285 = CYLINDRICAL_SURFACE ( 'NONE', #134, 1.500000000000001332 ) ;
#286 = AXIS2_PLACEMENT_3D ( 'NONE', #14, #221, #29 ) ;
#287 = EDGE_CURVE ( 'NONE', #49, #79, #167, .T. ) ;
#288 =( NAMED_UNIT ( * ) PLANE_ANGLE_UNIT ( ) SI_UNIT ( $, .RADIAN. ) );
#289 = CARTESIAN_POINT ( 'NONE',  ( -76.56823746063136582, 21.91009904781186535, 38.85003081526360802 ) ) ;
ENDSEC;
END-ISO-10303-21;
