ISO-10303-21;
HEADER;
FILE_DESCRIPTION (( 'STEP AP214' ),
    '1' );
FILE_NAME ('connector.step',
    '2026-09-17T06:59:47',
    ( '' ),
    ( '' ),
    'SwSTEP 2.0',
    'SolidWorks 2023',
    '' );
FILE_SCHEMA (( 'AUTOMOTIVE_DESIGN' ));
ENDSEC;

DATA;
#1 = ORIENTED_EDGE ( 'NONE', *, *, #14, .F. ) ;
#2 = DIRECTION ( 'NONE',  ( -0.000000000000000000, -1.000000000000000000, -0.000000000000000000 ) ) ;
#3 = PRODUCT_DEFINITION_FORMATION_WITH_SPECIFIED_SOURCE ( 'ANY', '', #13, .NOT_KNOWN. ) ;
#4 = PRODUCT_DEFINITION ( 'UNKNOWN', '', #3, #46 ) ;
#5 = LINE ( 'NONE', #94, #101 ) ;
#6 = ADVANCED_BREP_SHAPE_REPRESENTATION ( 'connector', ( #97, #18 ), #57 ) ;
#7 = COLOUR_RGB ( '',0.7921568627450980005, 0.8196078431372548767, 0.9333333333333333481 ) ;
#8 = UNCERTAINTY_MEASURE_WITH_UNIT (LENGTH_MEASURE( 1.000000000000000082E-05 ), #17, 'distance_accuracy_value', 'NONE');
#9 = FILL_AREA_STYLE ('',( #113 ) ) ;
#10 = AXIS2_PLACEMENT_3D ( 'NONE', #82, #24, #74 ) ;
#11 = ORIENTED_EDGE ( 'NONE', *, *, #80, .T. ) ;
#12 = EDGE_LOOP ( 'NONE', ( #1, #109 ) ) ;
#13 = PRODUCT ( 'connector', 'connector', '', ( #77 ) ) ;
#14 = EDGE_CURVE ( 'NONE', #87, #36, #106, .T. ) ;
#15 = CARTESIAN_POINT ( 'NONE',  ( -33.75590746605919179, 0.000000000000000000, -30.15693203769255604 ) ) ;
#16 =( NAMED_UNIT ( * ) SI_UNIT ( $, .STERADIAN. ) SOLID_ANGLE_UNIT ( ) );
#17 =( LENGTH_UNIT ( ) NAMED_UNIT ( * ) SI_UNIT ( .MILLI., .METRE. ) );
#18 = AXIS2_PLACEMENT_3D ( 'NONE', #81, #39, #68 ) ;
#19 = DIRECTION ( 'NONE',  ( 0.000000000000000000, 0.000000000000000000, -1.000000000000000000 ) ) ;
#20 = CARTESIAN_POINT ( 'NONE',  ( -33.75590746605919179, 0.000000000000000000, -30.15693203769255604 ) ) ;
#21 = ORIENTED_EDGE ( 'NONE', *, *, #34, .T. ) ;
#22 = DIRECTION ( 'NONE',  ( 0.000000000000000000, 1.000000000000000000, 0.000000000000000000 ) ) ;
#23 = CARTESIAN_POINT ( 'NONE',  ( -33.75590746605919179, 7.000000000000000000, -30.15693203769255604 ) ) ;
#24 = DIRECTION ( 'NONE',  ( 0.000000000000000000, 1.000000000000000000, 0.000000000000000000 ) ) ;
#25 = ADVANCED_FACE ( 'NONE', ( #48 ), #76, .T. ) ;
#26 = EDGE_LOOP ( 'NONE', ( #116, #79, #69, #33 ) ) ;
#27 = SURFACE_SIDE_STYLE ('',( #83 ) ) ;
#28 = CARTESIAN_POINT ( 'NONE',  ( -33.75590746605919179, 7.000000000000000000, -30.15693203769255604 ) ) ;
#29 = CIRCLE ( 'NONE', #125, 2.000000000000001776 ) ;
#30 = FACE_OUTER_BOUND ( 'NONE', #49, .T. ) ;
#31 = UNCERTAINTY_MEASURE_WITH_UNIT (LENGTH_MEASURE( 1.000000000000000082E-05 ), #73, 'distance_accuracy_value', 'NONE');
#32 = DIRECTION ( 'NONE',  ( 0.000000000000000000, 1.000000000000000000, 0.000000000000000000 ) ) ;
#33 = ORIENTED_EDGE ( 'NONE', *, *, #34, .F. ) ;
#34 = EDGE_CURVE ( 'NONE', #121, #87, #89, .T. ) ;
#35 = CARTESIAN_POINT ( 'NONE',  ( -33.75590746605919179, 7.000000000000000000, -32.15693203769255604 ) ) ;
#36 = VERTEX_POINT ( 'NONE', #122 ) ;
#37 = ORIENTED_EDGE ( 'NONE', *, *, #115, .F. ) ;
#38 = AXIS2_PLACEMENT_3D ( 'NONE', #28, #22, #64 ) ;
#39 = DIRECTION ( 'NONE',  ( 0.000000000000000000, 0.000000000000000000, 1.000000000000000000 ) ) ;
#40 = CARTESIAN_POINT ( 'NONE',  ( -33.75590746605919179, 7.000000000000000000, -30.15693203769255604 ) ) ;
#41 = AXIS2_PLACEMENT_3D ( 'NONE', #40, #53, #54 ) ;
#42 = DIRECTION ( 'NONE',  ( -0.000000000000000000, -1.000000000000000000, -0.000000000000000000 ) ) ;
#43 =( NAMED_UNIT ( * ) PLANE_ANGLE_UNIT ( ) SI_UNIT ( $, .RADIAN. ) );
#44 = CARTESIAN_POINT ( 'NONE',  ( -33.75590746605919179, 7.000000000000000000, -30.15693203769255604 ) ) ;
#45 = AXIS2_PLACEMENT_3D ( 'NONE', #20, #32, #78 ) ;
#46 = PRODUCT_DEFINITION_CONTEXT ( 'detailed design', #66, 'design' ) ;
#47 = ADVANCED_FACE ( 'NONE', ( #100 ), #90, .T. ) ;
#48 = FACE_OUTER_BOUND ( 'NONE', #26, .T. ) ;
#49 = EDGE_LOOP ( 'NONE', ( #37, #71, #21, #108 ) ) ;
#50 = PRODUCT_DEFINITION_SHAPE ( 'NONE', 'NONE',  #4 ) ;
#51 = APPLICATION_PROTOCOL_DEFINITION ( 'draft international standard', 'automotive_design', 1998, #59 ) ;
#52 = CIRCLE ( 'NONE', #117, 2.000000000000001776 ) ;
#53 = DIRECTION ( 'NONE',  ( 0.000000000000000000, 1.000000000000000000, 0.000000000000000000 ) ) ;
#54 = DIRECTION ( 'NONE',  ( 0.000000000000000000, -0.000000000000000000, 1.000000000000000000 ) ) ;
#55 = PLANE ( 'NONE',  #10 ) ;
#56 = CYLINDRICAL_SURFACE ( 'NONE', #70, 2.000000000000001776 ) ;
#57 =( GEOMETRIC_REPRESENTATION_CONTEXT ( 3 ) GLOBAL_UNCERTAINTY_ASSIGNED_CONTEXT ( ( #8 ) ) GLOBAL_UNIT_ASSIGNED_CONTEXT ( ( #17, #93, #123 ) ) REPRESENTATION_CONTEXT ( 'NONE', 'WORKASPACE' ) );
#58 = MECHANICAL_DESIGN_GEOMETRIC_PRESENTATION_REPRESENTATION (  '', ( #84 ), #91 ) ;
#59 = APPLICATION_CONTEXT ( 'automotive_design' ) ;
#60 = ORIENTED_EDGE ( 'NONE', *, *, #105, .T. ) ;
#61 = CIRCLE ( 'NONE', #38, 2.000000000000001776 ) ;
#62 = DIRECTION ( 'NONE',  ( 0.000000000000000000, 0.000000000000000000, -1.000000000000000000 ) ) ;
#63 = EDGE_CURVE ( 'NONE', #36, #87, #52, .T. ) ;
#64 = DIRECTION ( 'NONE',  ( 0.000000000000000000, 0.000000000000000000, 1.000000000000000000 ) ) ;
#65 = SURFACE_STYLE_USAGE ( .BOTH. , #27 ) ;
#66 = APPLICATION_CONTEXT ( 'automotive_design' ) ;
#67 = DIRECTION ( 'NONE',  ( -0.000000000000000000, -1.000000000000000000, -0.000000000000000000 ) ) ;
#68 = DIRECTION ( 'NONE',  ( 1.000000000000000000, 0.000000000000000000, 0.000000000000000000 ) ) ;
#69 = ORIENTED_EDGE ( 'NONE', *, *, #63, .T. ) ;
#70 = AXIS2_PLACEMENT_3D ( 'NONE', #23, #42, #62 ) ;
#71 = ORIENTED_EDGE ( 'NONE', *, *, #80, .F. ) ;
#72 = PRODUCT_RELATED_PRODUCT_CATEGORY ( 'part', '', ( #13 ) ) ;
#73 =( LENGTH_UNIT ( ) NAMED_UNIT ( * ) SI_UNIT ( .MILLI., .METRE. ) );
#74 = DIRECTION ( 'NONE',  ( 0.000000000000000000, -0.000000000000000000, 1.000000000000000000 ) ) ;
#75 = AXIS2_PLACEMENT_3D ( 'NONE', #118, #67, #19 ) ;
#76 = CYLINDRICAL_SURFACE ( 'NONE', #75, 2.000000000000001776 ) ;
#77 = PRODUCT_CONTEXT ( 'NONE', #59, 'mechanical' ) ;
#78 = DIRECTION ( 'NONE',  ( 0.000000000000000000, 0.000000000000000000, 1.000000000000000000 ) ) ;
#79 = ORIENTED_EDGE ( 'NONE', *, *, #115, .T. ) ;
#80 = EDGE_CURVE ( 'NONE', #121, #86, #61, .T. ) ;
#81 = CARTESIAN_POINT ( 'NONE',  ( 0.000000000000000000, 0.000000000000000000, 0.000000000000000000 ) ) ;
#82 = CARTESIAN_POINT ( 'NONE',  ( -33.75590746605919179, 0.000000000000000000, -30.15693203769255604 ) ) ;
#83 = SURFACE_STYLE_FILL_AREA ( #9 ) ;
#84 = STYLED_ITEM ( 'NONE', ( #96 ), #97 ) ;
#85 = CARTESIAN_POINT ( 'NONE',  ( -33.75590746605919179, 0.000000000000000000, -32.15693203769255604 ) ) ;
#86 = VERTEX_POINT ( 'NONE', #112 ) ;
#87 = VERTEX_POINT ( 'NONE', #85 ) ;
#88 = ADVANCED_FACE ( 'NONE', ( #30 ), #56, .T. ) ;
#89 = LINE ( 'NONE', #35, #99 ) ;
#90 = PLANE ( 'NONE',  #41 ) ;
#91 =( GEOMETRIC_REPRESENTATION_CONTEXT ( 3 ) GLOBAL_UNCERTAINTY_ASSIGNED_CONTEXT ( ( #31 ) ) GLOBAL_UNIT_ASSIGNED_CONTEXT ( ( #73, #43, #16 ) ) REPRESENTATION_CONTEXT ( 'NONE', 'WORKASPACE' ) );
#92 = DIRECTION ( 'NONE',  ( 0.000000000000000000, 0.000000000000000000, 1.000000000000000000 ) ) ;
#93 =( NAMED_UNIT ( * ) PLANE_ANGLE_UNIT ( ) SI_UNIT ( $, .RADIAN. ) );
#94 = CARTESIAN_POINT ( 'NONE',  ( -33.75590746605919179, 7.000000000000000000, -28.15693203769255248 ) ) ;
#95 = PRESENTATION_LAYER_ASSIGNMENT (  '', '', ( #84 ) ) ;
#96 = PRESENTATION_STYLE_ASSIGNMENT (( #65 ) ) ;
#97 = MANIFOLD_SOLID_BREP ( 'Boss-Extrude1', #110 ) ;
#98 = EDGE_LOOP ( 'NONE', ( #11, #60 ) ) ;
#99 = VECTOR ( 'NONE', #2, 1000.000000000000000 ) ;
#100 = FACE_OUTER_BOUND ( 'NONE', #98, .T. ) ;
#101 = VECTOR ( 'NONE', #103, 1000.000000000000000 ) ;
#102 = DIRECTION ( 'NONE',  ( 0.000000000000000000, 1.000000000000000000, 0.000000000000000000 ) ) ;
#103 = DIRECTION ( 'NONE',  ( -0.000000000000000000, -1.000000000000000000, -0.000000000000000000 ) ) ;
#104 = CARTESIAN_POINT ( 'NONE',  ( -33.75590746605919179, 7.000000000000000000, -32.15693203769255604 ) ) ;
#105 = EDGE_CURVE ( 'NONE', #86, #121, #29, .T. ) ;
#106 = CIRCLE ( 'NONE', #45, 2.000000000000001776 ) ;
#107 = APPLICATION_PROTOCOL_DEFINITION ( 'draft international standard', 'automotive_design', 1998, #66 ) ;
#108 = ORIENTED_EDGE ( 'NONE', *, *, #14, .T. ) ;
#109 = ORIENTED_EDGE ( 'NONE', *, *, #63, .F. ) ;
#110 = CLOSED_SHELL ( 'NONE', ( #25, #88, #47, #119 ) ) ;
#111 = DIRECTION ( 'NONE',  ( 0.000000000000000000, 1.000000000000000000, 0.000000000000000000 ) ) ;
#112 = CARTESIAN_POINT ( 'NONE',  ( -33.75590746605919179, 7.000000000000000000, -28.15693203769255248 ) ) ;
#113 = FILL_AREA_STYLE_COLOUR ( '', #7 ) ;
#114 = DIRECTION ( 'NONE',  ( 0.000000000000000000, 0.000000000000000000, 1.000000000000000000 ) ) ;
#115 = EDGE_CURVE ( 'NONE', #86, #36, #5, .T. ) ;
#116 = ORIENTED_EDGE ( 'NONE', *, *, #105, .F. ) ;
#117 = AXIS2_PLACEMENT_3D ( 'NONE', #15, #111, #114 ) ;
#118 = CARTESIAN_POINT ( 'NONE',  ( -33.75590746605919179, 7.000000000000000000, -30.15693203769255604 ) ) ;
#119 = ADVANCED_FACE ( 'NONE', ( #124 ), #55, .F. ) ;
#120 = SHAPE_DEFINITION_REPRESENTATION ( #50, #6 ) ;
#121 = VERTEX_POINT ( 'NONE', #104 ) ;
#122 = CARTESIAN_POINT ( 'NONE',  ( -33.75590746605919179, 0.000000000000000000, -28.15693203769255248 ) ) ;
#123 =( NAMED_UNIT ( * ) SI_UNIT ( $, .STERADIAN. ) SOLID_ANGLE_UNIT ( ) );
#124 = FACE_OUTER_BOUND ( 'NONE', #12, .T. ) ;
#125 = AXIS2_PLACEMENT_3D ( 'NONE', #44, #102, #92 ) ;
ENDSEC;
END-ISO-10303-21;
