ISO-10303-21;
HEADER;
FILE_DESCRIPTION (( 'STEP AP214' ),
    '1' );
FILE_NAME ('framemounty.step',
    '2026-09-17T06:59:51',
    ( '' ),
    ( '' ),
    'SwSTEP 2.0',
    'SolidWorks 2023',
    '' );
FILE_SCHEMA (( 'AUTOMOTIVE_DESIGN' ));
ENDSEC;

DATA;
#1 = LINE ( 'NONE', #153, #69 ) ;
#2 = VECTOR ( 'NONE', #138, 1000.000000000000000 ) ;
#3 = PRODUCT_CONTEXT ( 'NONE', #33, 'mechanical' ) ;
#4 = ORIENTED_EDGE ( 'NONE', *, *, #182, .T. ) ;
#5 = EDGE_CURVE ( 'NONE', #40, #50, #122, .T. ) ;
#6 = EDGE_LOOP ( 'NONE', ( #83, #73, #117, #149 ) ) ;
#7 = CIRCLE ( 'NONE', #134, 9.500000000000001776 ) ;
#8 = VERTEX_POINT ( 'NONE', #186 ) ;
#9 = CARTESIAN_POINT ( 'NONE',  ( -14.83103202385584574, 16.97385119742178716, 11.70000000000000107 ) ) ;
#10 = ORIENTED_EDGE ( 'NONE', *, *, #141, .T. ) ;
#11 = CLOSED_SHELL ( 'NONE', ( #104, #193, #160, #13, #120, #19 ) ) ;
#12 = SURFACE_SIDE_STYLE ('',( #185 ) ) ;
#13 = ADVANCED_FACE ( 'NONE', ( #91, #26 ), #176, .F. ) ;
#14 = CARTESIAN_POINT ( 'NONE',  ( -21.48103202385584609, 16.97385119742178716, 0.2999999999999997669 ) ) ;
#15 = AXIS2_PLACEMENT_3D ( 'NONE', #110, #28, #126 ) ;
#16 = AXIS2_PLACEMENT_3D ( 'NONE', #137, #90, #29 ) ;
#17 = DIRECTION ( 'NONE',  ( -1.000000000000000000, 0.000000000000000000, 0.000000000000000000 ) ) ;
#18 = PRODUCT_DEFINITION_CONTEXT ( 'detailed design', #142, 'design' ) ;
#19 = ADVANCED_FACE ( 'NONE', ( #56 ), #53, .F. ) ;
#20 = CARTESIAN_POINT ( 'NONE',  ( -21.48103202385584609, 16.97385119742178716, 11.70000000000000107 ) ) ;
#21 = ORIENTED_EDGE ( 'NONE', *, *, #66, .F. ) ;
#22 = MECHANICAL_DESIGN_GEOMETRIC_PRESENTATION_REPRESENTATION (  '', ( #51 ), #161 ) ;
#23 = EDGE_CURVE ( 'NONE', #25, #50, #58, .T. ) ;
#24 = VERTEX_POINT ( 'NONE', #72 ) ;
#25 = VERTEX_POINT ( 'NONE', #71 ) ;
#26 = FACE_BOUND ( 'NONE', #98, .T. ) ;
#27 = DIRECTION ( 'NONE',  ( 0.000000000000000000, 0.000000000000000000, 1.000000000000000000 ) ) ;
#28 = DIRECTION ( 'NONE',  ( 0.000000000000000000, 0.000000000000000000, 1.000000000000000000 ) ) ;
#29 = DIRECTION ( 'NONE',  ( 1.000000000000000000, 0.000000000000000000, 0.000000000000000000 ) ) ;
#30 = AXIS2_PLACEMENT_3D ( 'NONE', #132, #189, #194 ) ;
#31 = CARTESIAN_POINT ( 'NONE',  ( -21.48103202385584609, 16.97385119742178716, 11.70000000000000107 ) ) ;
#32 = EDGE_CURVE ( 'NONE', #34, #25, #139, .T. ) ;
#33 = APPLICATION_CONTEXT ( 'automotive_design' ) ;
#34 = VERTEX_POINT ( 'NONE', #118 ) ;
#35 = AXIS2_PLACEMENT_3D ( 'NONE', #14, #168, #68 ) ;
#36 = EDGE_LOOP ( 'NONE', ( #10, #79, #86, #52 ) ) ;
#37 = ADVANCED_BREP_SHAPE_REPRESENTATION ( 'framemounty', ( #158, #30 ), #41 ) ;
#38 = ORIENTED_EDGE ( 'NONE', *, *, #115, .T. ) ;
#39 = LINE ( 'NONE', #102, #63 ) ;
#40 = VERTEX_POINT ( 'NONE', #9 ) ;
#41 =( GEOMETRIC_REPRESENTATION_CONTEXT ( 3 ) GLOBAL_UNCERTAINTY_ASSIGNED_CONTEXT ( ( #113 ) ) GLOBAL_UNIT_ASSIGNED_CONTEXT ( ( #81, #166, #78 ) ) REPRESENTATION_CONTEXT ( 'NONE', 'WORKASPACE' ) );
#42 = CIRCLE ( 'NONE', #74, 9.500000000000001776 ) ;
#43 = DIRECTION ( 'NONE',  ( -0.000000000000000000, -0.000000000000000000, -1.000000000000000000 ) ) ;
#44 = CARTESIAN_POINT ( 'NONE',  ( -21.48103202385584609, 16.97385119742178716, 11.70000000000000107 ) ) ;
#45 = CARTESIAN_POINT ( 'NONE',  ( -21.48103202385584609, 16.97385119742178716, 11.70000000000000107 ) ) ;
#46 = ORIENTED_EDGE ( 'NONE', *, *, #115, .F. ) ;
#47 = EDGE_CURVE ( 'NONE', #65, #191, #148, .T. ) ;
#48 = AXIS2_PLACEMENT_3D ( 'NONE', #171, #27, #85 ) ;
#49 = DIRECTION ( 'NONE',  ( 1.000000000000000000, 0.000000000000000000, 0.000000000000000000 ) ) ;
#50 = VERTEX_POINT ( 'NONE', #105 ) ;
#51 = STYLED_ITEM ( 'NONE', ( #175 ), #158 ) ;
#52 = ORIENTED_EDGE ( 'NONE', *, *, #32, .F. ) ;
#53 = CYLINDRICAL_SURFACE ( 'NONE', #106, 6.649999999999999467 ) ;
#54 = CARTESIAN_POINT ( 'NONE',  ( -14.83103202385584574, 16.97385119742178716, 11.70000000000000107 ) ) ;
#55 =( NAMED_UNIT ( * ) PLANE_ANGLE_UNIT ( ) SI_UNIT ( $, .RADIAN. ) );
#56 = FACE_OUTER_BOUND ( 'NONE', #62, .T. ) ;
#57 = PRODUCT_DEFINITION ( 'UNKNOWN', '', #94, #18 ) ;
#58 = CIRCLE ( 'NONE', #16, 6.649999999999999467 ) ;
#59 = AXIS2_PLACEMENT_3D ( 'NONE', #45, #177, #109 ) ;
#60 = DIRECTION ( 'NONE',  ( -0.000000000000000000, -0.000000000000000000, -1.000000000000000000 ) ) ;
#61 = SHAPE_DEFINITION_REPRESENTATION ( #121, #37 ) ;
#62 = EDGE_LOOP ( 'NONE', ( #70, #38, #135, #145 ) ) ;
#63 = VECTOR ( 'NONE', #154, 1000.000000000000000 ) ;
#64 = PLANE ( 'NONE',  #157 ) ;
#65 = VERTEX_POINT ( 'NONE', #174 ) ;
#66 = EDGE_CURVE ( 'NONE', #191, #8, #39, .T. ) ;
#67 = EDGE_LOOP ( 'NONE', ( #21, #96, #107, #4 ) ) ;
#68 = DIRECTION ( 'NONE',  ( 1.000000000000000000, 0.000000000000000000, -0.000000000000000000 ) ) ;
#69 = VECTOR ( 'NONE', #89, 1000.000000000000000 ) ;
#70 = ORIENTED_EDGE ( 'NONE', *, *, #5, .F. ) ;
#71 = CARTESIAN_POINT ( 'NONE',  ( -28.13103202385584467, 16.97385119742178716, 0.2999999999999997669 ) ) ;
#72 = CARTESIAN_POINT ( 'NONE',  ( -30.98103202385584609, 16.97385119742178716, 0.2999999999999997669 ) ) ;
#73 = ORIENTED_EDGE ( 'NONE', *, *, #66, .T. ) ;
#74 = AXIS2_PLACEMENT_3D ( 'NONE', #20, #130, #144 ) ;
#75 = FACE_OUTER_BOUND ( 'NONE', #6, .T. ) ;
#76 = CARTESIAN_POINT ( 'NONE',  ( -21.48103202385584609, 16.97385119742178716, 0.2999999999999997669 ) ) ;
#77 = PRESENTATION_LAYER_ASSIGNMENT (  '', '', ( #51 ) ) ;
#78 =( NAMED_UNIT ( * ) SI_UNIT ( $, .STERADIAN. ) SOLID_ANGLE_UNIT ( ) );
#79 = ORIENTED_EDGE ( 'NONE', *, *, #5, .T. ) ;
#80 = DIRECTION ( 'NONE',  ( 1.000000000000000000, 0.000000000000000000, 0.000000000000000000 ) ) ;
#81 =( LENGTH_UNIT ( ) NAMED_UNIT ( * ) SI_UNIT ( .MILLI., .METRE. ) );
#82 = EDGE_CURVE ( 'NONE', #8, #24, #143, .T. ) ;
#83 = ORIENTED_EDGE ( 'NONE', *, *, #198, .F. ) ;
#84 = ORIENTED_EDGE ( 'NONE', *, *, #23, .T. ) ;
#85 = DIRECTION ( 'NONE',  ( 1.000000000000000000, 0.000000000000000000, 0.000000000000000000 ) ) ;
#86 = ORIENTED_EDGE ( 'NONE', *, *, #23, .F. ) ;
#87 = ORIENTED_EDGE ( 'NONE', *, *, #47, .T. ) ;
#88 = COLOUR_RGB ( '',0.7921568627450980005, 0.8196078431372548767, 0.9333333333333333481 ) ;
#89 = DIRECTION ( 'NONE',  ( -0.000000000000000000, -0.000000000000000000, -1.000000000000000000 ) ) ;
#90 = DIRECTION ( 'NONE',  ( 0.000000000000000000, 0.000000000000000000, 1.000000000000000000 ) ) ;
#91 = FACE_OUTER_BOUND ( 'NONE', #167, .T. ) ;
#92 = UNCERTAINTY_MEASURE_WITH_UNIT (LENGTH_MEASURE( 1.000000000000000082E-05 ), #136, 'distance_accuracy_value', 'NONE');
#93 = DIRECTION ( 'NONE',  ( 1.000000000000000000, 0.000000000000000000, -0.000000000000000000 ) ) ;
#94 = PRODUCT_DEFINITION_FORMATION_WITH_SPECIFIED_SOURCE ( 'ANY', '', #152, .NOT_KNOWN. ) ;
#95 = ORIENTED_EDGE ( 'NONE', *, *, #182, .F. ) ;
#96 = ORIENTED_EDGE ( 'NONE', *, *, #47, .F. ) ;
#97 = DIRECTION ( 'NONE',  ( -1.000000000000000000, 0.000000000000000000, 0.000000000000000000 ) ) ;
#98 = EDGE_LOOP ( 'NONE', ( #84, #195 ) ) ;
#99 = CARTESIAN_POINT ( 'NONE',  ( -21.48103202385584609, 16.97385119742178716, 11.70000000000000107 ) ) ;
#100 = ORIENTED_EDGE ( 'NONE', *, *, #82, .F. ) ;
#101 = CARTESIAN_POINT ( 'NONE',  ( -21.48103202385584609, 16.97385119742178716, 11.70000000000000107 ) ) ;
#102 = CARTESIAN_POINT ( 'NONE',  ( -11.98103202385584432, 16.97385119742178716, 11.70000000000000107 ) ) ;
#103 = FACE_BOUND ( 'NONE', #170, .T. ) ;
#104 = ADVANCED_FACE ( 'NONE', ( #151 ), #125, .F. ) ;
#105 = CARTESIAN_POINT ( 'NONE',  ( -14.83103202385584574, 16.97385119742178716, 0.2999999999999997669 ) ) ;
#106 = AXIS2_PLACEMENT_3D ( 'NONE', #44, #150, #187 ) ;
#107 = ORIENTED_EDGE ( 'NONE', *, *, #123, .T. ) ;
#108 = SURFACE_STYLE_USAGE ( .BOTH. , #12 ) ;
#109 = DIRECTION ( 'NONE',  ( -1.000000000000000000, 0.000000000000000000, 0.000000000000000000 ) ) ;
#110 = CARTESIAN_POINT ( 'NONE',  ( -21.48103202385584609, 16.97385119742178716, 11.70000000000000107 ) ) ;
#111 = AXIS2_PLACEMENT_3D ( 'NONE', #76, #192, #80 ) ;
#112 = CARTESIAN_POINT ( 'NONE',  ( -21.48103202385584609, 16.97385119742178716, 0.2999999999999997669 ) ) ;
#113 = UNCERTAINTY_MEASURE_WITH_UNIT (LENGTH_MEASURE( 1.000000000000000082E-05 ), #81, 'distance_accuracy_value', 'NONE');
#114 = FACE_OUTER_BOUND ( 'NONE', #180, .T. ) ;
#115 = EDGE_CURVE ( 'NONE', #40, #34, #116, .T. ) ;
#116 = CIRCLE ( 'NONE', #15, 6.649999999999999467 ) ;
#117 = ORIENTED_EDGE ( 'NONE', *, *, #82, .T. ) ;
#118 = CARTESIAN_POINT ( 'NONE',  ( -28.13103202385584467, 16.97385119742178716, 11.70000000000000107 ) ) ;
#119 = CIRCLE ( 'NONE', #169, 6.649999999999999467 ) ;
#120 = ADVANCED_FACE ( 'NONE', ( #129 ), #178, .T. ) ;
#121 = PRODUCT_DEFINITION_SHAPE ( 'NONE', 'NONE',  #57 ) ;
#122 = LINE ( 'NONE', #54, #127 ) ;
#123 = EDGE_CURVE ( 'NONE', #65, #24, #1, .T. ) ;
#124 = AXIS2_PLACEMENT_3D ( 'NONE', #181, #179, #97 ) ;
#125 = CYLINDRICAL_SURFACE ( 'NONE', #59, 6.649999999999999467 ) ;
#126 = DIRECTION ( 'NONE',  ( 1.000000000000000000, 0.000000000000000000, 0.000000000000000000 ) ) ;
#127 = VECTOR ( 'NONE', #43, 1000.000000000000000 ) ;
#128 = CIRCLE ( 'NONE', #111, 6.649999999999999467 ) ;
#129 = FACE_OUTER_BOUND ( 'NONE', #67, .T. ) ;
#130 = DIRECTION ( 'NONE',  ( 0.000000000000000000, 0.000000000000000000, 1.000000000000000000 ) ) ;
#131 = PRODUCT_RELATED_PRODUCT_CATEGORY ( 'part', '', ( #152 ) ) ;
#132 = CARTESIAN_POINT ( 'NONE',  ( 0.000000000000000000, 0.000000000000000000, 0.000000000000000000 ) ) ;
#133 = APPLICATION_PROTOCOL_DEFINITION ( 'draft international standard', 'automotive_design', 1998, #142 ) ;
#134 = AXIS2_PLACEMENT_3D ( 'NONE', #112, #164, #49 ) ;
#135 = ORIENTED_EDGE ( 'NONE', *, *, #32, .T. ) ;
#136 =( LENGTH_UNIT ( ) NAMED_UNIT ( * ) SI_UNIT ( .MILLI., .METRE. ) );
#137 = CARTESIAN_POINT ( 'NONE',  ( -21.48103202385584609, 16.97385119742178716, 0.2999999999999997669 ) ) ;
#138 = DIRECTION ( 'NONE',  ( -0.000000000000000000, -0.000000000000000000, -1.000000000000000000 ) ) ;
#139 = LINE ( 'NONE', #197, #2 ) ;
#140 = AXIS2_PLACEMENT_3D ( 'NONE', #31, #60, #17 ) ;
#141 = EDGE_CURVE ( 'NONE', #34, #40, #119, .T. ) ;
#142 = APPLICATION_CONTEXT ( 'automotive_design' ) ;
#143 = CIRCLE ( 'NONE', #48, 9.500000000000001776 ) ;
#144 = DIRECTION ( 'NONE',  ( 1.000000000000000000, 0.000000000000000000, 0.000000000000000000 ) ) ;
#145 = ORIENTED_EDGE ( 'NONE', *, *, #159, .F. ) ;
#146 = DIRECTION ( 'NONE',  ( 0.000000000000000000, 0.000000000000000000, 1.000000000000000000 ) ) ;
#147 = CYLINDRICAL_SURFACE ( 'NONE', #124, 9.500000000000001776 ) ;
#148 = CIRCLE ( 'NONE', #155, 9.500000000000001776 ) ;
#149 = ORIENTED_EDGE ( 'NONE', *, *, #123, .F. ) ;
#150 = DIRECTION ( 'NONE',  ( -0.000000000000000000, -0.000000000000000000, -1.000000000000000000 ) ) ;
#151 = FACE_OUTER_BOUND ( 'NONE', #36, .T. ) ;
#152 = PRODUCT ( 'framemounty', 'framemounty', '', ( #3 ) ) ;
#153 = CARTESIAN_POINT ( 'NONE',  ( -30.98103202385584609, 16.97385119742178716, 11.70000000000000107 ) ) ;
#154 = DIRECTION ( 'NONE',  ( -0.000000000000000000, -0.000000000000000000, -1.000000000000000000 ) ) ;
#155 = AXIS2_PLACEMENT_3D ( 'NONE', #99, #184, #183 ) ;
#156 = DIRECTION ( 'NONE',  ( 0.000000000000000000, 0.000000000000000000, 1.000000000000000000 ) ) ;
#157 = AXIS2_PLACEMENT_3D ( 'NONE', #101, #146, #93 ) ;
#158 = MANIFOLD_SOLID_BREP ( 'Scale1', #11 ) ;
#159 = EDGE_CURVE ( 'NONE', #50, #25, #128, .T. ) ;
#160 = ADVANCED_FACE ( 'NONE', ( #114, #103 ), #64, .T. ) ;
#161 =( GEOMETRIC_REPRESENTATION_CONTEXT ( 3 ) GLOBAL_UNCERTAINTY_ASSIGNED_CONTEXT ( ( #92 ) ) GLOBAL_UNIT_ASSIGNED_CONTEXT ( ( #136, #55, #173 ) ) REPRESENTATION_CONTEXT ( 'NONE', 'WORKASPACE' ) );
#162 = CARTESIAN_POINT ( 'NONE',  ( -11.98103202385584432, 16.97385119742178716, 11.70000000000000107 ) ) ;
#163 = ORIENTED_EDGE ( 'NONE', *, *, #198, .T. ) ;
#164 = DIRECTION ( 'NONE',  ( 0.000000000000000000, 0.000000000000000000, 1.000000000000000000 ) ) ;
#165 = ORIENTED_EDGE ( 'NONE', *, *, #141, .F. ) ;
#166 =( NAMED_UNIT ( * ) PLANE_ANGLE_UNIT ( ) SI_UNIT ( $, .RADIAN. ) );
#167 = EDGE_LOOP ( 'NONE', ( #95, #100 ) ) ;
#168 = DIRECTION ( 'NONE',  ( 0.000000000000000000, 0.000000000000000000, 1.000000000000000000 ) ) ;
#169 = AXIS2_PLACEMENT_3D ( 'NONE', #196, #156, #199 ) ;
#170 = EDGE_LOOP ( 'NONE', ( #165, #46 ) ) ;
#171 = CARTESIAN_POINT ( 'NONE',  ( -21.48103202385584609, 16.97385119742178716, 0.2999999999999997669 ) ) ;
#172 = FILL_AREA_STYLE_COLOUR ( '', #88 ) ;
#173 =( NAMED_UNIT ( * ) SI_UNIT ( $, .STERADIAN. ) SOLID_ANGLE_UNIT ( ) );
#174 = CARTESIAN_POINT ( 'NONE',  ( -30.98103202385584609, 16.97385119742178716, 11.70000000000000107 ) ) ;
#175 = PRESENTATION_STYLE_ASSIGNMENT (( #108 ) ) ;
#176 = PLANE ( 'NONE',  #35 ) ;
#177 = DIRECTION ( 'NONE',  ( -0.000000000000000000, -0.000000000000000000, -1.000000000000000000 ) ) ;
#178 = CYLINDRICAL_SURFACE ( 'NONE', #140, 9.500000000000001776 ) ;
#179 = DIRECTION ( 'NONE',  ( -0.000000000000000000, -0.000000000000000000, -1.000000000000000000 ) ) ;
#180 = EDGE_LOOP ( 'NONE', ( #87, #163 ) ) ;
#181 = CARTESIAN_POINT ( 'NONE',  ( -21.48103202385584609, 16.97385119742178716, 11.70000000000000107 ) ) ;
#182 = EDGE_CURVE ( 'NONE', #24, #8, #7, .T. ) ;
#183 = DIRECTION ( 'NONE',  ( 1.000000000000000000, 0.000000000000000000, 0.000000000000000000 ) ) ;
#184 = DIRECTION ( 'NONE',  ( 0.000000000000000000, 0.000000000000000000, 1.000000000000000000 ) ) ;
#185 = SURFACE_STYLE_FILL_AREA ( #188 ) ;
#186 = CARTESIAN_POINT ( 'NONE',  ( -11.98103202385584432, 16.97385119742178716, 0.2999999999999997669 ) ) ;
#187 = DIRECTION ( 'NONE',  ( -1.000000000000000000, 0.000000000000000000, 0.000000000000000000 ) ) ;
#188 = FILL_AREA_STYLE ('',( #172 ) ) ;
#189 = DIRECTION ( 'NONE',  ( 0.000000000000000000, 0.000000000000000000, 1.000000000000000000 ) ) ;
#190 = APPLICATION_PROTOCOL_DEFINITION ( 'draft international standard', 'automotive_design', 1998, #33 ) ;
#191 = VERTEX_POINT ( 'NONE', #162 ) ;
#192 = DIRECTION ( 'NONE',  ( 0.000000000000000000, 0.000000000000000000, 1.000000000000000000 ) ) ;
#193 = ADVANCED_FACE ( 'NONE', ( #75 ), #147, .T. ) ;
#194 = DIRECTION ( 'NONE',  ( 1.000000000000000000, 0.000000000000000000, 0.000000000000000000 ) ) ;
#195 = ORIENTED_EDGE ( 'NONE', *, *, #159, .T. ) ;
#196 = CARTESIAN_POINT ( 'NONE',  ( -21.48103202385584609, 16.97385119742178716, 11.70000000000000107 ) ) ;
#197 = CARTESIAN_POINT ( 'NONE',  ( -28.13103202385584467, 16.97385119742178716, 11.70000000000000107 ) ) ;
#198 = EDGE_CURVE ( 'NONE', #191, #65, #42, .T. ) ;
#199 = DIRECTION ( 'NONE',  ( 1.000000000000000000, 0.000000000000000000, 0.000000000000000000 ) ) ;
ENDSEC;
END-ISO-10303-21;
