ISO-10303-21;
HEADER;
FILE_DESCRIPTION (( 'STEP AP214' ),
    '1' );
FILE_NAME ('hingeholder.step',
    '2026-09-17T07:00:09',
    ( '' ),
    ( '' ),
    'SwSTEP 2.0',
    'SolidWorks 2023',
    '' );
FILE_SCHEMA (( 'AUTOMOTIVE_DESIGN' ));
ENDSEC;

DATA;
#1 = LINE ( 'NONE', #114, #166 ) ;
#2 = DIRECTION ( 'NONE',  ( 0.000000000000000000, 0.000000000000000000, -1.000000000000000000 ) ) ;
#3 = DIRECTION ( 'NONE',  ( -1.000000000000000000, -0.000000000000000000, -0.000000000000000000 ) ) ;
#4 = CARTESIAN_POINT ( 'NONE',  ( 0.000000000000000000, 16.22038590250103596, -4.838752839364065750 ) ) ;
#5 =( NAMED_UNIT ( * ) SI_UNIT ( $, .STERADIAN. ) SOLID_ANGLE_UNIT ( ) );
#6 = CARTESIAN_POINT ( 'NONE',  ( 0.000000000000000000, 16.22038590250103596, -4.838752839364065750 ) ) ;
#7 = ADVANCED_FACE ( 'NONE', ( #118, #174 ), #43, .T. ) ;
#8 = CYLINDRICAL_SURFACE ( 'NONE', #34, 2.009999999999999787 ) ;
#9 = VERTEX_POINT ( 'NONE', #15 ) ;
#10 = APPLICATION_PROTOCOL_DEFINITION ( 'draft international standard', 'automotive_design', 1998, #91 ) ;
#11 = ORIENTED_EDGE ( 'NONE', *, *, #51, .T. ) ;
#12 = EDGE_LOOP ( 'NONE', ( #29, #119 ) ) ;
#13 = EDGE_LOOP ( 'NONE', ( #117, #86, #11, #185 ) ) ;
#14 = ORIENTED_EDGE ( 'NONE', *, *, #113, .T. ) ;
#15 = CARTESIAN_POINT ( 'NONE',  ( 6.000000000000000000, 16.22038590250103596, -4.838752839364065750 ) ) ;
#16 = PRODUCT_RELATED_PRODUCT_CATEGORY ( 'part', '', ( #141 ) ) ;
#17 = VECTOR ( 'NONE', #38, 1000.000000000000000 ) ;
#18 = DIRECTION ( 'NONE',  ( 1.000000000000000000, 0.000000000000000000, 0.000000000000000000 ) ) ;
#19 = DIRECTION ( 'NONE',  ( 1.000000000000000000, 0.000000000000000000, 0.000000000000000000 ) ) ;
#20 = CARTESIAN_POINT ( 'NONE',  ( 6.000000000000000000, 16.22038590250103596, -4.838752839364065750 ) ) ;
#21 = CIRCLE ( 'NONE', #48, 10.00000000000000178 ) ;
#22 = FILL_AREA_STYLE_COLOUR ( '', #85 ) ;
#23 = ADVANCED_FACE ( 'NONE', ( #164 ), #195, .F. ) ;
#24 = LINE ( 'NONE', #35, #160 ) ;
#25 = VERTEX_POINT ( 'NONE', #92 ) ;
#26 = ORIENTED_EDGE ( 'NONE', *, *, #142, .T. ) ;
#27 = DIRECTION ( 'NONE',  ( 1.000000000000000000, 0.000000000000000000, 0.000000000000000000 ) ) ;
#28 = VERTEX_POINT ( 'NONE', #153 ) ;
#29 = ORIENTED_EDGE ( 'NONE', *, *, #113, .F. ) ;
#30 = ORIENTED_EDGE ( 'NONE', *, *, #77, .F. ) ;
#31 = CYLINDRICAL_SURFACE ( 'NONE', #131, 10.00000000000000000 ) ;
#32 = DIRECTION ( 'NONE',  ( 0.000000000000000000, 0.000000000000000000, 1.000000000000000000 ) ) ;
#33 = CARTESIAN_POINT ( 'NONE',  ( 6.000000000000000000, 6.220385902501035957, -7.010662842640193126 ) ) ;
#34 = AXIS2_PLACEMENT_3D ( 'NONE', #62, #84, #147 ) ;
#35 = CARTESIAN_POINT ( 'NONE',  ( 6.000000000000000000, 6.220385902501035957, -11.03066284264019181 ) ) ;
#36 = AXIS2_PLACEMENT_3D ( 'NONE', #105, #90, #196 ) ;
#37 = CARTESIAN_POINT ( 'NONE',  ( 0.000000000000000000, 6.220385902501035957, -9.020662842640192025 ) ) ;
#38 = DIRECTION ( 'NONE',  ( -1.000000000000000000, -0.000000000000000000, -0.000000000000000000 ) ) ;
#39 = FILL_AREA_STYLE ('',( #22 ) ) ;
#40 = SURFACE_STYLE_FILL_AREA ( #39 ) ;
#41 = ORIENTED_EDGE ( 'NONE', *, *, #123, .T. ) ;
#42 = ORIENTED_EDGE ( 'NONE', *, *, #51, .F. ) ;
#43 = PLANE ( 'NONE',  #36 ) ;
#44 = CIRCLE ( 'NONE', #108, 2.009999999999999787 ) ;
#45 = EDGE_CURVE ( 'NONE', #25, #193, #46, .T. ) ;
#46 = LINE ( 'NONE', #122, #126 ) ;
#47 = AXIS2_PLACEMENT_3D ( 'NONE', #96, #19, #181 ) ;
#48 = AXIS2_PLACEMENT_3D ( 'NONE', #157, #197, #2 ) ;
#49 = DIRECTION ( 'NONE',  ( 0.000000000000000000, 0.000000000000000000, -1.000000000000000000 ) ) ;
#50 = CARTESIAN_POINT ( 'NONE',  ( 0.000000000000000000, 6.220385902501035957, -9.020662842640192025 ) ) ;
#51 = EDGE_CURVE ( 'NONE', #58, #135, #74, .T. ) ;
#52 = STYLED_ITEM ( 'NONE', ( #100 ), #162 ) ;
#53 = DIRECTION ( 'NONE',  ( 0.000000000000000000, 0.000000000000000000, -1.000000000000000000 ) ) ;
#54 = EDGE_LOOP ( 'NONE', ( #133, #68, #103, #69 ) ) ;
#55 = ORIENTED_EDGE ( 'NONE', *, *, #77, .T. ) ;
#56 = VERTEX_POINT ( 'NONE', #4 ) ;
#57 = EDGE_CURVE ( 'NONE', #193, #56, #21, .T. ) ;
#58 = VERTEX_POINT ( 'NONE', #33 ) ;
#59 = PLANE ( 'NONE',  #76 ) ;
#60 = LINE ( 'NONE', #6, #175 ) ;
#61 = CARTESIAN_POINT ( 'NONE',  ( 6.000000000000000000, 16.22038590250103596, -4.838752839364065750 ) ) ;
#62 = CARTESIAN_POINT ( 'NONE',  ( 6.000000000000000000, 6.220385902501035957, -9.020662842640192025 ) ) ;
#63 = ADVANCED_FACE ( 'NONE', ( #97 ), #59, .F. ) ;
#64 = DIRECTION ( 'NONE',  ( 0.000000000000000000, -1.000000000000000000, 0.000000000000000000 ) ) ;
#65 = CIRCLE ( 'NONE', #194, 2.009999999999999787 ) ;
#66 = CARTESIAN_POINT ( 'NONE',  ( 0.000000000000000000, -3.779614097498964487, -4.838752839364065750 ) ) ;
#67 = ORIENTED_EDGE ( 'NONE', *, *, #45, .T. ) ;
#68 = ORIENTED_EDGE ( 'NONE', *, *, #45, .F. ) ;
#69 = ORIENTED_EDGE ( 'NONE', *, *, #70, .T. ) ;
#70 = EDGE_CURVE ( 'NONE', #9, #56, #180, .T. ) ;
#71 = APPLICATION_PROTOCOL_DEFINITION ( 'draft international standard', 'automotive_design', 1998, #101 ) ;
#72 = VERTEX_POINT ( 'NONE', #98 ) ;
#73 = AXIS2_PLACEMENT_3D ( 'NONE', #89, #115, #27 ) ;
#74 = LINE ( 'NONE', #140, #143 ) ;
#75 = CARTESIAN_POINT ( 'NONE',  ( 6.000000000000000000, 6.220385902501035957, -9.020662842640192025 ) ) ;
#76 = AXIS2_PLACEMENT_3D ( 'NONE', #61, #95, #128 ) ;
#77 = EDGE_CURVE ( 'NONE', #25, #9, #188, .T. ) ;
#78 = FACE_BOUND ( 'NONE', #173, .T. ) ;
#79 = DIRECTION ( 'NONE',  ( 0.000000000000000000, 0.000000000000000000, -1.000000000000000000 ) ) ;
#80 = AXIS2_PLACEMENT_3D ( 'NONE', #75, #154, #32 ) ;
#81 = DIRECTION ( 'NONE',  ( 1.000000000000000000, 0.000000000000000000, 0.000000000000000000 ) ) ;
#82 = PLANE ( 'NONE',  #106 ) ;
#83 = ADVANCED_BREP_SHAPE_REPRESENTATION ( 'hingeholder', ( #162, #73 ), #177 ) ;
#84 = DIRECTION ( 'NONE',  ( -1.000000000000000000, -0.000000000000000000, -0.000000000000000000 ) ) ;
#85 = COLOUR_RGB ( '',0.7921568627450980005, 0.8196078431372548767, 0.9333333333333333481 ) ;
#86 = ORIENTED_EDGE ( 'NONE', *, *, #168, .T. ) ;
#87 = ORIENTED_EDGE ( 'NONE', *, *, #57, .F. ) ;
#88 = ADVANCED_FACE ( 'NONE', ( #192 ), #31, .T. ) ;
#89 = CARTESIAN_POINT ( 'NONE',  ( 0.000000000000000000, 0.000000000000000000, 0.000000000000000000 ) ) ;
#90 = DIRECTION ( 'NONE',  ( 1.000000000000000000, 0.000000000000000000, 0.000000000000000000 ) ) ;
#91 = APPLICATION_CONTEXT ( 'automotive_design' ) ;
#92 = CARTESIAN_POINT ( 'NONE',  ( 6.000000000000000000, -3.779614097498964487, -4.838752839364065750 ) ) ;
#93 = MECHANICAL_DESIGN_GEOMETRIC_PRESENTATION_REPRESENTATION (  '', ( #52 ), #158 ) ;
#94 = EDGE_CURVE ( 'NONE', #56, #193, #60, .T. ) ;
#95 = DIRECTION ( 'NONE',  ( 0.000000000000000000, 0.000000000000000000, -1.000000000000000000 ) ) ;
#96 = CARTESIAN_POINT ( 'NONE',  ( 6.000000000000000000, 6.220385902501035957, -9.020662842640192025 ) ) ;
#97 = FACE_OUTER_BOUND ( 'NONE', #54, .T. ) ;
#98 = CARTESIAN_POINT ( 'NONE',  ( 0.000000000000000000, 6.220385902501035957, -11.03066284264019181 ) ) ;
#99 =( NAMED_UNIT ( * ) SI_UNIT ( $, .STERADIAN. ) SOLID_ANGLE_UNIT ( ) );
#100 = PRESENTATION_STYLE_ASSIGNMENT (( #171 ) ) ;
#101 = APPLICATION_CONTEXT ( 'automotive_design' ) ;
#102 = PRODUCT_DEFINITION_FORMATION_WITH_SPECIFIED_SOURCE ( 'ANY', '', #141, .NOT_KNOWN. ) ;
#103 = ORIENTED_EDGE ( 'NONE', *, *, #142, .F. ) ;
#104 = DIRECTION ( 'NONE',  ( 0.000000000000000000, 0.000000000000000000, 1.000000000000000000 ) ) ;
#105 = CARTESIAN_POINT ( 'NONE',  ( 6.000000000000000000, 6.220385902501035957, -4.838752839364066638 ) ) ;
#106 = AXIS2_PLACEMENT_3D ( 'NONE', #144, #18, #53 ) ;
#107 = EDGE_LOOP ( 'NONE', ( #149, #150, #30, #67 ) ) ;
#108 = AXIS2_PLACEMENT_3D ( 'NONE', #37, #145, #170 ) ;
#109 = UNCERTAINTY_MEASURE_WITH_UNIT (LENGTH_MEASURE( 1.000000000000000082E-05 ), #167, 'distance_accuracy_value', 'NONE');
#110 = PRODUCT_DEFINITION ( 'UNKNOWN', '', #102, #156 ) ;
#111 = DIRECTION ( 'NONE',  ( 0.000000000000000000, -1.000000000000000000, 0.000000000000000000 ) ) ;
#112 = CARTESIAN_POINT ( 'NONE',  ( 6.000000000000000000, 6.220385902501035957, -4.838752839364066638 ) ) ;
#113 = EDGE_CURVE ( 'NONE', #58, #28, #165, .T. ) ;
#114 = CARTESIAN_POINT ( 'NONE',  ( 6.000000000000000000, 16.22038590250103596, -4.838752839364065750 ) ) ;
#115 = DIRECTION ( 'NONE',  ( 0.000000000000000000, 0.000000000000000000, 1.000000000000000000 ) ) ;
#116 = AXIS2_PLACEMENT_3D ( 'NONE', #112, #81, #169 ) ;
#117 = ORIENTED_EDGE ( 'NONE', *, *, #176, .F. ) ;
#118 = FACE_OUTER_BOUND ( 'NONE', #134, .T. ) ;
#119 = ORIENTED_EDGE ( 'NONE', *, *, #168, .F. ) ;
#120 = CIRCLE ( 'NONE', #47, 2.009999999999999787 ) ;
#121 = DIRECTION ( 'NONE',  ( -1.000000000000000000, -0.000000000000000000, -0.000000000000000000 ) ) ;
#122 = CARTESIAN_POINT ( 'NONE',  ( 6.000000000000000000, -3.779614097498964487, -4.838752839364065750 ) ) ;
#123 = EDGE_CURVE ( 'NONE', #135, #72, #44, .T. ) ;
#124 = UNCERTAINTY_MEASURE_WITH_UNIT (LENGTH_MEASURE( 1.000000000000000082E-05 ), #127, 'distance_accuracy_value', 'NONE');
#125 = CARTESIAN_POINT ( 'NONE',  ( 6.000000000000000000, 6.220385902501035957, -9.020662842640192025 ) ) ;
#126 = VECTOR ( 'NONE', #152, 1000.000000000000000 ) ;
#127 =( LENGTH_UNIT ( ) NAMED_UNIT ( * ) SI_UNIT ( .MILLI., .METRE. ) );
#128 = DIRECTION ( 'NONE',  ( -1.000000000000000000, 0.000000000000000000, -0.000000000000000000 ) ) ;
#129 = ADVANCED_FACE ( 'NONE', ( #130, #78 ), #82, .F. ) ;
#130 = FACE_OUTER_BOUND ( 'NONE', #163, .T. ) ;
#131 = AXIS2_PLACEMENT_3D ( 'NONE', #136, #191, #104 ) ;
#132 = SURFACE_SIDE_STYLE ('',( #40 ) ) ;
#133 = ORIENTED_EDGE ( 'NONE', *, *, #94, .T. ) ;
#134 = EDGE_LOOP ( 'NONE', ( #55, #26 ) ) ;
#135 = VERTEX_POINT ( 'NONE', #178 ) ;
#136 = CARTESIAN_POINT ( 'NONE',  ( 6.000000000000000000, 6.220385902501035957, -4.838752839364066638 ) ) ;
#137 = SHAPE_DEFINITION_REPRESENTATION ( #155, #83 ) ;
#138 = ORIENTED_EDGE ( 'NONE', *, *, #123, .F. ) ;
#139 = PRESENTATION_LAYER_ASSIGNMENT (  '', '', ( #52 ) ) ;
#140 = CARTESIAN_POINT ( 'NONE',  ( 6.000000000000000000, 6.220385902501035957, -7.010662842640193126 ) ) ;
#141 = PRODUCT ( 'hingeholder', 'hingeholder', '', ( #187 ) ) ;
#142 = EDGE_CURVE ( 'NONE', #9, #25, #1, .T. ) ;
#143 = VECTOR ( 'NONE', #121, 1000.000000000000000 ) ;
#144 = CARTESIAN_POINT ( 'NONE',  ( 0.000000000000000000, 6.220385902501035957, -4.838752839364066638 ) ) ;
#145 = DIRECTION ( 'NONE',  ( 1.000000000000000000, 0.000000000000000000, 0.000000000000000000 ) ) ;
#146 = FACE_OUTER_BOUND ( 'NONE', #13, .T. ) ;
#147 = DIRECTION ( 'NONE',  ( 0.000000000000000000, 0.000000000000000000, 1.000000000000000000 ) ) ;
#148 = EDGE_LOOP ( 'NONE', ( #14, #186, #138, #42 ) ) ;
#149 = ORIENTED_EDGE ( 'NONE', *, *, #57, .T. ) ;
#150 = ORIENTED_EDGE ( 'NONE', *, *, #70, .F. ) ;
#151 = EDGE_CURVE ( 'NONE', #72, #135, #65, .T. ) ;
#152 = DIRECTION ( 'NONE',  ( -1.000000000000000000, -0.000000000000000000, -0.000000000000000000 ) ) ;
#153 = CARTESIAN_POINT ( 'NONE',  ( 6.000000000000000000, 6.220385902501035957, -11.03066284264019181 ) ) ;
#154 = DIRECTION ( 'NONE',  ( -1.000000000000000000, -0.000000000000000000, -0.000000000000000000 ) ) ;
#155 = PRODUCT_DEFINITION_SHAPE ( 'NONE', 'NONE',  #110 ) ;
#156 = PRODUCT_DEFINITION_CONTEXT ( 'detailed design', #101, 'design' ) ;
#157 = CARTESIAN_POINT ( 'NONE',  ( 0.000000000000000000, 6.220385902501035957, -4.838752839364066638 ) ) ;
#158 =( GEOMETRIC_REPRESENTATION_CONTEXT ( 3 ) GLOBAL_UNCERTAINTY_ASSIGNED_CONTEXT ( ( #109 ) ) GLOBAL_UNIT_ASSIGNED_CONTEXT ( ( #167, #159, #5 ) ) REPRESENTATION_CONTEXT ( 'NONE', 'WORKASPACE' ) );
#159 =( NAMED_UNIT ( * ) PLANE_ANGLE_UNIT ( ) SI_UNIT ( $, .RADIAN. ) );
#160 = VECTOR ( 'NONE', #3, 1000.000000000000000 ) ;
#161 = CLOSED_SHELL ( 'NONE', ( #23, #7, #129, #88, #63, #190 ) ) ;
#162 = MANIFOLD_SOLID_BREP ( 'Boss-Extrude2', #161 ) ;
#163 = EDGE_LOOP ( 'NONE', ( #87, #172 ) ) ;
#164 = FACE_OUTER_BOUND ( 'NONE', #148, .T. ) ;
#165 = CIRCLE ( 'NONE', #182, 2.009999999999999787 ) ;
#166 = VECTOR ( 'NONE', #111, 1000.000000000000000 ) ;
#167 =( LENGTH_UNIT ( ) NAMED_UNIT ( * ) SI_UNIT ( .MILLI., .METRE. ) );
#168 = EDGE_CURVE ( 'NONE', #28, #58, #120, .T. ) ;
#169 = DIRECTION ( 'NONE',  ( 0.000000000000000000, 0.000000000000000000, -1.000000000000000000 ) ) ;
#170 = DIRECTION ( 'NONE',  ( 0.000000000000000000, 0.000000000000000000, -1.000000000000000000 ) ) ;
#171 = SURFACE_STYLE_USAGE ( .BOTH. , #132 ) ;
#172 = ORIENTED_EDGE ( 'NONE', *, *, #94, .F. ) ;
#173 = EDGE_LOOP ( 'NONE', ( #41, #189 ) ) ;
#174 = FACE_BOUND ( 'NONE', #12, .T. ) ;
#175 = VECTOR ( 'NONE', #64, 1000.000000000000000 ) ;
#176 = EDGE_CURVE ( 'NONE', #28, #72, #24, .T. ) ;
#177 =( GEOMETRIC_REPRESENTATION_CONTEXT ( 3 ) GLOBAL_UNCERTAINTY_ASSIGNED_CONTEXT ( ( #124 ) ) GLOBAL_UNIT_ASSIGNED_CONTEXT ( ( #127, #179, #99 ) ) REPRESENTATION_CONTEXT ( 'NONE', 'WORKASPACE' ) );
#178 = CARTESIAN_POINT ( 'NONE',  ( 0.000000000000000000, 6.220385902501035957, -7.010662842640193126 ) ) ;
#179 =( NAMED_UNIT ( * ) PLANE_ANGLE_UNIT ( ) SI_UNIT ( $, .RADIAN. ) );
#180 = LINE ( 'NONE', #20, #17 ) ;
#181 = DIRECTION ( 'NONE',  ( 0.000000000000000000, 0.000000000000000000, -1.000000000000000000 ) ) ;
#182 = AXIS2_PLACEMENT_3D ( 'NONE', #125, #183, #79 ) ;
#183 = DIRECTION ( 'NONE',  ( 1.000000000000000000, 0.000000000000000000, 0.000000000000000000 ) ) ;
#184 = DIRECTION ( 'NONE',  ( 1.000000000000000000, 0.000000000000000000, 0.000000000000000000 ) ) ;
#185 = ORIENTED_EDGE ( 'NONE', *, *, #151, .F. ) ;
#186 = ORIENTED_EDGE ( 'NONE', *, *, #176, .T. ) ;
#187 = PRODUCT_CONTEXT ( 'NONE', #91, 'mechanical' ) ;
#188 = CIRCLE ( 'NONE', #116, 10.00000000000000178 ) ;
#189 = ORIENTED_EDGE ( 'NONE', *, *, #151, .T. ) ;
#190 = ADVANCED_FACE ( 'NONE', ( #146 ), #8, .F. ) ;
#191 = DIRECTION ( 'NONE',  ( -1.000000000000000000, -0.000000000000000000, -0.000000000000000000 ) ) ;
#192 = FACE_OUTER_BOUND ( 'NONE', #107, .T. ) ;
#193 = VERTEX_POINT ( 'NONE', #66 ) ;
#194 = AXIS2_PLACEMENT_3D ( 'NONE', #50, #184, #49 ) ;
#195 = CYLINDRICAL_SURFACE ( 'NONE', #80, 2.009999999999999787 ) ;
#196 = DIRECTION ( 'NONE',  ( 0.000000000000000000, 0.000000000000000000, -1.000000000000000000 ) ) ;
#197 = DIRECTION ( 'NONE',  ( 1.000000000000000000, 0.000000000000000000, 0.000000000000000000 ) ) ;
ENDSEC;
END-ISO-10303-21;
