ISO-10303-21;
HEADER;
FILE_DESCRIPTION (( 'STEP AP214' ),
    '1' );
FILE_NAME ('hingecylinder.step',
    '2026-09-17T07:00:00',
    ( '' ),
    ( '' ),
    'SwSTEP 2.0',
    'SolidWorks 2023',
    '' );
FILE_SCHEMA (( 'AUTOMOTIVE_DESIGN' ));
ENDSEC;

DATA;
#1 = ADVANCED_FACE ( 'NONE', ( #9 ), #54, .T. ) ;
#2 = PRESENTATION_STYLE_ASSIGNMENT (( #408 ) ) ;
#3 = VECTOR ( 'NONE', #384, 1000.000000000000000 ) ;
#4 = EDGE_CURVE ( 'NONE', #382, #186, #371, .T. ) ;
#5 = SURFACE_SIDE_STYLE ('',( #32 ) ) ;
#6 = AXIS2_PLACEMENT_3D ( 'NONE', #191, #25, #324 ) ;
#7 = ORIENTED_EDGE ( 'NONE', *, *, #71, .F. ) ;
#8 = DIRECTION ( 'NONE',  ( 1.000000000000000000, 0.000000000000000000, 0.000000000000000000 ) ) ;
#9 = FACE_OUTER_BOUND ( 'NONE', #74, .T. ) ;
#10 = CARTESIAN_POINT ( 'NONE',  ( 10.00000000000000178, 25.53831009820316211, 10.65846529977218715 ) ) ;
#11 = ORIENTED_EDGE ( 'NONE', *, *, #265, .F. ) ;
#12 = EDGE_CURVE ( 'NONE', #347, #81, #103, .T. ) ;
#13 = ORIENTED_EDGE ( 'NONE', *, *, #200, .F. ) ;
#14 = DIRECTION ( 'NONE',  ( 0.000000000000000000, 0.000000000000000000, -1.000000000000000000 ) ) ;
#15 = LINE ( 'NONE', #430, #380 ) ;
#16 = ORIENTED_EDGE ( 'NONE', *, *, #432, .T. ) ;
#17 = AXIS2_PLACEMENT_3D ( 'NONE', #368, #222, #136 ) ;
#18 = CARTESIAN_POINT ( 'NONE',  ( 6.999999999999999112, 26.53831009820316211, 11.65846529977218538 ) ) ;
#19 = DIRECTION ( 'NONE',  ( -1.000000000000000000, 0.000000000000000000, 0.000000000000000000 ) ) ;
#20 = VERTEX_POINT ( 'NONE', #206 ) ;
#21 = EDGE_CURVE ( 'NONE', #284, #175, #343, .T. ) ;
#22 = SHAPE_DEFINITION_REPRESENTATION ( #261, #125 ) ;
#23 = DIRECTION ( 'NONE',  ( -1.000000000000000000, 0.000000000000000000, 0.000000000000000000 ) ) ;
#24 = AXIS2_PLACEMENT_3D ( 'NONE', #60, #391, #80 ) ;
#25 = DIRECTION ( 'NONE',  ( -1.000000000000000000, -0.000000000000000000, -0.000000000000000000 ) ) ;
#26 = DIRECTION ( 'NONE',  ( -1.000000000000000000, 0.000000000000000000, -0.000000000000000000 ) ) ;
#27 = FACE_OUTER_BOUND ( 'NONE', #239, .T. ) ;
#28 = CARTESIAN_POINT ( 'NONE',  ( 10.00000000000000000, 26.53831009820316211, 13.65846529977218715 ) ) ;
#29 = DIRECTION ( 'NONE',  ( 0.000000000000000000, 0.000000000000000000, 1.000000000000000000 ) ) ;
#30 = AXIS2_PLACEMENT_3D ( 'NONE', #353, #23, #395 ) ;
#31 = APPLICATION_PROTOCOL_DEFINITION ( 'draft international standard', 'automotive_design', 1998, #365 ) ;
#32 = SURFACE_STYLE_FILL_AREA ( #37 ) ;
#33 = CARTESIAN_POINT ( 'NONE',  ( 6.999999999999996447, 7.000514900631582549, 12.65846529977218715 ) ) ;
#34 = AXIS2_PLACEMENT_3D ( 'NONE', #293, #58, #50 ) ;
#35 = CIRCLE ( 'NONE', #56, 2.000000000000000000 ) ;
#36 = CARTESIAN_POINT ( 'NONE',  ( 10.00000000000000000, 13.76046930743564367, 14.65846529977218715 ) ) ;
#37 = FILL_AREA_STYLE ('',( #169 ) ) ;
#38 = ORIENTED_EDGE ( 'NONE', *, *, #383, .F. ) ;
#39 = ORIENTED_EDGE ( 'NONE', *, *, #377, .F. ) ;
#40 = EDGE_LOOP ( 'NONE', ( #183, #232, #271, #354, #170, #237, #158, #307 ) ) ;
#41 = CIRCLE ( 'NONE', #173, 2.000000000000000000 ) ;
#42 = ORIENTED_EDGE ( 'NONE', *, *, #326, .T. ) ;
#43 = AXIS2_PLACEMENT_3D ( 'NONE', #104, #282, #82 ) ;
#44 = EDGE_CURVE ( 'NONE', #151, #81, #346, .T. ) ;
#45 = DIRECTION ( 'NONE',  ( -1.000000000000000000, 0.000000000000000000, 0.000000000000000000 ) ) ;
#46 = EDGE_LOOP ( 'NONE', ( #109, #212 ) ) ;
#47 = ORIENTED_EDGE ( 'NONE', *, *, #333, .T. ) ;
#48 = CARTESIAN_POINT ( 'NONE',  ( 10.00000000000000000, 7.000514900631582549, 10.65846529977218715 ) ) ;
#49 = CARTESIAN_POINT ( 'NONE',  ( 6.999999999999999112, 25.53831009820316211, 11.65846529977218538 ) ) ;
#50 = DIRECTION ( 'NONE',  ( 0.000000000000000000, 0.000000000000000000, 1.000000000000000000 ) ) ;
#51 = ORIENTED_EDGE ( 'NONE', *, *, #401, .T. ) ;
#52 = CARTESIAN_POINT ( 'NONE',  ( 10.00000000000000178, 25.53831009820316211, 13.65846529977218715 ) ) ;
#53 = CARTESIAN_POINT ( 'NONE',  ( 6.999999999999996447, 13.76046930743564367, 14.65846529977218715 ) ) ;
#54 = CYLINDRICAL_SURFACE ( 'NONE', #43, 2.000000000000000000 ) ;
#55 = VECTOR ( 'NONE', #139, 1000.000000000000000 ) ;
#56 = AXIS2_PLACEMENT_3D ( 'NONE', #362, #63, #93 ) ;
#57 = CARTESIAN_POINT ( 'NONE',  ( 10.00000000000000178, 22.91954594013974855, 12.70663908910248630 ) ) ;
#58 = DIRECTION ( 'NONE',  ( -1.000000000000000000, -0.000000000000000000, -0.000000000000000000 ) ) ;
#59 = EDGE_CURVE ( 'NONE', #76, #347, #187, .T. ) ;
#60 = CARTESIAN_POINT ( 'NONE',  ( 6.999999999999996447, 22.91954594013974855, 12.70663908910248630 ) ) ;
#61 = CARTESIAN_POINT ( 'NONE',  ( 42.00000000000000000, 7.000514900631582549, 14.65846529977218715 ) ) ;
#62 = DIRECTION ( 'NONE',  ( -1.000000000000000000, 0.000000000000000000, 0.000000000000000000 ) ) ;
#63 = DIRECTION ( 'NONE',  ( 1.000000000000000000, 0.000000000000000000, 0.000000000000000000 ) ) ;
#64 = VECTOR ( 'NONE', #364, 1000.000000000000000 ) ;
#65 = DIRECTION ( 'NONE',  ( 0.000000000000000000, 0.000000000000000000, 1.000000000000000000 ) ) ;
#66 = CARTESIAN_POINT ( 'NONE',  ( 42.00000000000000000, 7.000514900631582549, 10.65846529977218715 ) ) ;
#67 = LINE ( 'NONE', #255, #68 ) ;
#68 = VECTOR ( 'NONE', #397, 1000.000000000000000 ) ;
#69 = DIRECTION ( 'NONE',  ( 0.000000000000000000, 0.000000000000000000, 1.000000000000000000 ) ) ;
#70 =( LENGTH_UNIT ( ) NAMED_UNIT ( * ) SI_UNIT ( .MILLI., .METRE. ) );
#71 = EDGE_CURVE ( 'NONE', #235, #151, #379, .T. ) ;
#72 = ORIENTED_EDGE ( 'NONE', *, *, #44, .F. ) ;
#73 = VERTEX_POINT ( 'NONE', #424 ) ;
#74 = EDGE_LOOP ( 'NONE', ( #141, #47, #409, #413 ) ) ;
#75 = CARTESIAN_POINT ( 'NONE',  ( 10.00000000000000000, 7.000514900631582549, 12.65846529977218715 ) ) ;
#76 = VERTEX_POINT ( 'NONE', #203 ) ;
#77 = ORIENTED_EDGE ( 'NONE', *, *, #432, .F. ) ;
#78 = DIRECTION ( 'NONE',  ( 0.000000000000000000, 0.000000000000000000, 1.000000000000000000 ) ) ;
#79 = VERTEX_POINT ( 'NONE', #272 ) ;
#80 = DIRECTION ( 'NONE',  ( 0.000000000000000000, 0.000000000000000000, 1.000000000000000000 ) ) ;
#81 = VERTEX_POINT ( 'NONE', #248 ) ;
#82 = DIRECTION ( 'NONE',  ( 0.000000000000000000, 0.000000000000000000, 1.000000000000000000 ) ) ;
#83 = LINE ( 'NONE', #53, #135 ) ;
#84 = ORIENTED_EDGE ( 'NONE', *, *, #21, .F. ) ;
#85 = FACE_OUTER_BOUND ( 'NONE', #374, .T. ) ;
#86 = EDGE_CURVE ( 'NONE', #347, #73, #180, .T. ) ;
#87 = DIRECTION ( 'NONE',  ( -1.000000000000000000, 0.000000000000000000, 0.000000000000000000 ) ) ;
#88 = CARTESIAN_POINT ( 'NONE',  ( 10.00000000000000000, 7.000514900631582549, 10.65846529977218715 ) ) ;
#89 = AXIS2_PLACEMENT_3D ( 'NONE', #119, #348, #257 ) ;
#90 = AXIS2_PLACEMENT_3D ( 'NONE', #321, #19, #157 ) ;
#91 = CARTESIAN_POINT ( 'NONE',  ( 42.00000000000000000, 7.000514900631582549, 12.65846529977218715 ) ) ;
#92 = FACE_OUTER_BOUND ( 'NONE', #40, .T. ) ;
#93 = DIRECTION ( 'NONE',  ( 0.000000000000000000, 0.000000000000000000, -1.000000000000000000 ) ) ;
#94 = EDGE_CURVE ( 'NONE', #340, #20, #278, .T. ) ;
#95 = FACE_OUTER_BOUND ( 'NONE', #148, .T. ) ;
#96 = FACE_OUTER_BOUND ( 'NONE', #210, .T. ) ;
#97 = VECTOR ( 'NONE', #162, 1000.000000000000000 ) ;
#98 =( NAMED_UNIT ( * ) PLANE_ANGLE_UNIT ( ) SI_UNIT ( $, .RADIAN. ) );
#99 = DIRECTION ( 'NONE',  ( -0.000000000000000000, -1.000000000000000000, -0.000000000000000000 ) ) ;
#100 = EDGE_CURVE ( 'NONE', #76, #176, #373, .T. ) ;
#101 = MECHANICAL_DESIGN_GEOMETRIC_PRESENTATION_REPRESENTATION (  '', ( #319 ), #221 ) ;
#102 = CARTESIAN_POINT ( 'NONE',  ( 6.999999999999999112, 25.53831009820316211, 14.65846529977218715 ) ) ;
#103 = CIRCLE ( 'NONE', #429, 2.000000000000000000 ) ;
#104 = CARTESIAN_POINT ( 'NONE',  ( 42.00000000000000000, 7.000514900631582549, 12.65846529977218715 ) ) ;
#105 = ADVANCED_FACE ( 'NONE', ( #350, #415 ), #241, .F. ) ;
#106 = AXIS2_PLACEMENT_3D ( 'NONE', #133, #189, #328 ) ;
#107 = ORIENTED_EDGE ( 'NONE', *, *, #129, .T. ) ;
#108 = CIRCLE ( 'NONE', #90, 1.500000000000003109 ) ;
#109 = ORIENTED_EDGE ( 'NONE', *, *, #100, .T. ) ;
#110 = ORIENTED_EDGE ( 'NONE', *, *, #223, .T. ) ;
#111 = ORIENTED_EDGE ( 'NONE', *, *, #335, .T. ) ;
#112 = CARTESIAN_POINT ( 'NONE',  ( 10.00000000000000178, 7.000514900631582549, 12.65846529977218715 ) ) ;
#113 = ORIENTED_EDGE ( 'NONE', *, *, #137, .T. ) ;
#114 = CARTESIAN_POINT ( 'NONE',  ( 0.000000000000000000, 7.000514900631582549, 12.65846529977218715 ) ) ;
#115 = DIRECTION ( 'NONE',  ( 1.000000000000000000, -0.000000000000000000, -0.000000000000000000 ) ) ;
#116 = ORIENTED_EDGE ( 'NONE', *, *, #153, .T. ) ;
#117 = DIRECTION ( 'NONE',  ( 0.000000000000000000, 0.000000000000000000, -1.000000000000000000 ) ) ;
#118 = ORIENTED_EDGE ( 'NONE', *, *, #86, .F. ) ;
#119 = CARTESIAN_POINT ( 'NONE',  ( 42.00000000000000000, 22.91954594013974855, 12.70663908910248630 ) ) ;
#120 = ORIENTED_EDGE ( 'NONE', *, *, #12, .F. ) ;
#121 = ADVANCED_FACE ( 'NONE', ( #313, #320 ), #159, .T. ) ;
#122 = DIRECTION ( 'NONE',  ( -1.000000000000000000, -0.000000000000000000, -0.000000000000000000 ) ) ;
#123 = CARTESIAN_POINT ( 'NONE',  ( 10.00000000000000178, 7.000514900631582549, 14.65846529977218715 ) ) ;
#124 = CARTESIAN_POINT ( 'NONE',  ( 42.00000000000000000, 7.000514900631582549, 14.65846529977218715 ) ) ;
#125 = ADVANCED_BREP_SHAPE_REPRESENTATION ( 'hingecylinder', ( #229, #310 ), #154 ) ;
#126 = AXIS2_PLACEMENT_3D ( 'NONE', #224, #29, #291 ) ;
#127 = CARTESIAN_POINT ( 'NONE',  ( 42.00000000000000000, 7.000514900631582549, 12.65846529977218715 ) ) ;
#128 = CLOSED_SHELL ( 'NONE', ( #274, #160, #1, #394, #197, #303, #226, #411, #105, #121, #168, #270, #297, #194 ) ) ;
#129 = EDGE_CURVE ( 'NONE', #20, #308, #150, .T. ) ;
#130 = FACE_OUTER_BOUND ( 'NONE', #311, .T. ) ;
#131 = DIRECTION ( 'NONE',  ( 0.000000000000000000, 0.000000000000000000, -1.000000000000000000 ) ) ;
#132 = UNCERTAINTY_MEASURE_WITH_UNIT (LENGTH_MEASURE( 1.000000000000000082E-05 ), #332, 'distance_accuracy_value', 'NONE');
#133 = CARTESIAN_POINT ( 'NONE',  ( 42.00000000000000000, 26.53831009820316211, 18.54179588907885901 ) ) ;
#134 = PRESENTATION_LAYER_ASSIGNMENT (  '', '', ( #319 ) ) ;
#135 = VECTOR ( 'NONE', #185, 1000.000000000000000 ) ;
#136 = DIRECTION ( 'NONE',  ( 0.000000000000000000, 0.000000000000000000, -1.000000000000000000 ) ) ;
#137 = EDGE_CURVE ( 'NONE', #79, #233, #244, .T. ) ;
#138 = AXIS2_PLACEMENT_3D ( 'NONE', #127, #211, #246 ) ;
#139 = DIRECTION ( 'NONE',  ( -1.000000000000000000, 0.000000000000000000, -0.000000000000000000 ) ) ;
#140 = FACE_OUTER_BOUND ( 'NONE', #46, .T. ) ;
#141 = ORIENTED_EDGE ( 'NONE', *, *, #223, .F. ) ;
#142 = DIRECTION ( 'NONE',  ( 1.000000000000000000, -0.000000000000000000, -0.000000000000000000 ) ) ;
#143 = VECTOR ( 'NONE', #177, 1000.000000000000000 ) ;
#144 = ORIENTED_EDGE ( 'NONE', *, *, #129, .F. ) ;
#145 = DIRECTION ( 'NONE',  ( 0.000000000000000000, 0.000000000000000000, 1.000000000000000000 ) ) ;
#146 = EDGE_LOOP ( 'NONE', ( #171, #414, #345, #337 ) ) ;
#147 = ORIENTED_EDGE ( 'NONE', *, *, #12, .T. ) ;
#148 = EDGE_LOOP ( 'NONE', ( #208, #7, #39, #202 ) ) ;
#149 = EDGE_LOOP ( 'NONE', ( #155, #179 ) ) ;
#150 = LINE ( 'NONE', #422, #390 ) ;
#151 = VERTEX_POINT ( 'NONE', #357 ) ;
#152 = LINE ( 'NONE', #386, #240 ) ;
#153 = EDGE_CURVE ( 'NONE', #308, #245, #300, .T. ) ;
#154 =( GEOMETRIC_REPRESENTATION_CONTEXT ( 3 ) GLOBAL_UNCERTAINTY_ASSIGNED_CONTEXT ( ( #132 ) ) GLOBAL_UNIT_ASSIGNED_CONTEXT ( ( #332, #98, #330 ) ) REPRESENTATION_CONTEXT ( 'NONE', 'WORKASPACE' ) );
#155 = ORIENTED_EDGE ( 'NONE', *, *, #94, .T. ) ;
#156 = DIRECTION ( 'NONE',  ( -1.000000000000000000, -0.000000000000000000, -0.000000000000000000 ) ) ;
#157 = DIRECTION ( 'NONE',  ( 0.000000000000000000, 0.000000000000000000, 1.000000000000000000 ) ) ;
#158 = ORIENTED_EDGE ( 'NONE', *, *, #333, .F. ) ;
#159 = PLANE ( 'NONE',  #305 ) ;
#160 = ADVANCED_FACE ( 'NONE', ( #85 ), #184, .T. ) ;
#161 = CARTESIAN_POINT ( 'NONE',  ( 6.999999999999996447, 25.53831009820315856, 14.65846529977218715 ) ) ;
#162 = DIRECTION ( 'NONE',  ( 0.000000000000000000, 0.000000000000000000, 1.000000000000000000 ) ) ;
#163 = CARTESIAN_POINT ( 'NONE',  ( 0.000000000000000000, 0.000000000000000000, 0.000000000000000000 ) ) ;
#164 = DIRECTION ( 'NONE',  ( 0.000000000000000000, 0.000000000000000000, 1.000000000000000000 ) ) ;
#165 = LINE ( 'NONE', #220, #370 ) ;
#166 = EDGE_CURVE ( 'NONE', #235, #416, #213, .T. ) ;
#167 = AXIS2_PLACEMENT_3D ( 'NONE', #216, #355, #14 ) ;
#168 = ADVANCED_FACE ( 'NONE', ( #130 ), #366, .F. ) ;
#169 = FILL_AREA_STYLE_COLOUR ( '', #363 ) ;
#170 = ORIENTED_EDGE ( 'NONE', *, *, #172, .T. ) ;
#171 = ORIENTED_EDGE ( 'NONE', *, *, #166, .F. ) ;
#172 = EDGE_CURVE ( 'NONE', #73, #186, #225, .T. ) ;
#173 = AXIS2_PLACEMENT_3D ( 'NONE', #33, #142, #304 ) ;
#174 = VECTOR ( 'NONE', #215, 1000.000000000000000 ) ;
#175 = VERTEX_POINT ( 'NONE', #433 ) ;
#176 = VERTEX_POINT ( 'NONE', #66 ) ;
#177 = DIRECTION ( 'NONE',  ( -0.000000000000000000, -1.000000000000000000, -0.000000000000000000 ) ) ;
#178 = ORIENTED_EDGE ( 'NONE', *, *, #181, .F. ) ;
#179 = ORIENTED_EDGE ( 'NONE', *, *, #219, .T. ) ;
#180 = LINE ( 'NONE', #323, #336 ) ;
#181 = EDGE_CURVE ( 'NONE', #233, #385, #67, .T. ) ;
#182 = CARTESIAN_POINT ( 'NONE',  ( 10.00000000000000000, 26.53831009820316211, 12.65846529977218715 ) ) ;
#183 = ORIENTED_EDGE ( 'NONE', *, *, #326, .F. ) ;
#184 = CYLINDRICAL_SURFACE ( 'NONE', #198, 2.000000000000000000 ) ;
#185 = DIRECTION ( 'NONE',  ( -0.000000000000000000, 1.000000000000000000, -0.000000000000000000 ) ) ;
#186 = VERTEX_POINT ( 'NONE', #396 ) ;
#187 = LINE ( 'NONE', #124, #426 ) ;
#188 = DIRECTION ( 'NONE',  ( 0.000000000000000000, 0.000000000000000000, 1.000000000000000000 ) ) ;
#189 = DIRECTION ( 'NONE',  ( 0.000000000000000000, -1.000000000000000000, 0.000000000000000000 ) ) ;
#190 = CARTESIAN_POINT ( 'NONE',  ( 6.999999999999996447, 7.000514900631582549, 10.65846529977218715 ) ) ;
#191 = CARTESIAN_POINT ( 'NONE',  ( 42.00000000000000000, 22.91954594013974855, 12.70663908910248630 ) ) ;
#192 = DIRECTION ( 'NONE',  ( -1.000000000000000000, 0.000000000000000000, 0.000000000000000000 ) ) ;
#193 = CYLINDRICAL_SURFACE ( 'NONE', #17, 1.000000000000000888 ) ;
#194 = ADVANCED_FACE ( 'NONE', ( #95 ), #193, .T. ) ;
#195 = APPLICATION_CONTEXT ( 'automotive_design' ) ;
#196 = PRODUCT_DEFINITION_FORMATION_WITH_SPECIFIED_SOURCE ( 'ANY', '', #243, .NOT_KNOWN. ) ;
#197 = ADVANCED_FACE ( 'NONE', ( #299 ), #369, .T. ) ;
#198 = AXIS2_PLACEMENT_3D ( 'NONE', #91, #122, #188 ) ;
#199 = CARTESIAN_POINT ( 'NONE',  ( 6.999999999999996447, 25.53831009820315501, 10.65846529977218715 ) ) ;
#200 = EDGE_CURVE ( 'NONE', #340, #245, #165, .T. ) ;
#201 = ORIENTED_EDGE ( 'NONE', *, *, #265, .T. ) ;
#202 = ORIENTED_EDGE ( 'NONE', *, *, #137, .F. ) ;
#203 = CARTESIAN_POINT ( 'NONE',  ( 42.00000000000000000, 7.000514900631582549, 14.65846529977218715 ) ) ;
#204 = ORIENTED_EDGE ( 'NONE', *, *, #59, .F. ) ;
#205 = ORIENTED_EDGE ( 'NONE', *, *, #94, .F. ) ;
#206 = CARTESIAN_POINT ( 'NONE',  ( 10.00000000000000178, 22.91954594013974855, 11.20663908910248274 ) ) ;
#207 = ORIENTED_EDGE ( 'NONE', *, *, #338, .T. ) ;
#208 = ORIENTED_EDGE ( 'NONE', *, *, #401, .F. ) ;
#209 = CARTESIAN_POINT ( 'NONE',  ( 6.999999999999996447, 7.000514900631582549, 12.65846529977218715 ) ) ;
#210 = EDGE_LOOP ( 'NONE', ( #349, #421, #84, #77 ) ) ;
#211 = DIRECTION ( 'NONE',  ( 1.000000000000000000, 0.000000000000000000, 0.000000000000000000 ) ) ;
#212 = ORIENTED_EDGE ( 'NONE', *, *, #309, .T. ) ;
#213 = LINE ( 'NONE', #264, #341 ) ;
#214 = AXIS2_PLACEMENT_3D ( 'NONE', #75, #45, #145 ) ;
#215 = DIRECTION ( 'NONE',  ( -1.000000000000000000, 0.000000000000000000, 0.000000000000000000 ) ) ;
#216 = CARTESIAN_POINT ( 'NONE',  ( 42.00000000000000000, 7.000514900631582549, 12.65846529977218715 ) ) ;
#217 = PRODUCT_CONTEXT ( 'NONE', #365, 'mechanical' ) ;
#218 = DIRECTION ( 'NONE',  ( -1.000000000000000000, -0.000000000000000000, -0.000000000000000000 ) ) ;
#219 = EDGE_CURVE ( 'NONE', #20, #340, #417, .T. ) ;
#220 = CARTESIAN_POINT ( 'NONE',  ( 42.00000000000000000, 22.91954594013974855, 14.20663908910248985 ) ) ;
#221 =( GEOMETRIC_REPRESENTATION_CONTEXT ( 3 ) GLOBAL_UNCERTAINTY_ASSIGNED_CONTEXT ( ( #296 ) ) GLOBAL_UNIT_ASSIGNED_CONTEXT ( ( #70, #268, #334 ) ) REPRESENTATION_CONTEXT ( 'NONE', 'WORKASPACE' ) );
#222 = DIRECTION ( 'NONE',  ( 1.000000000000000000, 0.000000000000000000, 0.000000000000000000 ) ) ;
#223 = EDGE_CURVE ( 'NONE', #416, #73, #41, .T. ) ;
#224 = CARTESIAN_POINT ( 'NONE',  ( 10.00000000000000000, 13.76046930743564367, 14.65846529977218715 ) ) ;
#225 = LINE ( 'NONE', #61, #249 ) ;
#226 = ADVANCED_FACE ( 'NONE', ( #140 ), #269, .T. ) ;
#227 = AXIS2_PLACEMENT_3D ( 'NONE', #356, #87, #78 ) ;
#228 = LINE ( 'NONE', #36, #404 ) ;
#229 = MANIFOLD_SOLID_BREP ( 'Fillet5', #128 ) ;
#230 = DIRECTION ( 'NONE',  ( 1.000000000000000000, 0.000000000000000000, 0.000000000000000000 ) ) ;
#231 = CIRCLE ( 'NONE', #267, 1.000000000000000888 ) ;
#232 = ORIENTED_EDGE ( 'NONE', *, *, #100, .F. ) ;
#233 = VERTEX_POINT ( 'NONE', #302 ) ;
#234 = ORIENTED_EDGE ( 'NONE', *, *, #181, .T. ) ;
#235 = VERTEX_POINT ( 'NONE', #199 ) ;
#236 = DIRECTION ( 'NONE',  ( 0.000000000000000000, 0.000000000000000000, 1.000000000000000000 ) ) ;
#237 = ORIENTED_EDGE ( 'NONE', *, *, #383, .T. ) ;
#238 = PRODUCT_RELATED_PRODUCT_CATEGORY ( 'part', '', ( #243 ) ) ;
#239 = EDGE_LOOP ( 'NONE', ( #38, #351 ) ) ;
#240 = VECTOR ( 'NONE', #218, 1000.000000000000000 ) ;
#241 = PLANE ( 'NONE',  #214 ) ;
#242 = ORIENTED_EDGE ( 'NONE', *, *, #358, .T. ) ;
#243 = PRODUCT ( 'hingecylinder', 'hingecylinder', '', ( #217 ) ) ;
#244 = LINE ( 'NONE', #18, #3 ) ;
#245 = VERTEX_POINT ( 'NONE', #403 ) ;
#246 = DIRECTION ( 'NONE',  ( 0.000000000000000000, 0.000000000000000000, -1.000000000000000000 ) ) ;
#247 = EDGE_LOOP ( 'NONE', ( #287, #344 ) ) ;
#248 = CARTESIAN_POINT ( 'NONE',  ( 10.00000000000000178, 7.000514900631582549, 10.65846529977218715 ) ) ;
#249 = VECTOR ( 'NONE', #398, 1000.000000000000000 ) ;
#250 = PLANE ( 'NONE',  #281 ) ;
#251 = EDGE_CURVE ( 'NONE', #175, #419, #372, .T. ) ;
#252 = FACE_OUTER_BOUND ( 'NONE', #378, .T. ) ;
#253 = AXIS2_PLACEMENT_3D ( 'NONE', #52, #315, #276 ) ;
#254 = DIRECTION ( 'NONE',  ( -1.000000000000000000, -0.000000000000000000, -0.000000000000000000 ) ) ;
#255 = CARTESIAN_POINT ( 'NONE',  ( 6.999999999999996447, 26.53831009820316211, 18.54179588907885901 ) ) ;
#256 = CARTESIAN_POINT ( 'NONE',  ( 10.00000000000000178, 25.53831009820316211, 11.65846529977218538 ) ) ;
#257 = DIRECTION ( 'NONE',  ( 0.000000000000000000, 0.000000000000000000, 1.000000000000000000 ) ) ;
#258 = EDGE_CURVE ( 'NONE', #347, #175, #228, .T. ) ;
#259 = CARTESIAN_POINT ( 'NONE',  ( 0.000000000000000000, 7.000514900631582549, 10.65846529977218715 ) ) ;
#260 = AXIS2_PLACEMENT_3D ( 'NONE', #361, #62, #69 ) ;
#261 = PRODUCT_DEFINITION_SHAPE ( 'NONE', 'NONE',  #406 ) ;
#262 = DIRECTION ( 'NONE',  ( -1.000000000000000000, -0.000000000000000000, -0.000000000000000000 ) ) ;
#263 = DIRECTION ( 'NONE',  ( 1.000000000000000000, 0.000000000000000000, 0.000000000000000000 ) ) ;
#264 = CARTESIAN_POINT ( 'NONE',  ( 6.999999999999996447, 7.000514900631582549, 10.65846529977218715 ) ) ;
#265 = EDGE_CURVE ( 'NONE', #79, #284, #360, .T. ) ;
#266 = CARTESIAN_POINT ( 'NONE',  ( 42.00000000000000000, 7.000514900631582549, 12.65846529977218715 ) ) ;
#267 = AXIS2_PLACEMENT_3D ( 'NONE', #49, #192, #164 ) ;
#268 =( NAMED_UNIT ( * ) PLANE_ANGLE_UNIT ( ) SI_UNIT ( $, .RADIAN. ) );
#269 = PLANE ( 'NONE',  #292 ) ;
#270 = ADVANCED_FACE ( 'NONE', ( #431 ), #423, .F. ) ;
#271 = ORIENTED_EDGE ( 'NONE', *, *, #59, .T. ) ;
#272 = CARTESIAN_POINT ( 'NONE',  ( 10.00000000000000000, 26.53831009820316211, 11.65846529977218538 ) ) ;
#273 = EDGE_LOOP ( 'NONE', ( #178, #387, #280, #110, #111, #242 ) ) ;
#274 = ADVANCED_FACE ( 'NONE', ( #252 ), #283, .F. ) ;
#275 = EDGE_LOOP ( 'NONE', ( #318, #314, #306, #118 ) ) ;
#276 = DIRECTION ( 'NONE',  ( 0.000000000000000000, 1.040834085586083310E-14, 1.000000000000000000 ) ) ;
#277 = ORIENTED_EDGE ( 'NONE', *, *, #309, .F. ) ;
#278 = CIRCLE ( 'NONE', #399, 1.500000000000003109 ) ;
#279 = DIRECTION ( 'NONE',  ( 1.000000000000000000, -0.000000000000000000, -0.000000000000000000 ) ) ;
#280 = ORIENTED_EDGE ( 'NONE', *, *, #166, .T. ) ;
#281 = AXIS2_PLACEMENT_3D ( 'NONE', #298, #367, #402 ) ;
#282 = DIRECTION ( 'NONE',  ( -1.000000000000000000, -0.000000000000000000, -0.000000000000000000 ) ) ;
#283 = CYLINDRICAL_SURFACE ( 'NONE', #89, 1.500000000000003109 ) ;
#284 = VERTEX_POINT ( 'NONE', #28 ) ;
#285 = DIRECTION ( 'NONE',  ( 0.000000000000000000, 0.000000000000000000, 1.000000000000000000 ) ) ;
#286 = CARTESIAN_POINT ( 'NONE',  ( 10.00000000000000178, 22.91954594013974855, 14.20663908910248985 ) ) ;
#287 = ORIENTED_EDGE ( 'NONE', *, *, #338, .F. ) ;
#288 = DIRECTION ( 'NONE',  ( -1.000000000000000000, 0.000000000000000000, 0.000000000000000000 ) ) ;
#289 = CYLINDRICAL_SURFACE ( 'NONE', #34, 2.000000000000000000 ) ;
#290 = DIRECTION ( 'NONE',  ( 0.000000000000000000, 0.000000000000000000, 1.000000000000000000 ) ) ;
#291 = DIRECTION ( 'NONE',  ( 1.000000000000000000, 0.000000000000000000, -0.000000000000000000 ) ) ;
#292 = AXIS2_PLACEMENT_3D ( 'NONE', #266, #230, #407 ) ;
#293 = CARTESIAN_POINT ( 'NONE',  ( 42.00000000000000000, 7.000514900631582549, 12.65846529977218715 ) ) ;
#294 = AXIS2_PLACEMENT_3D ( 'NONE', #114, #8, #117 ) ;
#295 = FACE_OUTER_BOUND ( 'NONE', #146, .T. ) ;
#296 = UNCERTAINTY_MEASURE_WITH_UNIT (LENGTH_MEASURE( 1.000000000000000082E-05 ), #70, 'distance_accuracy_value', 'NONE');
#297 = ADVANCED_FACE ( 'NONE', ( #96 ), #420, .T. ) ;
#298 = CARTESIAN_POINT ( 'NONE',  ( 0.000000000000000000, 7.000514900631582549, 12.65846529977218715 ) ) ;
#299 = FACE_OUTER_BOUND ( 'NONE', #275, .T. ) ;
#300 = CIRCLE ( 'NONE', #24, 1.500000000000003109 ) ;
#301 = CIRCLE ( 'NONE', #400, 1.000000000000000888 ) ;
#302 = CARTESIAN_POINT ( 'NONE',  ( 6.999999999999996447, 26.53831009820316211, 11.65846529977218538 ) ) ;
#303 = ADVANCED_FACE ( 'NONE', ( #92 ), #289, .T. ) ;
#304 = DIRECTION ( 'NONE',  ( 0.000000000000000000, 0.000000000000000000, 1.000000000000000000 ) ) ;
#305 = AXIS2_PLACEMENT_3D ( 'NONE', #209, #288, #285 ) ;
#306 = ORIENTED_EDGE ( 'NONE', *, *, #335, .F. ) ;
#307 = ORIENTED_EDGE ( 'NONE', *, *, #352, .F. ) ;
#308 = VERTEX_POINT ( 'NONE', #317 ) ;
#309 = EDGE_CURVE ( 'NONE', #176, #76, #327, .T. ) ;
#310 = AXIS2_PLACEMENT_3D ( 'NONE', #163, #65, #263 ) ;
#311 = EDGE_LOOP ( 'NONE', ( #144, #205, #339, #207 ) ) ;
#312 = EDGE_LOOP ( 'NONE', ( #11, #113, #234, #16 ) ) ;
#313 = FACE_OUTER_BOUND ( 'NONE', #273, .T. ) ;
#314 = ORIENTED_EDGE ( 'NONE', *, *, #251, .T. ) ;
#315 = DIRECTION ( 'NONE',  ( 1.000000000000000000, -0.000000000000000000, -0.000000000000000000 ) ) ;
#316 = ORIENTED_EDGE ( 'NONE', *, *, #21, .T. ) ;
#317 = CARTESIAN_POINT ( 'NONE',  ( 6.999999999999996447, 22.91954594013974855, 11.20663908910248274 ) ) ;
#318 = ORIENTED_EDGE ( 'NONE', *, *, #258, .T. ) ;
#319 = STYLED_ITEM ( 'NONE', ( #2 ), #229 ) ;
#320 = FACE_BOUND ( 'NONE', #247, .T. ) ;
#321 = CARTESIAN_POINT ( 'NONE',  ( 6.999999999999996447, 22.91954594013974855, 12.70663908910248630 ) ) ;
#322 = EDGE_LOOP ( 'NONE', ( #72, #51, #201, #316, #375, #147 ) ) ;
#323 = CARTESIAN_POINT ( 'NONE',  ( 10.00000000000000000, 7.000514900631582549, 14.65846529977218715 ) ) ;
#324 = DIRECTION ( 'NONE',  ( 0.000000000000000000, 0.000000000000000000, 1.000000000000000000 ) ) ;
#325 = CARTESIAN_POINT ( 'NONE',  ( 10.00000000000000000, 7.000514900631582549, 10.65846529977218715 ) ) ;
#326 = EDGE_CURVE ( 'NONE', #176, #81, #15, .T. ) ;
#327 = CIRCLE ( 'NONE', #138, 2.000000000000000000 ) ;
#328 = DIRECTION ( 'NONE',  ( 0.000000000000000000, -0.000000000000000000, -1.000000000000000000 ) ) ;
#329 = CARTESIAN_POINT ( 'NONE',  ( 6.999999999999996447, 26.53831009820316211, 13.65846529977218715 ) ) ;
#330 =( NAMED_UNIT ( * ) SI_UNIT ( $, .STERADIAN. ) SOLID_ANGLE_UNIT ( ) );
#331 = CARTESIAN_POINT ( 'NONE',  ( 10.00000000000000178, 26.53831009820316211, 13.65846529977218715 ) ) ;
#332 =( LENGTH_UNIT ( ) NAMED_UNIT ( * ) SI_UNIT ( .MILLI., .METRE. ) );
#333 = EDGE_CURVE ( 'NONE', #416, #382, #152, .T. ) ;
#334 =( NAMED_UNIT ( * ) SI_UNIT ( $, .STERADIAN. ) SOLID_ANGLE_UNIT ( ) );
#335 = EDGE_CURVE ( 'NONE', #73, #419, #83, .T. ) ;
#336 = VECTOR ( 'NONE', #342, 1000.000000000000000 ) ;
#337 = ORIENTED_EDGE ( 'NONE', *, *, #352, .T. ) ;
#338 = EDGE_CURVE ( 'NONE', #245, #308, #108, .T. ) ;
#339 = ORIENTED_EDGE ( 'NONE', *, *, #200, .T. ) ;
#340 = VERTEX_POINT ( 'NONE', #286 ) ;
#341 = VECTOR ( 'NONE', #99, 1000.000000000000000 ) ;
#342 = DIRECTION ( 'NONE',  ( -1.000000000000000000, 0.000000000000000000, 0.000000000000000000 ) ) ;
#343 = CIRCLE ( 'NONE', #253, 1.000000000000000888 ) ;
#344 = ORIENTED_EDGE ( 'NONE', *, *, #153, .F. ) ;
#345 = ORIENTED_EDGE ( 'NONE', *, *, #44, .T. ) ;
#346 = LINE ( 'NONE', #48, #143 ) ;
#347 = VERTEX_POINT ( 'NONE', #123 ) ;
#348 = DIRECTION ( 'NONE',  ( -1.000000000000000000, -0.000000000000000000, -0.000000000000000000 ) ) ;
#349 = ORIENTED_EDGE ( 'NONE', *, *, #358, .F. ) ;
#350 = FACE_BOUND ( 'NONE', #149, .T. ) ;
#351 = ORIENTED_EDGE ( 'NONE', *, *, #4, .F. ) ;
#352 = EDGE_CURVE ( 'NONE', #81, #416, #389, .T. ) ;
#353 = CARTESIAN_POINT ( 'NONE',  ( 42.00000000000000000, 25.53831009820316211, 13.65846529977218715 ) ) ;
#354 = ORIENTED_EDGE ( 'NONE', *, *, #86, .T. ) ;
#355 = DIRECTION ( 'NONE',  ( 1.000000000000000000, 0.000000000000000000, 0.000000000000000000 ) ) ;
#356 = CARTESIAN_POINT ( 'NONE',  ( 6.999999999999999112, 25.53831009820316211, 13.65846529977218715 ) ) ;
#357 = CARTESIAN_POINT ( 'NONE',  ( 10.00000000000000000, 25.53831009820315501, 10.65846529977218715 ) ) ;
#358 = EDGE_CURVE ( 'NONE', #419, #385, #427, .T. ) ;
#359 = PLANE ( 'NONE',  #393 ) ;
#360 = LINE ( 'NONE', #182, #97 ) ;
#361 = CARTESIAN_POINT ( 'NONE',  ( 10.00000000000000178, 22.91954594013974855, 12.70663908910248630 ) ) ;
#362 = CARTESIAN_POINT ( 'NONE',  ( 0.000000000000000000, 7.000514900631582549, 12.65846529977218715 ) ) ;
#363 = COLOUR_RGB ( '',0.7921568627450980005, 0.8196078431372548767, 0.9333333333333333481 ) ;
#364 = DIRECTION ( 'NONE',  ( 1.000000000000000000, 0.000000000000000000, -0.000000000000000000 ) ) ;
#365 = APPLICATION_CONTEXT ( 'automotive_design' ) ;
#366 = CYLINDRICAL_SURFACE ( 'NONE', #6, 1.500000000000003109 ) ;
#367 = DIRECTION ( 'NONE',  ( 1.000000000000000000, 0.000000000000000000, 0.000000000000000000 ) ) ;
#368 = CARTESIAN_POINT ( 'NONE',  ( 42.00000000000000000, 25.53831009820316211, 11.65846529977218538 ) ) ;
#369 = PLANE ( 'NONE',  #126 ) ;
#370 = VECTOR ( 'NONE', #262, 1000.000000000000000 ) ;
#371 = CIRCLE ( 'NONE', #294, 2.000000000000000000 ) ;
#372 = LINE ( 'NONE', #102, #55 ) ;
#373 = CIRCLE ( 'NONE', #167, 2.000000000000000000 ) ;
#374 = EDGE_LOOP ( 'NONE', ( #277, #42, #120, #204 ) ) ;
#375 = ORIENTED_EDGE ( 'NONE', *, *, #258, .F. ) ;
#376 = ORIENTED_EDGE ( 'NONE', *, *, #219, .F. ) ;
#377 = EDGE_CURVE ( 'NONE', #233, #235, #231, .T. ) ;
#378 = EDGE_LOOP ( 'NONE', ( #376, #107, #116, #13 ) ) ;
#379 = LINE ( 'NONE', #10, #410 ) ;
#380 = VECTOR ( 'NONE', #254, 1000.000000000000000 ) ;
#381 = DIRECTION ( 'NONE',  ( -1.000000000000000000, -0.000000000000000000, -0.000000000000000000 ) ) ;
#382 = VERTEX_POINT ( 'NONE', #259 ) ;
#383 = EDGE_CURVE ( 'NONE', #186, #382, #35, .T. ) ;
#384 = DIRECTION ( 'NONE',  ( -1.000000000000000000, 0.000000000000000000, 0.000000000000000000 ) ) ;
#385 = VERTEX_POINT ( 'NONE', #329 ) ;
#386 = CARTESIAN_POINT ( 'NONE',  ( 42.00000000000000000, 7.000514900631582549, 10.65846529977218715 ) ) ;
#387 = ORIENTED_EDGE ( 'NONE', *, *, #377, .T. ) ;
#388 = DIRECTION ( 'NONE',  ( 0.000000000000000000, 0.000000000000000000, 1.000000000000000000 ) ) ;
#389 = LINE ( 'NONE', #88, #174 ) ;
#390 = VECTOR ( 'NONE', #381, 1000.000000000000000 ) ;
#391 = DIRECTION ( 'NONE',  ( -1.000000000000000000, 0.000000000000000000, 0.000000000000000000 ) ) ;
#392 = LINE ( 'NONE', #331, #64 ) ;
#393 = AXIS2_PLACEMENT_3D ( 'NONE', #325, #131, #26 ) ;
#394 = ADVANCED_FACE ( 'NONE', ( #295 ), #359, .T. ) ;
#395 = DIRECTION ( 'NONE',  ( 0.000000000000000000, 0.000000000000000000, 1.000000000000000000 ) ) ;
#396 = CARTESIAN_POINT ( 'NONE',  ( 0.000000000000000000, 7.000514900631582549, 14.65846529977218715 ) ) ;
#397 = DIRECTION ( 'NONE',  ( -0.000000000000000000, -0.000000000000000000, 1.000000000000000000 ) ) ;
#398 = DIRECTION ( 'NONE',  ( -1.000000000000000000, -0.000000000000000000, -0.000000000000000000 ) ) ;
#399 = AXIS2_PLACEMENT_3D ( 'NONE', #57, #418, #388 ) ;
#400 = AXIS2_PLACEMENT_3D ( 'NONE', #256, #115, #290 ) ;
#401 = EDGE_CURVE ( 'NONE', #151, #79, #301, .T. ) ;
#402 = DIRECTION ( 'NONE',  ( 0.000000000000000000, 0.000000000000000000, -1.000000000000000000 ) ) ;
#403 = CARTESIAN_POINT ( 'NONE',  ( 6.999999999999996447, 22.91954594013974855, 14.20663908910248985 ) ) ;
#404 = VECTOR ( 'NONE', #425, 1000.000000000000000 ) ;
#405 = PRODUCT_DEFINITION_CONTEXT ( 'detailed design', #195, 'design' ) ;
#406 = PRODUCT_DEFINITION ( 'UNKNOWN', '', #196, #405 ) ;
#407 = DIRECTION ( 'NONE',  ( 0.000000000000000000, 0.000000000000000000, -1.000000000000000000 ) ) ;
#408 = SURFACE_STYLE_USAGE ( .BOTH. , #5 ) ;
#409 = ORIENTED_EDGE ( 'NONE', *, *, #4, .T. ) ;
#410 = VECTOR ( 'NONE', #279, 1000.000000000000000 ) ;
#411 = ADVANCED_FACE ( 'NONE', ( #27 ), #250, .F. ) ;
#412 = DIRECTION ( 'NONE',  ( -1.000000000000000000, 0.000000000000000000, 0.000000000000000000 ) ) ;
#413 = ORIENTED_EDGE ( 'NONE', *, *, #172, .F. ) ;
#414 = ORIENTED_EDGE ( 'NONE', *, *, #71, .T. ) ;
#415 = FACE_OUTER_BOUND ( 'NONE', #322, .T. ) ;
#416 = VERTEX_POINT ( 'NONE', #190 ) ;
#417 = CIRCLE ( 'NONE', #260, 1.500000000000003109 ) ;
#418 = DIRECTION ( 'NONE',  ( -1.000000000000000000, 0.000000000000000000, 0.000000000000000000 ) ) ;
#419 = VERTEX_POINT ( 'NONE', #161 ) ;
#420 = CYLINDRICAL_SURFACE ( 'NONE', #30, 1.000000000000000888 ) ;
#421 = ORIENTED_EDGE ( 'NONE', *, *, #251, .F. ) ;
#422 = CARTESIAN_POINT ( 'NONE',  ( 42.00000000000000000, 22.91954594013974855, 11.20663908910248274 ) ) ;
#423 = PLANE ( 'NONE',  #106 ) ;
#424 = CARTESIAN_POINT ( 'NONE',  ( 6.999999999999996447, 7.000514900631582549, 14.65846529977218715 ) ) ;
#425 = DIRECTION ( 'NONE',  ( -0.000000000000000000, 1.000000000000000000, -0.000000000000000000 ) ) ;
#426 = VECTOR ( 'NONE', #156, 1000.000000000000000 ) ;
#427 = CIRCLE ( 'NONE', #227, 1.000000000000000888 ) ;
#428 = APPLICATION_PROTOCOL_DEFINITION ( 'draft international standard', 'automotive_design', 1998, #195 ) ;
#429 = AXIS2_PLACEMENT_3D ( 'NONE', #112, #412, #236 ) ;
#430 = CARTESIAN_POINT ( 'NONE',  ( 42.00000000000000000, 7.000514900631582549, 10.65846529977218715 ) ) ;
#431 = FACE_OUTER_BOUND ( 'NONE', #312, .T. ) ;
#432 = EDGE_CURVE ( 'NONE', #385, #284, #392, .T. ) ;
#433 = CARTESIAN_POINT ( 'NONE',  ( 10.00000000000000000, 25.53831009820315856, 14.65846529977218715 ) ) ;
ENDSEC;
END-ISO-10303-21;
