ISO-10303-21;
HEADER;
FILE_DESCRIPTION (( 'STEP AP214' ),
    '1' );
FILE_NAME ('hingecylinder1.step',
    '2026-09-17T07:00:05',
    ( '' ),
    ( '' ),
    'SwSTEP 2.0',
    'SolidWorks 2023',
    '' );
FILE_SCHEMA (( 'AUTOMOTIVE_DESIGN' ));
ENDSEC;

DATA;
#1 = DIRECTION ( 'NONE',  ( -1.000000000000000000, 0.000000000000000000, 0.000000000000000000 ) ) ;
#2 = EDGE_LOOP ( 'NONE', ( #248, #317, #253, #188 ) ) ;
#3 = CARTESIAN_POINT ( 'NONE',  ( 10.00000000000000000, 31.83189074296190313, 13.65846529977218715 ) ) ;
#4 = DIRECTION ( 'NONE',  ( 0.000000000000000000, 0.000000000000000000, 1.000000000000000000 ) ) ;
#5 = STYLED_ITEM ( 'NONE', ( #133 ), #18 ) ;
#6 = DIRECTION ( 'NONE',  ( 0.000000000000000000, 0.000000000000000000, 1.000000000000000000 ) ) ;
#7 = DIRECTION ( 'NONE',  ( 1.000000000000000000, 0.000000000000000000, 0.000000000000000000 ) ) ;
#8 = FACE_OUTER_BOUND ( 'NONE', #189, .T. ) ;
#9 = ORIENTED_EDGE ( 'NONE', *, *, #201, .T. ) ;
#10 = CYLINDRICAL_SURFACE ( 'NONE', #330, 2.000000000000000000 ) ;
#11 = LINE ( 'NONE', #173, #287 ) ;
#12 = ORIENTED_EDGE ( 'NONE', *, *, #201, .F. ) ;
#13 = FACE_OUTER_BOUND ( 'NONE', #359, .T. ) ;
#14 = EDGE_CURVE ( 'NONE', #183, #416, #396, .T. ) ;
#15 = VECTOR ( 'NONE', #432, 1000.000000000000000 ) ;
#16 = VERTEX_POINT ( 'NONE', #357 ) ;
#17 = ORIENTED_EDGE ( 'NONE', *, *, #399, .T. ) ;
#18 = MANIFOLD_SOLID_BREP ( 'Fillet6', #152 ) ;
#19 = ORIENTED_EDGE ( 'NONE', *, *, #70, .T. ) ;
#20 = PRESENTATION_LAYER_ASSIGNMENT (  '', '', ( #5 ) ) ;
#21 = ORIENTED_EDGE ( 'NONE', *, *, #280, .F. ) ;
#22 = ADVANCED_FACE ( 'NONE', ( #430 ), #424, .F. ) ;
#23 = EDGE_LOOP ( 'NONE', ( #83, #348 ) ) ;
#24 = DIRECTION ( 'NONE',  ( -1.000000000000000000, -0.000000000000000000, -0.000000000000000000 ) ) ;
#25 = EDGE_CURVE ( 'NONE', #148, #58, #57, .T. ) ;
#26 =( LENGTH_UNIT ( ) NAMED_UNIT ( * ) SI_UNIT ( .MILLI., .METRE. ) );
#27 = VECTOR ( 'NONE', #46, 1000.000000000000000 ) ;
#28 = FILL_AREA_STYLE ('',( #166 ) ) ;
#29 = DIRECTION ( 'NONE',  ( 0.000000000000000000, 0.000000000000000000, 1.000000000000000000 ) ) ;
#30 = DIRECTION ( 'NONE',  ( -1.000000000000000000, 0.000000000000000000, 0.000000000000000000 ) ) ;
#31 = EDGE_CURVE ( 'NONE', #191, #87, #365, .T. ) ;
#32 = AXIS2_PLACEMENT_3D ( 'NONE', #403, #313, #82 ) ;
#33 = VECTOR ( 'NONE', #196, 1000.000000000000000 ) ;
#34 = DIRECTION ( 'NONE',  ( 0.000000000000000000, 0.000000000000000000, 1.000000000000000000 ) ) ;
#35 = DIRECTION ( 'NONE',  ( -0.000000000000000000, -1.000000000000000000, -0.000000000000000000 ) ) ;
#36 = ORIENTED_EDGE ( 'NONE', *, *, #102, .F. ) ;
#37 = LINE ( 'NONE', #240, #42 ) ;
#38 = DIRECTION ( 'NONE',  ( 0.000000000000000000, 0.000000000000000000, 1.000000000000000000 ) ) ;
#39 = ORIENTED_EDGE ( 'NONE', *, *, #242, .F. ) ;
#40 = DIRECTION ( 'NONE',  ( 1.000000000000000000, -0.000000000000000000, -0.000000000000000000 ) ) ;
#41 = AXIS2_PLACEMENT_3D ( 'NONE', #169, #244, #306 ) ;
#42 = VECTOR ( 'NONE', #171, 1000.000000000000000 ) ;
#43 = CARTESIAN_POINT ( 'NONE',  ( 23.41858308963971425, 28.95396224739525337, 12.65846529977218715 ) ) ;
#44 = ORIENTED_EDGE ( 'NONE', *, *, #163, .F. ) ;
#45 = DIRECTION ( 'NONE',  ( -0.000000000000000000, -1.000000000000000000, -0.000000000000000000 ) ) ;
#46 = DIRECTION ( 'NONE',  ( 1.000000000000000000, -0.000000000000000000, -0.000000000000000000 ) ) ;
#47 = ORIENTED_EDGE ( 'NONE', *, *, #14, .T. ) ;
#48 = EDGE_CURVE ( 'NONE', #239, #187, #390, .T. ) ;
#49 = CYLINDRICAL_SURFACE ( 'NONE', #337, 1.499999999999987566 ) ;
#50 = EDGE_LOOP ( 'NONE', ( #85, #174, #274, #307 ) ) ;
#51 = DIRECTION ( 'NONE',  ( 0.000000000000000000, 0.000000000000000000, 1.000000000000000000 ) ) ;
#52 = VERTEX_POINT ( 'NONE', #295 ) ;
#53 = ORIENTED_EDGE ( 'NONE', *, *, #55, .F. ) ;
#54 = DIRECTION ( 'NONE',  ( 1.000000000000000000, 0.000000000000000000, 0.000000000000000000 ) ) ;
#55 = EDGE_CURVE ( 'NONE', #178, #148, #231, .T. ) ;
#56 = ORIENTED_EDGE ( 'NONE', *, *, #394, .T. ) ;
#57 = CIRCLE ( 'NONE', #300, 2.000000000000000000 ) ;
#58 = VERTEX_POINT ( 'NONE', #93 ) ;
#59 = AXIS2_PLACEMENT_3D ( 'NONE', #112, #71, #215 ) ;
#60 = CARTESIAN_POINT ( 'NONE',  ( 23.41858308963971425, 28.95396224739525337, 14.15846529977217472 ) ) ;
#61 = EDGE_CURVE ( 'NONE', #16, #239, #264, .T. ) ;
#62 = LINE ( 'NONE', #60, #33 ) ;
#63 = CARTESIAN_POINT ( 'NONE',  ( 12.71873858440221383, 13.72551015573070288, 14.65846529977218893 ) ) ;
#64 = AXIS2_PLACEMENT_3D ( 'NONE', #351, #80, #4 ) ;
#65 = EDGE_CURVE ( 'NONE', #73, #139, #226, .T. ) ;
#66 = DIRECTION ( 'NONE',  ( -1.000000000000000000, 0.000000000000000000, 0.000000000000000000 ) ) ;
#67 = DIRECTION ( 'NONE',  ( 0.000000000000000000, 0.000000000000000000, -1.000000000000000000 ) ) ;
#68 = AXIS2_PLACEMENT_3D ( 'NONE', #266, #136, #131 ) ;
#69 = LINE ( 'NONE', #204, #198 ) ;
#70 = EDGE_CURVE ( 'NONE', #350, #139, #62, .T. ) ;
#71 = DIRECTION ( 'NONE',  ( 1.000000000000000000, 0.000000000000000000, 0.000000000000000000 ) ) ;
#72 = DIRECTION ( 'NONE',  ( 0.000000000000000000, 0.000000000000000000, 1.000000000000000000 ) ) ;
#73 = VERTEX_POINT ( 'NONE', #192 ) ;
#74 = DIRECTION ( 'NONE',  ( -1.000000000000000000, 0.000000000000000000, -0.000000000000000000 ) ) ;
#75 = DIRECTION ( 'NONE',  ( -1.000000000000000000, 0.000000000000000000, 0.000000000000000000 ) ) ;
#76 = ORIENTED_EDGE ( 'NONE', *, *, #48, .T. ) ;
#77 = CARTESIAN_POINT ( 'NONE',  ( 42.00000000000000000, 7.000514900631582549, 12.65846529977218715 ) ) ;
#78 = DIRECTION ( 'NONE',  ( 0.000000000000000000, 0.000000000000000000, 1.000000000000000000 ) ) ;
#79 = ORIENTED_EDGE ( 'NONE', *, *, #31, .T. ) ;
#80 = DIRECTION ( 'NONE',  ( -1.000000000000000000, 0.000000000000000000, 0.000000000000000000 ) ) ;
#81 = VERTEX_POINT ( 'NONE', #366 ) ;
#82 = DIRECTION ( 'NONE',  ( 0.000000000000000000, 0.000000000000000000, -1.000000000000000000 ) ) ;
#83 = ORIENTED_EDGE ( 'NONE', *, *, #418, .F. ) ;
#84 = MECHANICAL_DESIGN_GEOMETRIC_PRESENTATION_REPRESENTATION (  '', ( #5 ), #104 ) ;
#85 = ORIENTED_EDGE ( 'NONE', *, *, #426, .F. ) ;
#86 = ADVANCED_FACE ( 'NONE', ( #395 ), #165, .T. ) ;
#87 = VERTEX_POINT ( 'NONE', #431 ) ;
#88 = ORIENTED_EDGE ( 'NONE', *, *, #61, .T. ) ;
#89 = SHAPE_DEFINITION_REPRESENTATION ( #234, #358 ) ;
#90 = EDGE_CURVE ( 'NONE', #87, #156, #220, .T. ) ;
#91 = LINE ( 'NONE', #360, #128 ) ;
#92 = VECTOR ( 'NONE', #75, 1000.000000000000000 ) ;
#93 = CARTESIAN_POINT ( 'NONE',  ( 10.00000000000000178, 7.000514900631582549, 10.65846529977218715 ) ) ;
#94 = CARTESIAN_POINT ( 'NONE',  ( 10.00000000000000000, 30.83189074296189958, 10.65846529977218715 ) ) ;
#95 = LINE ( 'NONE', #233, #382 ) ;
#96 = AXIS2_PLACEMENT_3D ( 'NONE', #315, #243, #409 ) ;
#97 = EDGE_CURVE ( 'NONE', #283, #73, #95, .T. ) ;
#98 = UNCERTAINTY_MEASURE_WITH_UNIT (LENGTH_MEASURE( 1.000000000000000082E-05 ), #388, 'distance_accuracy_value', 'NONE');
#99 = SURFACE_SIDE_STYLE ('',( #333 ) ) ;
#100 = CARTESIAN_POINT ( 'NONE',  ( 0.000000000000000000, 7.000514900631582549, 12.65846529977218715 ) ) ;
#101 = CARTESIAN_POINT ( 'NONE',  ( 6.999999999999995559, 31.83189074296190313, 11.65846529977218538 ) ) ;
#102 = EDGE_CURVE ( 'NONE', #81, #58, #91, .T. ) ;
#103 = VERTEX_POINT ( 'NONE', #164 ) ;
#104 =( GEOMETRIC_REPRESENTATION_CONTEXT ( 3 ) GLOBAL_UNCERTAINTY_ASSIGNED_CONTEXT ( ( #172 ) ) GLOBAL_UNIT_ASSIGNED_CONTEXT ( ( #26, #329, #297 ) ) REPRESENTATION_CONTEXT ( 'NONE', 'WORKASPACE' ) );
#105 = FACE_OUTER_BOUND ( 'NONE', #402, .T. ) ;
#106 = FACE_OUTER_BOUND ( 'NONE', #255, .T. ) ;
#107 = CARTESIAN_POINT ( 'NONE',  ( 10.00000000000000000, 7.000514900631582549, 10.65846529977218715 ) ) ;
#108 = FACE_OUTER_BOUND ( 'NONE', #23, .T. ) ;
#109 = ORIENTED_EDGE ( 'NONE', *, *, #418, .T. ) ;
#110 = DIRECTION ( 'NONE',  ( 0.000000000000000000, 0.000000000000000000, 1.000000000000000000 ) ) ;
#111 = CARTESIAN_POINT ( 'NONE',  ( 6.999999999999996447, 31.83189074296190313, 10.65846529977218715 ) ) ;
#112 = CARTESIAN_POINT ( 'NONE',  ( 23.41858308963971425, 30.83189074296189958, 11.65846529977218538 ) ) ;
#113 = CIRCLE ( 'NONE', #237, 1.499999999999987566 ) ;
#114 = VECTOR ( 'NONE', #362, 1000.000000000000000 ) ;
#115 = AXIS2_PLACEMENT_3D ( 'NONE', #43, #235, #72 ) ;
#116 = AXIS2_PLACEMENT_3D ( 'NONE', #107, #249, #74 ) ;
#117 = CARTESIAN_POINT ( 'NONE',  ( 12.71873858440221383, 7.000514900631582549, 12.65846529977218715 ) ) ;
#118 = ORIENTED_EDGE ( 'NONE', *, *, #217, .F. ) ;
#119 = CARTESIAN_POINT ( 'NONE',  ( 10.00000000000000000, 30.83189074296189958, 11.65846529977218538 ) ) ;
#120 = ORIENTED_EDGE ( 'NONE', *, *, #286, .T. ) ;
#121 = ORIENTED_EDGE ( 'NONE', *, *, #321, .F. ) ;
#122 = EDGE_CURVE ( 'NONE', #103, #87, #293, .T. ) ;
#123 = DIRECTION ( 'NONE',  ( 0.000000000000000000, 0.000000000000000000, 1.000000000000000000 ) ) ;
#124 = ORIENTED_EDGE ( 'NONE', *, *, #90, .T. ) ;
#125 = VERTEX_POINT ( 'NONE', #339 ) ;
#126 = ADVANCED_FACE ( 'NONE', ( #147, #376 ), #309, .T. ) ;
#127 = ORIENTED_EDGE ( 'NONE', *, *, #102, .T. ) ;
#128 = VECTOR ( 'NONE', #24, 1000.000000000000000 ) ;
#129 = SURFACE_STYLE_USAGE ( .BOTH. , #99 ) ;
#130 = DIRECTION ( 'NONE',  ( 0.000000000000000000, 0.000000000000000000, 1.000000000000000000 ) ) ;
#131 = DIRECTION ( 'NONE',  ( 0.000000000000000000, 0.000000000000000000, 1.000000000000000000 ) ) ;
#132 = EDGE_CURVE ( 'NONE', #156, #208, #407, .T. ) ;
#133 = PRESENTATION_STYLE_ASSIGNMENT (( #129 ) ) ;
#134 = COLOUR_RGB ( '',0.7921568627450980005, 0.8196078431372548767, 0.9333333333333333481 ) ;
#135 = AXIS2_PLACEMENT_3D ( 'NONE', #373, #1, #34 ) ;
#136 = DIRECTION ( 'NONE',  ( -1.000000000000000000, 0.000000000000000000, 0.000000000000000000 ) ) ;
#137 = EDGE_CURVE ( 'NONE', #16, #156, #344, .T. ) ;
#138 = DIRECTION ( 'NONE',  ( 1.000000000000000000, -0.000000000000000000, -0.000000000000000000 ) ) ;
#139 = VERTEX_POINT ( 'NONE', #347 ) ;
#140 = CARTESIAN_POINT ( 'NONE',  ( 42.00000000000000000, 7.000514900631582549, 10.65846529977218715 ) ) ;
#141 = DIRECTION ( 'NONE',  ( 1.000000000000000000, 0.000000000000000000, 0.000000000000000000 ) ) ;
#142 = ORIENTED_EDGE ( 'NONE', *, *, #286, .F. ) ;
#143 = CARTESIAN_POINT ( 'NONE',  ( 10.00000000000000000, 28.95396224739525337, 14.15846529977217472 ) ) ;
#144 = AXIS2_PLACEMENT_3D ( 'NONE', #276, #150, #252 ) ;
#145 = CARTESIAN_POINT ( 'NONE',  ( 12.71873858440221383, 7.000514900631582549, 14.65846529977218715 ) ) ;
#146 = DIRECTION ( 'NONE',  ( 0.000000000000000000, 0.000000000000000000, -1.000000000000000000 ) ) ;
#147 = FACE_OUTER_BOUND ( 'NONE', #324, .T. ) ;
#148 = VERTEX_POINT ( 'NONE', #369 ) ;
#149 = LINE ( 'NONE', #140, #415 ) ;
#150 = DIRECTION ( 'NONE',  ( -1.000000000000000000, 0.000000000000000000, 0.000000000000000000 ) ) ;
#151 = ORIENTED_EDGE ( 'NONE', *, *, #408, .T. ) ;
#152 = CLOSED_SHELL ( 'NONE', ( #332, #305, #86, #327, #251, #429, #210, #368, #126, #22, #167, #389, #375, #292 ) ) ;
#153 = PLANE ( 'NONE',  #116 ) ;
#154 = ORIENTED_EDGE ( 'NONE', *, *, #355, .F. ) ;
#155 = EDGE_CURVE ( 'NONE', #148, #103, #180, .T. ) ;
#156 = VERTEX_POINT ( 'NONE', #177 ) ;
#157 = APPLICATION_PROTOCOL_DEFINITION ( 'draft international standard', 'automotive_design', 1998, #296 ) ;
#158 = ORIENTED_EDGE ( 'NONE', *, *, #194, .F. ) ;
#159 = DIRECTION ( 'NONE',  ( 0.000000000000000000, 0.000000000000000000, 1.000000000000000000 ) ) ;
#160 = AXIS2_PLACEMENT_3D ( 'NONE', #77, #206, #51 ) ;
#161 = ORIENTED_EDGE ( 'NONE', *, *, #426, .T. ) ;
#162 = ORIENTED_EDGE ( 'NONE', *, *, #185, .F. ) ;
#163 = EDGE_CURVE ( 'NONE', #187, #58, #11, .T. ) ;
#164 = CARTESIAN_POINT ( 'NONE',  ( 6.999999999999996447, 7.000514900631582549, 14.65846529977218715 ) ) ;
#165 = CYLINDRICAL_SURFACE ( 'NONE', #316, 2.000000000000000000 ) ;
#166 = FILL_AREA_STYLE_COLOUR ( '', #134 ) ;
#167 = ADVANCED_FACE ( 'NONE', ( #8 ), #267, .F. ) ;
#168 = DIRECTION ( 'NONE',  ( 0.000000000000000000, 0.000000000000000000, -1.000000000000000000 ) ) ;
#169 = CARTESIAN_POINT ( 'NONE',  ( 6.999999999999996447, 7.000514900631582549, 12.65846529977218715 ) ) ;
#170 = ORIENTED_EDGE ( 'NONE', *, *, #137, .F. ) ;
#171 = DIRECTION ( 'NONE',  ( -0.000000000000000000, 1.000000000000000000, -0.000000000000000000 ) ) ;
#172 = UNCERTAINTY_MEASURE_WITH_UNIT (LENGTH_MEASURE( 1.000000000000000082E-05 ), #26, 'distance_accuracy_value', 'NONE');
#173 = CARTESIAN_POINT ( 'NONE',  ( 10.00000000000000000, 7.000514900631582549, 10.65846529977218715 ) ) ;
#174 = ORIENTED_EDGE ( 'NONE', *, *, #48, .F. ) ;
#175 = AXIS2_PLACEMENT_3D ( 'NONE', #200, #433, #29 ) ;
#176 = DIRECTION ( 'NONE',  ( 0.000000000000000000, -1.000000000000000000, 0.000000000000000000 ) ) ;
#177 = CARTESIAN_POINT ( 'NONE',  ( 6.999999999999996447, 31.83189074296190313, 13.65846529977218715 ) ) ;
#178 = VERTEX_POINT ( 'NONE', #145 ) ;
#179 = FACE_OUTER_BOUND ( 'NONE', #245, .T. ) ;
#180 = LINE ( 'NONE', #314, #232 ) ;
#181 = EDGE_LOOP ( 'NONE', ( #356, #127, #411, #53 ) ) ;
#182 = DIRECTION ( 'NONE',  ( 0.000000000000000000, -0.000000000000000000, -1.000000000000000000 ) ) ;
#183 = VERTEX_POINT ( 'NONE', #207 ) ;
#184 = DIRECTION ( 'NONE',  ( 0.000000000000000000, 0.000000000000000000, 1.000000000000000000 ) ) ;
#185 = EDGE_CURVE ( 'NONE', #178, #81, #186, .T. ) ;
#186 = CIRCLE ( 'NONE', #135, 2.000000000000000000 ) ;
#187 = VERTEX_POINT ( 'NONE', #400 ) ;
#188 = ORIENTED_EDGE ( 'NONE', *, *, #70, .F. ) ;
#189 = EDGE_LOOP ( 'NONE', ( #216, #17, #19, #427 ) ) ;
#190 = AXIS2_PLACEMENT_3D ( 'NONE', #63, #66, #265 ) ;
#191 = VERTEX_POINT ( 'NONE', #367 ) ;
#192 = CARTESIAN_POINT ( 'NONE',  ( 6.999999999999996447, 28.95396224739525337, 11.15846529977219959 ) ) ;
#193 = DIRECTION ( 'NONE',  ( -1.000000000000000000, -0.000000000000000000, -0.000000000000000000 ) ) ;
#194 = EDGE_CURVE ( 'NONE', #58, #52, #410, .T. ) ;
#195 = PRODUCT_DEFINITION_FORMATION_WITH_SPECIFIED_SOURCE ( 'ANY', '', #197, .NOT_KNOWN. ) ;
#196 = DIRECTION ( 'NONE',  ( -1.000000000000000000, 0.000000000000000000, 0.000000000000000000 ) ) ;
#197 = PRODUCT ( 'hingecylinder1', 'hingecylinder1', '', ( #262 ) ) ;
#198 = VECTOR ( 'NONE', #405, 1000.000000000000000 ) ;
#199 = DIRECTION ( 'NONE',  ( -1.000000000000000000, 0.000000000000000000, 0.000000000000000000 ) ) ;
#200 = CARTESIAN_POINT ( 'NONE',  ( 6.999999999999996447, 28.95396224739525337, 12.65846529977218715 ) ) ;
#201 = EDGE_CURVE ( 'NONE', #52, #103, #428, .T. ) ;
#202 = LINE ( 'NONE', #336, #273 ) ;
#203 = AXIS2_PLACEMENT_3D ( 'NONE', #371, #38, #211 ) ;
#204 = CARTESIAN_POINT ( 'NONE',  ( 42.00000000000000000, 7.000514900631582549, 14.65846529977218715 ) ) ;
#205 = ORIENTED_EDGE ( 'NONE', *, *, #31, .F. ) ;
#206 = DIRECTION ( 'NONE',  ( -1.000000000000000000, -0.000000000000000000, -0.000000000000000000 ) ) ;
#207 = CARTESIAN_POINT ( 'NONE',  ( 0.000000000000000000, 7.000514900631582549, 10.65846529977218715 ) ) ;
#208 = VERTEX_POINT ( 'NONE', #214 ) ;
#209 = CARTESIAN_POINT ( 'NONE',  ( 0.000000000000000000, 7.000514900631582549, 14.65846529977218715 ) ) ;
#210 = ADVANCED_FACE ( 'NONE', ( #108 ), #342, .F. ) ;
#211 = DIRECTION ( 'NONE',  ( 1.000000000000000000, 0.000000000000000000, -0.000000000000000000 ) ) ;
#212 = EDGE_LOOP ( 'NONE', ( #12, #261, #47, #39 ) ) ;
#213 = DIRECTION ( 'NONE',  ( 0.000000000000000000, 0.000000000000000000, 1.000000000000000000 ) ) ;
#214 = CARTESIAN_POINT ( 'NONE',  ( 10.00000000000000000, 31.83189074296190313, 13.65846529977218715 ) ) ;
#215 = DIRECTION ( 'NONE',  ( 0.000000000000000000, 0.000000000000000000, -1.000000000000000000 ) ) ;
#216 = ORIENTED_EDGE ( 'NONE', *, *, #97, .F. ) ;
#217 = EDGE_CURVE ( 'NONE', #208, #125, #202, .T. ) ;
#218 = DIRECTION ( 'NONE',  ( 1.000000000000000000, -0.000000000000000000, -0.000000000000000000 ) ) ;
#219 = ORIENTED_EDGE ( 'NONE', *, *, #163, .T. ) ;
#220 = CIRCLE ( 'NONE', #68, 1.000000000000000888 ) ;
#221 =( NAMED_UNIT ( * ) PLANE_ANGLE_UNIT ( ) SI_UNIT ( $, .RADIAN. ) );
#222 = ORIENTED_EDGE ( 'NONE', *, *, #194, .T. ) ;
#223 = DIRECTION ( 'NONE',  ( 0.000000000000000000, 0.000000000000000000, -1.000000000000000000 ) ) ;
#224 = PRODUCT_RELATED_PRODUCT_CATEGORY ( 'part', '', ( #197 ) ) ;
#225 = ORIENTED_EDGE ( 'NONE', *, *, #364, .F. ) ;
#226 = CIRCLE ( 'NONE', #175, 1.499999999999987566 ) ;
#227 = DIRECTION ( 'NONE',  ( 0.000000000000000000, 0.000000000000000000, 1.000000000000000000 ) ) ;
#228 = CARTESIAN_POINT ( 'NONE',  ( 0.000000000000000000, 0.000000000000000000, 0.000000000000000000 ) ) ;
#229 = CARTESIAN_POINT ( 'NONE',  ( 6.999999999999995559, 30.83189074296189958, 11.65846529977218538 ) ) ;
#230 = EDGE_CURVE ( 'NONE', #125, #16, #401, .T. ) ;
#231 = LINE ( 'NONE', #392, #114 ) ;
#232 = VECTOR ( 'NONE', #278, 1000.000000000000000 ) ;
#233 = CARTESIAN_POINT ( 'NONE',  ( 23.41858308963971425, 28.95396224739525337, 11.15846529977219959 ) ) ;
#234 = PRODUCT_DEFINITION_SHAPE ( 'NONE', 'NONE',  #260 ) ;
#235 = DIRECTION ( 'NONE',  ( -1.000000000000000000, 0.000000000000000000, 0.000000000000000000 ) ) ;
#236 = DIRECTION ( 'NONE',  ( -1.000000000000000000, 0.000000000000000000, 0.000000000000000000 ) ) ;
#237 = AXIS2_PLACEMENT_3D ( 'NONE', #406, #40, #417 ) ;
#238 = AXIS2_PLACEMENT_3D ( 'NONE', #247, #138, #78 ) ;
#239 = VERTEX_POINT ( 'NONE', #272 ) ;
#240 = CARTESIAN_POINT ( 'NONE',  ( 10.00000000000000000, 13.76046930743564367, 14.65846529977218715 ) ) ;
#241 = PLANE ( 'NONE',  #203 ) ;
#242 = EDGE_CURVE ( 'NONE', #103, #416, #69, .T. ) ;
#243 = DIRECTION ( 'NONE',  ( 1.000000000000000000, -0.000000000000000000, -0.000000000000000000 ) ) ;
#244 = DIRECTION ( 'NONE',  ( -1.000000000000000000, 0.000000000000000000, 0.000000000000000000 ) ) ;
#245 = EDGE_LOOP ( 'NONE', ( #36, #120, #353, #340, #338, #109, #225, #158 ) ) ;
#246 = DIRECTION ( 'NONE',  ( -1.000000000000000000, 0.000000000000000000, 0.000000000000000000 ) ) ;
#247 = CARTESIAN_POINT ( 'NONE',  ( 6.999999999999996447, 7.000514900631582549, 12.65846529977218715 ) ) ;
#248 = ORIENTED_EDGE ( 'NONE', *, *, #321, .T. ) ;
#249 = DIRECTION ( 'NONE',  ( 0.000000000000000000, 0.000000000000000000, -1.000000000000000000 ) ) ;
#250 = VECTOR ( 'NONE', #236, 1000.000000000000000 ) ;
#251 = ADVANCED_FACE ( 'NONE', ( #106 ), #241, .T. ) ;
#252 = DIRECTION ( 'NONE',  ( 0.000000000000000000, 0.000000000000000000, 1.000000000000000000 ) ) ;
#253 = ORIENTED_EDGE ( 'NONE', *, *, #65, .T. ) ;
#254 = PLANE ( 'NONE',  #64 ) ;
#255 = EDGE_LOOP ( 'NONE', ( #56, #79, #304, #381 ) ) ;
#256 = EDGE_LOOP ( 'NONE', ( #162, #142 ) ) ;
#257 = VECTOR ( 'NONE', #45, 1000.000000000000000 ) ;
#258 = CARTESIAN_POINT ( 'NONE',  ( 0.000000000000000000, 7.000514900631582549, 12.65846529977218715 ) ) ;
#259 = APPLICATION_CONTEXT ( 'automotive_design' ) ;
#260 = PRODUCT_DEFINITION ( 'UNKNOWN', '', #195, #298 ) ;
#261 = ORIENTED_EDGE ( 'NONE', *, *, #364, .T. ) ;
#262 = PRODUCT_CONTEXT ( 'NONE', #259, 'mechanical' ) ;
#263 = EDGE_LOOP ( 'NONE', ( #21, #320 ) ) ;
#264 = CIRCLE ( 'NONE', #363, 1.000000000000000888 ) ;
#265 = DIRECTION ( 'NONE',  ( 0.000000000000000000, 0.000000000000000000, 1.000000000000000000 ) ) ;
#266 = CARTESIAN_POINT ( 'NONE',  ( 6.999999999999996447, 30.83189074296189958, 13.65846529977218715 ) ) ;
#267 = CYLINDRICAL_SURFACE ( 'NONE', #115, 1.499999999999987566 ) ;
#268 = DIRECTION ( 'NONE',  ( -0.000000000000000000, 1.000000000000000000, -0.000000000000000000 ) ) ;
#269 = ORIENTED_EDGE ( 'NONE', *, *, #122, .T. ) ;
#270 = PLANE ( 'NONE',  #422 ) ;
#271 = VECTOR ( 'NONE', #6, 1000.000000000000000 ) ;
#272 = CARTESIAN_POINT ( 'NONE',  ( 6.999999999999996447, 30.83189074296189247, 10.65846529977218715 ) ) ;
#273 = VECTOR ( 'NONE', #168, 1000.000000000000000 ) ;
#274 = ORIENTED_EDGE ( 'NONE', *, *, #61, .F. ) ;
#275 = CYLINDRICAL_SURFACE ( 'NONE', #32, 1.000000000000000888 ) ;
#276 = CARTESIAN_POINT ( 'NONE',  ( 6.999999999999996447, 28.95396224739525337, 12.65846529977218715 ) ) ;
#277 = LINE ( 'NONE', #282, #257 ) ;
#278 = DIRECTION ( 'NONE',  ( -1.000000000000000000, 0.000000000000000000, 0.000000000000000000 ) ) ;
#279 = FACE_OUTER_BOUND ( 'NONE', #181, .T. ) ;
#280 = EDGE_CURVE ( 'NONE', #139, #73, #318, .T. ) ;
#281 = DIRECTION ( 'NONE',  ( -1.000000000000000000, 0.000000000000000000, 0.000000000000000000 ) ) ;
#282 = CARTESIAN_POINT ( 'NONE',  ( 6.999999999999996447, 7.000514900631582549, 10.65846529977218715 ) ) ;
#283 = VERTEX_POINT ( 'NONE', #378 ) ;
#284 = ORIENTED_EDGE ( 'NONE', *, *, #132, .T. ) ;
#285 = ORIENTED_EDGE ( 'NONE', *, *, #408, .F. ) ;
#286 = EDGE_CURVE ( 'NONE', #81, #178, #391, .T. ) ;
#287 = VECTOR ( 'NONE', #35, 1000.000000000000000 ) ;
#288 = AXIS2_PLACEMENT_3D ( 'NONE', #228, #159, #54 ) ;
#289 = AXIS2_PLACEMENT_3D ( 'NONE', #100, #141, #67 ) ;
#290 = DIRECTION ( 'NONE',  ( 1.000000000000000000, 0.000000000000000000, 0.000000000000000000 ) ) ;
#291 = ORIENTED_EDGE ( 'NONE', *, *, #25, .T. ) ;
#292 = ADVANCED_FACE ( 'NONE', ( #308 ), #412, .T. ) ;
#293 = LINE ( 'NONE', #303, #421 ) ;
#294 = AXIS2_PLACEMENT_3D ( 'NONE', #258, #290, #223 ) ;
#295 = CARTESIAN_POINT ( 'NONE',  ( 6.999999999999996447, 7.000514900631582549, 10.65846529977218715 ) ) ;
#296 = APPLICATION_CONTEXT ( 'automotive_design' ) ;
#297 =( NAMED_UNIT ( * ) SI_UNIT ( $, .STERADIAN. ) SOLID_ANGLE_UNIT ( ) );
#298 = PRODUCT_DEFINITION_CONTEXT ( 'detailed design', #296, 'design' ) ;
#299 = AXIS2_PLACEMENT_3D ( 'NONE', #310, #7, #146 ) ;
#300 = AXIS2_PLACEMENT_3D ( 'NONE', #361, #199, #130 ) ;
#301 = DIRECTION ( 'NONE',  ( -1.000000000000000000, 0.000000000000000000, 0.000000000000000000 ) ) ;
#302 = AXIS2_PLACEMENT_3D ( 'NONE', #380, #370, #184 ) ;
#303 = CARTESIAN_POINT ( 'NONE',  ( 6.999999999999996447, 13.76046930743564367, 14.65846529977218715 ) ) ;
#304 = ORIENTED_EDGE ( 'NONE', *, *, #122, .F. ) ;
#305 = ADVANCED_FACE ( 'NONE', ( #279 ), #343, .T. ) ;
#306 = DIRECTION ( 'NONE',  ( 0.000000000000000000, 0.000000000000000000, 1.000000000000000000 ) ) ;
#307 = ORIENTED_EDGE ( 'NONE', *, *, #230, .F. ) ;
#308 = FACE_OUTER_BOUND ( 'NONE', #50, .T. ) ;
#309 = PLANE ( 'NONE',  #41 ) ;
#310 = CARTESIAN_POINT ( 'NONE',  ( 0.000000000000000000, 7.000514900631582549, 12.65846529977218715 ) ) ;
#311 = CARTESIAN_POINT ( 'NONE',  ( 10.00000000000000000, 7.000514900631582549, 10.65846529977218715 ) ) ;
#312 = ORIENTED_EDGE ( 'NONE', *, *, #137, .T. ) ;
#313 = DIRECTION ( 'NONE',  ( 1.000000000000000000, 0.000000000000000000, -0.000000000000000000 ) ) ;
#314 = CARTESIAN_POINT ( 'NONE',  ( 10.00000000000000000, 7.000514900631582549, 14.65846529977218715 ) ) ;
#315 = CARTESIAN_POINT ( 'NONE',  ( 10.00000000000000000, 30.83189074296189958, 13.65846529977218715 ) ) ;
#316 = AXIS2_PLACEMENT_3D ( 'NONE', #328, #331, #334 ) ;
#317 = ORIENTED_EDGE ( 'NONE', *, *, #97, .T. ) ;
#318 = CIRCLE ( 'NONE', #144, 1.499999999999987566 ) ;
#319 = CARTESIAN_POINT ( 'NONE',  ( 23.41858308963971425, 28.95396224739525337, 12.65846529977218715 ) ) ;
#320 = ORIENTED_EDGE ( 'NONE', *, *, #65, .F. ) ;
#321 = EDGE_CURVE ( 'NONE', #350, #283, #397, .T. ) ;
#322 = ORIENTED_EDGE ( 'NONE', *, *, #230, .T. ) ;
#323 = CARTESIAN_POINT ( 'NONE',  ( 42.00000000000000000, 7.000514900631582549, 12.65846529977218715 ) ) ;
#324 = EDGE_LOOP ( 'NONE', ( #269, #124, #170, #88, #386, #9 ) ) ;
#325 = CIRCLE ( 'NONE', #413, 1.000000000000000888 ) ;
#326 = ORIENTED_EDGE ( 'NONE', *, *, #394, .F. ) ;
#327 = ADVANCED_FACE ( 'NONE', ( #13 ), #153, .T. ) ;
#328 = CARTESIAN_POINT ( 'NONE',  ( 42.00000000000000000, 7.000514900631582549, 12.65846529977218715 ) ) ;
#329 =( NAMED_UNIT ( * ) PLANE_ANGLE_UNIT ( ) SI_UNIT ( $, .RADIAN. ) );
#330 = AXIS2_PLACEMENT_3D ( 'NONE', #323, #193, #123 ) ;
#331 = DIRECTION ( 'NONE',  ( -1.000000000000000000, -0.000000000000000000, -0.000000000000000000 ) ) ;
#332 = ADVANCED_FACE ( 'NONE', ( #372 ), #49, .F. ) ;
#333 = SURFACE_STYLE_FILL_AREA ( #28 ) ;
#334 = DIRECTION ( 'NONE',  ( 0.000000000000000000, 0.000000000000000000, 1.000000000000000000 ) ) ;
#335 = CIRCLE ( 'NONE', #96, 1.000000000000000888 ) ;
#336 = CARTESIAN_POINT ( 'NONE',  ( 10.00000000000000000, 31.83189074296190313, 10.65846529977218715 ) ) ;
#337 = AXIS2_PLACEMENT_3D ( 'NONE', #319, #246, #213 ) ;
#338 = ORIENTED_EDGE ( 'NONE', *, *, #242, .T. ) ;
#339 = CARTESIAN_POINT ( 'NONE',  ( 10.00000000000000000, 31.83189074296190313, 11.65846529977218538 ) ) ;
#340 = ORIENTED_EDGE ( 'NONE', *, *, #155, .T. ) ;
#341 = FACE_OUTER_BOUND ( 'NONE', #419, .T. ) ;
#342 = PLANE ( 'NONE',  #289 ) ;
#343 = CYLINDRICAL_SURFACE ( 'NONE', #160, 2.000000000000000000 ) ;
#344 = LINE ( 'NONE', #111, #271 ) ;
#345 = EDGE_LOOP ( 'NONE', ( #285, #387, #379, #205 ) ) ;
#346 = CARTESIAN_POINT ( 'NONE',  ( 23.41858308963971425, 31.83189074296190313, 10.65846529977218715 ) ) ;
#347 = CARTESIAN_POINT ( 'NONE',  ( 6.999999999999996447, 28.95396224739525337, 14.15846529977217472 ) ) ;
#348 = ORIENTED_EDGE ( 'NONE', *, *, #14, .F. ) ;
#349 = FACE_OUTER_BOUND ( 'NONE', #345, .T. ) ;
#350 = VERTEX_POINT ( 'NONE', #143 ) ;
#351 = CARTESIAN_POINT ( 'NONE',  ( 10.00000000000000000, 7.000514900631582549, 12.65846529977218715 ) ) ;
#352 = VECTOR ( 'NONE', #393, 1000.000000000000000 ) ;
#353 = ORIENTED_EDGE ( 'NONE', *, *, #55, .T. ) ;
#354 = APPLICATION_PROTOCOL_DEFINITION ( 'draft international standard', 'automotive_design', 1998, #259 ) ;
#355 = EDGE_CURVE ( 'NONE', #239, #52, #277, .T. ) ;
#356 = ORIENTED_EDGE ( 'NONE', *, *, #185, .T. ) ;
#357 = CARTESIAN_POINT ( 'NONE',  ( 6.999999999999996447, 31.83189074296190313, 11.65846529977218538 ) ) ;
#358 = ADVANCED_BREP_SHAPE_REPRESENTATION ( 'hingecylinder1', ( #18, #288 ), #383 ) ;
#359 = EDGE_LOOP ( 'NONE', ( #154, #76, #219, #222 ) ) ;
#360 = CARTESIAN_POINT ( 'NONE',  ( 42.00000000000000000, 7.000514900631582549, 10.65846529977218715 ) ) ;
#361 = CARTESIAN_POINT ( 'NONE',  ( 10.00000000000000178, 7.000514900631582549, 12.65846529977218715 ) ) ;
#362 = DIRECTION ( 'NONE',  ( -1.000000000000000000, -0.000000000000000000, -0.000000000000000000 ) ) ;
#363 = AXIS2_PLACEMENT_3D ( 'NONE', #229, #301, #227 ) ;
#364 = EDGE_CURVE ( 'NONE', #52, #183, #149, .T. ) ;
#365 = LINE ( 'NONE', #398, #352 ) ;
#366 = CARTESIAN_POINT ( 'NONE',  ( 12.71873858440221383, 7.000514900631582549, 10.65846529977218715 ) ) ;
#367 = CARTESIAN_POINT ( 'NONE',  ( 10.00000000000000000, 30.83189074296189247, 14.65846529977218715 ) ) ;
#368 = ADVANCED_FACE ( 'NONE', ( #341, #377 ), #254, .F. ) ;
#369 = CARTESIAN_POINT ( 'NONE',  ( 10.00000000000000178, 7.000514900631582549, 14.65846529977218715 ) ) ;
#370 = DIRECTION ( 'NONE',  ( 1.000000000000000000, -0.000000000000000000, -0.000000000000000000 ) ) ;
#371 = CARTESIAN_POINT ( 'NONE',  ( 10.00000000000000000, 13.76046930743564367, 14.65846529977218715 ) ) ;
#372 = FACE_OUTER_BOUND ( 'NONE', #2, .T. ) ;
#373 = CARTESIAN_POINT ( 'NONE',  ( 12.71873858440221383, 7.000514900631582549, 12.65846529977218715 ) ) ;
#374 = DIRECTION ( 'NONE',  ( -1.000000000000000000, -0.000000000000000000, -0.000000000000000000 ) ) ;
#375 = ADVANCED_FACE ( 'NONE', ( #349 ), #275, .T. ) ;
#376 = FACE_BOUND ( 'NONE', #263, .T. ) ;
#377 = FACE_BOUND ( 'NONE', #384, .T. ) ;
#378 = CARTESIAN_POINT ( 'NONE',  ( 10.00000000000000000, 28.95396224739525337, 11.15846529977219959 ) ) ;
#379 = ORIENTED_EDGE ( 'NONE', *, *, #90, .F. ) ;
#380 = CARTESIAN_POINT ( 'NONE',  ( 10.00000000000000000, 28.95396224739525337, 12.65846529977218715 ) ) ;
#381 = ORIENTED_EDGE ( 'NONE', *, *, #155, .F. ) ;
#382 = VECTOR ( 'NONE', #30, 1000.000000000000000 ) ;
#383 =( GEOMETRIC_REPRESENTATION_CONTEXT ( 3 ) GLOBAL_UNCERTAINTY_ASSIGNED_CONTEXT ( ( #98 ) ) GLOBAL_UNIT_ASSIGNED_CONTEXT ( ( #388, #221, #425 ) ) REPRESENTATION_CONTEXT ( 'NONE', 'WORKASPACE' ) );
#384 = EDGE_LOOP ( 'NONE', ( #121, #420 ) ) ;
#385 = AXIS2_PLACEMENT_3D ( 'NONE', #117, #281, #414 ) ;
#386 = ORIENTED_EDGE ( 'NONE', *, *, #355, .T. ) ;
#387 = ORIENTED_EDGE ( 'NONE', *, *, #132, .F. ) ;
#388 =( LENGTH_UNIT ( ) NAMED_UNIT ( * ) SI_UNIT ( .MILLI., .METRE. ) );
#389 = ADVANCED_FACE ( 'NONE', ( #105 ), #270, .F. ) ;
#390 = LINE ( 'NONE', #94, #15 ) ;
#391 = CIRCLE ( 'NONE', #385, 2.000000000000000000 ) ;
#392 = CARTESIAN_POINT ( 'NONE',  ( 42.00000000000000000, 7.000514900631582549, 14.65846529977218715 ) ) ;
#393 = DIRECTION ( 'NONE',  ( -1.000000000000000000, 0.000000000000000000, 0.000000000000000000 ) ) ;
#394 = EDGE_CURVE ( 'NONE', #148, #191, #37, .T. ) ;
#395 = FACE_OUTER_BOUND ( 'NONE', #212, .T. ) ;
#396 = CIRCLE ( 'NONE', #294, 2.000000000000000000 ) ;
#397 = CIRCLE ( 'NONE', #302, 1.499999999999987566 ) ;
#398 = CARTESIAN_POINT ( 'NONE',  ( 6.999999999999996447, 30.83189074296189958, 14.65846529977218715 ) ) ;
#399 = EDGE_CURVE ( 'NONE', #283, #350, #113, .T. ) ;
#400 = CARTESIAN_POINT ( 'NONE',  ( 10.00000000000000000, 30.83189074296189247, 10.65846529977218715 ) ) ;
#401 = LINE ( 'NONE', #101, #250 ) ;
#402 = EDGE_LOOP ( 'NONE', ( #312, #284, #423, #322 ) ) ;
#403 = CARTESIAN_POINT ( 'NONE',  ( 10.00000000000000000, 30.83189074296189958, 13.65846529977218715 ) ) ;
#404 = CIRCLE ( 'NONE', #299, 2.000000000000000000 ) ;
#405 = DIRECTION ( 'NONE',  ( -1.000000000000000000, -0.000000000000000000, -0.000000000000000000 ) ) ;
#406 = CARTESIAN_POINT ( 'NONE',  ( 10.00000000000000000, 28.95396224739525337, 12.65846529977218715 ) ) ;
#407 = LINE ( 'NONE', #3, #27 ) ;
#408 = EDGE_CURVE ( 'NONE', #208, #191, #335, .T. ) ;
#409 = DIRECTION ( 'NONE',  ( 0.000000000000000000, 2.081668171172166620E-14, 1.000000000000000000 ) ) ;
#410 = LINE ( 'NONE', #311, #92 ) ;
#411 = ORIENTED_EDGE ( 'NONE', *, *, #25, .F. ) ;
#412 = CYLINDRICAL_SURFACE ( 'NONE', #59, 1.000000000000000888 ) ;
#413 = AXIS2_PLACEMENT_3D ( 'NONE', #119, #218, #110 ) ;
#414 = DIRECTION ( 'NONE',  ( 0.000000000000000000, 0.000000000000000000, 1.000000000000000000 ) ) ;
#415 = VECTOR ( 'NONE', #374, 1000.000000000000000 ) ;
#416 = VERTEX_POINT ( 'NONE', #209 ) ;
#417 = DIRECTION ( 'NONE',  ( 0.000000000000000000, 0.000000000000000000, 1.000000000000000000 ) ) ;
#418 = EDGE_CURVE ( 'NONE', #416, #183, #404, .T. ) ;
#419 = EDGE_LOOP ( 'NONE', ( #118, #151, #326, #291, #44, #161 ) ) ;
#420 = ORIENTED_EDGE ( 'NONE', *, *, #399, .F. ) ;
#421 = VECTOR ( 'NONE', #268, 1000.000000000000000 ) ;
#422 = AXIS2_PLACEMENT_3D ( 'NONE', #346, #176, #182 ) ;
#423 = ORIENTED_EDGE ( 'NONE', *, *, #217, .T. ) ;
#424 = PLANE ( 'NONE',  #190 ) ;
#425 =( NAMED_UNIT ( * ) SI_UNIT ( $, .STERADIAN. ) SOLID_ANGLE_UNIT ( ) );
#426 = EDGE_CURVE ( 'NONE', #187, #125, #325, .T. ) ;
#427 = ORIENTED_EDGE ( 'NONE', *, *, #280, .T. ) ;
#428 = CIRCLE ( 'NONE', #238, 2.000000000000000000 ) ;
#429 = ADVANCED_FACE ( 'NONE', ( #179 ), #10, .T. ) ;
#430 = FACE_OUTER_BOUND ( 'NONE', #256, .T. ) ;
#431 = CARTESIAN_POINT ( 'NONE',  ( 6.999999999999996447, 30.83189074296189247, 14.65846529977218715 ) ) ;
#432 = DIRECTION ( 'NONE',  ( 1.000000000000000000, -0.000000000000000000, -0.000000000000000000 ) ) ;
#433 = DIRECTION ( 'NONE',  ( -1.000000000000000000, 0.000000000000000000, 0.000000000000000000 ) ) ;
ENDSEC;
END-ISO-10303-21;
