ISO-10303-21;
HEADER;
FILE_DESCRIPTION (( 'STEP AP214' ),
    '1' );
FILE_NAME ('motormount.step',
    '2026-09-17T07:00:14',
    ( '' ),
    ( '' ),
    'SwSTEP 2.0',
    'SolidWorks 2023',
    '' );
FILE_SCHEMA (( 'AUTOMOTIVE_DESIGN' ));
ENDSEC;

DATA;
#1 = ADVANCED_FACE ( 'NONE', ( #744 ), #241, .T. ) ;
#2 = LINE ( 'NONE', #455, #579 ) ;
#3 = COLOUR_RGB ( '',0.7921568627450980005, 0.8196078431372548767, 0.9333333333333333481 ) ;
#4 = CARTESIAN_POINT ( 'NONE',  ( -59.93294757590147981, 42.43815231856004289, 6.000000000000000000 ) ) ;
#5 = VECTOR ( 'NONE', #464, 1000.000000000000000 ) ;
#6 = EDGE_LOOP ( 'NONE', ( #514, #960, #780, #195 ) ) ;
#7 = VECTOR ( 'NONE', #283, 1000.000000000000000 ) ;
#8 = DIRECTION ( 'NONE',  ( 1.000000000000000000, 0.000000000000000000, 0.000000000000000000 ) ) ;
#9 = ORIENTED_EDGE ( 'NONE', *, *, #567, .F. ) ;
#10 = CIRCLE ( 'NONE', #33, 1.000000000000000888 ) ;
#11 = CARTESIAN_POINT ( 'NONE',  ( -51.26662885396567049, 42.08546316181864455, 6.000000000000000000 ) ) ;
#12 = LINE ( 'NONE', #4, #972 ) ;
#13 = ORIENTED_EDGE ( 'NONE', *, *, #352, .T. ) ;
#14 = EDGE_CURVE ( 'NONE', #1219, #924, #233, .T. ) ;
#15 = CARTESIAN_POINT ( 'NONE',  ( -53.38276379396567251, 39.96932822137024033, 6.000000000000000000 ) ) ;
#16 = VERTEX_POINT ( 'NONE', #1198 ) ;
#17 = ORIENTED_EDGE ( 'NONE', *, *, #114, .F. ) ;
#18 = DIRECTION ( 'NONE',  ( 0.000000000000000000, 0.000000000000000000, -1.000000000000000000 ) ) ;
#19 = DIRECTION ( 'NONE',  ( 1.000000000000000000, 0.000000000000000000, 0.000000000000000000 ) ) ;
#20 = EDGE_CURVE ( 'NONE', #788, #1227, #675, .T. ) ;
#21 = DIRECTION ( 'NONE',  ( 0.000000000000000000, 0.000000000000000000, 1.000000000000000000 ) ) ;
#22 = ORIENTED_EDGE ( 'NONE', *, *, #450, .T. ) ;
#23 = CARTESIAN_POINT ( 'NONE',  ( -34.38276379396566540, 50.96932822137024033, 6.000000000000000000 ) ) ;
#24 = CARTESIAN_POINT ( 'NONE',  ( -0.000000000000000000, 49.96932822137024033, 0.000000000000000000 ) ) ;
#25 = DIRECTION ( 'NONE',  ( 1.000000000000000000, 0.000000000000000000, 0.000000000000000000 ) ) ;
#26 = AXIS2_PLACEMENT_3D ( 'NONE', #995, #490, #896 ) ;
#27 = AXIS2_PLACEMENT_3D ( 'NONE', #1208, #1083, #881 ) ;
#28 = CARTESIAN_POINT ( 'NONE',  ( -72.38276379396567961, 53.96932822137024033, 6.000000000000000000 ) ) ;
#29 = EDGE_LOOP ( 'NONE', ( #480, #133, #621, #1353 ) ) ;
#30 = ADVANCED_FACE ( 'NONE', ( #847 ), #128, .T. ) ;
#31 = CARTESIAN_POINT ( 'NONE',  ( -73.38276379396567961, 53.96932822137024033, 6.000000000000000000 ) ) ;
#32 = ADVANCED_FACE ( 'NONE', ( #853 ), #336, .T. ) ;
#33 = AXIS2_PLACEMENT_3D ( 'NONE', #1368, #1015, #1352 ) ;
#34 = DIRECTION ( 'NONE',  ( 0.000000000000000000, -1.000000000000000000, 0.000000000000000000 ) ) ;
#35 = CIRCLE ( 'NONE', #797, 1.000000000000000888 ) ;
#36 = AXIS2_PLACEMENT_3D ( 'NONE', #358, #768, #43 ) ;
#37 = DIRECTION ( 'NONE',  ( 0.000000000000000000, -1.000000000000000000, 0.000000000000000000 ) ) ;
#38 = DIRECTION ( 'NONE',  ( -0.000000000000000000, 0.000000000000000000, 1.000000000000000000 ) ) ;
#39 = ORIENTED_EDGE ( 'NONE', *, *, #743, .T. ) ;
#40 = EDGE_CURVE ( 'NONE', #126, #722, #1293, .T. ) ;
#41 = CARTESIAN_POINT ( 'NONE',  ( -51.26662885396567049, 38.85319328092183611, 0.000000000000000000 ) ) ;
#42 = CARTESIAN_POINT ( 'NONE',  ( -58.99720703562493895, 37.85319328092183611, 0.000000000000000000 ) ) ;
#43 = DIRECTION ( 'NONE',  ( 1.000000000000000000, 0.000000000000000000, 0.000000000000000000 ) ) ;
#44 = CARTESIAN_POINT ( 'NONE',  ( -54.49889873396566742, 37.85319328092183611, 6.000000000000000000 ) ) ;
#45 = VERTEX_POINT ( 'NONE', #41 ) ;
#46 = DIRECTION ( 'NONE',  ( -0.000000000000000000, 0.000000000000000000, 1.000000000000000000 ) ) ;
#47 = APPLICATION_PROTOCOL_DEFINITION ( 'draft international standard', 'automotive_design', 1998, #232 ) ;
#48 = CARTESIAN_POINT ( 'NONE',  ( -52.26662885396567049, 0.000000000000000000, 6.000000000000000000 ) ) ;
#49 = DIRECTION ( 'NONE',  ( 0.000000000000000000, 1.000000000000000000, 0.000000000000000000 ) ) ;
#50 = ORIENTED_EDGE ( 'NONE', *, *, #512, .T. ) ;
#51 = AXIS2_PLACEMENT_3D ( 'NONE', #1252, #804, #1237 ) ;
#52 = LINE ( 'NONE', #795, #649 ) ;
#53 = VECTOR ( 'NONE', #1214, 1000.000000000000000 ) ;
#54 = VECTOR ( 'NONE', #918, 1000.000000000000000 ) ;
#55 = LINE ( 'NONE', #977, #688 ) ;
#56 = DIRECTION ( 'NONE',  ( 0.000000000000000000, -0.000000000000000000, 1.000000000000000000 ) ) ;
#57 = CIRCLE ( 'NONE', #694, 6.999999999999999112 ) ;
#58 = CARTESIAN_POINT ( 'NONE',  ( -53.38276379396567251, 39.96932822137024033, 6.000000000000000000 ) ) ;
#59 = EDGE_CURVE ( 'NONE', #1305, #737, #458, .T. ) ;
#60 = EDGE_LOOP ( 'NONE', ( #807, #850, #1111, #276 ) ) ;
#61 = CYLINDRICAL_SURFACE ( 'NONE', #304, 1.000000000000000888 ) ;
#62 = CARTESIAN_POINT ( 'NONE',  ( -51.26662885396567049, 42.08546316181864455, 0.000000000000000000 ) ) ;
#63 = DIRECTION ( 'NONE',  ( 1.000000000000000000, 0.000000000000000000, 0.000000000000000000 ) ) ;
#64 = ORIENTED_EDGE ( 'NONE', *, *, #1265, .T. ) ;
#65 = DIRECTION ( 'NONE',  ( 1.000000000000000000, 0.000000000000000000, 0.000000000000000000 ) ) ;
#66 = ORIENTED_EDGE ( 'NONE', *, *, #428, .F. ) ;
#67 = EDGE_CURVE ( 'NONE', #954, #637, #961, .T. ) ;
#68 = DIRECTION ( 'NONE',  ( 0.000000000000000000, 1.000000000000000000, 0.000000000000000000 ) ) ;
#69 = FACE_OUTER_BOUND ( 'NONE', #742, .T. ) ;
#70 = EDGE_LOOP ( 'NONE', ( #564, #229, #1318, #1024, #917, #874, #269, #511, #610, #1075, #757, #764 ) ) ;
#71 = DIRECTION ( 'NONE',  ( 0.000000000000000000, -1.000000000000000000, 0.000000000000000000 ) ) ;
#72 = ORIENTED_EDGE ( 'NONE', *, *, #67, .T. ) ;
#73 = EDGE_CURVE ( 'NONE', #1234, #1227, #605, .T. ) ;
#74 = CIRCLE ( 'NONE', #519, 1.000000000000000888 ) ;
#75 = VECTOR ( 'NONE', #1061, 1000.000000000000000 ) ;
#76 = ADVANCED_FACE ( 'NONE', ( #357 ), #771, .F. ) ;
#77 = AXIS2_PLACEMENT_3D ( 'NONE', #596, #705, #679 ) ;
#78 = CARTESIAN_POINT ( 'NONE',  ( -46.83258001202986520, 42.43815231856004289, 6.000000000000000000 ) ) ;
#79 = CIRCLE ( 'NONE', #1314, 1.000000000000000888 ) ;
#80 = CARTESIAN_POINT ( 'NONE',  ( -73.38276379396567961, 50.96932822137024033, 6.000000000000000000 ) ) ;
#81 = ORIENTED_EDGE ( 'NONE', *, *, #1144, .T. ) ;
#82 = VECTOR ( 'NONE', #280, 1000.000000000000000 ) ;
#83 = AXIS2_PLACEMENT_3D ( 'NONE', #1193, #983, #988 ) ;
#84 = CARTESIAN_POINT ( 'NONE',  ( -46.83258001202986520, 42.43815231856004289, 0.000000000000000000 ) ) ;
#85 = ORIENTED_EDGE ( 'NONE', *, *, #1221, .T. ) ;
#86 = EDGE_CURVE ( 'NONE', #198, #693, #1150, .T. ) ;
#87 = DIRECTION ( 'NONE',  ( 1.000000000000000000, 0.000000000000000000, 0.000000000000000000 ) ) ;
#88 = CARTESIAN_POINT ( 'NONE',  ( -0.000000000000000000, 41.08546316181864455, 0.000000000000000000 ) ) ;
#89 = EDGE_LOOP ( 'NONE', ( #1058, #282, #1000, #189 ) ) ;
#90 = LINE ( 'NONE', #716, #1084 ) ;
#91 = VERTEX_POINT ( 'NONE', #1100 ) ;
#92 = FILL_AREA_STYLE ('',( #1025 ) ) ;
#93 = FACE_BOUND ( 'NONE', #1185, .T. ) ;
#94 = EDGE_LOOP ( 'NONE', ( #493, #184, #860, #201 ) ) ;
#95 = DIRECTION ( 'NONE',  ( -0.000000000000000000, -0.000000000000000000, -1.000000000000000000 ) ) ;
#96 = VERTEX_POINT ( 'NONE', #1230 ) ;
#97 = AXIS2_PLACEMENT_3D ( 'NONE', #244, #1179, #108 ) ;
#98 = VECTOR ( 'NONE', #767, 1000.000000000000000 ) ;
#99 = CARTESIAN_POINT ( 'NONE',  ( -54.49889873396566742, 42.08546316181864455, 0.000000000000000000 ) ) ;
#100 = EDGE_CURVE ( 'NONE', #722, #1134, #1335, .T. ) ;
#101 = CARTESIAN_POINT ( 'NONE',  ( -64.56310368146461087, 49.96932822137024033, 6.000000000000000000 ) ) ;
#102 = VERTEX_POINT ( 'NONE', #183 ) ;
#103 = AXIS2_PLACEMENT_3D ( 'NONE', #814, #202, #1248 ) ;
#104 = EDGE_CURVE ( 'NONE', #417, #954, #1177, .T. ) ;
#105 = DIRECTION ( 'NONE',  ( 1.000000000000000000, 0.000000000000000000, 0.000000000000000000 ) ) ;
#106 = ORIENTED_EDGE ( 'NONE', *, *, #935, .F. ) ;
#107 = VECTOR ( 'NONE', #931, 1000.000000000000000 ) ;
#108 = DIRECTION ( 'NONE',  ( -0.000000000000000000, 0.000000000000000000, -1.000000000000000000 ) ) ;
#109 = DIRECTION ( 'NONE',  ( -0.000000000000000000, 0.000000000000000000, 1.000000000000000000 ) ) ;
#110 = ORIENTED_EDGE ( 'NONE', *, *, #1178, .T. ) ;
#111 = CARTESIAN_POINT ( 'NONE',  ( -53.38276379396567251, 39.96932822137024033, 6.000000000000000000 ) ) ;
#112 = ORIENTED_EDGE ( 'NONE', *, *, #1069, .T. ) ;
#113 = DIRECTION ( 'NONE',  ( 0.000000000000000000, -1.000000000000000000, 0.000000000000000000 ) ) ;
#114 = EDGE_CURVE ( 'NONE', #45, #651, #124, .T. ) ;
#115 = FACE_OUTER_BOUND ( 'NONE', #891, .T. ) ;
#116 = VERTEX_POINT ( 'NONE', #1117 ) ;
#117 = DIRECTION ( 'NONE',  ( 1.000000000000000000, 0.000000000000000000, 0.000000000000000000 ) ) ;
#118 = ORIENTED_EDGE ( 'NONE', *, *, #204, .F. ) ;
#119 = EDGE_CURVE ( 'NONE', #801, #16, #481, .T. ) ;
#120 = CARTESIAN_POINT ( 'NONE',  ( 0.000000000000000000, 41.08546316181864455, 6.000000000000000000 ) ) ;
#121 = AXIS2_PLACEMENT_3D ( 'NONE', #670, #1085, #363 ) ;
#122 = DIRECTION ( 'NONE',  ( 0.000000000000000000, -1.000000000000000000, 0.000000000000000000 ) ) ;
#123 = ORIENTED_EDGE ( 'NONE', *, *, #1265, .F. ) ;
#124 = CIRCLE ( 'NONE', #730, 1.000000000000000888 ) ;
#125 = CARTESIAN_POINT ( 'NONE',  ( -53.38276379396567251, 39.96932822137024033, 6.000000000000000000 ) ) ;
#126 = VERTEX_POINT ( 'NONE', #501 ) ;
#127 = AXIS2_PLACEMENT_3D ( 'NONE', #1304, #1278, #856 ) ;
#128 = CYLINDRICAL_SURFACE ( 'NONE', #390, 1.000000000000000888 ) ;
#129 = VECTOR ( 'NONE', #164, 1000.000000000000000 ) ;
#130 = CARTESIAN_POINT ( 'NONE',  ( -58.99720703562493895, 42.08546316181864455, 6.000000000000000000 ) ) ;
#131 = DIRECTION ( 'NONE',  ( 0.000000000000000000, -0.000000000000000000, 1.000000000000000000 ) ) ;
#132 = DIRECTION ( 'NONE',  ( -0.000000000000000000, -0.000000000000000000, -1.000000000000000000 ) ) ;
#133 = ORIENTED_EDGE ( 'NONE', *, *, #950, .F. ) ;
#134 = CARTESIAN_POINT ( 'NONE',  ( -33.38276379396566540, 0.000000000000000000, 6.000000000000000000 ) ) ;
#135 = CARTESIAN_POINT ( 'NONE',  ( -58.99720703562493895, 42.08546316181864455, 6.000000000000000000 ) ) ;
#136 = CARTESIAN_POINT ( 'NONE',  ( -47.76832055230640606, 41.08546316181864455, 0.000000000000000000 ) ) ;
#137 = CARTESIAN_POINT ( 'NONE',  ( -50.91393969729899993, 46.51951200350322324, 6.000000000000000000 ) ) ;
#138 = EDGE_CURVE ( 'NONE', #954, #474, #1319, .T. ) ;
#139 = ORIENTED_EDGE ( 'NONE', *, *, #901, .T. ) ;
#140 = EDGE_LOOP ( 'NONE', ( #833, #521, #446, #22, #1017, #467 ) ) ;
#141 = PRODUCT_DEFINITION ( 'UNKNOWN', '', #365, #946 ) ;
#142 = CARTESIAN_POINT ( 'NONE',  ( -58.99720703562493895, 37.85319328092183611, 0.000000000000000000 ) ) ;
#143 = STYLED_ITEM ( 'NONE', ( #316 ), #1101 ) ;
#144 = ADVANCED_FACE ( 'NONE', ( #899 ), #577, .F. ) ;
#145 = CIRCLE ( 'NONE', #191, 1.000000000000000888 ) ;
#146 = DIRECTION ( 'NONE',  ( 0.000000000000000000, -0.000000000000000000, -1.000000000000000000 ) ) ;
#147 = ORIENTED_EDGE ( 'NONE', *, *, #909, .T. ) ;
#148 = CARTESIAN_POINT ( 'NONE',  ( -46.83258001202986520, 37.50050412418043067, 6.000000000000000000 ) ) ;
#149 = CIRCLE ( 'NONE', #169, 1.000000000000000888 ) ;
#150 = CARTESIAN_POINT ( 'NONE',  ( -51.26662885396567049, 38.85319328092183611, 6.000000000000000000 ) ) ;
#151 = VECTOR ( 'NONE', #1210, 1000.000000000000000 ) ;
#152 = CIRCLE ( 'NONE', #1274, 6.999999999999999112 ) ;
#153 = DIRECTION ( 'NONE',  ( 1.000000000000000000, 0.000000000000000000, 0.000000000000000000 ) ) ;
#154 = DIRECTION ( 'NONE',  ( -1.000000000000000000, 0.000000000000000000, 0.000000000000000000 ) ) ;
#155 = ORIENTED_EDGE ( 'NONE', *, *, #288, .T. ) ;
#156 = DIRECTION ( 'NONE',  ( -0.000000000000000000, -0.000000000000000000, -1.000000000000000000 ) ) ;
#157 = EDGE_CURVE ( 'NONE', #1067, #737, #993, .T. ) ;
#158 = DIRECTION ( 'NONE',  ( -0.000000000000000000, 0.000000000000000000, 1.000000000000000000 ) ) ;
#159 = CARTESIAN_POINT ( 'NONE',  ( -55.49889873396566742, 45.58377146319851647, 6.000000000000000000 ) ) ;
#160 = ORIENTED_EDGE ( 'NONE', *, *, #1069, .F. ) ;
#161 = DIRECTION ( 'NONE',  ( 1.000000000000000000, 0.000000000000000000, 0.000000000000000000 ) ) ;
#162 = ADVANCED_FACE ( 'NONE', ( #388 ), #61, .T. ) ;
#163 = CYLINDRICAL_SURFACE ( 'NONE', #121, 1.000000000000000888 ) ;
#164 = DIRECTION ( 'NONE',  ( 0.000000000000000000, -1.000000000000000000, 0.000000000000000000 ) ) ;
#165 = VECTOR ( 'NONE', #221, 1000.000000000000000 ) ;
#166 = ORIENTED_EDGE ( 'NONE', *, *, #1195, .F. ) ;
#167 = CARTESIAN_POINT ( 'NONE',  ( -53.38276379396567251, 39.96932822137024033, 0.000000000000000000 ) ) ;
#168 =( NAMED_UNIT ( * ) PLANE_ANGLE_UNIT ( ) SI_UNIT ( $, .RADIAN. ) );
#169 = AXIS2_PLACEMENT_3D ( 'NONE', #1073, #334, #643 ) ;
#170 = CARTESIAN_POINT ( 'NONE',  ( -52.26662885396567049, 0.000000000000000000, 6.000000000000000000 ) ) ;
#171 = EDGE_CURVE ( 'NONE', #693, #454, #1245, .T. ) ;
#172 = AXIS2_PLACEMENT_3D ( 'NONE', #317, #109, #508 ) ;
#173 = DIRECTION ( 'NONE',  ( -1.000000000000000000, 0.000000000000000000, 0.000000000000000000 ) ) ;
#174 = VERTEX_POINT ( 'NONE', #986 ) ;
#175 = EDGE_CURVE ( 'NONE', #1231, #198, #261, .T. ) ;
#176 = CYLINDRICAL_SURFACE ( 'NONE', #816, 1.000000000000000888 ) ;
#177 = VERTEX_POINT ( 'NONE', #1006 ) ;
#178 = LINE ( 'NONE', #1209, #343 ) ;
#179 = EDGE_CURVE ( 'NONE', #905, #637, #1341, .T. ) ;
#180 = CARTESIAN_POINT ( 'NONE',  ( -54.49889873396566742, 37.85319328092183611, 0.000000000000000000 ) ) ;
#181 = ORIENTED_EDGE ( 'NONE', *, *, #484, .T. ) ;
#182 = EDGE_CURVE ( 'NONE', #981, #318, #861, .T. ) ;
#183 = CARTESIAN_POINT ( 'NONE',  ( -68.38276379396566540, 39.96932822137024033, 0.000000000000000000 ) ) ;
#184 = ORIENTED_EDGE ( 'NONE', *, *, #1149, .F. ) ;
#185 = CARTESIAN_POINT ( 'NONE',  ( -46.83258001202986520, 42.43815231856004289, 6.000000000000000000 ) ) ;
#186 = CYLINDRICAL_SURFACE ( 'NONE', #1063, 1.000000000000000888 ) ;
#187 = VERTEX_POINT ( 'NONE', #603 ) ;
#188 = DIRECTION ( 'NONE',  ( -0.000000000000000000, 0.000000000000000000, 1.000000000000000000 ) ) ;
#189 = ORIENTED_EDGE ( 'NONE', *, *, #619, .F. ) ;
#190 = EDGE_CURVE ( 'NONE', #1239, #898, #52, .T. ) ;
#191 = AXIS2_PLACEMENT_3D ( 'NONE', #272, #568, #895 ) ;
#192 = CLOSED_SHELL ( 'NONE', ( #1370, #958, #628, #595, #1170, #144, #421, #1043, #1090, #333, #427, #942, #492, #469, #1157, #1, #806, #982, #1258, #598, #1250, #789, #761, #606, #213, #205, #936, #1112, #1286, #647, #532, #293, #76, #1240, #1004, #528, #453, #30, #162, #32 ) ) ;
#193 = SURFACE_SIDE_STYLE ('',( #915 ) ) ;
#194 = DIRECTION ( 'NONE',  ( 0.000000000000000000, -0.000000000000000000, 1.000000000000000000 ) ) ;
#195 = ORIENTED_EDGE ( 'NONE', *, *, #1367, .T. ) ;
#196 = AXIS2_PLACEMENT_3D ( 'NONE', #800, #259, #154 ) ;
#197 = CARTESIAN_POINT ( 'NONE',  ( -52.26662885396567049, 45.58377146319851647, 6.000000000000000000 ) ) ;
#198 = VERTEX_POINT ( 'NONE', #475 ) ;
#199 = CARTESIAN_POINT ( 'NONE',  ( -33.38276379396566540, 53.96932822137024033, 6.000000000000000000 ) ) ;
#200 = DIRECTION ( 'NONE',  ( 1.000000000000000000, 0.000000000000000000, 0.000000000000000000 ) ) ;
#201 = ORIENTED_EDGE ( 'NONE', *, *, #1300, .F. ) ;
#202 = DIRECTION ( 'NONE',  ( -0.000000000000000000, -0.000000000000000000, -1.000000000000000000 ) ) ;
#203 = ORIENTED_EDGE ( 'NONE', *, *, #1257, .F. ) ;
#204 = EDGE_CURVE ( 'NONE', #356, #187, #787, .T. ) ;
#205 = ADVANCED_FACE ( 'NONE', ( #1110 ), #176, .F. ) ;
#206 = DIRECTION ( 'NONE',  ( -0.000000000000000000, 0.000000000000000000, 1.000000000000000000 ) ) ;
#207 = ORIENTED_EDGE ( 'NONE', *, *, #1359, .F. ) ;
#208 = DIRECTION ( 'NONE',  ( -0.000000000000000000, 0.000000000000000000, -1.000000000000000000 ) ) ;
#209 = EDGE_LOOP ( 'NONE', ( #1369, #571, #1159, #379 ) ) ;
#210 = VECTOR ( 'NONE', #810, 1000.000000000000000 ) ;
#211 = CARTESIAN_POINT ( 'NONE',  ( 0.000000000000000000, 49.96932822137024033, 6.000000000000000000 ) ) ;
#212 = DIRECTION ( 'NONE',  ( 1.000000000000000000, 0.000000000000000000, 0.000000000000000000 ) ) ;
#213 = ADVANCED_FACE ( 'NONE', ( #482 ), #1128, .F. ) ;
#214 = ORIENTED_EDGE ( 'NONE', *, *, #1077, .T. ) ;
#215 = UNCERTAINTY_MEASURE_WITH_UNIT (LENGTH_MEASURE( 1.000000000000000082E-05 ), #1091, 'distance_accuracy_value', 'NONE');
#216 = VECTOR ( 'NONE', #728, 1000.000000000000000 ) ;
#217 = CARTESIAN_POINT ( 'NONE',  ( -33.38276379396566540, 50.96932822137024033, 0.000000000000000000 ) ) ;
#218 = AXIS2_PLACEMENT_3D ( 'NONE', #841, #122, #1064 ) ;
#219 = ORIENTED_EDGE ( 'NONE', *, *, #157, .T. ) ;
#220 = VECTOR ( 'NONE', #257, 1000.000000000000000 ) ;
#221 = DIRECTION ( 'NONE',  ( 0.000000000000000000, -1.000000000000000000, 0.000000000000000000 ) ) ;
#222 = LINE ( 'NONE', #1296, #1154 ) ;
#223 = ORIENTED_EDGE ( 'NONE', *, *, #14, .F. ) ;
#224 = CARTESIAN_POINT ( 'NONE',  ( -64.56310368146461087, 49.96932822137024033, 0.000000000000000000 ) ) ;
#225 = ORIENTED_EDGE ( 'NONE', *, *, #1026, .T. ) ;
#226 = EDGE_CURVE ( 'NONE', #976, #867, #1044, .T. ) ;
#227 = DIRECTION ( 'NONE',  ( 1.000000000000000000, 0.000000000000000000, -0.000000000000000000 ) ) ;
#228 = CARTESIAN_POINT ( 'NONE',  ( -68.38276379396566540, 39.96932822137024033, 6.000000000000000000 ) ) ;
#229 = ORIENTED_EDGE ( 'NONE', *, *, #998, .T. ) ;
#230 = LINE ( 'NONE', #1183, #392 ) ;
#231 = ORIENTED_EDGE ( 'NONE', *, *, #998, .F. ) ;
#232 = APPLICATION_CONTEXT ( 'automotive_design' ) ;
#233 = LINE ( 'NONE', #148, #369 ) ;
#234 = CARTESIAN_POINT ( 'NONE',  ( -51.26662885396567049, 41.08546316181864455, 0.000000000000000000 ) ) ;
#235 = AXIS2_PLACEMENT_3D ( 'NONE', #1020, #920, #1343 ) ;
#236 = FACE_OUTER_BOUND ( 'NONE', #1152, .T. ) ;
#237 = ORIENTED_EDGE ( 'NONE', *, *, #824, .F. ) ;
#238 = AXIS2_PLACEMENT_3D ( 'NONE', #808, #710, #432 ) ;
#239 = CARTESIAN_POINT ( 'NONE',  ( -51.26662885396567049, 45.58377146319851647, 0.000000000000000000 ) ) ;
#240 = VERTEX_POINT ( 'NONE', #224 ) ;
#241 = PLANE ( 'NONE',  #792 ) ;
#242 = VECTOR ( 'NONE', #890, 1000.000000000000000 ) ;
#243 = EDGE_CURVE ( 'NONE', #409, #976, #736, .T. ) ;
#244 = CARTESIAN_POINT ( 'NONE',  ( -73.38276379396567961, 0.000000000000000000, 6.000000000000000000 ) ) ;
#245 = CARTESIAN_POINT ( 'NONE',  ( -42.20242390646672703, 49.96932822137024033, 6.000000000000000000 ) ) ;
#246 = CARTESIAN_POINT ( 'NONE',  ( -51.26662885396567049, 34.35488497954196419, 0.000000000000000000 ) ) ;
#247 = ORIENTED_EDGE ( 'NONE', *, *, #1301, .F. ) ;
#248 = ORIENTED_EDGE ( 'NONE', *, *, #1367, .F. ) ;
#249 = EDGE_CURVE ( 'NONE', #749, #924, #752, .T. ) ;
#250 = LINE ( 'NONE', #760, #669 ) ;
#251 = CARTESIAN_POINT ( 'NONE',  ( -58.99720703562493895, 41.08546316181864455, 6.000000000000000000 ) ) ;
#252 = EDGE_CURVE ( 'NONE', #91, #454, #1151, .T. ) ;
#253 = CARTESIAN_POINT ( 'NONE',  ( -52.26662885396567049, 45.58377146319851647, 0.000000000000000000 ) ) ;
#254 = VERTEX_POINT ( 'NONE', #611 ) ;
#255 = DIRECTION ( 'NONE',  ( -0.000000000000000000, 0.000000000000000000, -1.000000000000000000 ) ) ;
#256 = CARTESIAN_POINT ( 'NONE',  ( -52.26662885396567049, 42.08546316181864455, 0.000000000000000000 ) ) ;
#257 = DIRECTION ( 'NONE',  ( 1.000000000000000000, 0.000000000000000000, 0.000000000000000000 ) ) ;
#258 = EDGE_CURVE ( 'NONE', #102, #1292, #1108, .T. ) ;
#259 = DIRECTION ( 'NONE',  ( -0.000000000000000000, -0.000000000000000000, -1.000000000000000000 ) ) ;
#260 = ORIENTED_EDGE ( 'NONE', *, *, #799, .F. ) ;
#261 = CIRCLE ( 'NONE', #989, 1.000000000000000888 ) ;
#262 = VERTEX_POINT ( 'NONE', #1374 ) ;
#263 = EDGE_CURVE ( 'NONE', #878, #16, #90, .T. ) ;
#264 = AXIS2_PLACEMENT_3D ( 'NONE', #314, #1023, #835 ) ;
#265 = DIRECTION ( 'NONE',  ( -1.000000000000000000, 0.000000000000000000, 0.000000000000000000 ) ) ;
#266 = AXIS2_PLACEMENT_3D ( 'NONE', #1268, #323, #732 ) ;
#267 = DIRECTION ( 'NONE',  ( -0.000000000000000000, 0.000000000000000000, -1.000000000000000000 ) ) ;
#268 = CARTESIAN_POINT ( 'NONE',  ( -47.76832055230640606, 41.08546316181864455, 6.000000000000000000 ) ) ;
#269 = ORIENTED_EDGE ( 'NONE', *, *, #950, .T. ) ;
#270 = CARTESIAN_POINT ( 'NONE',  ( -72.38276379396567961, 53.96932822137024033, 0.000000000000000000 ) ) ;
#271 = EDGE_CURVE ( 'NONE', #1227, #349, #326, .T. ) ;
#272 = CARTESIAN_POINT ( 'NONE',  ( -55.49889873396566742, 37.85319328092183611, 6.000000000000000000 ) ) ;
#273 = DIRECTION ( 'NONE',  ( -0.000000000000000000, 0.000000000000000000, -1.000000000000000000 ) ) ;
#274 = PRODUCT ( 'motormount', 'motormount', '', ( #476 ) ) ;
#275 = FACE_BOUND ( 'NONE', #1099, .T. ) ;
#276 = ORIENTED_EDGE ( 'NONE', *, *, #271, .F. ) ;
#277 = DIRECTION ( 'NONE',  ( -0.000000000000000000, 0.000000000000000000, 1.000000000000000000 ) ) ;
#278 = CARTESIAN_POINT ( 'NONE',  ( -58.99720703562493895, 42.08546316181864455, 6.000000000000000000 ) ) ;
#279 = DIRECTION ( 'NONE',  ( 1.000000000000000000, 0.000000000000000000, 0.000000000000000000 ) ) ;
#280 = DIRECTION ( 'NONE',  ( 0.000000000000000000, -1.000000000000000000, 0.000000000000000000 ) ) ;
#281 = AXIS2_PLACEMENT_3D ( 'NONE', #681, #1096, #56 ) ;
#282 = ORIENTED_EDGE ( 'NONE', *, *, #179, .F. ) ;
#283 = DIRECTION ( 'NONE',  ( -0.000000000000000000, 0.000000000000000000, -1.000000000000000000 ) ) ;
#284 = VERTEX_POINT ( 'NONE', #84 ) ;
#285 = AXIS2_PLACEMENT_3D ( 'NONE', #726, #403, #708 ) ;
#286 = CARTESIAN_POINT ( 'NONE',  ( 0.000000000000000000, 38.85319328092183611, 6.000000000000000000 ) ) ;
#287 = VECTOR ( 'NONE', #587, 1000.000000000000000 ) ;
#288 = EDGE_CURVE ( 'NONE', #1067, #602, #10, .T. ) ;
#289 = CARTESIAN_POINT ( 'NONE',  ( 0.000000000000000000, 38.85319328092183611, 6.000000000000000000 ) ) ;
#290 = ORIENTED_EDGE ( 'NONE', *, *, #868, .T. ) ;
#291 = DIRECTION ( 'NONE',  ( 1.000000000000000000, 0.000000000000000000, 0.000000000000000000 ) ) ;
#292 = ORIENTED_EDGE ( 'NONE', *, *, #964, .F. ) ;
#293 = ADVANCED_FACE ( 'NONE', ( #411 ), #510, .F. ) ;
#294 = DIRECTION ( 'NONE',  ( 1.000000000000000000, 0.000000000000000000, 0.000000000000000000 ) ) ;
#295 = CARTESIAN_POINT ( 'NONE',  ( -33.38276379396566540, 53.96932822137024033, 6.000000000000000000 ) ) ;
#296 = ORIENTED_EDGE ( 'NONE', *, *, #585, .F. ) ;
#297 = DIRECTION ( 'NONE',  ( 1.000000000000000000, 0.000000000000000000, 0.000000000000000000 ) ) ;
#298 = EDGE_LOOP ( 'NONE', ( #813, #1030, #1042, #139 ) ) ;
#299 = CARTESIAN_POINT ( 'NONE',  ( -53.38276379396567251, 39.96932822137024033, 6.000000000000000000 ) ) ;
#300 = CARTESIAN_POINT ( 'NONE',  ( -52.26662885396567049, 34.35488497954196419, 6.000000000000000000 ) ) ;
#301 = EDGE_LOOP ( 'NONE', ( #1242, #975, #181, #709 ) ) ;
#302 = DIRECTION ( 'NONE',  ( -0.000000000000000000, 0.000000000000000000, 1.000000000000000000 ) ) ;
#303 = ORIENTED_EDGE ( 'NONE', *, *, #799, .T. ) ;
#304 = AXIS2_PLACEMENT_3D ( 'NONE', #999, #487, #297 ) ;
#305 = CARTESIAN_POINT ( 'NONE',  ( -50.91393969729899993, 33.41914443923725742, 0.000000000000000000 ) ) ;
#306 = ORIENTED_EDGE ( 'NONE', *, *, #310, .T. ) ;
#307 = AXIS2_PLACEMENT_3D ( 'NONE', #58, #1106, #580 ) ;
#308 = CARTESIAN_POINT ( 'NONE',  ( -33.38276379396566540, 50.96932822137024033, 0.000000000000000000 ) ) ;
#309 = EDGE_LOOP ( 'NONE', ( #247, #842, #630, #794 ) ) ;
#310 = EDGE_CURVE ( 'NONE', #318, #1165, #1347, .T. ) ;
#311 = SURFACE_STYLE_USAGE ( .BOTH. , #193 ) ;
#312 = PLANE ( 'NONE',  #394 ) ;
#313 = ORIENTED_EDGE ( 'NONE', *, *, #1359, .T. ) ;
#314 = CARTESIAN_POINT ( 'NONE',  ( -53.38276379396567251, 39.96932822137024033, 0.000000000000000000 ) ) ;
#315 = ORIENTED_EDGE ( 'NONE', *, *, #821, .F. ) ;
#316 = PRESENTATION_STYLE_ASSIGNMENT (( #311 ) ) ;
#317 = CARTESIAN_POINT ( 'NONE',  ( -55.49889873396566742, 42.08546316181864455, 0.000000000000000000 ) ) ;
#318 = VERTEX_POINT ( 'NONE', #1241 ) ;
#319 = CARTESIAN_POINT ( 'NONE',  ( -34.38276379396566540, 49.96932822137024033, 6.000000000000000000 ) ) ;
#320 = ORIENTED_EDGE ( 'NONE', *, *, #1206, .F. ) ;
#321 = VECTOR ( 'NONE', #377, 1000.000000000000000 ) ;
#322 = LINE ( 'NONE', #24, #967 ) ;
#323 = DIRECTION ( 'NONE',  ( -0.000000000000000000, -0.000000000000000000, -1.000000000000000000 ) ) ;
#324 = VERTEX_POINT ( 'NONE', #1135 ) ;
#325 = EDGE_CURVE ( 'NONE', #523, #356, #1180, .T. ) ;
#326 = LINE ( 'NONE', #308, #1062 ) ;
#327 = CIRCLE ( 'NONE', #1339, 1.000000000000000888 ) ;
#328 = ORIENTED_EDGE ( 'NONE', *, *, #175, .F. ) ;
#329 = CIRCLE ( 'NONE', #1019, 1.000000000000000888 ) ;
#330 = FACE_OUTER_BOUND ( 'NONE', #309, .T. ) ;
#331 = DIRECTION ( 'NONE',  ( -0.000000000000000000, 0.000000000000000000, 1.000000000000000000 ) ) ;
#332 = ORIENTED_EDGE ( 'NONE', *, *, #619, .T. ) ;
#333 = ADVANCED_FACE ( 'NONE', ( #520 ), #913, .F. ) ;
#334 = DIRECTION ( 'NONE',  ( -0.000000000000000000, 0.000000000000000000, 1.000000000000000000 ) ) ;
#335 = VERTEX_POINT ( 'NONE', #1270 ) ;
#336 = CYLINDRICAL_SURFACE ( 'NONE', #689, 1.000000000000000888 ) ;
#337 = DIRECTION ( 'NONE',  ( 0.000000000000000000, -0.000000000000000000, -1.000000000000000000 ) ) ;
#338 = LINE ( 'NONE', #1182, #507 ) ;
#339 = ORIENTED_EDGE ( 'NONE', *, *, #551, .T. ) ;
#340 = DIRECTION ( 'NONE',  ( -0.000000000000000000, 0.000000000000000000, 1.000000000000000000 ) ) ;
#341 = ORIENTED_EDGE ( 'NONE', *, *, #226, .T. ) ;
#342 = DIRECTION ( 'NONE',  ( 1.000000000000000000, 0.000000000000000000, 0.000000000000000000 ) ) ;
#343 = VECTOR ( 'NONE', #574, 1000.000000000000000 ) ;
#344 = CARTESIAN_POINT ( 'NONE',  ( -46.83258001202986520, 37.50050412418043067, 6.000000000000000000 ) ) ;
#345 = AXIS2_PLACEMENT_3D ( 'NONE', #130, #429, #1266 ) ;
#346 = DIRECTION ( 'NONE',  ( 1.000000000000000000, 0.000000000000000000, 0.000000000000000000 ) ) ;
#347 = VECTOR ( 'NONE', #95, 1000.000000000000000 ) ;
#348 = CARTESIAN_POINT ( 'NONE',  ( -59.99720703562493895, 42.08546316181864455, 0.000000000000000000 ) ) ;
#349 = VERTEX_POINT ( 'NONE', #217 ) ;
#350 = EDGE_CURVE ( 'NONE', #468, #1292, #822, .T. ) ;
#351 = ORIENTED_EDGE ( 'NONE', *, *, #157, .F. ) ;
#352 = EDGE_CURVE ( 'NONE', #1054, #116, #1201, .T. ) ;
#353 = CARTESIAN_POINT ( 'NONE',  ( -54.49889873396566742, 45.58377146319851647, 0.000000000000000000 ) ) ;
#354 = LINE ( 'NONE', #251, #463 ) ;
#355 = FACE_OUTER_BOUND ( 'NONE', #558, .T. ) ;
#356 = VERTEX_POINT ( 'NONE', #425 ) ;
#357 = FACE_OUTER_BOUND ( 'NONE', #1051, .T. ) ;
#358 = CARTESIAN_POINT ( 'NONE',  ( -53.38276379396567251, 39.96932822137024033, 6.000000000000000000 ) ) ;
#359 = CYLINDRICAL_SURFACE ( 'NONE', #839, 6.999999999999999112 ) ;
#360 = ORIENTED_EDGE ( 'NONE', *, *, #59, .T. ) ;
#361 = CARTESIAN_POINT ( 'NONE',  ( -34.38276379396566540, 50.96932822137024033, 6.000000000000000000 ) ) ;
#362 = CARTESIAN_POINT ( 'NONE',  ( -51.26662885396567049, 41.08546316181864455, 6.000000000000000000 ) ) ;
#363 = DIRECTION ( 'NONE',  ( 1.000000000000000000, 0.000000000000000000, 0.000000000000000000 ) ) ;
#364 = CIRCLE ( 'NONE', #1032, 1.000000000000000888 ) ;
#365 = PRODUCT_DEFINITION_FORMATION_WITH_SPECIFIED_SOURCE ( 'ANY', '', #274, .NOT_KNOWN. ) ;
#366 = DIRECTION ( 'NONE',  ( -0.000000000000000000, 0.000000000000000000, -1.000000000000000000 ) ) ;
#367 = EDGE_CURVE ( 'NONE', #335, #1234, #1263, .T. ) ;
#368 = ORIENTED_EDGE ( 'NONE', *, *, #310, .F. ) ;
#369 = VECTOR ( 'NONE', #566, 1000.000000000000000 ) ;
#370 = DIRECTION ( 'NONE',  ( -0.000000000000000000, -0.000000000000000000, -1.000000000000000000 ) ) ;
#371 = VECTOR ( 'NONE', #194, 1000.000000000000000 ) ;
#372 = CARTESIAN_POINT ( 'NONE',  ( -34.38276379396566540, 53.96932822137024033, 6.000000000000000000 ) ) ;
#373 = CARTESIAN_POINT ( 'NONE',  ( -51.26662885396567049, 38.85319328092183611, 6.000000000000000000 ) ) ;
#374 = EDGE_LOOP ( 'NONE', ( #1191, #50, #424, #548 ) ) ;
#375 = DIRECTION ( 'NONE',  ( 0.000000000000000000, -0.000000000000000000, -1.000000000000000000 ) ) ;
#376 = CARTESIAN_POINT ( 'NONE',  ( -73.38276379396567961, 0.000000000000000000, 6.000000000000000000 ) ) ;
#377 = DIRECTION ( 'NONE',  ( 0.000000000000000000, 0.000000000000000000, 1.000000000000000000 ) ) ;
#378 = CARTESIAN_POINT ( 'NONE',  ( -72.38276379396567961, 54.96932822137024033, 6.000000000000000000 ) ) ;
#379 = ORIENTED_EDGE ( 'NONE', *, *, #1008, .T. ) ;
#380 = CARTESIAN_POINT ( 'NONE',  ( -72.38276379396567961, 50.96932822137024033, 6.000000000000000000 ) ) ;
#381 = VERTEX_POINT ( 'NONE', #533 ) ;
#382 = EDGE_CURVE ( 'NONE', #749, #1305, #940, .T. ) ;
#383 = FACE_OUTER_BOUND ( 'NONE', #444, .T. ) ;
#384 = LINE ( 'NONE', #695, #790 ) ;
#385 = CARTESIAN_POINT ( 'NONE',  ( 0.000000000000000000, 0.000000000000000000, 0.000000000000000000 ) ) ;
#386 = MECHANICAL_DESIGN_GEOMETRIC_PRESENTATION_REPRESENTATION (  '', ( #143 ), #478 ) ;
#387 = ORIENTED_EDGE ( 'NONE', *, *, #1103, .T. ) ;
#388 = FACE_OUTER_BOUND ( 'NONE', #94, .T. ) ;
#389 = ORIENTED_EDGE ( 'NONE', *, *, #685, .T. ) ;
#390 = AXIS2_PLACEMENT_3D ( 'NONE', #447, #969, #1280 ) ;
#391 = EDGE_CURVE ( 'NONE', #349, #335, #1153, .T. ) ;
#392 = VECTOR ( 'NONE', #748, 1000.000000000000000 ) ;
#393 = EDGE_CURVE ( 'NONE', #381, #749, #79, .T. ) ;
#394 = AXIS2_PLACEMENT_3D ( 'NONE', #719, #1146, #212 ) ;
#395 = DIRECTION ( 'NONE',  ( -0.000000000000000000, 0.000000000000000000, 1.000000000000000000 ) ) ;
#396 = AXIS2_PLACEMENT_3D ( 'NONE', #170, #1202, #267 ) ;
#397 = LINE ( 'NONE', #904, #151 ) ;
#398 = ORIENTED_EDGE ( 'NONE', *, *, #1046, .F. ) ;
#399 = CARTESIAN_POINT ( 'NONE',  ( -55.49889873396566742, 38.85319328092183611, 6.000000000000000000 ) ) ;
#400 = VERTEX_POINT ( 'NONE', #137 ) ;
#401 = DIRECTION ( 'NONE',  ( 1.000000000000000000, 0.000000000000000000, 0.000000000000000000 ) ) ;
#402 = EDGE_CURVE ( 'NONE', #454, #1362, #149, .T. ) ;
#403 = DIRECTION ( 'NONE',  ( 0.000000000000000000, -0.000000000000000000, -1.000000000000000000 ) ) ;
#404 = ORIENTED_EDGE ( 'NONE', *, *, #588, .F. ) ;
#405 = CARTESIAN_POINT ( 'NONE',  ( -52.26662885396567049, 0.000000000000000000, 6.000000000000000000 ) ) ;
#406 = ORIENTED_EDGE ( 'NONE', *, *, #171, .F. ) ;
#407 = DIRECTION ( 'NONE',  ( -0.000000000000000000, -0.000000000000000000, -1.000000000000000000 ) ) ;
#408 = CARTESIAN_POINT ( 'NONE',  ( -55.49889873396566742, 38.85319328092183611, 6.000000000000000000 ) ) ;
#409 = VERTEX_POINT ( 'NONE', #253 ) ;
#410 = EDGE_CURVE ( 'NONE', #651, #1067, #230, .T. ) ;
#411 = FACE_OUTER_BOUND ( 'NONE', #1298, .T. ) ;
#412 = ORIENTED_EDGE ( 'NONE', *, *, #402, .F. ) ;
#413 =( GEOMETRIC_REPRESENTATION_CONTEXT ( 3 ) GLOBAL_UNCERTAINTY_ASSIGNED_CONTEXT ( ( #215 ) ) GLOBAL_UNIT_ASSIGNED_CONTEXT ( ( #1091, #168, #994 ) ) REPRESENTATION_CONTEXT ( 'NONE', 'WORKASPACE' ) );
#414 = AXIS2_PLACEMENT_3D ( 'NONE', #758, #1089, #554 ) ;
#415 = VECTOR ( 'NONE', #721, 1000.000000000000000 ) ;
#416 = DIRECTION ( 'NONE',  ( 1.000000000000000000, 0.000000000000000000, 0.000000000000000000 ) ) ;
#417 = VERTEX_POINT ( 'NONE', #466 ) ;
#418 = VECTOR ( 'NONE', #1003, 1000.000000000000000 ) ;
#419 = DIRECTION ( 'NONE',  ( 1.000000000000000000, 0.000000000000000000, 0.000000000000000000 ) ) ;
#420 = ORIENTED_EDGE ( 'NONE', *, *, #1344, .F. ) ;
#421 = ADVANCED_FACE ( 'NONE', ( #557 ), #664, .F. ) ;
#422 = DIRECTION ( 'NONE',  ( -0.000000000000000000, -0.000000000000000000, 1.000000000000000000 ) ) ;
#423 = DIRECTION ( 'NONE',  ( 1.000000000000000000, 0.000000000000000000, 0.000000000000000000 ) ) ;
#424 = ORIENTED_EDGE ( 'NONE', *, *, #686, .F. ) ;
#425 = CARTESIAN_POINT ( 'NONE',  ( -55.49889873396566742, 41.08546316181864455, 6.000000000000000000 ) ) ;
#426 = ORIENTED_EDGE ( 'NONE', *, *, #86, .F. ) ;
#427 = ADVANCED_FACE ( 'NONE', ( #1297 ), #359, .F. ) ;
#428 = EDGE_CURVE ( 'NONE', #1256, #597, #1194, .T. ) ;
#429 = DIRECTION ( 'NONE',  ( -0.000000000000000000, -0.000000000000000000, -1.000000000000000000 ) ) ;
#430 = DIRECTION ( 'NONE',  ( -1.000000000000000000, 0.000000000000000000, 0.000000000000000000 ) ) ;
#431 = ORIENTED_EDGE ( 'NONE', *, *, #892, .F. ) ;
#432 = DIRECTION ( 'NONE',  ( -1.000000000000000000, 0.000000000000000000, 0.000000000000000000 ) ) ;
#433 = ORIENTED_EDGE ( 'NONE', *, *, #1072, .T. ) ;
#434 = DIRECTION ( 'NONE',  ( 0.000000000000000000, -0.000000000000000000, 1.000000000000000000 ) ) ;
#435 = EDGE_CURVE ( 'NONE', #1254, #878, #1016, .T. ) ;
#436 = DIRECTION ( 'NONE',  ( -0.000000000000000000, -0.000000000000000000, -1.000000000000000000 ) ) ;
#437 = ORIENTED_EDGE ( 'NONE', *, *, #525, .F. ) ;
#438 = CARTESIAN_POINT ( 'NONE',  ( -64.56310368146461087, 49.96932822137024033, 6.000000000000000000 ) ) ;
#439 = CIRCLE ( 'NONE', #1203, 1.000000000000000888 ) ;
#440 = ORIENTED_EDGE ( 'NONE', *, *, #870, .T. ) ;
#441 = ORIENTED_EDGE ( 'NONE', *, *, #723, .F. ) ;
#442 = CARTESIAN_POINT ( 'NONE',  ( -34.38276379396566540, 49.96932822137024033, 6.000000000000000000 ) ) ;
#443 = CARTESIAN_POINT ( 'NONE',  ( -0.000000000000000000, 49.96932822137024033, 0.000000000000000000 ) ) ;
#444 = EDGE_LOOP ( 'NONE', ( #1342, #654, #406, #315 ) ) ;
#445 = CARTESIAN_POINT ( 'NONE',  ( -55.49889873396566742, 34.35488497954196419, 6.000000000000000000 ) ) ;
#446 = ORIENTED_EDGE ( 'NONE', *, *, #723, .T. ) ;
#447 = CARTESIAN_POINT ( 'NONE',  ( -72.38276379396567961, 50.96932822137024033, 6.000000000000000000 ) ) ;
#448 = DIRECTION ( 'NONE',  ( 0.000000000000000000, -0.000000000000000000, -1.000000000000000000 ) ) ;
#449 = DIRECTION ( 'NONE',  ( 1.000000000000000000, 0.000000000000000000, 0.000000000000000000 ) ) ;
#450 = EDGE_CURVE ( 'NONE', #262, #409, #327, .T. ) ;
#451 = CARTESIAN_POINT ( 'NONE',  ( -38.38276379396567251, 39.96932822137024033, 6.000000000000000000 ) ) ;
#452 = ORIENTED_EDGE ( 'NONE', *, *, #86, .T. ) ;
#453 = ADVANCED_FACE ( 'NONE', ( #355 ), #545, .T. ) ;
#454 = VERTEX_POINT ( 'NONE', #348 ) ;
#455 = CARTESIAN_POINT ( 'NONE',  ( -73.38276379396567961, 0.000000000000000000, 0.000000000000000000 ) ) ;
#456 = AXIS2_PLACEMENT_3D ( 'NONE', #1052, #434, #1275 ) ;
#457 = CARTESIAN_POINT ( 'NONE',  ( -53.38276379396567251, 39.96932822137024033, 6.000000000000000000 ) ) ;
#458 = CIRCLE ( 'NONE', #414, 1.000000000000000888 ) ;
#459 = DIRECTION ( 'NONE',  ( 0.000000000000000000, 0.000000000000000000, -1.000000000000000000 ) ) ;
#460 = VERTEX_POINT ( 'NONE', #652 ) ;
#461 = AXIS2_PLACEMENT_3D ( 'NONE', #1164, #641, #131 ) ;
#462 = DIRECTION ( 'NONE',  ( 1.000000000000000000, 0.000000000000000000, 0.000000000000000000 ) ) ;
#463 = VECTOR ( 'NONE', #762, 1000.000000000000000 ) ;
#464 = DIRECTION ( 'NONE',  ( -0.000000000000000000, -0.000000000000000000, 1.000000000000000000 ) ) ;
#465 = LINE ( 'NONE', #286, #220 ) ;
#466 = CARTESIAN_POINT ( 'NONE',  ( -59.99720703562493895, 37.85319328092183611, 6.000000000000000000 ) ) ;
#467 = ORIENTED_EDGE ( 'NONE', *, *, #1060, .T. ) ;
#468 = VERTEX_POINT ( 'NONE', #451 ) ;
#469 = ADVANCED_FACE ( 'NONE', ( #947 ), #1284, .T. ) ;
#470 = DIRECTION ( 'NONE',  ( 1.000000000000000000, 0.000000000000000000, 0.000000000000000000 ) ) ;
#471 = EDGE_CURVE ( 'NONE', #460, #878, #1295, .T. ) ;
#472 = FACE_OUTER_BOUND ( 'NONE', #829, .T. ) ;
#473 = FACE_OUTER_BOUND ( 'NONE', #301, .T. ) ;
#474 = VERTEX_POINT ( 'NONE', #538 ) ;
#475 = CARTESIAN_POINT ( 'NONE',  ( -55.85158789063233797, 46.51951200350322324, 0.000000000000000000 ) ) ;
#476 = PRODUCT_CONTEXT ( 'NONE', #232, 'mechanical' ) ;
#477 = DIRECTION ( 'NONE',  ( 1.000000000000000000, 0.000000000000000000, 0.000000000000000000 ) ) ;
#478 =( GEOMETRIC_REPRESENTATION_CONTEXT ( 3 ) GLOBAL_UNCERTAINTY_ASSIGNED_CONTEXT ( ( #1262 ) ) GLOBAL_UNIT_ASSIGNED_CONTEXT ( ( #608, #818, #1031 ) ) REPRESENTATION_CONTEXT ( 'NONE', 'WORKASPACE' ) );
#479 = LINE ( 'NONE', #378, #546 ) ;
#480 = ORIENTED_EDGE ( 'NONE', *, *, #350, .F. ) ;
#481 = CIRCLE ( 'NONE', #1199, 6.999999999999999112 ) ;
#482 = FACE_OUTER_BOUND ( 'NONE', #534, .T. ) ;
#483 = LINE ( 'NONE', #1321, #321 ) ;
#484 = EDGE_CURVE ( 'NONE', #1292, #96, #674, .T. ) ;
#485 = PLANE ( 'NONE',  #607 ) ;
#486 = VERTEX_POINT ( 'NONE', #438 ) ;
#487 = DIRECTION ( 'NONE',  ( 0.000000000000000000, 0.000000000000000000, 1.000000000000000000 ) ) ;
#488 = ORIENTED_EDGE ( 'NONE', *, *, #1223, .T. ) ;
#489 = CARTESIAN_POINT ( 'NONE',  ( -52.26662885396567049, 34.35488497954196419, 0.000000000000000000 ) ) ;
#490 = DIRECTION ( 'NONE',  ( 0.000000000000000000, -0.000000000000000000, -1.000000000000000000 ) ) ;
#491 = CARTESIAN_POINT ( 'NONE',  ( -54.49889873396566742, 0.000000000000000000, 6.000000000000000000 ) ) ;
#492 = ADVANCED_FACE ( 'NONE', ( #845 ), #741, .F. ) ;
#493 = ORIENTED_EDGE ( 'NONE', *, *, #1037, .F. ) ;
#494 = DIRECTION ( 'NONE',  ( -0.000000000000000000, 0.000000000000000000, 1.000000000000000000 ) ) ;
#495 = ORIENTED_EDGE ( 'NONE', *, *, #925, .T. ) ;
#496 = EDGE_CURVE ( 'NONE', #823, #102, #1291, .T. ) ;
#497 = DIRECTION ( 'NONE',  ( -0.000000000000000000, -0.000000000000000000, 1.000000000000000000 ) ) ;
#498 = CIRCLE ( 'NONE', #880, 1.000000000000000888 ) ;
#499 = ORIENTED_EDGE ( 'NONE', *, *, #704, .F. ) ;
#500 = AXIS2_PLACEMENT_3D ( 'NONE', #278, #1200, #265 ) ;
#501 = CARTESIAN_POINT ( 'NONE',  ( -73.38276379396567961, 53.96932822137024033, 6.000000000000000000 ) ) ;
#502 = ORIENTED_EDGE ( 'NONE', *, *, #657, .F. ) ;
#503 = EDGE_CURVE ( 'NONE', #691, #523, #682, .T. ) ;
#504 = AXIS2_PLACEMENT_3D ( 'NONE', #926, #623, #1360 ) ;
#505 = AXIS2_PLACEMENT_3D ( 'NONE', #15, #132, #865 ) ;
#506 = CYLINDRICAL_SURFACE ( 'NONE', #1290, 1.000000000000000888 ) ;
#507 = VECTOR ( 'NONE', #650, 1000.000000000000000 ) ;
#508 = DIRECTION ( 'NONE',  ( 1.000000000000000000, 0.000000000000000000, 0.000000000000000000 ) ) ;
#509 = ORIENTED_EDGE ( 'NONE', *, *, #782, .F. ) ;
#510 = CYLINDRICAL_SURFACE ( 'NONE', #103, 1.000000000000000888 ) ;
#511 = ORIENTED_EDGE ( 'NONE', *, *, #1115, .T. ) ;
#512 = EDGE_CURVE ( 'NONE', #1134, #700, #479, .T. ) ;
#513 = CARTESIAN_POINT ( 'NONE',  ( -53.38276379396567251, 39.96932822137024033, 6.000000000000000000 ) ) ;
#514 = ORIENTED_EDGE ( 'NONE', *, *, #428, .T. ) ;
#515 = DIRECTION ( 'NONE',  ( -0.000000000000000000, -0.000000000000000000, -1.000000000000000000 ) ) ;
#516 = ORIENTED_EDGE ( 'NONE', *, *, #104, .T. ) ;
#517 = FACE_BOUND ( 'NONE', #624, .T. ) ;
#518 = ORIENTED_EDGE ( 'NONE', *, *, #1257, .T. ) ;
#519 = AXIS2_PLACEMENT_3D ( 'NONE', #135, #448, #943 ) ;
#520 = FACE_OUTER_BOUND ( 'NONE', #914, .T. ) ;
#521 = ORIENTED_EDGE ( 'NONE', *, *, #588, .T. ) ;
#522 = DIRECTION ( 'NONE',  ( 0.000000000000000000, -0.000000000000000000, -1.000000000000000000 ) ) ;
#523 = VERTEX_POINT ( 'NONE', #1098 ) ;
#524 = CIRCLE ( 'NONE', #285, 1.000000000000000888 ) ;
#525 = EDGE_CURVE ( 'NONE', #1088, #460, #1216, .T. ) ;
#526 = CARTESIAN_POINT ( 'NONE',  ( -72.38276379396567961, 49.96932822137024033, 6.000000000000000000 ) ) ;
#527 = ORIENTED_EDGE ( 'NONE', *, *, #1323, .T. ) ;
#528 = ADVANCED_FACE ( 'NONE', ( #1226 ), #696, .F. ) ;
#529 = CYLINDRICAL_SURFACE ( 'NONE', #1145, 6.999999999999999112 ) ;
#530 = LINE ( 'NONE', #1139, #1228 ) ;
#531 = ORIENTED_EDGE ( 'NONE', *, *, #243, .F. ) ;
#532 = ADVANCED_FACE ( 'NONE', ( #690 ), #775, .F. ) ;
#533 = CARTESIAN_POINT ( 'NONE',  ( -52.26662885396567049, 34.35488497954196419, 0.000000000000000000 ) ) ;
#534 = EDGE_LOOP ( 'NONE', ( #715, #941, #1331, #207 ) ) ;
#535 = DIRECTION ( 'NONE',  ( 1.000000000000000000, 0.000000000000000000, 0.000000000000000000 ) ) ;
#536 = FACE_OUTER_BOUND ( 'NONE', #374, .T. ) ;
#537 = ORIENTED_EDGE ( 'NONE', *, *, #138, .T. ) ;
#538 = CARTESIAN_POINT ( 'NONE',  ( -58.99720703562493895, 38.85319328092183611, 0.000000000000000000 ) ) ;
#539 = EDGE_LOOP ( 'NONE', ( #734, #147, #420, #852 ) ) ;
#540 = CIRCLE ( 'NONE', #51, 1.000000000000000888 ) ;
#541 = DIRECTION ( 'NONE',  ( 1.000000000000000000, 0.000000000000000000, 0.000000000000000000 ) ) ;
#542 = AXIS2_PLACEMENT_3D ( 'NONE', #361, #869, #1299 ) ;
#543 = LINE ( 'NONE', #443, #565 ) ;
#544 = EDGE_LOOP ( 'NONE', ( #717, #553, #815, #857 ) ) ;
#545 = CYLINDRICAL_SURFACE ( 'NONE', #1181, 1.000000000000000888 ) ;
#546 = VECTOR ( 'NONE', #672, 1000.000000000000000 ) ;
#547 = ORIENTED_EDGE ( 'NONE', *, *, #1206, .T. ) ;
#548 = ORIENTED_EDGE ( 'NONE', *, *, #1300, .T. ) ;
#549 = CARTESIAN_POINT ( 'NONE',  ( -38.38276379396567251, 39.96932822137024033, 0.000000000000000000 ) ) ;
#550 = CARTESIAN_POINT ( 'NONE',  ( -34.38276379396566540, 54.96932822137024033, 0.000000000000000000 ) ) ;
#551 = EDGE_CURVE ( 'NONE', #651, #381, #575, .T. ) ;
#552 = DIRECTION ( 'NONE',  ( 0.000000000000000000, 1.000000000000000000, 0.000000000000000000 ) ) ;
#553 = ORIENTED_EDGE ( 'NONE', *, *, #1138, .F. ) ;
#554 = DIRECTION ( 'NONE',  ( 1.000000000000000000, 0.000000000000000000, 0.000000000000000000 ) ) ;
#555 = LINE ( 'NONE', #956, #1011 ) ;
#556 = PLANE ( 'NONE',  #461 ) ;
#557 = FACE_OUTER_BOUND ( 'NONE', #720, .T. ) ;
#558 = EDGE_LOOP ( 'NONE', ( #231, #1007, #985, #678 ) ) ;
#559 = DIRECTION ( 'NONE',  ( 1.000000000000000000, 0.000000000000000000, -0.000000000000000000 ) ) ;
#560 = CIRCLE ( 'NONE', #834, 1.000000000000000888 ) ;
#561 = FACE_OUTER_BOUND ( 'NONE', #727, .T. ) ;
#562 = AXIS2_PLACEMENT_3D ( 'NONE', #270, #375, #291 ) ;
#563 = DIRECTION ( 'NONE',  ( 1.000000000000000000, 0.000000000000000000, 0.000000000000000000 ) ) ;
#564 = ORIENTED_EDGE ( 'NONE', *, *, #686, .T. ) ;
#565 = VECTOR ( 'NONE', #951, 1000.000000000000000 ) ;
#566 = DIRECTION ( 'NONE',  ( -0.000000000000000000, -0.000000000000000000, -1.000000000000000000 ) ) ;
#567 = EDGE_CURVE ( 'NONE', #177, #645, #397, .T. ) ;
#568 = DIRECTION ( 'NONE',  ( 0.000000000000000000, -0.000000000000000000, -1.000000000000000000 ) ) ;
#569 = CARTESIAN_POINT ( 'NONE',  ( -52.26662885396567049, 45.58377146319851647, 6.000000000000000000 ) ) ;
#570 = CARTESIAN_POINT ( 'NONE',  ( 0.000000000000000000, 49.96932822137024033, 6.000000000000000000 ) ) ;
#571 = ORIENTED_EDGE ( 'NONE', *, *, #367, .T. ) ;
#572 = DIRECTION ( 'NONE',  ( -1.000000000000000000, 0.000000000000000000, 0.000000000000000000 ) ) ;
#573 = LINE ( 'NONE', #489, #98 ) ;
#574 = DIRECTION ( 'NONE',  ( -0.000000000000000000, -0.000000000000000000, -1.000000000000000000 ) ) ;
#575 = LINE ( 'NONE', #779, #129 ) ;
#576 = ORIENTED_EDGE ( 'NONE', *, *, #1149, .T. ) ;
#577 = PLANE ( 'NONE',  #1082 ) ;
#578 = LINE ( 'NONE', #1092, #974 ) ;
#579 = VECTOR ( 'NONE', #635, 1000.000000000000000 ) ;
#580 = DIRECTION ( 'NONE',  ( -1.000000000000000000, 0.000000000000000000, 0.000000000000000000 ) ) ;
#581 = ORIENTED_EDGE ( 'NONE', *, *, #325, .T. ) ;
#582 = AXIS2_PLACEMENT_3D ( 'NONE', #765, #156, #572 ) ;
#583 = CARTESIAN_POINT ( 'NONE',  ( -58.99720703562493895, 38.85319328092183611, 6.000000000000000000 ) ) ;
#584 = AXIS2_PLACEMENT_3D ( 'NONE', #973, #38, #8 ) ;
#585 = EDGE_CURVE ( 'NONE', #318, #486, #1337, .T. ) ;
#586 = DIRECTION ( 'NONE',  ( 1.000000000000000000, 0.000000000000000000, 0.000000000000000000 ) ) ;
#587 = DIRECTION ( 'NONE',  ( -0.000000000000000000, -0.000000000000000000, -1.000000000000000000 ) ) ;
#588 = EDGE_CURVE ( 'NONE', #898, #284, #439, .T. ) ;
#589 = ORIENTED_EDGE ( 'NONE', *, *, #352, .F. ) ;
#590 = DIRECTION ( 'NONE',  ( 1.000000000000000000, 0.000000000000000000, -0.000000000000000000 ) ) ;
#591 = ORIENTED_EDGE ( 'NONE', *, *, #1195, .T. ) ;
#592 = PLANE ( 'NONE',  #281 ) ;
#593 = LINE ( 'NONE', #180, #418 ) ;
#594 = ORIENTED_EDGE ( 'NONE', *, *, #258, .F. ) ;
#595 = ADVANCED_FACE ( 'NONE', ( #1093 ), #877, .T. ) ;
#596 = CARTESIAN_POINT ( 'NONE',  ( -58.99720703562493895, 42.08546316181864455, 0.000000000000000000 ) ) ;
#597 = VERTEX_POINT ( 'NONE', #268 ) ;
#598 = ADVANCED_FACE ( 'NONE', ( #69 ), #1322, .F. ) ;
#599 = FACE_OUTER_BOUND ( 'NONE', #997, .T. ) ;
#600 = CARTESIAN_POINT ( 'NONE',  ( 0.000000000000000000, 54.96932822137024033, 6.000000000000000000 ) ) ;
#601 = VECTOR ( 'NONE', #1137, 1000.000000000000000 ) ;
#602 = VERTEX_POINT ( 'NONE', #373 ) ;
#603 = CARTESIAN_POINT ( 'NONE',  ( -55.49889873396566742, 41.08546316181864455, 0.000000000000000000 ) ) ;
#604 = VERTEX_POINT ( 'NONE', #44 ) ;
#605 = CIRCLE ( 'NONE', #542, 1.000000000000000888 ) ;
#606 = ADVANCED_FACE ( 'NONE', ( #1086, #979, #275, #793, #990 ), #485, .F. ) ;
#607 = AXIS2_PLACEMENT_3D ( 'NONE', #385, #1330, #1114 ) ;
#608 =( LENGTH_UNIT ( ) NAMED_UNIT ( * ) SI_UNIT ( .MILLI., .METRE. ) );
#609 = LINE ( 'NONE', #88, #992 ) ;
#610 = ORIENTED_EDGE ( 'NONE', *, *, #968, .T. ) ;
#611 = CARTESIAN_POINT ( 'NONE',  ( -33.38276379396566540, 53.96932822137024033, 0.000000000000000000 ) ) ;
#612 = ORIENTED_EDGE ( 'NONE', *, *, #171, .T. ) ;
#613 = LINE ( 'NONE', #78, #601 ) ;
#614 = CARTESIAN_POINT ( 'NONE',  ( -47.76832055230640606, 37.85319328092183611, 6.000000000000000000 ) ) ;
#615 = ORIENTED_EDGE ( 'NONE', *, *, #1097, .T. ) ;
#616 = CARTESIAN_POINT ( 'NONE',  ( -55.49889873396566742, 42.08546316181864455, 6.000000000000000000 ) ) ;
#617 = ORIENTED_EDGE ( 'NONE', *, *, #119, .T. ) ;
#618 = FACE_OUTER_BOUND ( 'NONE', #706, .T. ) ;
#619 = EDGE_CURVE ( 'NONE', #604, #750, #593, .T. ) ;
#620 = DIRECTION ( 'NONE',  ( -0.000000000000000000, -0.000000000000000000, -1.000000000000000000 ) ) ;
#621 = ORIENTED_EDGE ( 'NONE', *, *, #496, .T. ) ;
#622 = AXIS2_PLACEMENT_3D ( 'NONE', #676, #158, #477 ) ;
#623 = DIRECTION ( 'NONE',  ( 0.000000000000000000, 1.000000000000000000, 0.000000000000000000 ) ) ;
#624 = EDGE_LOOP ( 'NONE', ( #1211, #1140, #516, #72, #527, #1118, #919 ) ) ;
#625 = VECTOR ( 'NONE', #34, 1000.000000000000000 ) ;
#626 = VECTOR ( 'NONE', #1068, 1000.000000000000000 ) ;
#627 = CARTESIAN_POINT ( 'NONE',  ( -53.38276379396567251, 39.96932822137024033, 6.000000000000000000 ) ) ;
#628 = ADVANCED_FACE ( 'NONE', ( #473 ), #677, .T. ) ;
#629 = LINE ( 'NONE', #80, #371 ) ;
#630 = ORIENTED_EDGE ( 'NONE', *, *, #1188, .T. ) ;
#631 = CIRCLE ( 'NONE', #36, 15.00000000000000000 ) ;
#632 = EDGE_CURVE ( 'NONE', #1165, #324, #1251, .T. ) ;
#633 = CARTESIAN_POINT ( 'NONE',  ( -59.99720703562493895, 42.08546316181864455, 6.000000000000000000 ) ) ;
#634 = ORIENTED_EDGE ( 'NONE', *, *, #179, .T. ) ;
#635 = DIRECTION ( 'NONE',  ( 0.000000000000000000, -1.000000000000000000, 0.000000000000000000 ) ) ;
#636 = CARTESIAN_POINT ( 'NONE',  ( -53.38276379396567251, 39.96932822137024033, 6.000000000000000000 ) ) ;
#637 = VERTEX_POINT ( 'NONE', #408 ) ;
#638 = DIRECTION ( 'NONE',  ( -1.000000000000000000, 0.000000000000000000, 0.000000000000000000 ) ) ;
#639 = EDGE_LOOP ( 'NONE', ( #980, #660, #17, #1277 ) ) ;
#640 = LINE ( 'NONE', #120, #75 ) ;
#641 = DIRECTION ( 'NONE',  ( 0.000000000000000000, 1.000000000000000000, 0.000000000000000000 ) ) ;
#642 = ORIENTED_EDGE ( 'NONE', *, *, #935, .T. ) ;
#643 = DIRECTION ( 'NONE',  ( 1.000000000000000000, 0.000000000000000000, 0.000000000000000000 ) ) ;
#644 = ORIENTED_EDGE ( 'NONE', *, *, #725, .F. ) ;
#645 = VERTEX_POINT ( 'NONE', #922 ) ;
#646 = AXIS2_PLACEMENT_3D ( 'NONE', #713, #930, #401 ) ;
#647 = ADVANCED_FACE ( 'NONE', ( #702 ), #186, .F. ) ;
#648 = DIRECTION ( 'NONE',  ( -0.000000000000000000, 0.000000000000000000, 1.000000000000000000 ) ) ;
#649 = VECTOR ( 'NONE', #65, 1000.000000000000000 ) ;
#650 = DIRECTION ( 'NONE',  ( -0.000000000000000000, -0.000000000000000000, -1.000000000000000000 ) ) ;
#651 = VERTEX_POINT ( 'NONE', #826 ) ;
#652 = CARTESIAN_POINT ( 'NONE',  ( -54.49889873396566742, 34.35488497954196419, 6.000000000000000000 ) ) ;
#653 = VECTOR ( 'NONE', #1345, 1000.000000000000000 ) ;
#654 = ORIENTED_EDGE ( 'NONE', *, *, #252, .T. ) ;
#655 = CARTESIAN_POINT ( 'NONE',  ( -33.38276379396566540, 0.000000000000000000, 6.000000000000000000 ) ) ;
#656 = CARTESIAN_POINT ( 'NONE',  ( -54.49889873396566742, 0.000000000000000000, 6.000000000000000000 ) ) ;
#657 = EDGE_CURVE ( 'NONE', #324, #981, #629, .T. ) ;
#658 = CARTESIAN_POINT ( 'NONE',  ( -46.83258001202986520, 37.50050412418043067, 0.000000000000000000 ) ) ;
#659 = DIRECTION ( 'NONE',  ( -0.000000000000000000, -0.000000000000000000, -1.000000000000000000 ) ) ;
#660 = ORIENTED_EDGE ( 'NONE', *, *, #410, .F. ) ;
#661 = ORIENTED_EDGE ( 'NONE', *, *, #175, .T. ) ;
#662 = SHAPE_DEFINITION_REPRESENTATION ( #671, #668 ) ;
#663 = CARTESIAN_POINT ( 'NONE',  ( -0.000000000000000000, 38.85319328092183611, 0.000000000000000000 ) ) ;
#664 = CYLINDRICAL_SURFACE ( 'NONE', #127, 6.999999999999999112 ) ;
#665 = EDGE_CURVE ( 'NONE', #486, #240, #916, .T. ) ;
#666 = ORIENTED_EDGE ( 'NONE', *, *, #14, .T. ) ;
#667 = DIRECTION ( 'NONE',  ( 0.000000000000000000, -1.000000000000000000, 0.000000000000000000 ) ) ;
#668 = ADVANCED_BREP_SHAPE_REPRESENTATION ( 'motormount', ( #1101, #27 ), #413 ) ;
#669 = VECTOR ( 'NONE', #113, 1000.000000000000000 ) ;
#670 = CARTESIAN_POINT ( 'NONE',  ( -55.49889873396566742, 37.85319328092183611, 6.000000000000000000 ) ) ;
#671 = PRODUCT_DEFINITION_SHAPE ( 'NONE', 'NONE',  #141 ) ;
#672 = DIRECTION ( 'NONE',  ( -0.000000000000000000, -0.000000000000000000, 1.000000000000000000 ) ) ;
#673 = ORIENTED_EDGE ( 'NONE', *, *, #1344, .T. ) ;
#674 = CIRCLE ( 'NONE', #584, 15.00000000000000000 ) ;
#675 = LINE ( 'NONE', #134, #1125 ) ;
#676 = CARTESIAN_POINT ( 'NONE',  ( -72.38276379396567961, 53.96932822137024033, 6.000000000000000000 ) ) ;
#677 = CYLINDRICAL_SURFACE ( 'NONE', #196, 15.00000000000000000 ) ;
#678 = ORIENTED_EDGE ( 'NONE', *, *, #40, .F. ) ;
#679 = DIRECTION ( 'NONE',  ( 1.000000000000000000, 0.000000000000000000, 0.000000000000000000 ) ) ;
#680 = APPLICATION_PROTOCOL_DEFINITION ( 'draft international standard', 'automotive_design', 1998, #830 ) ;
#681 = CARTESIAN_POINT ( 'NONE',  ( 0.000000000000000000, 41.08546316181864455, 6.000000000000000000 ) ) ;
#682 = LINE ( 'NONE', #491, #82 ) ;
#683 = VERTEX_POINT ( 'NONE', #1372 ) ;
#684 = DIRECTION ( 'NONE',  ( 1.000000000000000000, 0.000000000000000000, 0.000000000000000000 ) ) ;
#685 = EDGE_CURVE ( 'NONE', #1305, #1219, #57, .T. ) ;
#686 = EDGE_CURVE ( 'NONE', #1285, #700, #714, .T. ) ;
#687 = CARTESIAN_POINT ( 'NONE',  ( -0.000000000000000000, 38.85319328092183611, 0.000000000000000000 ) ) ;
#688 = VECTOR ( 'NONE', #1320, 1000.000000000000000 ) ;
#689 = AXIS2_PLACEMENT_3D ( 'NONE', #23, #1287, #342 ) ;
#690 = FACE_OUTER_BOUND ( 'NONE', #1358, .T. ) ;
#691 = VERTEX_POINT ( 'NONE', #1041 ) ;
#692 = CARTESIAN_POINT ( 'NONE',  ( -55.49889873396566742, 41.08546316181864455, 6.000000000000000000 ) ) ;
#693 = VERTEX_POINT ( 'NONE', #1133 ) ;
#694 = AXIS2_PLACEMENT_3D ( 'NONE', #513, #206, #423 ) ;
#695 = CARTESIAN_POINT ( 'NONE',  ( -59.93294757590147981, 37.50050412418043067, 6.000000000000000000 ) ) ;
#696 = CYLINDRICAL_SURFACE ( 'NONE', #1316, 1.000000000000000888 ) ;
#697 = ORIENTED_EDGE ( 'NONE', *, *, #1097, .F. ) ;
#698 = EDGE_CURVE ( 'NONE', #1116, #523, #1021, .T. ) ;
#699 = CARTESIAN_POINT ( 'NONE',  ( -52.26662885396567049, 0.000000000000000000, 6.000000000000000000 ) ) ;
#700 = VERTEX_POINT ( 'NONE', #805 ) ;
#701 = CARTESIAN_POINT ( 'NONE',  ( -72.38276379396567961, 49.96932822137024033, 0.000000000000000000 ) ) ;
#702 = FACE_OUTER_BOUND ( 'NONE', #1333, .T. ) ;
#703 = ORIENTED_EDGE ( 'NONE', *, *, #471, .F. ) ;
#704 = EDGE_CURVE ( 'NONE', #1362, #187, #609, .T. ) ;
#705 = DIRECTION ( 'NONE',  ( -0.000000000000000000, 0.000000000000000000, 1.000000000000000000 ) ) ;
#706 = EDGE_LOOP ( 'NONE', ( #1034, #776, #809, #214 ) ) ;
#707 = DIRECTION ( 'NONE',  ( 0.000000000000000000, -0.000000000000000000, 1.000000000000000000 ) ) ;
#708 = DIRECTION ( 'NONE',  ( 1.000000000000000000, 0.000000000000000000, 0.000000000000000000 ) ) ;
#709 = ORIENTED_EDGE ( 'NONE', *, *, #1008, .F. ) ;
#710 = DIRECTION ( 'NONE',  ( -0.000000000000000000, -0.000000000000000000, -1.000000000000000000 ) ) ;
#711 = ORIENTED_EDGE ( 'NONE', *, *, #100, .T. ) ;
#712 = AXIS2_PLACEMENT_3D ( 'NONE', #1066, #552, #959 ) ;
#713 = CARTESIAN_POINT ( 'NONE',  ( -34.38276379396566540, 53.96932822137024033, 0.000000000000000000 ) ) ;
#714 = LINE ( 'NONE', #600, #817 ) ;
#715 = ORIENTED_EDGE ( 'NONE', *, *, #59, .F. ) ;
#716 = CARTESIAN_POINT ( 'NONE',  ( -55.85158789063233797, 33.41914443923725742, 6.000000000000000000 ) ) ;
#717 = ORIENTED_EDGE ( 'NONE', *, *, #909, .F. ) ;
#718 = DIRECTION ( 'NONE',  ( -0.000000000000000000, -0.000000000000000000, -1.000000000000000000 ) ) ;
#719 = CARTESIAN_POINT ( 'NONE',  ( 0.000000000000000000, 0.000000000000000000, 6.000000000000000000 ) ) ;
#720 = EDGE_LOOP ( 'NONE', ( #912, #81, #441, #615 ) ) ;
#721 = DIRECTION ( 'NONE',  ( -0.000000000000000000, 0.000000000000000000, -1.000000000000000000 ) ) ;
#722 = VERTEX_POINT ( 'NONE', #911 ) ;
#723 = EDGE_CURVE ( 'NONE', #284, #262, #1363, .T. ) ;
#724 = PLANE ( 'NONE',  #1220 ) ;
#725 = EDGE_CURVE ( 'NONE', #187, #1116, #756, .T. ) ;
#726 = CARTESIAN_POINT ( 'NONE',  ( -51.26662885396567049, 45.58377146319851647, 6.000000000000000000 ) ) ;
#727 = EDGE_LOOP ( 'NONE', ( #703, #437, #203, #1022 ) ) ;
#728 = DIRECTION ( 'NONE',  ( -0.000000000000000000, -0.000000000000000000, 1.000000000000000000 ) ) ;
#729 = EDGE_LOOP ( 'NONE', ( #320, #248, #1184, #1310 ) ) ;
#730 = AXIS2_PLACEMENT_3D ( 'NONE', #888, #494, #1095 ) ;
#731 = DIRECTION ( 'NONE',  ( -1.000000000000000000, 0.000000000000000000, 0.000000000000000000 ) ) ;
#732 = DIRECTION ( 'NONE',  ( -1.000000000000000000, 0.000000000000000000, 0.000000000000000000 ) ) ;
#733 = EDGE_CURVE ( 'NONE', #645, #1219, #929, .T. ) ;
#734 = ORIENTED_EDGE ( 'NONE', *, *, #104, .F. ) ;
#735 = VECTOR ( 'NONE', #957, 1000.000000000000000 ) ;
#736 = LINE ( 'NONE', #197, #1356 ) ;
#737 = VERTEX_POINT ( 'NONE', #300 ) ;
#738 = FACE_OUTER_BOUND ( 'NONE', #1269, .T. ) ;
#739 = CARTESIAN_POINT ( 'NONE',  ( -52.26662885396567049, 0.000000000000000000, 0.000000000000000000 ) ) ;
#740 = ORIENTED_EDGE ( 'NONE', *, *, #20, .T. ) ;
#741 = PLANE ( 'NONE',  #712 ) ;
#742 = EDGE_LOOP ( 'NONE', ( #292, #1172, #642, #796 ) ) ;
#743 = EDGE_CURVE ( 'NONE', #976, #400, #524, .T. ) ;
#744 = FACE_OUTER_BOUND ( 'NONE', #1373, .T. ) ;
#745 = DIRECTION ( 'NONE',  ( 1.000000000000000000, 0.000000000000000000, 0.000000000000000000 ) ) ;
#746 = CARTESIAN_POINT ( 'NONE',  ( -55.85158789063233797, 33.41914443923725742, 6.000000000000000000 ) ) ;
#747 = ORIENTED_EDGE ( 'NONE', *, *, #393, .T. ) ;
#748 = DIRECTION ( 'NONE',  ( 0.000000000000000000, -0.000000000000000000, 1.000000000000000000 ) ) ;
#749 = VERTEX_POINT ( 'NONE', #305 ) ;
#750 = VERTEX_POINT ( 'NONE', #1350 ) ;
#751 = DIRECTION ( 'NONE',  ( -0.000000000000000000, 0.000000000000000000, -1.000000000000000000 ) ) ;
#752 = CIRCLE ( 'NONE', #928, 6.999999999999999112 ) ;
#753 = LINE ( 'NONE', #849, #735 ) ;
#754 = AXIS2_PLACEMENT_3D ( 'NONE', #111, #1035, #105 ) ;
#755 = CARTESIAN_POINT ( 'NONE',  ( -68.38276379396566540, 39.96932822137024033, 6.000000000000000000 ) ) ;
#756 = CIRCLE ( 'NONE', #172, 1.000000000000000888 ) ;
#757 = ORIENTED_EDGE ( 'NONE', *, *, #20, .F. ) ;
#758 = CARTESIAN_POINT ( 'NONE',  ( -51.26662885396567049, 34.35488497954196419, 6.000000000000000000 ) ) ;
#759 = ORIENTED_EDGE ( 'NONE', *, *, #391, .T. ) ;
#760 = CARTESIAN_POINT ( 'NONE',  ( -54.49889873396566742, 0.000000000000000000, 0.000000000000000000 ) ) ;
#761 = ADVANCED_FACE ( 'NONE', ( #1027, #93, #517, #819, #1253 ), #312, .T. ) ;
#762 = DIRECTION ( 'NONE',  ( 0.000000000000000000, 0.000000000000000000, 1.000000000000000000 ) ) ;
#763 = DIRECTION ( 'NONE',  ( 0.000000000000000000, -0.000000000000000000, -1.000000000000000000 ) ) ;
#764 = ORIENTED_EDGE ( 'NONE', *, *, #1037, .T. ) ;
#765 = CARTESIAN_POINT ( 'NONE',  ( -47.76832055230640606, 42.08546316181864455, 6.000000000000000000 ) ) ;
#766 = EDGE_CURVE ( 'NONE', #597, #898, #530, .T. ) ;
#767 = DIRECTION ( 'NONE',  ( -0.000000000000000000, -0.000000000000000000, -1.000000000000000000 ) ) ;
#768 = DIRECTION ( 'NONE',  ( -0.000000000000000000, 0.000000000000000000, 1.000000000000000000 ) ) ;
#769 = DIRECTION ( 'NONE',  ( -1.000000000000000000, 0.000000000000000000, 0.000000000000000000 ) ) ;
#770 = EDGE_LOOP ( 'NONE', ( #945, #803, #894, #387 ) ) ;
#771 = CYLINDRICAL_SURFACE ( 'NONE', #582, 1.000000000000000888 ) ;
#772 = CYLINDRICAL_SURFACE ( 'NONE', #500, 1.000000000000000888 ) ;
#773 = CIRCLE ( 'NONE', #1312, 1.000000000000000888 ) ;
#774 = PLANE ( 'NONE',  #396 ) ;
#775 = CYLINDRICAL_SURFACE ( 'NONE', #1018, 1.000000000000000888 ) ;
#776 = ORIENTED_EDGE ( 'NONE', *, *, #263, .T. ) ;
#777 = DIRECTION ( 'NONE',  ( 1.000000000000000000, 0.000000000000000000, 0.000000000000000000 ) ) ;
#778 = FACE_OUTER_BOUND ( 'NONE', #6, .T. ) ;
#779 = CARTESIAN_POINT ( 'NONE',  ( -52.26662885396567049, 0.000000000000000000, 0.000000000000000000 ) ) ;
#780 = ORIENTED_EDGE ( 'NONE', *, *, #190, .F. ) ;
#781 = CARTESIAN_POINT ( 'NONE',  ( -58.99720703562493895, 37.85319328092183611, 6.000000000000000000 ) ) ;
#782 = EDGE_CURVE ( 'NONE', #820, #1134, #1033, .T. ) ;
#783 = LINE ( 'NONE', #150, #53 ) ;
#784 = CARTESIAN_POINT ( 'NONE',  ( -55.85158789063233797, 46.51951200350322324, 6.000000000000000000 ) ) ;
#785 = DIRECTION ( 'NONE',  ( -0.000000000000000000, -0.000000000000000000, -1.000000000000000000 ) ) ;
#786 = ORIENTED_EDGE ( 'NONE', *, *, #1213, .F. ) ;
#787 = LINE ( 'NONE', #692, #7 ) ;
#788 = VERTEX_POINT ( 'NONE', #295 ) ;
#789 = ADVANCED_FACE ( 'NONE', ( #236 ), #556, .T. ) ;
#790 = VECTOR ( 'NONE', #1244, 1000.000000000000000 ) ;
#791 = CARTESIAN_POINT ( 'NONE',  ( -58.99720703562493895, 38.85319328092183611, 6.000000000000000000 ) ) ;
#792 = AXIS2_PLACEMENT_3D ( 'NONE', #655, #559, #255 ) ;
#793 = FACE_BOUND ( 'NONE', #140, .T. ) ;
#794 = ORIENTED_EDGE ( 'NONE', *, *, #657, .T. ) ;
#795 = CARTESIAN_POINT ( 'NONE',  ( -0.000000000000000000, 41.08546316181864455, 0.000000000000000000 ) ) ;
#796 = ORIENTED_EDGE ( 'NONE', *, *, #567, .T. ) ;
#797 = AXIS2_PLACEMENT_3D ( 'NONE', #1053, #963, #25 ) ;
#798 = CARTESIAN_POINT ( 'NONE',  ( -55.49889873396566742, 37.85319328092183611, 0.000000000000000000 ) ) ;
#799 = EDGE_CURVE ( 'NONE', #1054, #691, #35, .T. ) ;
#800 = CARTESIAN_POINT ( 'NONE',  ( -53.38276379396567251, 39.96932822137024033, 6.000000000000000000 ) ) ;
#801 = VERTEX_POINT ( 'NONE', #1071 ) ;
#802 = DIRECTION ( 'NONE',  ( 1.000000000000000000, 0.000000000000000000, 0.000000000000000000 ) ) ;
#803 = ORIENTED_EDGE ( 'NONE', *, *, #858, .F. ) ;
#804 = DIRECTION ( 'NONE',  ( 0.000000000000000000, -0.000000000000000000, -1.000000000000000000 ) ) ;
#805 = CARTESIAN_POINT ( 'NONE',  ( -72.38276379396567961, 54.96932822137024033, 6.000000000000000000 ) ) ;
#806 = ADVANCED_FACE ( 'NONE', ( #536 ), #944, .F. ) ;
#807 = ORIENTED_EDGE ( 'NONE', *, *, #73, .F. ) ;
#808 = CARTESIAN_POINT ( 'NONE',  ( -51.26662885396567049, 34.35488497954196419, 6.000000000000000000 ) ) ;
#809 = ORIENTED_EDGE ( 'NONE', *, *, #119, .F. ) ;
#810 = DIRECTION ( 'NONE',  ( -0.000000000000000000, -0.000000000000000000, -1.000000000000000000 ) ) ;
#811 = CARTESIAN_POINT ( 'NONE',  ( -54.49889873396566742, 42.08546316181864455, 6.000000000000000000 ) ) ;
#812 = CIRCLE ( 'NONE', #987, 1.000000000000000888 ) ;
#813 = ORIENTED_EDGE ( 'NONE', *, *, #1327, .T. ) ;
#814 = CARTESIAN_POINT ( 'NONE',  ( -51.26662885396567049, 45.58377146319851647, 6.000000000000000000 ) ) ;
#815 = ORIENTED_EDGE ( 'NONE', *, *, #1077, .F. ) ;
#816 = AXIS2_PLACEMENT_3D ( 'NONE', #879, #370, #1207 ) ;
#817 = VECTOR ( 'NONE', #430, 1000.000000000000000 ) ;
#818 =( NAMED_UNIT ( * ) PLANE_ANGLE_UNIT ( ) SI_UNIT ( $, .RADIAN. ) );
#819 = FACE_BOUND ( 'NONE', #1028, .T. ) ;
#820 = VERTEX_POINT ( 'NONE', #550 ) ;
#821 = EDGE_CURVE ( 'NONE', #116, #693, #12, .T. ) ;
#822 = LINE ( 'NONE', #1255, #1361 ) ;
#823 = VERTEX_POINT ( 'NONE', #228 ) ;
#824 = EDGE_CURVE ( 'NONE', #254, #349, #222, .T. ) ;
#825 = DIRECTION ( 'NONE',  ( -1.000000000000000000, 0.000000000000000000, 0.000000000000000000 ) ) ;
#826 = CARTESIAN_POINT ( 'NONE',  ( -52.26662885396567049, 37.85319328092183611, 0.000000000000000000 ) ) ;
#827 = ORIENTED_EDGE ( 'NONE', *, *, #964, .T. ) ;
#828 = CARTESIAN_POINT ( 'NONE',  ( -53.38276379396567251, 39.96932822137024033, 0.000000000000000000 ) ) ;
#829 = EDGE_LOOP ( 'NONE', ( #1351, #1079, #341, #290 ) ) ;
#830 = APPLICATION_CONTEXT ( 'automotive_design' ) ;
#831 = DIRECTION ( 'NONE',  ( -0.000000000000000000, -0.000000000000000000, -1.000000000000000000 ) ) ;
#832 = DIRECTION ( 'NONE',  ( 0.000000000000000000, -1.000000000000000000, 0.000000000000000000 ) ) ;
#833 = ORIENTED_EDGE ( 'NONE', *, *, #190, .T. ) ;
#834 = AXIS2_PLACEMENT_3D ( 'NONE', #372, #1104, #876 ) ;
#835 = DIRECTION ( 'NONE',  ( 1.000000000000000000, 0.000000000000000000, 0.000000000000000000 ) ) ;
#836 = ORIENTED_EDGE ( 'NONE', *, *, #1160, .T. ) ;
#837 = VECTOR ( 'NONE', #462, 1000.000000000000000 ) ;
#838 = PLANE ( 'NONE',  #97 ) ;
#839 = AXIS2_PLACEMENT_3D ( 'NONE', #125, #659, #769 ) ;
#840 = VECTOR ( 'NONE', #497, 1000.000000000000000 ) ;
#841 = CARTESIAN_POINT ( 'NONE',  ( 0.000000000000000000, 54.96932822137024033, 6.000000000000000000 ) ) ;
#842 = ORIENTED_EDGE ( 'NONE', *, *, #40, .T. ) ;
#843 = VECTOR ( 'NONE', #832, 1000.000000000000000 ) ;
#844 = EDGE_CURVE ( 'NONE', #96, #335, #543, .T. ) ;
#845 = FACE_OUTER_BOUND ( 'NONE', #1175, .T. ) ;
#846 = ORIENTED_EDGE ( 'NONE', *, *, #844, .F. ) ;
#847 = FACE_OUTER_BOUND ( 'NONE', #1249, .T. ) ;
#848 = CARTESIAN_POINT ( 'NONE',  ( -51.26662885396567049, 41.08546316181864455, 6.000000000000000000 ) ) ;
#849 = CARTESIAN_POINT ( 'NONE',  ( -52.26662885396567049, 42.08546316181864455, 0.000000000000000000 ) ) ;
#850 = ORIENTED_EDGE ( 'NONE', *, *, #367, .F. ) ;
#851 = CARTESIAN_POINT ( 'NONE',  ( -50.91393969729899993, 33.41914443923725742, 6.000000000000000000 ) ) ;
#852 = ORIENTED_EDGE ( 'NONE', *, *, #138, .F. ) ;
#853 = FACE_OUTER_BOUND ( 'NONE', #60, .T. ) ;
#854 = CYLINDRICAL_SURFACE ( 'NONE', #456, 1.000000000000000888 ) ;
#855 = DIRECTION ( 'NONE',  ( 0.000000000000000000, 0.000000000000000000, -1.000000000000000000 ) ) ;
#856 = DIRECTION ( 'NONE',  ( -1.000000000000000000, 0.000000000000000000, 0.000000000000000000 ) ) ;
#857 = ORIENTED_EDGE ( 'NONE', *, *, #870, .F. ) ;
#858 = EDGE_CURVE ( 'NONE', #486, #823, #910, .T. ) ;
#859 = PRESENTATION_LAYER_ASSIGNMENT (  '', '', ( #143 ) ) ;
#860 = ORIENTED_EDGE ( 'NONE', *, *, #1131, .F. ) ;
#861 = CIRCLE ( 'NONE', #1012, 1.000000000000000888 ) ;
#862 = LINE ( 'NONE', #1281, #165 ) ;
#863 = LINE ( 'NONE', #739, #843 ) ;
#864 = AXIS2_PLACEMENT_3D ( 'NONE', #1365, #1260, #200 ) ;
#865 = DIRECTION ( 'NONE',  ( -1.000000000000000000, 0.000000000000000000, 0.000000000000000000 ) ) ;
#866 = AXIS2_PLACEMENT_3D ( 'NONE', #1309, #1238, #416 ) ;
#867 = VERTEX_POINT ( 'NONE', #1276 ) ;
#868 = EDGE_CURVE ( 'NONE', #867, #1366, #753, .T. ) ;
#869 = DIRECTION ( 'NONE',  ( -0.000000000000000000, 0.000000000000000000, 1.000000000000000000 ) ) ;
#870 = EDGE_CURVE ( 'NONE', #174, #801, #329, .T. ) ;
#871 = FACE_OUTER_BOUND ( 'NONE', #539, .T. ) ;
#872 = DIRECTION ( 'NONE',  ( 1.000000000000000000, 0.000000000000000000, 0.000000000000000000 ) ) ;
#873 = VERTEX_POINT ( 'NONE', #245 ) ;
#874 = ORIENTED_EDGE ( 'NONE', *, *, #858, .T. ) ;
#875 = CARTESIAN_POINT ( 'NONE',  ( -50.91393969729899993, 33.41914443923725742, 6.000000000000000000 ) ) ;
#876 = DIRECTION ( 'NONE',  ( 1.000000000000000000, 0.000000000000000000, 0.000000000000000000 ) ) ;
#877 = CYLINDRICAL_SURFACE ( 'NONE', #307, 15.00000000000000000 ) ;
#878 = VERTEX_POINT ( 'NONE', #746 ) ;
#879 = CARTESIAN_POINT ( 'NONE',  ( -47.76832055230640606, 37.85319328092183611, 6.000000000000000000 ) ) ;
#880 = AXIS2_PLACEMENT_3D ( 'NONE', #62, #1215, #279 ) ;
#881 = DIRECTION ( 'NONE',  ( 1.000000000000000000, 0.000000000000000000, 0.000000000000000000 ) ) ;
#882 = FACE_OUTER_BOUND ( 'NONE', #89, .T. ) ;
#883 = VECTOR ( 'NONE', #71, 1000.000000000000000 ) ;
#884 = CARTESIAN_POINT ( 'NONE',  ( -51.26662885396567049, 37.85319328092183611, 6.000000000000000000 ) ) ;
#885 = EDGE_CURVE ( 'NONE', #409, #1366, #863, .T. ) ;
#886 = ORIENTED_EDGE ( 'NONE', *, *, #1221, .F. ) ;
#887 = AXIS2_PLACEMENT_3D ( 'NONE', #289, #49, #897 ) ;
#888 = CARTESIAN_POINT ( 'NONE',  ( -51.26662885396567049, 37.85319328092183611, 0.000000000000000000 ) ) ;
#889 = DIRECTION ( 'NONE',  ( -0.000000000000000000, 0.000000000000000000, 1.000000000000000000 ) ) ;
#890 = DIRECTION ( 'NONE',  ( 1.000000000000000000, 0.000000000000000000, 0.000000000000000000 ) ) ;
#891 = EDGE_LOOP ( 'NONE', ( #1338, #1176, #219, #313 ) ) ;
#892 = EDGE_CURVE ( 'NONE', #1168, #400, #152, .T. ) ;
#893 = DIRECTION ( 'NONE',  ( 0.000000000000000000, 0.000000000000000000, -1.000000000000000000 ) ) ;
#894 = ORIENTED_EDGE ( 'NONE', *, *, #665, .T. ) ;
#895 = DIRECTION ( 'NONE',  ( 1.000000000000000000, 0.000000000000000000, 0.000000000000000000 ) ) ;
#896 = DIRECTION ( 'NONE',  ( 1.000000000000000000, 0.000000000000000000, 0.000000000000000000 ) ) ;
#897 = DIRECTION ( 'NONE',  ( 0.000000000000000000, -0.000000000000000000, 1.000000000000000000 ) ) ;
#898 = VERTEX_POINT ( 'NONE', #136 ) ;
#899 = FACE_OUTER_BOUND ( 'NONE', #298, .T. ) ;
#900 = ORIENTED_EDGE ( 'NONE', *, *, #698, .F. ) ;
#901 = EDGE_CURVE ( 'NONE', #691, #1231, #1158, .T. ) ;
#902 = CIRCLE ( 'NONE', #921, 15.00000000000000000 ) ;
#903 = AXIS2_PLACEMENT_3D ( 'NONE', #167, #277, #684 ) ;
#904 = CARTESIAN_POINT ( 'NONE',  ( -47.76832055230640606, 38.85319328092183611, 6.000000000000000000 ) ) ;
#905 = VERTEX_POINT ( 'NONE', #1289 ) ;
#906 = CARTESIAN_POINT ( 'NONE',  ( -55.49889873396566742, 45.58377146319851647, 0.000000000000000000 ) ) ;
#907 = VECTOR ( 'NONE', #953, 1000.000000000000000 ) ;
#908 = ORIENTED_EDGE ( 'NONE', *, *, #733, .F. ) ;
#909 = EDGE_CURVE ( 'NONE', #417, #174, #338, .T. ) ;
#910 = CIRCLE ( 'NONE', #1340, 15.00000000000000000 ) ;
#911 = CARTESIAN_POINT ( 'NONE',  ( -73.38276379396567961, 53.96932822137024033, 0.000000000000000000 ) ) ;
#912 = ORIENTED_EDGE ( 'NONE', *, *, #892, .T. ) ;
#913 = PLANE ( 'NONE',  #504 ) ;
#914 = EDGE_LOOP ( 'NONE', ( #112, #634, #1196, #537 ) ) ;
#915 = SURFACE_STYLE_FILL_AREA ( #92 ) ;
#916 = LINE ( 'NONE', #101, #653 ) ;
#917 = ORIENTED_EDGE ( 'NONE', *, *, #585, .T. ) ;
#918 = DIRECTION ( 'NONE',  ( 0.000000000000000000, -1.000000000000000000, 0.000000000000000000 ) ) ;
#919 = ORIENTED_EDGE ( 'NONE', *, *, #471, .T. ) ;
#920 = DIRECTION ( 'NONE',  ( -0.000000000000000000, 0.000000000000000000, 1.000000000000000000 ) ) ;
#921 = AXIS2_PLACEMENT_3D ( 'NONE', #627, #395, #87 ) ;
#922 = CARTESIAN_POINT ( 'NONE',  ( -47.76832055230640606, 38.85319328092183611, 6.000000000000000000 ) ) ;
#923 = AXIS2_PLACEMENT_3D ( 'NONE', #656, #227, #751 ) ;
#924 = VERTEX_POINT ( 'NONE', #658 ) ;
#925 = EDGE_CURVE ( 'NONE', #1362, #683, #354, .T. ) ;
#926 = CARTESIAN_POINT ( 'NONE',  ( 0.000000000000000000, 38.85319328092183611, 6.000000000000000000 ) ) ;
#927 = ORIENTED_EDGE ( 'NONE', *, *, #114, .T. ) ;
#928 = AXIS2_PLACEMENT_3D ( 'NONE', #828, #302, #933 ) ;
#929 = CIRCLE ( 'NONE', #1109, 1.000000000000000888 ) ;
#930 = DIRECTION ( 'NONE',  ( 0.000000000000000000, -0.000000000000000000, -1.000000000000000000 ) ) ;
#931 = DIRECTION ( 'NONE',  ( 0.000000000000000000, -0.000000000000000000, 1.000000000000000000 ) ) ;
#932 = ORIENTED_EDGE ( 'NONE', *, *, #821, .T. ) ;
#933 = DIRECTION ( 'NONE',  ( 1.000000000000000000, 0.000000000000000000, 0.000000000000000000 ) ) ;
#934 = ORIENTED_EDGE ( 'NONE', *, *, #182, .F. ) ;
#935 = EDGE_CURVE ( 'NONE', #45, #177, #1187, .T. ) ;
#936 = ADVANCED_FACE ( 'NONE', ( #561 ), #971, .F. ) ;
#937 = DIRECTION ( 'NONE',  ( 1.000000000000000000, 0.000000000000000000, 0.000000000000000000 ) ) ;
#938 = CARTESIAN_POINT ( 'NONE',  ( 0.000000000000000000, 54.96932822137024033, 0.000000000000000000 ) ) ;
#939 = ORIENTED_EDGE ( 'NONE', *, *, #1144, .F. ) ;
#940 = LINE ( 'NONE', #851, #970 ) ;
#941 = ORIENTED_EDGE ( 'NONE', *, *, #382, .F. ) ;
#942 = ADVANCED_FACE ( 'NONE', ( #115 ), #1303, .T. ) ;
#943 = DIRECTION ( 'NONE',  ( 1.000000000000000000, 0.000000000000000000, 0.000000000000000000 ) ) ;
#944 = PLANE ( 'NONE',  #218 ) ;
#945 = ORIENTED_EDGE ( 'NONE', *, *, #496, .F. ) ;
#946 = PRODUCT_DEFINITION_CONTEXT ( 'detailed design', #830, 'design' ) ;
#947 = FACE_OUTER_BOUND ( 'NONE', #770, .T. ) ;
#948 = EDGE_LOOP ( 'NONE', ( #1348, #711, #509, #1167, #955, #759, #846, #1271, #594, #1148, #166, #991 ) ) ;
#949 = CYLINDRICAL_SURFACE ( 'NONE', #345, 1.000000000000000888 ) ;
#950 = EDGE_CURVE ( 'NONE', #823, #468, #631, .T. ) ;
#951 = DIRECTION ( 'NONE',  ( 1.000000000000000000, 0.000000000000000000, 0.000000000000000000 ) ) ;
#952 = ORIENTED_EDGE ( 'NONE', *, *, #402, .T. ) ;
#953 = DIRECTION ( 'NONE',  ( 1.000000000000000000, 0.000000000000000000, 0.000000000000000000 ) ) ;
#954 = VERTEX_POINT ( 'NONE', #791 ) ;
#955 = ORIENTED_EDGE ( 'NONE', *, *, #824, .T. ) ;
#956 = CARTESIAN_POINT ( 'NONE',  ( -34.38276379396566540, 54.96932822137024033, 0.000000000000000000 ) ) ;
#957 = DIRECTION ( 'NONE',  ( -0.000000000000000000, 0.000000000000000000, -1.000000000000000000 ) ) ;
#958 = ADVANCED_FACE ( 'NONE', ( #871 ), #1002, .F. ) ;
#959 = DIRECTION ( 'NONE',  ( 0.000000000000000000, -0.000000000000000000, 1.000000000000000000 ) ) ;
#960 = ORIENTED_EDGE ( 'NONE', *, *, #766, .T. ) ;
#961 = LINE ( 'NONE', #1306, #837 ) ;
#962 = CARTESIAN_POINT ( 'NONE',  ( -55.49889873396566742, 34.35488497954196419, 0.000000000000000000 ) ) ;
#963 = DIRECTION ( 'NONE',  ( 0.000000000000000000, -0.000000000000000000, -1.000000000000000000 ) ) ;
#964 = EDGE_CURVE ( 'NONE', #602, #645, #465, .T. ) ;
#965 = CARTESIAN_POINT ( 'NONE',  ( -53.38276379396567251, 39.96932822137024033, 6.000000000000000000 ) ) ;
#966 = ORIENTED_EDGE ( 'NONE', *, *, #1026, .F. ) ;
#967 = VECTOR ( 'NONE', #937, 1000.000000000000000 ) ;
#968 = EDGE_CURVE ( 'NONE', #873, #1234, #578, .T. ) ;
#969 = DIRECTION ( 'NONE',  ( -0.000000000000000000, 0.000000000000000000, -1.000000000000000000 ) ) ;
#970 = VECTOR ( 'NONE', #21, 1000.000000000000000 ) ;
#971 = CYLINDRICAL_SURFACE ( 'NONE', #266, 1.000000000000000888 ) ;
#972 = VECTOR ( 'NONE', #436, 1000.000000000000000 ) ;
#973 = CARTESIAN_POINT ( 'NONE',  ( -53.38276379396567251, 39.96932822137024033, 0.000000000000000000 ) ) ;
#974 = VECTOR ( 'NONE', #1308, 1000.000000000000000 ) ;
#975 = ORIENTED_EDGE ( 'NONE', *, *, #350, .T. ) ;
#976 = VERTEX_POINT ( 'NONE', #569 ) ;
#977 = CARTESIAN_POINT ( 'NONE',  ( -54.49889873396566742, 0.000000000000000000, 0.000000000000000000 ) ) ;
#978 = CARTESIAN_POINT ( 'NONE',  ( -73.38276379396567961, 50.96932822137024033, 6.000000000000000000 ) ) ;
#979 = FACE_BOUND ( 'NONE', #1190, .T. ) ;
#980 = ORIENTED_EDGE ( 'NONE', *, *, #288, .F. ) ;
#981 = VERTEX_POINT ( 'NONE', #978 ) ;
#982 = ADVANCED_FACE ( 'NONE', ( #472 ), #774, .T. ) ;
#983 = DIRECTION ( 'NONE',  ( -0.000000000000000000, -0.000000000000000000, -1.000000000000000000 ) ) ;
#984 = CARTESIAN_POINT ( 'NONE',  ( -47.76832055230640606, 42.08546316181864455, 0.000000000000000000 ) ) ;
#985 = ORIENTED_EDGE ( 'NONE', *, *, #100, .F. ) ;
#986 = CARTESIAN_POINT ( 'NONE',  ( -59.99720703562493895, 37.85319328092183611, 0.000000000000000000 ) ) ;
#987 = AXIS2_PLACEMENT_3D ( 'NONE', #798, #1232, #294 ) ;
#988 = DIRECTION ( 'NONE',  ( -1.000000000000000000, 0.000000000000000000, 0.000000000000000000 ) ) ;
#989 = AXIS2_PLACEMENT_3D ( 'NONE', #906, #46, #777 ) ;
#990 = FACE_BOUND ( 'NONE', #1123, .T. ) ;
#991 = ORIENTED_EDGE ( 'NONE', *, *, #632, .T. ) ;
#992 = VECTOR ( 'NONE', #1013, 1000.000000000000000 ) ;
#993 = LINE ( 'NONE', #699, #883 ) ;
#994 =( NAMED_UNIT ( * ) SI_UNIT ( $, .STERADIAN. ) SOLID_ANGLE_UNIT ( ) );
#995 = CARTESIAN_POINT ( 'NONE',  ( -47.76832055230640606, 42.08546316181864455, 6.000000000000000000 ) ) ;
#996 = CARTESIAN_POINT ( 'NONE',  ( -54.49889873396566742, 34.35488497954196419, 6.000000000000000000 ) ) ;
#997 = EDGE_LOOP ( 'NONE', ( #13, #932, #426, #1045 ) ) ;
#998 = EDGE_CURVE ( 'NONE', #700, #126, #1155, .T. ) ;
#999 = CARTESIAN_POINT ( 'NONE',  ( -34.38276379396566540, 53.96932822137024033, 6.000000000000000000 ) ) ;
#1000 = ORIENTED_EDGE ( 'NONE', *, *, #1160, .F. ) ;
#1001 = PRODUCT_RELATED_PRODUCT_CATEGORY ( 'part', '', ( #274 ) ) ;
#1002 = CYLINDRICAL_SURFACE ( 'NONE', #83, 1.000000000000000888 ) ;
#1003 = DIRECTION ( 'NONE',  ( -0.000000000000000000, 0.000000000000000000, -1.000000000000000000 ) ) ;
#1004 = ADVANCED_FACE ( 'NONE', ( #882 ), #163, .F. ) ;
#1005 = ORIENTED_EDGE ( 'NONE', *, *, #1327, .F. ) ;
#1006 = CARTESIAN_POINT ( 'NONE',  ( -47.76832055230640606, 38.85319328092183611, 0.000000000000000000 ) ) ;
#1007 = ORIENTED_EDGE ( 'NONE', *, *, #512, .F. ) ;
#1008 = EDGE_CURVE ( 'NONE', #873, #96, #178, .T. ) ;
#1009 = VECTOR ( 'NONE', #586, 1000.000000000000000 ) ;
#1010 = CARTESIAN_POINT ( 'NONE',  ( -54.49889873396566742, 34.35488497954196419, 0.000000000000000000 ) ) ;
#1011 = VECTOR ( 'NONE', #18, 1000.000000000000000 ) ;
#1012 = AXIS2_PLACEMENT_3D ( 'NONE', #380, #188, #1218 ) ;
#1013 = DIRECTION ( 'NONE',  ( 1.000000000000000000, 0.000000000000000000, 0.000000000000000000 ) ) ;
#1014 = ORIENTED_EDGE ( 'NONE', *, *, #382, .T. ) ;
#1015 = DIRECTION ( 'NONE',  ( 0.000000000000000000, -0.000000000000000000, -1.000000000000000000 ) ) ;
#1016 = CIRCLE ( 'NONE', #1130, 6.999999999999999112 ) ;
#1017 = ORIENTED_EDGE ( 'NONE', *, *, #885, .T. ) ;
#1018 = AXIS2_PLACEMENT_3D ( 'NONE', #159, #785, #173 ) ;
#1019 = AXIS2_PLACEMENT_3D ( 'NONE', #142, #331, #19 ) ;
#1020 = CARTESIAN_POINT ( 'NONE',  ( -53.38276379396567251, 39.96932822137024033, 0.000000000000000000 ) ) ;
#1021 = LINE ( 'NONE', #811, #107 ) ;
#1022 = ORIENTED_EDGE ( 'NONE', *, *, #263, .F. ) ;
#1023 = DIRECTION ( 'NONE',  ( -0.000000000000000000, 0.000000000000000000, 1.000000000000000000 ) ) ;
#1024 = ORIENTED_EDGE ( 'NONE', *, *, #182, .T. ) ;
#1025 = FILL_AREA_STYLE_COLOUR ( '', #3 ) ;
#1026 = EDGE_CURVE ( 'NONE', #924, #177, #364, .T. ) ;
#1027 = FACE_OUTER_BOUND ( 'NONE', #70, .T. ) ;
#1028 = EDGE_LOOP ( 'NONE', ( #431, #433, #66, #547, #1121, #39 ) ) ;
#1029 = DIRECTION ( 'NONE',  ( 0.000000000000000000, -0.000000000000000000, -1.000000000000000000 ) ) ;
#1030 = ORIENTED_EDGE ( 'NONE', *, *, #698, .T. ) ;
#1031 =( NAMED_UNIT ( * ) SI_UNIT ( $, .STERADIAN. ) SOLID_ANGLE_UNIT ( ) );
#1032 = AXIS2_PLACEMENT_3D ( 'NONE', #1315, #889, #153 ) ;
#1033 = LINE ( 'NONE', #938, #1038 ) ;
#1034 = ORIENTED_EDGE ( 'NONE', *, *, #435, .T. ) ;
#1035 = DIRECTION ( 'NONE',  ( -0.000000000000000000, 0.000000000000000000, 1.000000000000000000 ) ) ;
#1036 = ORIENTED_EDGE ( 'NONE', *, *, #204, .T. ) ;
#1037 = EDGE_CURVE ( 'NONE', #788, #1285, #560, .T. ) ;
#1038 = VECTOR ( 'NONE', #1233, 1000.000000000000000 ) ;
#1039 = VECTOR ( 'NONE', #1076, 1000.000000000000000 ) ;
#1040 = FACE_OUTER_BOUND ( 'NONE', #729, .T. ) ;
#1041 = CARTESIAN_POINT ( 'NONE',  ( -54.49889873396566742, 45.58377146319851647, 6.000000000000000000 ) ) ;
#1042 = ORIENTED_EDGE ( 'NONE', *, *, #503, .F. ) ;
#1043 = ADVANCED_FACE ( 'NONE', ( #778 ), #592, .T. ) ;
#1044 = LINE ( 'NONE', #405, #54 ) ;
#1045 = ORIENTED_EDGE ( 'NONE', *, *, #1046, .T. ) ;
#1046 = EDGE_CURVE ( 'NONE', #198, #1054, #483, .T. ) ;
#1047 = DIRECTION ( 'NONE',  ( 0.000000000000000000, -0.000000000000000000, -1.000000000000000000 ) ) ;
#1048 = DIRECTION ( 'NONE',  ( -0.000000000000000000, 0.000000000000000000, 1.000000000000000000 ) ) ;
#1049 = ORIENTED_EDGE ( 'NONE', *, *, #450, .F. ) ;
#1050 = DIRECTION ( 'NONE',  ( -0.000000000000000000, 0.000000000000000000, 1.000000000000000000 ) ) ;
#1051 = EDGE_LOOP ( 'NONE', ( #1136, #697, #404, #1324 ) ) ;
#1052 = CARTESIAN_POINT ( 'NONE',  ( -51.26662885396567049, 42.08546316181864455, 6.000000000000000000 ) ) ;
#1053 = CARTESIAN_POINT ( 'NONE',  ( -55.49889873396566742, 45.58377146319851647, 6.000000000000000000 ) ) ;
#1054 = VERTEX_POINT ( 'NONE', #784 ) ;
#1055 = CIRCLE ( 'NONE', #26, 1.000000000000000888 ) ;
#1056 = DIRECTION ( 'NONE',  ( -0.000000000000000000, 0.000000000000000000, 1.000000000000000000 ) ) ;
#1057 = ORIENTED_EDGE ( 'NONE', *, *, #252, .F. ) ;
#1058 = ORIENTED_EDGE ( 'NONE', *, *, #1323, .F. ) ;
#1059 = AXIS2_PLACEMENT_3D ( 'NONE', #781, #1325, #802 ) ;
#1060 = EDGE_CURVE ( 'NONE', #1366, #1239, #498, .T. ) ;
#1061 = DIRECTION ( 'NONE',  ( 1.000000000000000000, 0.000000000000000000, 0.000000000000000000 ) ) ;
#1062 = VECTOR ( 'NONE', #208, 1000.000000000000000 ) ;
#1063 = AXIS2_PLACEMENT_3D ( 'NONE', #1126, #1357, #1120 ) ;
#1064 = DIRECTION ( 'NONE',  ( 0.000000000000000000, -0.000000000000000000, -1.000000000000000000 ) ) ;
#1065 = ORIENTED_EDGE ( 'NONE', *, *, #503, .T. ) ;
#1066 = CARTESIAN_POINT ( 'NONE',  ( 0.000000000000000000, 49.96932822137024033, 6.000000000000000000 ) ) ;
#1067 = VERTEX_POINT ( 'NONE', #1224 ) ;
#1068 = DIRECTION ( 'NONE',  ( 0.000000000000000000, 0.000000000000000000, -1.000000000000000000 ) ) ;
#1069 = EDGE_CURVE ( 'NONE', #474, #905, #1329, .T. ) ;
#1070 = CARTESIAN_POINT ( 'NONE',  ( -34.38276379396566540, 54.96932822137024033, 6.000000000000000000 ) ) ;
#1071 = CARTESIAN_POINT ( 'NONE',  ( -59.93294757590147981, 37.50050412418043067, 0.000000000000000000 ) ) ;
#1072 = EDGE_CURVE ( 'NONE', #1168, #597, #1055, .T. ) ;
#1073 = CARTESIAN_POINT ( 'NONE',  ( -58.99720703562493895, 42.08546316181864455, 0.000000000000000000 ) ) ;
#1074 = ORIENTED_EDGE ( 'NONE', *, *, #665, .F. ) ;
#1075 = ORIENTED_EDGE ( 'NONE', *, *, #73, .T. ) ;
#1076 = DIRECTION ( 'NONE',  ( 1.000000000000000000, 0.000000000000000000, 0.000000000000000000 ) ) ;
#1077 = EDGE_CURVE ( 'NONE', #801, #1254, #384, .T. ) ;
#1078 = CARTESIAN_POINT ( 'NONE',  ( 0.000000000000000000, 41.08546316181864455, 6.000000000000000000 ) ) ;
#1079 = ORIENTED_EDGE ( 'NONE', *, *, #243, .T. ) ;
#1080 = AXIS2_PLACEMENT_3D ( 'NONE', #1169, #337, #535 ) ;
#1081 = ORIENTED_EDGE ( 'NONE', *, *, #901, .F. ) ;
#1082 = AXIS2_PLACEMENT_3D ( 'NONE', #1212, #590, #1332 ) ;
#1083 = DIRECTION ( 'NONE',  ( 0.000000000000000000, 0.000000000000000000, 1.000000000000000000 ) ) ;
#1084 = VECTOR ( 'NONE', #515, 1000.000000000000000 ) ;
#1085 = DIRECTION ( 'NONE',  ( 0.000000000000000000, -0.000000000000000000, 1.000000000000000000 ) ) ;
#1086 = FACE_OUTER_BOUND ( 'NONE', #948, .T. ) ;
#1087 = VECTOR ( 'NONE', #855, 1000.000000000000000 ) ;
#1088 = VERTEX_POINT ( 'NONE', #1010 ) ;
#1089 = DIRECTION ( 'NONE',  ( 0.000000000000000000, -0.000000000000000000, -1.000000000000000000 ) ) ;
#1090 = ADVANCED_FACE ( 'NONE', ( #618 ), #1124, .F. ) ;
#1091 =( LENGTH_UNIT ( ) NAMED_UNIT ( * ) SI_UNIT ( .MILLI., .METRE. ) );
#1092 = CARTESIAN_POINT ( 'NONE',  ( 0.000000000000000000, 49.96932822137024033, 6.000000000000000000 ) ) ;
#1093 = FACE_OUTER_BOUND ( 'NONE', #29, .T. ) ;
#1094 = ORIENTED_EDGE ( 'NONE', *, *, #725, .T. ) ;
#1095 = DIRECTION ( 'NONE',  ( 1.000000000000000000, 0.000000000000000000, 0.000000000000000000 ) ) ;
#1096 = DIRECTION ( 'NONE',  ( 0.000000000000000000, 1.000000000000000000, 0.000000000000000000 ) ) ;
#1097 = EDGE_CURVE ( 'NONE', #284, #1168, #613, .T. ) ;
#1098 = CARTESIAN_POINT ( 'NONE',  ( -54.49889873396566742, 42.08546316181864455, 6.000000000000000000 ) ) ;
#1099 = EDGE_LOOP ( 'NONE', ( #160, #673, #440, #617, #518, #886, #836 ) ) ;
#1100 = CARTESIAN_POINT ( 'NONE',  ( -59.99720703562493895, 42.08546316181864455, 6.000000000000000000 ) ) ;
#1101 = MANIFOLD_SOLID_BREP ( 'Fillet3', #192 ) ;
#1102 = VECTOR ( 'NONE', #422, 1000.000000000000000 ) ;
#1103 = EDGE_CURVE ( 'NONE', #240, #102, #1243, .T. ) ;
#1104 = DIRECTION ( 'NONE',  ( -0.000000000000000000, 0.000000000000000000, 1.000000000000000000 ) ) ;
#1105 = VECTOR ( 'NONE', #1235, 1000.000000000000000 ) ;
#1106 = DIRECTION ( 'NONE',  ( -0.000000000000000000, -0.000000000000000000, -1.000000000000000000 ) ) ;
#1107 = ORIENTED_EDGE ( 'NONE', *, *, #632, .F. ) ;
#1108 = CIRCLE ( 'NONE', #264, 15.00000000000000000 ) ;
#1109 = AXIS2_PLACEMENT_3D ( 'NONE', #614, #522, #1246 ) ;
#1110 = FACE_OUTER_BOUND ( 'NONE', #1205, .T. ) ;
#1111 = ORIENTED_EDGE ( 'NONE', *, *, #391, .F. ) ;
#1112 = ADVANCED_FACE ( 'NONE', ( #1119 ), #506, .F. ) ;
#1113 = DIRECTION ( 'NONE',  ( 1.000000000000000000, 0.000000000000000000, -0.000000000000000000 ) ) ;
#1114 = DIRECTION ( 'NONE',  ( 1.000000000000000000, 0.000000000000000000, 0.000000000000000000 ) ) ;
#1115 = EDGE_CURVE ( 'NONE', #468, #873, #902, .T. ) ;
#1116 = VERTEX_POINT ( 'NONE', #99 ) ;
#1117 = CARTESIAN_POINT ( 'NONE',  ( -59.93294757590147981, 42.43815231856004289, 6.000000000000000000 ) ) ;
#1118 = ORIENTED_EDGE ( 'NONE', *, *, #1213, .T. ) ;
#1119 = FACE_OUTER_BOUND ( 'NONE', #544, .T. ) ;
#1120 = DIRECTION ( 'NONE',  ( -1.000000000000000000, 0.000000000000000000, 0.000000000000000000 ) ) ;
#1121 = ORIENTED_EDGE ( 'NONE', *, *, #226, .F. ) ;
#1122 = DIRECTION ( 'NONE',  ( -0.000000000000000000, 0.000000000000000000, 1.000000000000000000 ) ) ;
#1123 = EDGE_LOOP ( 'NONE', ( #1005, #661, #452, #612, #952, #1326, #1094 ) ) ;
#1124 = CYLINDRICAL_SURFACE ( 'NONE', #1197, 6.999999999999999112 ) ;
#1125 = VECTOR ( 'NONE', #667, 1000.000000000000000 ) ;
#1126 = CARTESIAN_POINT ( 'NONE',  ( -55.49889873396566742, 42.08546316181864455, 6.000000000000000000 ) ) ;
#1127 = EDGE_LOOP ( 'NONE', ( #1057, #1129, #1261, #412 ) ) ;
#1128 = CYLINDRICAL_SURFACE ( 'NONE', #238, 1.000000000000000888 ) ;
#1129 = ORIENTED_EDGE ( 'NONE', *, *, #1178, .F. ) ;
#1130 = AXIS2_PLACEMENT_3D ( 'NONE', #965, #1056, #1174 ) ;
#1131 = EDGE_CURVE ( 'NONE', #820, #254, #1334, .T. ) ;
#1132 = LINE ( 'NONE', #1364, #210 ) ;
#1133 = CARTESIAN_POINT ( 'NONE',  ( -59.93294757590147981, 42.43815231856004289, 0.000000000000000000 ) ) ;
#1134 = VERTEX_POINT ( 'NONE', #1355 ) ;
#1135 = CARTESIAN_POINT ( 'NONE',  ( -73.38276379396567961, 50.96932822137024033, 0.000000000000000000 ) ) ;
#1136 = ORIENTED_EDGE ( 'NONE', *, *, #1072, .F. ) ;
#1137 = DIRECTION ( 'NONE',  ( 0.000000000000000000, 0.000000000000000000, 1.000000000000000000 ) ) ;
#1138 = EDGE_CURVE ( 'NONE', #1254, #417, #540, .T. ) ;
#1139 = CARTESIAN_POINT ( 'NONE',  ( -47.76832055230640606, 41.08546316181864455, 0.000000000000000000 ) ) ;
#1140 = ORIENTED_EDGE ( 'NONE', *, *, #1138, .T. ) ;
#1141 = DIRECTION ( 'NONE',  ( -0.000000000000000000, -0.000000000000000000, -1.000000000000000000 ) ) ;
#1142 = ORIENTED_EDGE ( 'NONE', *, *, #325, .F. ) ;
#1143 = LINE ( 'NONE', #199, #1102 ) ;
#1144 = EDGE_CURVE ( 'NONE', #400, #262, #1132, .T. ) ;
#1145 = AXIS2_PLACEMENT_3D ( 'NONE', #1156, #831, #731 ) ;
#1146 = DIRECTION ( 'NONE',  ( -0.000000000000000000, 0.000000000000000000, 1.000000000000000000 ) ) ;
#1147 = CIRCLE ( 'NONE', #1222, 1.000000000000000888 ) ;
#1148 = ORIENTED_EDGE ( 'NONE', *, *, #1103, .F. ) ;
#1149 = EDGE_CURVE ( 'NONE', #254, #788, #1143, .T. ) ;
#1150 = CIRCLE ( 'NONE', #903, 6.999999999999999112 ) ;
#1151 = LINE ( 'NONE', #633, #347 ) ;
#1152 = EDGE_LOOP ( 'NONE', ( #499, #495, #64, #1036 ) ) ;
#1153 = CIRCLE ( 'NONE', #1272, 1.000000000000000888 ) ;
#1154 = VECTOR ( 'NONE', #37, 1000.000000000000000 ) ;
#1155 = CIRCLE ( 'NONE', #622, 1.000000000000000888 ) ;
#1156 = CARTESIAN_POINT ( 'NONE',  ( -53.38276379396567251, 39.96932822137024033, 6.000000000000000000 ) ) ;
#1157 = ADVANCED_FACE ( 'NONE', ( #1259 ), #724, .F. ) ;
#1158 = LINE ( 'NONE', #1282, #1087 ) ;
#1159 = ORIENTED_EDGE ( 'NONE', *, *, #968, .F. ) ;
#1160 = EDGE_CURVE ( 'NONE', #750, #905, #812, .T. ) ;
#1161 = DIRECTION ( 'NONE',  ( 0.000000000000000000, 0.000000000000000000, 1.000000000000000000 ) ) ;
#1162 = EDGE_LOOP ( 'NONE', ( #589, #303, #1065, #581, #123, #110, #488 ) ) ;
#1163 = PLANE ( 'NONE',  #923 ) ;
#1164 = CARTESIAN_POINT ( 'NONE',  ( 0.000000000000000000, 41.08546316181864455, 6.000000000000000000 ) ) ;
#1165 = VERTEX_POINT ( 'NONE', #701 ) ;
#1166 = DIRECTION ( 'NONE',  ( 1.000000000000000000, 0.000000000000000000, 0.000000000000000000 ) ) ;
#1167 = ORIENTED_EDGE ( 'NONE', *, *, #1131, .T. ) ;
#1168 = VERTEX_POINT ( 'NONE', #185 ) ;
#1169 = CARTESIAN_POINT ( 'NONE',  ( -58.99720703562493895, 42.08546316181864455, 6.000000000000000000 ) ) ;
#1170 = ADVANCED_FACE ( 'NONE', ( #599 ), #529, .F. ) ;
#1171 = DIRECTION ( 'NONE',  ( -0.000000000000000000, 0.000000000000000000, 1.000000000000000000 ) ) ;
#1172 = ORIENTED_EDGE ( 'NONE', *, *, #1302, .T. ) ;
#1173 = CIRCLE ( 'NONE', #1080, 1.000000000000000888 ) ;
#1174 = DIRECTION ( 'NONE',  ( 1.000000000000000000, 0.000000000000000000, 0.000000000000000000 ) ) ;
#1175 = EDGE_LOOP ( 'NONE', ( #296, #306, #591, #1074 ) ) ;
#1176 = ORIENTED_EDGE ( 'NONE', *, *, #410, .T. ) ;
#1177 = CIRCLE ( 'NONE', #1059, 1.000000000000000888 ) ;
#1178 = EDGE_CURVE ( 'NONE', #683, #91, #1173, .T. ) ;
#1179 = DIRECTION ( 'NONE',  ( 1.000000000000000000, 0.000000000000000000, -0.000000000000000000 ) ) ;
#1180 = CIRCLE ( 'NONE', #1225, 1.000000000000000888 ) ;
#1181 = AXIS2_PLACEMENT_3D ( 'NONE', #28, #459, #638 ) ;
#1182 = CARTESIAN_POINT ( 'NONE',  ( -59.99720703562493895, 37.85319328092183611, 6.000000000000000000 ) ) ;
#1183 = CARTESIAN_POINT ( 'NONE',  ( -52.26662885396567049, 37.85319328092183611, 6.000000000000000000 ) ) ;
#1184 = ORIENTED_EDGE ( 'NONE', *, *, #1060, .F. ) ;
#1185 = EDGE_LOOP ( 'NONE', ( #1375, #360, #351, #155, #827, #1247 ) ) ;
#1186 = CARTESIAN_POINT ( 'NONE',  ( -59.93294757590147981, 37.50050412418043067, 6.000000000000000000 ) ) ;
#1187 = LINE ( 'NONE', #663, #1039 ) ;
#1188 = EDGE_CURVE ( 'NONE', #722, #324, #2, .T. ) ;
#1189 = CARTESIAN_POINT ( 'NONE',  ( -34.38276379396566540, 50.96932822137024033, 0.000000000000000000 ) ) ;
#1190 = EDGE_LOOP ( 'NONE', ( #106, #927, #339, #747, #1279, #225 ) ) ;
#1191 = ORIENTED_EDGE ( 'NONE', *, *, #782, .T. ) ;
#1192 = CARTESIAN_POINT ( 'NONE',  ( -58.99720703562493895, 41.08546316181864455, 0.000000000000000000 ) ) ;
#1193 = CARTESIAN_POINT ( 'NONE',  ( -58.99720703562493895, 37.85319328092183611, 6.000000000000000000 ) ) ;
#1194 = LINE ( 'NONE', #1078, #907 ) ;
#1195 = EDGE_CURVE ( 'NONE', #1165, #240, #322, .T. ) ;
#1196 = ORIENTED_EDGE ( 'NONE', *, *, #67, .F. ) ;
#1197 = AXIS2_PLACEMENT_3D ( 'NONE', #299, #718, #1336 ) ;
#1198 = CARTESIAN_POINT ( 'NONE',  ( -55.85158789063233797, 33.41914443923725742, 0.000000000000000000 ) ) ;
#1199 = AXIS2_PLACEMENT_3D ( 'NONE', #1311, #1122, #161 ) ;
#1200 = DIRECTION ( 'NONE',  ( -0.000000000000000000, -0.000000000000000000, -1.000000000000000000 ) ) ;
#1201 = CIRCLE ( 'NONE', #754, 6.999999999999999112 ) ;
#1202 = DIRECTION ( 'NONE',  ( 1.000000000000000000, 0.000000000000000000, -0.000000000000000000 ) ) ;
#1203 = AXIS2_PLACEMENT_3D ( 'NONE', #984, #1317, #63 ) ;
#1204 = DIRECTION ( 'NONE',  ( -1.000000000000000000, 0.000000000000000000, 0.000000000000000000 ) ) ;
#1205 = EDGE_LOOP ( 'NONE', ( #908, #9, #966, #223 ) ) ;
#1206 = EDGE_CURVE ( 'NONE', #1256, #867, #1267, .T. ) ;
#1207 = DIRECTION ( 'NONE',  ( -1.000000000000000000, 0.000000000000000000, 0.000000000000000000 ) ) ;
#1208 = CARTESIAN_POINT ( 'NONE',  ( 0.000000000000000000, 0.000000000000000000, 0.000000000000000000 ) ) ;
#1209 = CARTESIAN_POINT ( 'NONE',  ( -42.20242390646672703, 49.96932822137024033, 6.000000000000000000 ) ) ;
#1210 = DIRECTION ( 'NONE',  ( -0.000000000000000000, -0.000000000000000000, 1.000000000000000000 ) ) ;
#1211 = ORIENTED_EDGE ( 'NONE', *, *, #435, .F. ) ;
#1212 = CARTESIAN_POINT ( 'NONE',  ( -54.49889873396566742, 0.000000000000000000, 6.000000000000000000 ) ) ;
#1213 = EDGE_CURVE ( 'NONE', #604, #460, #862, .T. ) ;
#1214 = DIRECTION ( 'NONE',  ( -0.000000000000000000, 0.000000000000000000, -1.000000000000000000 ) ) ;
#1215 = DIRECTION ( 'NONE',  ( -0.000000000000000000, 0.000000000000000000, 1.000000000000000000 ) ) ;
#1216 = LINE ( 'NONE', #996, #840 ) ;
#1217 = ORIENTED_EDGE ( 'NONE', *, *, #249, .F. ) ;
#1218 = DIRECTION ( 'NONE',  ( 1.000000000000000000, 0.000000000000000000, 0.000000000000000000 ) ) ;
#1219 = VERTEX_POINT ( 'NONE', #344 ) ;
#1220 = AXIS2_PLACEMENT_3D ( 'NONE', #211, #68, #707 ) ;
#1221 = EDGE_CURVE ( 'NONE', #750, #1088, #250, .T. ) ;
#1222 = AXIS2_PLACEMENT_3D ( 'NONE', #962, #648, #541 ) ;
#1223 = EDGE_CURVE ( 'NONE', #91, #116, #74, .T. ) ;
#1224 = CARTESIAN_POINT ( 'NONE',  ( -52.26662885396567049, 37.85319328092183611, 6.000000000000000000 ) ) ;
#1225 = AXIS2_PLACEMENT_3D ( 'NONE', #616, #1029, #419 ) ;
#1226 = FACE_OUTER_BOUND ( 'NONE', #639, .T. ) ;
#1227 = VERTEX_POINT ( 'NONE', #1288 ) ;
#1228 = VECTOR ( 'NONE', #620, 1000.000000000000000 ) ;
#1229 = AXIS2_PLACEMENT_3D ( 'NONE', #48, #1113, #273 ) ;
#1230 = CARTESIAN_POINT ( 'NONE',  ( -42.20242390646672703, 49.96932822137024033, 0.000000000000000000 ) ) ;
#1231 = VERTEX_POINT ( 'NONE', #353 ) ;
#1232 = DIRECTION ( 'NONE',  ( -0.000000000000000000, 0.000000000000000000, 1.000000000000000000 ) ) ;
#1233 = DIRECTION ( 'NONE',  ( -1.000000000000000000, 0.000000000000000000, 0.000000000000000000 ) ) ;
#1234 = VERTEX_POINT ( 'NONE', #442 ) ;
#1235 = DIRECTION ( 'NONE',  ( -0.000000000000000000, -0.000000000000000000, 1.000000000000000000 ) ) ;
#1236 = ORIENTED_EDGE ( 'NONE', *, *, #525, .T. ) ;
#1237 = DIRECTION ( 'NONE',  ( 1.000000000000000000, 0.000000000000000000, 0.000000000000000000 ) ) ;
#1238 = DIRECTION ( 'NONE',  ( 0.000000000000000000, -0.000000000000000000, -1.000000000000000000 ) ) ;
#1239 = VERTEX_POINT ( 'NONE', #234 ) ;
#1240 = ADVANCED_FACE ( 'NONE', ( #1040 ), #854, .F. ) ;
#1241 = CARTESIAN_POINT ( 'NONE',  ( -72.38276379396567961, 49.96932822137024033, 6.000000000000000000 ) ) ;
#1242 = ORIENTED_EDGE ( 'NONE', *, *, #1115, .F. ) ;
#1243 = CIRCLE ( 'NONE', #235, 15.00000000000000000 ) ;
#1244 = DIRECTION ( 'NONE',  ( 0.000000000000000000, 0.000000000000000000, 1.000000000000000000 ) ) ;
#1245 = CIRCLE ( 'NONE', #77, 1.000000000000000888 ) ;
#1246 = DIRECTION ( 'NONE',  ( 1.000000000000000000, 0.000000000000000000, 0.000000000000000000 ) ) ;
#1247 = ORIENTED_EDGE ( 'NONE', *, *, #733, .T. ) ;
#1248 = DIRECTION ( 'NONE',  ( -1.000000000000000000, 0.000000000000000000, 0.000000000000000000 ) ) ;
#1249 = EDGE_LOOP ( 'NONE', ( #934, #502, #1107, #368 ) ) ;
#1250 = ADVANCED_FACE ( 'NONE', ( #330 ), #838, .F. ) ;
#1251 = CIRCLE ( 'NONE', #866, 1.000000000000000888 ) ;
#1252 = CARTESIAN_POINT ( 'NONE',  ( -58.99720703562493895, 37.85319328092183611, 6.000000000000000000 ) ) ;
#1253 = FACE_BOUND ( 'NONE', #1162, .T. ) ;
#1254 = VERTEX_POINT ( 'NONE', #1186 ) ;
#1255 = CARTESIAN_POINT ( 'NONE',  ( -38.38276379396567251, 39.96932822137024033, 6.000000000000000000 ) ) ;
#1256 = VERTEX_POINT ( 'NONE', #848 ) ;
#1257 = EDGE_CURVE ( 'NONE', #16, #1088, #1147, .T. ) ;
#1258 = ADVANCED_FACE ( 'NONE', ( #738 ), #1163, .F. ) ;
#1259 = FACE_OUTER_BOUND ( 'NONE', #209, .T. ) ;
#1260 = DIRECTION ( 'NONE',  ( -0.000000000000000000, 0.000000000000000000, 1.000000000000000000 ) ) ;
#1261 = ORIENTED_EDGE ( 'NONE', *, *, #925, .F. ) ;
#1262 = UNCERTAINTY_MEASURE_WITH_UNIT (LENGTH_MEASURE( 1.000000000000000082E-05 ), #608, 'distance_accuracy_value', 'NONE');
#1263 = LINE ( 'NONE', #319, #216 ) ;
#1264 = ORIENTED_EDGE ( 'NONE', *, *, #743, .F. ) ;
#1265 = EDGE_CURVE ( 'NONE', #683, #356, #640, .T. ) ;
#1266 = DIRECTION ( 'NONE',  ( -1.000000000000000000, 0.000000000000000000, 0.000000000000000000 ) ) ;
#1267 = CIRCLE ( 'NONE', #1354, 1.000000000000000888 ) ;
#1268 = CARTESIAN_POINT ( 'NONE',  ( -55.49889873396566742, 34.35488497954196419, 6.000000000000000000 ) ) ;
#1269 = EDGE_LOOP ( 'NONE', ( #786, #332, #85, #1236 ) ) ;
#1270 = CARTESIAN_POINT ( 'NONE',  ( -34.38276379396566540, 49.96932822137024033, 0.000000000000000000 ) ) ;
#1271 = ORIENTED_EDGE ( 'NONE', *, *, #484, .F. ) ;
#1272 = AXIS2_PLACEMENT_3D ( 'NONE', #1189, #763, #1166 ) ;
#1273 = AXIS2_PLACEMENT_3D ( 'NONE', #445, #146, #563 ) ;
#1274 = AXIS2_PLACEMENT_3D ( 'NONE', #636, #1048, #449 ) ;
#1275 = DIRECTION ( 'NONE',  ( 1.000000000000000000, 0.000000000000000000, 0.000000000000000000 ) ) ;
#1276 = CARTESIAN_POINT ( 'NONE',  ( -52.26662885396567049, 42.08546316181864455, 6.000000000000000000 ) ) ;
#1277 = ORIENTED_EDGE ( 'NONE', *, *, #1302, .F. ) ;
#1278 = DIRECTION ( 'NONE',  ( -0.000000000000000000, -0.000000000000000000, -1.000000000000000000 ) ) ;
#1279 = ORIENTED_EDGE ( 'NONE', *, *, #249, .T. ) ;
#1280 = DIRECTION ( 'NONE',  ( -1.000000000000000000, 0.000000000000000000, 0.000000000000000000 ) ) ;
#1281 = CARTESIAN_POINT ( 'NONE',  ( -54.49889873396566742, 0.000000000000000000, 6.000000000000000000 ) ) ;
#1282 = CARTESIAN_POINT ( 'NONE',  ( -54.49889873396566742, 45.58377146319851647, 6.000000000000000000 ) ) ;
#1283 = ORIENTED_EDGE ( 'NONE', *, *, #271, .T. ) ;
#1284 = CYLINDRICAL_SURFACE ( 'NONE', #505, 15.00000000000000000 ) ;
#1285 = VERTEX_POINT ( 'NONE', #1070 ) ;
#1286 = ADVANCED_FACE ( 'NONE', ( #1371 ), #949, .F. ) ;
#1287 = DIRECTION ( 'NONE',  ( 0.000000000000000000, -0.000000000000000000, 1.000000000000000000 ) ) ;
#1288 = CARTESIAN_POINT ( 'NONE',  ( -33.38276379396566540, 50.96932822137024033, 6.000000000000000000 ) ) ;
#1289 = CARTESIAN_POINT ( 'NONE',  ( -55.49889873396566742, 38.85319328092183611, 0.000000000000000000 ) ) ;
#1290 = AXIS2_PLACEMENT_3D ( 'NONE', #1349, #407, #825 ) ;
#1291 = LINE ( 'NONE', #755, #287 ) ;
#1292 = VERTEX_POINT ( 'NONE', #549 ) ;
#1293 = LINE ( 'NONE', #31, #626 ) ;
#1294 = LINE ( 'NONE', #376, #625 ) ;
#1295 = CIRCLE ( 'NONE', #1273, 1.000000000000000888 ) ;
#1296 = CARTESIAN_POINT ( 'NONE',  ( -33.38276379396566540, 0.000000000000000000, 0.000000000000000000 ) ) ;
#1297 = FACE_OUTER_BOUND ( 'NONE', #1346, .T. ) ;
#1298 = EDGE_LOOP ( 'NONE', ( #1264, #531, #1049, #939 ) ) ;
#1299 = DIRECTION ( 'NONE',  ( 1.000000000000000000, 0.000000000000000000, 0.000000000000000000 ) ) ;
#1300 = EDGE_CURVE ( 'NONE', #1285, #820, #555, .T. ) ;
#1301 = EDGE_CURVE ( 'NONE', #126, #981, #1294, .T. ) ;
#1302 = EDGE_CURVE ( 'NONE', #602, #45, #783, .T. ) ;
#1303 = PLANE ( 'NONE',  #1229 ) ;
#1304 = CARTESIAN_POINT ( 'NONE',  ( -53.38276379396567251, 39.96932822137024033, 6.000000000000000000 ) ) ;
#1305 = VERTEX_POINT ( 'NONE', #875 ) ;
#1306 = CARTESIAN_POINT ( 'NONE',  ( 0.000000000000000000, 38.85319328092183611, 6.000000000000000000 ) ) ;
#1307 = LINE ( 'NONE', #362, #5 ) ;
#1308 = DIRECTION ( 'NONE',  ( 1.000000000000000000, 0.000000000000000000, 0.000000000000000000 ) ) ;
#1309 = CARTESIAN_POINT ( 'NONE',  ( -72.38276379396567961, 50.96932822137024033, 0.000000000000000000 ) ) ;
#1310 = ORIENTED_EDGE ( 'NONE', *, *, #868, .F. ) ;
#1311 = CARTESIAN_POINT ( 'NONE',  ( -53.38276379396567251, 39.96932822137024033, 0.000000000000000000 ) ) ;
#1312 = AXIS2_PLACEMENT_3D ( 'NONE', #42, #1328, #470 ) ;
#1313 = VECTOR ( 'NONE', #893, 1000.000000000000000 ) ;
#1314 = AXIS2_PLACEMENT_3D ( 'NONE', #246, #340, #872 ) ;
#1315 = CARTESIAN_POINT ( 'NONE',  ( -47.76832055230640606, 37.85319328092183611, 0.000000000000000000 ) ) ;
#1316 = AXIS2_PLACEMENT_3D ( 'NONE', #884, #366, #1204 ) ;
#1317 = DIRECTION ( 'NONE',  ( -0.000000000000000000, 0.000000000000000000, 1.000000000000000000 ) ) ;
#1318 = ORIENTED_EDGE ( 'NONE', *, *, #1301, .T. ) ;
#1319 = LINE ( 'NONE', #583, #1313 ) ;
#1320 = DIRECTION ( 'NONE',  ( 0.000000000000000000, -1.000000000000000000, 0.000000000000000000 ) ) ;
#1321 = CARTESIAN_POINT ( 'NONE',  ( -55.85158789063233797, 46.51951200350322324, 6.000000000000000000 ) ) ;
#1322 = PLANE ( 'NONE',  #887 ) ;
#1323 = EDGE_CURVE ( 'NONE', #637, #604, #145, .T. ) ;
#1324 = ORIENTED_EDGE ( 'NONE', *, *, #766, .F. ) ;
#1325 = DIRECTION ( 'NONE',  ( 0.000000000000000000, -0.000000000000000000, -1.000000000000000000 ) ) ;
#1326 = ORIENTED_EDGE ( 'NONE', *, *, #704, .T. ) ;
#1327 = EDGE_CURVE ( 'NONE', #1231, #1116, #55, .T. ) ;
#1328 = DIRECTION ( 'NONE',  ( -0.000000000000000000, 0.000000000000000000, 1.000000000000000000 ) ) ;
#1329 = LINE ( 'NONE', #687, #1009 ) ;
#1330 = DIRECTION ( 'NONE',  ( -0.000000000000000000, 0.000000000000000000, 1.000000000000000000 ) ) ;
#1331 = ORIENTED_EDGE ( 'NONE', *, *, #393, .F. ) ;
#1332 = DIRECTION ( 'NONE',  ( -0.000000000000000000, 0.000000000000000000, -1.000000000000000000 ) ) ;
#1333 = EDGE_LOOP ( 'NONE', ( #1142, #900, #644, #118 ) ) ;
#1334 = CIRCLE ( 'NONE', #646, 1.000000000000000888 ) ;
#1335 = CIRCLE ( 'NONE', #562, 1.000000000000000888 ) ;
#1336 = DIRECTION ( 'NONE',  ( -1.000000000000000000, 0.000000000000000000, 0.000000000000000000 ) ) ;
#1337 = LINE ( 'NONE', #570, #242 ) ;
#1338 = ORIENTED_EDGE ( 'NONE', *, *, #551, .F. ) ;
#1339 = AXIS2_PLACEMENT_3D ( 'NONE', #239, #1050, #117 ) ;
#1340 = AXIS2_PLACEMENT_3D ( 'NONE', #457, #1171, #346 ) ;
#1341 = LINE ( 'NONE', #399, #1105 ) ;
#1342 = ORIENTED_EDGE ( 'NONE', *, *, #1223, .F. ) ;
#1343 = DIRECTION ( 'NONE',  ( 1.000000000000000000, 0.000000000000000000, 0.000000000000000000 ) ) ;
#1344 = EDGE_CURVE ( 'NONE', #474, #174, #773, .T. ) ;
#1345 = DIRECTION ( 'NONE',  ( -0.000000000000000000, -0.000000000000000000, -1.000000000000000000 ) ) ;
#1346 = EDGE_LOOP ( 'NONE', ( #1217, #1014, #389, #666 ) ) ;
#1347 = LINE ( 'NONE', #526, #415 ) ;
#1348 = ORIENTED_EDGE ( 'NONE', *, *, #1188, .F. ) ;
#1349 = CARTESIAN_POINT ( 'NONE',  ( -58.99720703562493895, 37.85319328092183611, 6.000000000000000000 ) ) ;
#1350 = CARTESIAN_POINT ( 'NONE',  ( -54.49889873396566742, 37.85319328092183611, 0.000000000000000000 ) ) ;
#1351 = ORIENTED_EDGE ( 'NONE', *, *, #885, .F. ) ;
#1352 = DIRECTION ( 'NONE',  ( 1.000000000000000000, 0.000000000000000000, 0.000000000000000000 ) ) ;
#1353 = ORIENTED_EDGE ( 'NONE', *, *, #258, .T. ) ;
#1354 = AXIS2_PLACEMENT_3D ( 'NONE', #11, #1047, #745 ) ;
#1355 = CARTESIAN_POINT ( 'NONE',  ( -72.38276379396567961, 54.96932822137024033, 0.000000000000000000 ) ) ;
#1356 = VECTOR ( 'NONE', #1161, 1000.000000000000000 ) ;
#1357 = DIRECTION ( 'NONE',  ( -0.000000000000000000, 0.000000000000000000, -1.000000000000000000 ) ) ;
#1358 = EDGE_LOOP ( 'NONE', ( #260, #398, #328, #1081 ) ) ;
#1359 = EDGE_CURVE ( 'NONE', #737, #381, #573, .T. ) ;
#1360 = DIRECTION ( 'NONE',  ( 0.000000000000000000, -0.000000000000000000, 1.000000000000000000 ) ) ;
#1361 = VECTOR ( 'NONE', #1141, 1000.000000000000000 ) ;
#1362 = VERTEX_POINT ( 'NONE', #1192 ) ;
#1363 = CIRCLE ( 'NONE', #864, 6.999999999999999112 ) ;
#1364 = CARTESIAN_POINT ( 'NONE',  ( -50.91393969729899993, 46.51951200350322324, 6.000000000000000000 ) ) ;
#1365 = CARTESIAN_POINT ( 'NONE',  ( -53.38276379396567251, 39.96932822137024033, 0.000000000000000000 ) ) ;
#1366 = VERTEX_POINT ( 'NONE', #256 ) ;
#1367 = EDGE_CURVE ( 'NONE', #1239, #1256, #1307, .T. ) ;
#1368 = CARTESIAN_POINT ( 'NONE',  ( -51.26662885396567049, 37.85319328092183611, 6.000000000000000000 ) ) ;
#1369 = ORIENTED_EDGE ( 'NONE', *, *, #844, .T. ) ;
#1370 = ADVANCED_FACE ( 'NONE', ( #383 ), #772, .F. ) ;
#1371 = FACE_OUTER_BOUND ( 'NONE', #1127, .T. ) ;
#1372 = CARTESIAN_POINT ( 'NONE',  ( -58.99720703562493895, 41.08546316181864455, 6.000000000000000000 ) ) ;
#1373 = EDGE_LOOP ( 'NONE', ( #237, #576, #740, #1283 ) ) ;
#1374 = CARTESIAN_POINT ( 'NONE',  ( -50.91393969729899993, 46.51951200350322324, 0.000000000000000000 ) ) ;
#1375 = ORIENTED_EDGE ( 'NONE', *, *, #685, .F. ) ;
ENDSEC;
END-ISO-10303-21;
