ISO-10303-21;
HEADER;
FILE_DESCRIPTION (( 'STEP AP214' ),
    '1' );
FILE_NAME ('servoarm.step',
    '2026-09-17T07:00:23',
    ( '' ),
    ( '' ),
    'SwSTEP 2.0',
    'SolidWorks 2023',
    '' );
FILE_SCHEMA (( 'AUTOMOTIVE_DESIGN' ));
ENDSEC;

DATA;
#1 = VERTEX_POINT ( 'NONE', #146 ) ;
#2 = DIRECTION ( 'NONE',  ( 0.000000000000000000, 1.000000000000000000, -0.000000000000000000 ) ) ;
#3 = AXIS2_PLACEMENT_3D ( 'NONE', #149, #53, #256 ) ;
#4 = CARTESIAN_POINT ( 'NONE',  ( -27.65458803171822311, 0.000000000000000000, 18.37795117699238645 ) ) ;
#5 = ORIENTED_EDGE ( 'NONE', *, *, #140, .F. ) ;
#6 = DIRECTION ( 'NONE',  ( 0.000000000000000000, 1.000000000000000000, -0.000000000000000000 ) ) ;
#7 = CLOSED_SHELL ( 'NONE', ( #75, #251, #369, #130, #204, #393, #232, #301, #19, #415, #279, #190, #359 ) ) ;
#8 = ORIENTED_EDGE ( 'NONE', *, *, #289, .T. ) ;
#9 = DIRECTION ( 'NONE',  ( 0.000000000000000000, 0.000000000000000000, 1.000000000000000000 ) ) ;
#10 = CYLINDRICAL_SURFACE ( 'NONE', #368, 2.500000000000002220 ) ;
#11 = CARTESIAN_POINT ( 'NONE',  ( -30.40458803171822311, 0.000000000000000000, 32.21288766753128385 ) ) ;
#12 = DIRECTION ( 'NONE',  ( 0.000000000000000000, 0.000000000000000000, 1.000000000000000000 ) ) ;
#13 = CIRCLE ( 'NONE', #276, 2.500000000000002220 ) ;
#14 = SURFACE_STYLE_FILL_AREA ( #387 ) ;
#15 = CARTESIAN_POINT ( 'NONE',  ( -27.65458803171821955, 1.500000000000000000, 21.54522580946149901 ) ) ;
#16 = DIRECTION ( 'NONE',  ( -0.000000000000000000, -1.000000000000000000, -0.000000000000000000 ) ) ;
#17 = CIRCLE ( 'NONE', #48, 1.500000000000001332 ) ;
#18 = VECTOR ( 'NONE', #145, 1000.000000000000000 ) ;
#19 = ADVANCED_FACE ( 'NONE', ( #50, #184 ), #423, .T. ) ;
#20 = LINE ( 'NONE', #364, #426 ) ;
#21 = EDGE_CURVE ( 'NONE', #1, #34, #357, .T. ) ;
#22 = ORIENTED_EDGE ( 'NONE', *, *, #155, .F. ) ;
#23 = DIRECTION ( 'NONE',  ( 0.000000000000000000, 0.000000000000000000, 1.000000000000000000 ) ) ;
#24 = LINE ( 'NONE', #98, #376 ) ;
#25 = ORIENTED_EDGE ( 'NONE', *, *, #21, .T. ) ;
#26 = DIRECTION ( 'NONE',  ( 0.000000000000000000, 0.000000000000000000, -1.000000000000000000 ) ) ;
#27 = APPLICATION_PROTOCOL_DEFINITION ( 'draft international standard', 'automotive_design', 1998, #132 ) ;
#28 = EDGE_LOOP ( 'NONE', ( #435, #265, #243, #227, #397, #170 ) ) ;
#29 = VECTOR ( 'NONE', #193, 1000.000000000000000 ) ;
#30 = EDGE_LOOP ( 'NONE', ( #300, #246 ) ) ;
#31 = DIRECTION ( 'NONE',  ( 0.000000000000000000, 0.000000000000000000, 1.000000000000000000 ) ) ;
#32 =( LENGTH_UNIT ( ) NAMED_UNIT ( * ) SI_UNIT ( .MILLI., .METRE. ) );
#33 = PRODUCT_RELATED_PRODUCT_CATEGORY ( 'part', '', ( #126 ) ) ;
#34 = VERTEX_POINT ( 'NONE', #255 ) ;
#35 = DIRECTION ( 'NONE',  ( 0.000000000000000000, 1.000000000000000000, -0.000000000000000000 ) ) ;
#36 = ORIENTED_EDGE ( 'NONE', *, *, #425, .T. ) ;
#37 = CARTESIAN_POINT ( 'NONE',  ( -26.83819193901900846, 1.500000000000000000, 1.700781746514267168 ) ) ;
#38 = DIRECTION ( 'NONE',  ( -0.000000000000000000, -1.000000000000000000, -0.000000000000000000 ) ) ;
#39 = ORIENTED_EDGE ( 'NONE', *, *, #309, .T. ) ;
#40 = DIRECTION ( 'NONE',  ( 0.000000000000000000, 0.000000000000000000, 1.000000000000000000 ) ) ;
#41 = CARTESIAN_POINT ( 'NONE',  ( -27.65458803171821955, 3.799999999999999822, 34.37795117699238290 ) ) ;
#42 = ORIENTED_EDGE ( 'NONE', *, *, #107, .F. ) ;
#43 = CARTESIAN_POINT ( 'NONE',  ( -27.65458803171821955, 0.000000000000000000, 37.87795117699238290 ) ) ;
#44 = PRESENTATION_LAYER_ASSIGNMENT (  '', '', ( #257 ) ) ;
#45 = DIRECTION ( 'NONE',  ( -0.9979980419010677783, 0.000000000000000000, 0.06324482873432940577 ) ) ;
#46 =( LENGTH_UNIT ( ) NAMED_UNIT ( * ) SI_UNIT ( .MILLI., .METRE. ) );
#47 = EDGE_CURVE ( 'NONE', #370, #201, #59, .T. ) ;
#48 = AXIS2_PLACEMENT_3D ( 'NONE', #15, #308, #12 ) ;
#49 = PRODUCT_DEFINITION ( 'UNKNOWN', '', #429, #324 ) ;
#50 = FACE_OUTER_BOUND ( 'NONE', #28, .T. ) ;
#51 = CARTESIAN_POINT ( 'NONE',  ( -27.65458803171821955, 1.500000000000000000, 21.54522580946149901 ) ) ;
#52 = ORIENTED_EDGE ( 'NONE', *, *, #157, .F. ) ;
#53 = DIRECTION ( 'NONE',  ( -0.000000000000000000, -1.000000000000000000, -0.000000000000000000 ) ) ;
#54 = CIRCLE ( 'NONE', #175, 1.999999999999998224 ) ;
#55 = DIRECTION ( 'NONE',  ( 0.06324482873432939189, 0.000000000000000000, -0.9979980419010676673 ) ) ;
#56 = EDGE_LOOP ( 'NONE', ( #205, #292 ) ) ;
#57 = DIRECTION ( 'NONE',  ( -0.000000000000000000, -1.000000000000000000, -0.000000000000000000 ) ) ;
#58 = VERTEX_POINT ( 'NONE', #250 ) ;
#59 = CIRCLE ( 'NONE', #412, 1.999999999999998224 ) ;
#60 = LINE ( 'NONE', #305, #78 ) ;
#61 = ORIENTED_EDGE ( 'NONE', *, *, #47, .F. ) ;
#62 = ORIENTED_EDGE ( 'NONE', *, *, #213, .T. ) ;
#63 = PLANE ( 'NONE',  #167 ) ;
#64 = MANIFOLD_SOLID_BREP ( 'Boss-Extrude5', #7 ) ;
#65 = AXIS2_PLACEMENT_3D ( 'NONE', #424, #86, #344 ) ;
#66 = ORIENTED_EDGE ( 'NONE', *, *, #122, .T. ) ;
#67 = DIRECTION ( 'NONE',  ( 0.000000000000000000, 0.000000000000000000, 1.000000000000000000 ) ) ;
#68 = ORIENTED_EDGE ( 'NONE', *, *, #95, .F. ) ;
#69 = CARTESIAN_POINT ( 'NONE',  ( -27.65458803171821955, 1.500000000000000000, 23.04522580946149901 ) ) ;
#70 = AXIS2_PLACEMENT_3D ( 'NONE', #281, #110, #249 ) ;
#71 = SHAPE_DEFINITION_REPRESENTATION ( #262, #373 ) ;
#72 = VERTEX_POINT ( 'NONE', #11 ) ;
#73 = CYLINDRICAL_SURFACE ( 'NONE', #224, 1.999999999999998224 ) ;
#74 = FACE_OUTER_BOUND ( 'NONE', #365, .T. ) ;
#75 = ADVANCED_FACE ( 'NONE', ( #389 ), #10, .F. ) ;
#76 = VERTEX_POINT ( 'NONE', #390 ) ;
#77 = CYLINDRICAL_SURFACE ( 'NONE', #70, 2.500000000000002220 ) ;
#78 = VECTOR ( 'NONE', #202, 1000.000000000000000 ) ;
#79 = DIRECTION ( 'NONE',  ( 0.000000000000000000, 1.000000000000000000, -0.000000000000000000 ) ) ;
#80 = CARTESIAN_POINT ( 'NONE',  ( -29.65458803171821955, 0.000000000000000000, 20.37795117699237935 ) ) ;
#81 = CARTESIAN_POINT ( 'NONE',  ( -27.65458803171821955, 3.799999999999999822, 34.37795117699238290 ) ) ;
#82 = EDGE_CURVE ( 'NONE', #112, #163, #13, .T. ) ;
#83 = CARTESIAN_POINT ( 'NONE',  ( -27.65458803171821955, 3.799999999999999822, 34.37795117699238290 ) ) ;
#84 = CARTESIAN_POINT ( 'NONE',  ( -26.83819193901900846, 0.000000000000000000, 1.700781746514267168 ) ) ;
#85 =( NAMED_UNIT ( * ) PLANE_ANGLE_UNIT ( ) SI_UNIT ( $, .RADIAN. ) );
#86 = DIRECTION ( 'NONE',  ( 0.000000000000000000, 1.000000000000000000, -0.000000000000000000 ) ) ;
#87 = CIRCLE ( 'NONE', #360, 1.500000000000001332 ) ;
#88 = ORIENTED_EDGE ( 'NONE', *, *, #316, .F. ) ;
#89 = AXIS2_PLACEMENT_3D ( 'NONE', #343, #6, #40 ) ;
#90 = FACE_OUTER_BOUND ( 'NONE', #413, .T. ) ;
#91 = DIRECTION ( 'NONE',  ( 0.000000000000000000, 1.000000000000000000, -0.000000000000000000 ) ) ;
#92 = ORIENTED_EDGE ( 'NONE', *, *, #82, .F. ) ;
#93 = AXIS2_PLACEMENT_3D ( 'NONE', #294, #91, #31 ) ;
#94 = DIRECTION ( 'NONE',  ( 0.000000000000000000, 0.000000000000000000, -1.000000000000000000 ) ) ;
#95 = EDGE_CURVE ( 'NONE', #208, #218, #183, .T. ) ;
#96 = ORIENTED_EDGE ( 'NONE', *, *, #309, .F. ) ;
#97 = LINE ( 'NONE', #297, #154 ) ;
#98 = CARTESIAN_POINT ( 'NONE',  ( -24.90458803171822311, 1.500000000000000000, 32.21288766753129096 ) ) ;
#99 = ORIENTED_EDGE ( 'NONE', *, *, #296, .F. ) ;
#100 = CARTESIAN_POINT ( 'NONE',  ( -25.65458803171822311, 0.000000000000000000, 20.37795117699238290 ) ) ;
#101 = ORIENTED_EDGE ( 'NONE', *, *, #293, .F. ) ;
#102 = DIRECTION ( 'NONE',  ( 0.06324482873432939189, 0.000000000000000000, 0.9979980419010676673 ) ) ;
#103 = VERTEX_POINT ( 'NONE', #417 ) ;
#104 = CARTESIAN_POINT ( 'NONE',  ( -27.65458803171821955, 0.000000000000000000, 34.37795117699238290 ) ) ;
#105 = VECTOR ( 'NONE', #206, 1000.000000000000000 ) ;
#106 = PLANE ( 'NONE',  #65 ) ;
#107 = EDGE_CURVE ( 'NONE', #218, #280, #173, .T. ) ;
#108 = ORIENTED_EDGE ( 'NONE', *, *, #349, .T. ) ;
#109 = CARTESIAN_POINT ( 'NONE',  ( -27.65458803171822311, 1.500000000000000000, 20.37795117699238290 ) ) ;
#110 = DIRECTION ( 'NONE',  ( -0.000000000000000000, -1.000000000000000000, -0.000000000000000000 ) ) ;
#111 = AXIS2_PLACEMENT_3D ( 'NONE', #171, #363, #67 ) ;
#112 = VERTEX_POINT ( 'NONE', #139 ) ;
#113 = SURFACE_STYLE_USAGE ( .BOTH. , #314 ) ;
#114 = CARTESIAN_POINT ( 'NONE',  ( -27.65458803171821955, 1.500000000000000000, 20.04522580946149901 ) ) ;
#115 = CARTESIAN_POINT ( 'NONE',  ( 0.000000000000000000, 1.500000000000000000, 0.000000000000000000 ) ) ;
#116 = FACE_OUTER_BOUND ( 'NONE', #443, .T. ) ;
#117 = AXIS2_PLACEMENT_3D ( 'NONE', #379, #230, #165 ) ;
#118 = FACE_OUTER_BOUND ( 'NONE', #240, .T. ) ;
#119 = AXIS2_PLACEMENT_3D ( 'NONE', #151, #416, #186 ) ;
#120 = VECTOR ( 'NONE', #210, 1000.000000000000000 ) ;
#121 = ORIENTED_EDGE ( 'NONE', *, *, #223, .T. ) ;
#122 = EDGE_CURVE ( 'NONE', #72, #142, #156, .T. ) ;
#123 = ORIENTED_EDGE ( 'NONE', *, *, #267, .F. ) ;
#124 = AXIS2_PLACEMENT_3D ( 'NONE', #247, #414, #385 ) ;
#125 = EDGE_CURVE ( 'NONE', #1, #439, #347, .T. ) ;
#126 = PRODUCT ( 'servoarm', 'servoarm', '', ( #336 ) ) ;
#127 = DIRECTION ( 'NONE',  ( 0.000000000000000000, 1.000000000000000000, -0.000000000000000000 ) ) ;
#128 = CARTESIAN_POINT ( 'NONE',  ( -28.24975248860617327, 1.500000000000000000, -1.790234732851514687 ) ) ;
#129 = EDGE_LOOP ( 'NONE', ( #121, #36, #5, #22 ) ) ;
#130 = ADVANCED_FACE ( 'NONE', ( #378 ), #73, .T. ) ;
#131 = CIRCLE ( 'NONE', #345, 2.500000000000002220 ) ;
#132 = APPLICATION_CONTEXT ( 'automotive_design' ) ;
#133 = CARTESIAN_POINT ( 'NONE',  ( -27.65458803171822311, 1.500000000000000000, 20.37795117699238290 ) ) ;
#134 = ORIENTED_EDGE ( 'NONE', *, *, #82, .T. ) ;
#135 = CARTESIAN_POINT ( 'NONE',  ( -27.65458803171822311, 1.500000000000000000, 20.37795117699238290 ) ) ;
#136 = ORIENTED_EDGE ( 'NONE', *, *, #284, .T. ) ;
#137 = CARTESIAN_POINT ( 'NONE',  ( -27.65458803171822311, 1.500000000000000000, 18.37795117699238645 ) ) ;
#138 = ORIENTED_EDGE ( 'NONE', *, *, #236, .T. ) ;
#139 = CARTESIAN_POINT ( 'NONE',  ( -27.65458803171821955, 3.799999999999999822, 36.87795117699238290 ) ) ;
#140 = EDGE_CURVE ( 'NONE', #329, #76, #420, .T. ) ;
#141 = DIRECTION ( 'NONE',  ( 0.000000000000000000, 0.000000000000000000, 1.000000000000000000 ) ) ;
#142 = VERTEX_POINT ( 'NONE', #43 ) ;
#143 = DIRECTION ( 'NONE',  ( -0.000000000000000000, -1.000000000000000000, -0.000000000000000000 ) ) ;
#144 = VERTEX_POINT ( 'NONE', #244 ) ;
#145 = DIRECTION ( 'NONE',  ( -0.06324482873432939189, 0.000000000000000000, -0.9979980419010676673 ) ) ;
#146 = CARTESIAN_POINT ( 'NONE',  ( -27.65458803171821955, 1.500000000000000000, 23.04522580946149901 ) ) ;
#147 = VECTOR ( 'NONE', #322, 1000.000000000000000 ) ;
#148 = DIRECTION ( 'NONE',  ( 0.000000000000000000, 1.000000000000000000, -0.000000000000000000 ) ) ;
#149 = CARTESIAN_POINT ( 'NONE',  ( -27.65458803171822311, 1.500000000000000000, 20.37795117699238290 ) ) ;
#150 = VECTOR ( 'NONE', #143, 1000.000000000000000 ) ;
#151 = CARTESIAN_POINT ( 'NONE',  ( -27.65458803171821955, 1.500000000000000000, 21.54522580946149901 ) ) ;
#152 = FACE_OUTER_BOUND ( 'NONE', #56, .T. ) ;
#153 = CYLINDRICAL_SURFACE ( 'NONE', #3, 1.999999999999998224 ) ;
#154 = VECTOR ( 'NONE', #253, 1000.000000000000000 ) ;
#155 = EDGE_CURVE ( 'NONE', #163, #329, #307, .T. ) ;
#156 = CIRCLE ( 'NONE', #403, 3.500000000000003109 ) ;
#157 = EDGE_CURVE ( 'NONE', #439, #312, #321, .T. ) ;
#158 = ORIENTED_EDGE ( 'NONE', *, *, #349, .F. ) ;
#159 = UNCERTAINTY_MEASURE_WITH_UNIT (LENGTH_MEASURE( 1.000000000000000082E-05 ), #46, 'distance_accuracy_value', 'NONE');
#160 = EDGE_CURVE ( 'NONE', #144, #72, #311, .T. ) ;
#161 = EDGE_LOOP ( 'NONE', ( #346, #25, #310, #52 ) ) ;
#162 = CYLINDRICAL_SURFACE ( 'NONE', #222, 3.499999999999999556 ) ;
#163 = VERTEX_POINT ( 'NONE', #278 ) ;
#164 = CARTESIAN_POINT ( 'NONE',  ( -27.65458803171821955, 0.000000000000000000, 31.87795117699237935 ) ) ;
#165 = DIRECTION ( 'NONE',  ( 1.000000000000000000, 0.000000000000000000, 0.000000000000000000 ) ) ;
#166 = CARTESIAN_POINT ( 'NONE',  ( -27.65458803171821955, 1.500000000000000000, 34.37795117699238290 ) ) ;
#167 = AXIS2_PLACEMENT_3D ( 'NONE', #128, #169, #367 ) ;
#168 = ORIENTED_EDGE ( 'NONE', *, *, #284, .F. ) ;
#169 = DIRECTION ( 'NONE',  ( -0.9979980419010677783, 0.000000000000000000, -0.06324482873432940577 ) ) ;
#170 = ORIENTED_EDGE ( 'NONE', *, *, #366, .F. ) ;
#171 = CARTESIAN_POINT ( 'NONE',  ( -27.65458803171821955, 3.799999999999999822, 34.37795117699238290 ) ) ;
#172 = ORIENTED_EDGE ( 'NONE', *, *, #125, .T. ) ;
#173 = LINE ( 'NONE', #410, #283 ) ;
#174 = DIRECTION ( 'NONE',  ( 0.000000000000000000, 0.000000000000000000, 1.000000000000000000 ) ) ;
#175 = AXIS2_PLACEMENT_3D ( 'NONE', #135, #200, #433 ) ;
#176 = ORIENTED_EDGE ( 'NONE', *, *, #361, .F. ) ;
#177 = DIRECTION ( 'NONE',  ( -0.000000000000000000, -1.000000000000000000, -0.000000000000000000 ) ) ;
#178 = EDGE_LOOP ( 'NONE', ( #381, #39, #421, #234 ) ) ;
#179 = CARTESIAN_POINT ( 'NONE',  ( -30.40458803171822311, 1.500000000000000000, 32.21288766753128385 ) ) ;
#180 = AXIS2_PLACEMENT_3D ( 'NONE', #115, #79, #189 ) ;
#181 = EDGE_CURVE ( 'NONE', #280, #370, #396, .T. ) ;
#182 = CARTESIAN_POINT ( 'NONE',  ( -27.65458803171822311, 0.000000000000000000, 20.37795117699238290 ) ) ;
#183 = LINE ( 'NONE', #37, #18 ) ;
#184 = FACE_BOUND ( 'NONE', #333, .T. ) ;
#185 = LINE ( 'NONE', #84, #147 ) ;
#186 = DIRECTION ( 'NONE',  ( 0.000000000000000000, 0.000000000000000000, 1.000000000000000000 ) ) ;
#187 = FACE_BOUND ( 'NONE', #399, .T. ) ;
#188 = AXIS2_PLACEMENT_3D ( 'NONE', #313, #274, #9 ) ;
#189 = DIRECTION ( 'NONE',  ( 0.000000000000000000, 0.000000000000000000, 1.000000000000000000 ) ) ;
#190 = ADVANCED_FACE ( 'NONE', ( #340 ), #77, .F. ) ;
#191 = FACE_BOUND ( 'NONE', #302, .T. ) ;
#192 = CIRCLE ( 'NONE', #111, 3.500000000000003109 ) ;
#193 = DIRECTION ( 'NONE',  ( -0.000000000000000000, -1.000000000000000000, -0.000000000000000000 ) ) ;
#194 = AXIS2_PLACEMENT_3D ( 'NONE', #51, #16, #319 ) ;
#195 = ORIENTED_EDGE ( 'NONE', *, *, #267, .T. ) ;
#196 = DIRECTION ( 'NONE',  ( 0.000000000000000000, 1.000000000000000000, -0.000000000000000000 ) ) ;
#197 = ORIENTED_EDGE ( 'NONE', *, *, #213, .F. ) ;
#198 = CYLINDRICAL_SURFACE ( 'NONE', #430, 1.500000000000001332 ) ;
#199 = ORIENTED_EDGE ( 'NONE', *, *, #160, .F. ) ;
#200 = DIRECTION ( 'NONE',  ( 0.000000000000000000, 1.000000000000000000, -0.000000000000000000 ) ) ;
#201 = VERTEX_POINT ( 'NONE', #80 ) ;
#202 = DIRECTION ( 'NONE',  ( 0.06324482873432939189, 0.000000000000000000, -0.9979980419010676673 ) ) ;
#203 =( NAMED_UNIT ( * ) SI_UNIT ( $, .STERADIAN. ) SOLID_ANGLE_UNIT ( ) );
#204 = ADVANCED_FACE ( 'NONE', ( #215 ), #408, .F. ) ;
#205 = ORIENTED_EDGE ( 'NONE', *, *, #296, .T. ) ;
#206 = DIRECTION ( 'NONE',  ( -0.000000000000000000, -1.000000000000000000, -0.000000000000000000 ) ) ;
#207 = DIRECTION ( 'NONE',  ( 0.000000000000000000, 1.000000000000000000, -0.000000000000000000 ) ) ;
#208 = VERTEX_POINT ( 'NONE', #241 ) ;
#209 = DIRECTION ( 'NONE',  ( -0.000000000000000000, -1.000000000000000000, -0.000000000000000000 ) ) ;
#210 = DIRECTION ( 'NONE',  ( -0.000000000000000000, -1.000000000000000000, -0.000000000000000000 ) ) ;
#211 = ORIENTED_EDGE ( 'NONE', *, *, #21, .F. ) ;
#212 = DIRECTION ( 'NONE',  ( 0.000000000000000000, 0.000000000000000000, -1.000000000000000000 ) ) ;
#213 = EDGE_CURVE ( 'NONE', #72, #201, #303, .T. ) ;
#214 = DIRECTION ( 'NONE',  ( 0.000000000000000000, 0.000000000000000000, 1.000000000000000000 ) ) ;
#215 = FACE_OUTER_BOUND ( 'NONE', #409, .T. ) ;
#216 = VECTOR ( 'NONE', #315, 1000.000000000000000 ) ;
#217 = VERTEX_POINT ( 'NONE', #334 ) ;
#218 = VERTEX_POINT ( 'NONE', #235 ) ;
#219 = CARTESIAN_POINT ( 'NONE',  ( -27.65458803171821955, 3.799999999999999822, 30.87795117699237935 ) ) ;
#220 = DIRECTION ( 'NONE',  ( 0.000000000000000000, 0.000000000000000000, 1.000000000000000000 ) ) ;
#221 = EDGE_CURVE ( 'NONE', #431, #217, #242, .T. ) ;
#222 = AXIS2_PLACEMENT_3D ( 'NONE', #261, #434, #330 ) ;
#223 = EDGE_CURVE ( 'NONE', #163, #112, #239, .T. ) ;
#224 = AXIS2_PLACEMENT_3D ( 'NONE', #109, #209, #212 ) ;
#225 = ORIENTED_EDGE ( 'NONE', *, *, #366, .T. ) ;
#226 = FACE_OUTER_BOUND ( 'NONE', #271, .T. ) ;
#227 = ORIENTED_EDGE ( 'NONE', *, *, #236, .F. ) ;
#228 = FACE_OUTER_BOUND ( 'NONE', #161, .T. ) ;
#229 = AXIS2_PLACEMENT_3D ( 'NONE', #166, #196, #328 ) ;
#230 = DIRECTION ( 'NONE',  ( 0.000000000000000000, 0.000000000000000000, 1.000000000000000000 ) ) ;
#231 = ORIENTED_EDGE ( 'NONE', *, *, #354, .F. ) ;
#232 = ADVANCED_FACE ( 'NONE', ( #90 ), #63, .T. ) ;
#233 = DIRECTION ( 'NONE',  ( 0.000000000000000000, 0.000000000000000000, 1.000000000000000000 ) ) ;
#234 = ORIENTED_EDGE ( 'NONE', *, *, #289, .F. ) ;
#235 = CARTESIAN_POINT ( 'NONE',  ( -25.65458803171822311, 1.500000000000000000, 20.37795117699238290 ) ) ;
#236 = EDGE_CURVE ( 'NONE', #144, #217, #60, .T. ) ;
#237 = ORIENTED_EDGE ( 'NONE', *, *, #442, .F. ) ;
#238 = LINE ( 'NONE', #137, #29 ) ;
#239 = CIRCLE ( 'NONE', #93, 2.500000000000002220 ) ;
#240 = EDGE_LOOP ( 'NONE', ( #96, #101, #337, #277 ) ) ;
#241 = CARTESIAN_POINT ( 'NONE',  ( -24.90458803171822311, 1.500000000000000000, 32.21288766753127675 ) ) ;
#242 = CIRCLE ( 'NONE', #295, 1.999999999999998224 ) ;
#243 = ORIENTED_EDGE ( 'NONE', *, *, #221, .T. ) ;
#244 = CARTESIAN_POINT ( 'NONE',  ( -30.40458803171822311, 1.500000000000000000, 32.21288766753129096 ) ) ;
#245 = CARTESIAN_POINT ( 'NONE',  ( -27.65458803171821955, 3.799999999999999822, 36.87795117699238290 ) ) ;
#246 = ORIENTED_EDGE ( 'NONE', *, *, #157, .T. ) ;
#247 = CARTESIAN_POINT ( 'NONE',  ( -27.65458803171822311, 0.000000000000000000, 20.37795117699238290 ) ) ;
#248 = AXIS2_PLACEMENT_3D ( 'NONE', #375, #372, #94 ) ;
#249 = DIRECTION ( 'NONE',  ( 0.000000000000000000, 0.000000000000000000, -1.000000000000000000 ) ) ;
#250 = CARTESIAN_POINT ( 'NONE',  ( -27.65458803171821955, 1.500000000000000000, 30.87795117699237935 ) ) ;
#251 = ADVANCED_FACE ( 'NONE', ( #226 ), #162, .T. ) ;
#252 =( NAMED_UNIT ( * ) SI_UNIT ( $, .STERADIAN. ) SOLID_ANGLE_UNIT ( ) );
#253 = DIRECTION ( 'NONE',  ( -0.000000000000000000, -1.000000000000000000, -0.000000000000000000 ) ) ;
#254 =( GEOMETRIC_REPRESENTATION_CONTEXT ( 3 ) GLOBAL_UNCERTAINTY_ASSIGNED_CONTEXT ( ( #259 ) ) GLOBAL_UNIT_ASSIGNED_CONTEXT ( ( #32, #331, #203 ) ) REPRESENTATION_CONTEXT ( 'NONE', 'WORKASPACE' ) );
#255 = CARTESIAN_POINT ( 'NONE',  ( -27.65458803171821955, 1.500000000000000000, 20.04522580946149901 ) ) ;
#256 = DIRECTION ( 'NONE',  ( 0.000000000000000000, 0.000000000000000000, -1.000000000000000000 ) ) ;
#257 = STYLED_ITEM ( 'NONE', ( #350 ), #64 ) ;
#258 = AXIS2_PLACEMENT_3D ( 'NONE', #440, #270, #23 ) ;
#259 = UNCERTAINTY_MEASURE_WITH_UNIT (LENGTH_MEASURE( 1.000000000000000082E-05 ), #32, 'distance_accuracy_value', 'NONE');
#260 = EDGE_LOOP ( 'NONE', ( #377, #134, #306, #168 ) ) ;
#261 = CARTESIAN_POINT ( 'NONE',  ( -27.65458803171821955, 3.799999999999999822, 34.37795117699238290 ) ) ;
#262 = PRODUCT_DEFINITION_SHAPE ( 'NONE', 'NONE',  #49 ) ;
#263 = DIRECTION ( 'NONE',  ( 0.000000000000000000, 0.000000000000000000, 1.000000000000000000 ) ) ;
#264 = AXIS2_PLACEMENT_3D ( 'NONE', #41, #286, #141 ) ;
#265 = ORIENTED_EDGE ( 'NONE', *, *, #293, .T. ) ;
#266 = CARTESIAN_POINT ( 'NONE',  ( -27.65458803171821955, 1.500000000000000000, 21.54522580946149901 ) ) ;
#267 = EDGE_CURVE ( 'NONE', #142, #342, #287, .T. ) ;
#268 = COLOUR_RGB ( '',0.7921568627450980005, 0.8196078431372548767, 0.9333333333333333481 ) ;
#269 = ORIENTED_EDGE ( 'NONE', *, *, #160, .T. ) ;
#270 = DIRECTION ( 'NONE',  ( 0.000000000000000000, 1.000000000000000000, -0.000000000000000000 ) ) ;
#271 = EDGE_LOOP ( 'NONE', ( #362, #108, #195, #237, #225, #88 ) ) ;
#272 = LINE ( 'NONE', #398, #436 ) ;
#273 = EDGE_LOOP ( 'NONE', ( #158, #99, #407, #304, #269, #66 ) ) ;
#274 = DIRECTION ( 'NONE',  ( 0.000000000000000000, 1.000000000000000000, -0.000000000000000000 ) ) ;
#275 = CARTESIAN_POINT ( 'NONE',  ( -27.65458803171821955, 0.000000000000000000, 21.54522580946149901 ) ) ;
#276 = AXIS2_PLACEMENT_3D ( 'NONE', #81, #148, #282 ) ;
#277 = ORIENTED_EDGE ( 'NONE', *, *, #181, .T. ) ;
#278 = CARTESIAN_POINT ( 'NONE',  ( -27.65458803171821955, 3.799999999999999822, 31.87795117699237935 ) ) ;
#279 = ADVANCED_FACE ( 'NONE', ( #405 ), #326, .T. ) ;
#280 = VERTEX_POINT ( 'NONE', #100 ) ;
#281 = CARTESIAN_POINT ( 'NONE',  ( -27.65458803171821955, 3.799999999999999822, 34.37795117699238290 ) ) ;
#282 = DIRECTION ( 'NONE',  ( 0.000000000000000000, 0.000000000000000000, 1.000000000000000000 ) ) ;
#283 = VECTOR ( 'NONE', #177, 1000.000000000000000 ) ;
#284 = EDGE_CURVE ( 'NONE', #76, #329, #131, .T. ) ;
#285 = CYLINDRICAL_SURFACE ( 'NONE', #194, 1.500000000000001332 ) ;
#286 = DIRECTION ( 'NONE',  ( 0.000000000000000000, 1.000000000000000000, -0.000000000000000000 ) ) ;
#287 = CIRCLE ( 'NONE', #258, 3.500000000000003109 ) ;
#288 = CARTESIAN_POINT ( 'NONE',  ( -27.65458803171822311, 1.500000000000000000, 18.37795117699238645 ) ) ;
#289 = EDGE_CURVE ( 'NONE', #217, #201, #272, .T. ) ;
#290 = MECHANICAL_DESIGN_GEOMETRIC_PRESENTATION_REPRESENTATION (  '', ( #257 ), #348 ) ;
#291 = APPLICATION_CONTEXT ( 'automotive_design' ) ;
#292 = ORIENTED_EDGE ( 'NONE', *, *, #406, .T. ) ;
#293 = EDGE_CURVE ( 'NONE', #218, #431, #54, .T. ) ;
#294 = CARTESIAN_POINT ( 'NONE',  ( -27.65458803171821955, 3.799999999999999822, 34.37795117699238290 ) ) ;
#295 = AXIS2_PLACEMENT_3D ( 'NONE', #133, #127, #233 ) ;
#296 = EDGE_CURVE ( 'NONE', #438, #103, #192, .T. ) ;
#297 = CARTESIAN_POINT ( 'NONE',  ( -27.65458803171821955, 3.799999999999999822, 37.87795117699238290 ) ) ;
#298 = ORIENTED_EDGE ( 'NONE', *, *, #354, .T. ) ;
#299 = CARTESIAN_POINT ( 'NONE',  ( -27.65458803171821955, 0.000000000000000000, 34.37795117699238290 ) ) ;
#300 = ORIENTED_EDGE ( 'NONE', *, *, #352, .T. ) ;
#301 = ADVANCED_FACE ( 'NONE', ( #228 ), #198, .F. ) ;
#302 = EDGE_LOOP ( 'NONE', ( #371, #92 ) ) ;
#303 = LINE ( 'NONE', #338, #432 ) ;
#304 = ORIENTED_EDGE ( 'NONE', *, *, #325, .T. ) ;
#305 = CARTESIAN_POINT ( 'NONE',  ( -28.24975248860617327, 1.500000000000000000, -1.790234732851514687 ) ) ;
#306 = ORIENTED_EDGE ( 'NONE', *, *, #155, .T. ) ;
#307 = LINE ( 'NONE', #382, #105 ) ;
#308 = DIRECTION ( 'NONE',  ( 0.000000000000000000, 1.000000000000000000, -0.000000000000000000 ) ) ;
#309 = EDGE_CURVE ( 'NONE', #431, #370, #238, .T. ) ;
#310 = ORIENTED_EDGE ( 'NONE', *, *, #361, .T. ) ;
#311 = LINE ( 'NONE', #179, #150 ) ;
#312 = VERTEX_POINT ( 'NONE', #437 ) ;
#313 = CARTESIAN_POINT ( 'NONE',  ( -27.65458803171821955, 0.000000000000000000, 34.37795117699238290 ) ) ;
#314 = SURFACE_SIDE_STYLE ('',( #14 ) ) ;
#315 = DIRECTION ( 'NONE',  ( -0.000000000000000000, -1.000000000000000000, -0.000000000000000000 ) ) ;
#316 = EDGE_CURVE ( 'NONE', #438, #58, #20, .T. ) ;
#317 = CIRCLE ( 'NONE', #264, 3.500000000000003109 ) ;
#318 = DIRECTION ( 'NONE',  ( 0.000000000000000000, 1.000000000000000000, -0.000000000000000000 ) ) ;
#319 = DIRECTION ( 'NONE',  ( 0.000000000000000000, 0.000000000000000000, -1.000000000000000000 ) ) ;
#320 = DIRECTION ( 'NONE',  ( 0.000000000000000000, 0.000000000000000000, -1.000000000000000000 ) ) ;
#321 = CIRCLE ( 'NONE', #89, 1.500000000000001332 ) ;
#322 = DIRECTION ( 'NONE',  ( -0.06324482873432939189, 0.000000000000000000, -0.9979980419010676673 ) ) ;
#323 = CARTESIAN_POINT ( 'NONE',  ( -27.65458803171821955, 1.500000000000000000, 34.37795117699238290 ) ) ;
#324 = PRODUCT_DEFINITION_CONTEXT ( 'detailed design', #132, 'design' ) ;
#325 = EDGE_CURVE ( 'NONE', #58, #144, #386, .T. ) ;
#326 = CYLINDRICAL_SURFACE ( 'NONE', #248, 3.499999999999999556 ) ;
#327 = DIRECTION ( 'NONE',  ( -0.000000000000000000, -1.000000000000000000, -0.000000000000000000 ) ) ;
#328 = DIRECTION ( 'NONE',  ( 0.000000000000000000, 0.000000000000000000, 1.000000000000000000 ) ) ;
#329 = VERTEX_POINT ( 'NONE', #164 ) ;
#330 = DIRECTION ( 'NONE',  ( 0.000000000000000000, 0.000000000000000000, -1.000000000000000000 ) ) ;
#331 =( NAMED_UNIT ( * ) PLANE_ANGLE_UNIT ( ) SI_UNIT ( $, .RADIAN. ) );
#332 = ORIENTED_EDGE ( 'NONE', *, *, #181, .F. ) ;
#333 = EDGE_LOOP ( 'NONE', ( #231, #211 ) ) ;
#334 = CARTESIAN_POINT ( 'NONE',  ( -29.65458803171821955, 1.500000000000000000, 20.37795117699237935 ) ) ;
#335 = AXIS2_PLACEMENT_3D ( 'NONE', #392, #207, #220 ) ;
#336 = PRODUCT_CONTEXT ( 'NONE', #291, 'mechanical' ) ;
#337 = ORIENTED_EDGE ( 'NONE', *, *, #107, .T. ) ;
#338 = CARTESIAN_POINT ( 'NONE',  ( -28.24975248860617327, 0.000000000000000000, -1.790234732851514687 ) ) ;
#339 = ORIENTED_EDGE ( 'NONE', *, *, #122, .F. ) ;
#340 = FACE_OUTER_BOUND ( 'NONE', #260, .T. ) ;
#341 = CARTESIAN_POINT ( 'NONE',  ( -27.65458803171821955, 0.000000000000000000, 23.04522580946149901 ) ) ;
#342 = VERTEX_POINT ( 'NONE', #402 ) ;
#343 = CARTESIAN_POINT ( 'NONE',  ( -27.65458803171821955, 0.000000000000000000, 21.54522580946149901 ) ) ;
#344 = DIRECTION ( 'NONE',  ( 0.000000000000000000, 0.000000000000000000, 1.000000000000000000 ) ) ;
#345 = AXIS2_PLACEMENT_3D ( 'NONE', #299, #35, #263 ) ;
#346 = ORIENTED_EDGE ( 'NONE', *, *, #125, .F. ) ;
#347 = LINE ( 'NONE', #69, #216 ) ;
#348 =( GEOMETRIC_REPRESENTATION_CONTEXT ( 3 ) GLOBAL_UNCERTAINTY_ASSIGNED_CONTEXT ( ( #159 ) ) GLOBAL_UNIT_ASSIGNED_CONTEXT ( ( #46, #85, #252 ) ) REPRESENTATION_CONTEXT ( 'NONE', 'WORKASPACE' ) );
#349 = EDGE_CURVE ( 'NONE', #103, #142, #97, .T. ) ;
#350 = PRESENTATION_STYLE_ASSIGNMENT (( #113 ) ) ;
#351 = CARTESIAN_POINT ( 'NONE',  ( -26.83819193901900846, 1.500000000000000000, 1.700781746514267168 ) ) ;
#352 = EDGE_CURVE ( 'NONE', #312, #439, #87, .T. ) ;
#353 = FILL_AREA_STYLE_COLOUR ( '', #268 ) ;
#354 = EDGE_CURVE ( 'NONE', #34, #1, #17, .T. ) ;
#355 = ORIENTED_EDGE ( 'NONE', *, *, #442, .T. ) ;
#356 = DIRECTION ( 'NONE',  ( 0.000000000000000000, 1.000000000000000000, -0.000000000000000000 ) ) ;
#357 = CIRCLE ( 'NONE', #119, 1.500000000000001332 ) ;
#358 = FACE_BOUND ( 'NONE', #30, .T. ) ;
#359 = ADVANCED_FACE ( 'NONE', ( #191, #152 ), #106, .T. ) ;
#360 = AXIS2_PLACEMENT_3D ( 'NONE', #275, #422, #174 ) ;
#361 = EDGE_CURVE ( 'NONE', #34, #312, #383, .T. ) ;
#362 = ORIENTED_EDGE ( 'NONE', *, *, #406, .F. ) ;
#363 = DIRECTION ( 'NONE',  ( 0.000000000000000000, 1.000000000000000000, -0.000000000000000000 ) ) ;
#364 = CARTESIAN_POINT ( 'NONE',  ( -27.65458803171821955, 3.799999999999999822, 30.87795117699238290 ) ) ;
#365 = EDGE_LOOP ( 'NONE', ( #298, #172, #395, #176 ) ) ;
#366 = EDGE_CURVE ( 'NONE', #208, #58, #418, .T. ) ;
#367 = DIRECTION ( 'NONE',  ( -0.06324482873432939189, 0.000000000000000000, 0.9979980419010676673 ) ) ;
#368 = AXIS2_PLACEMENT_3D ( 'NONE', #83, #419, #320 ) ;
#369 = ADVANCED_FACE ( 'NONE', ( #74 ), #285, .F. ) ;
#370 = VERTEX_POINT ( 'NONE', #4 ) ;
#371 = ORIENTED_EDGE ( 'NONE', *, *, #223, .F. ) ;
#372 = DIRECTION ( 'NONE',  ( -0.000000000000000000, -1.000000000000000000, -0.000000000000000000 ) ) ;
#373 = ADVANCED_BREP_SHAPE_REPRESENTATION ( 'servoarm', ( #64, #117 ), #254 ) ;
#374 = ORIENTED_EDGE ( 'NONE', *, *, #140, .T. ) ;
#375 = CARTESIAN_POINT ( 'NONE',  ( -27.65458803171821955, 3.799999999999999822, 34.37795117699238290 ) ) ;
#376 = VECTOR ( 'NONE', #327, 1000.000000000000000 ) ;
#377 = ORIENTED_EDGE ( 'NONE', *, *, #425, .F. ) ;
#378 = FACE_OUTER_BOUND ( 'NONE', #178, .T. ) ;
#379 = CARTESIAN_POINT ( 'NONE',  ( 0.000000000000000000, 0.000000000000000000, 0.000000000000000000 ) ) ;
#380 = AXIS2_PLACEMENT_3D ( 'NONE', #351, #45, #102 ) ;
#381 = ORIENTED_EDGE ( 'NONE', *, *, #221, .F. ) ;
#382 = CARTESIAN_POINT ( 'NONE',  ( -27.65458803171821955, 3.799999999999999822, 31.87795117699237935 ) ) ;
#383 = LINE ( 'NONE', #114, #394 ) ;
#384 = ORIENTED_EDGE ( 'NONE', *, *, #428, .T. ) ;
#385 = DIRECTION ( 'NONE',  ( 0.000000000000000000, 0.000000000000000000, 1.000000000000000000 ) ) ;
#386 = CIRCLE ( 'NONE', #229, 3.500000000000003109 ) ;
#387 = FILL_AREA_STYLE ('',( #353 ) ) ;
#388 = DIRECTION ( 'NONE',  ( 0.000000000000000000, 0.000000000000000000, 1.000000000000000000 ) ) ;
#389 = FACE_OUTER_BOUND ( 'NONE', #129, .T. ) ;
#390 = CARTESIAN_POINT ( 'NONE',  ( -27.65458803171821955, 0.000000000000000000, 36.87795117699238290 ) ) ;
#391 = LINE ( 'NONE', #245, #120 ) ;
#392 = CARTESIAN_POINT ( 'NONE',  ( 0.000000000000000000, 0.000000000000000000, 0.000000000000000000 ) ) ;
#393 = ADVANCED_FACE ( 'NONE', ( #118 ), #153, .T. ) ;
#394 = VECTOR ( 'NONE', #38, 1000.000000000000000 ) ;
#395 = ORIENTED_EDGE ( 'NONE', *, *, #352, .F. ) ;
#396 = CIRCLE ( 'NONE', #124, 1.999999999999998224 ) ;
#397 = ORIENTED_EDGE ( 'NONE', *, *, #325, .F. ) ;
#398 = CARTESIAN_POINT ( 'NONE',  ( -29.65458803171821955, 1.500000000000000000, 20.37795117699237935 ) ) ;
#399 = EDGE_LOOP ( 'NONE', ( #374, #136 ) ) ;
#400 = AXIS2_PLACEMENT_3D ( 'NONE', #323, #356, #427 ) ;
#401 = DIRECTION ( 'NONE',  ( -0.000000000000000000, -1.000000000000000000, -0.000000000000000000 ) ) ;
#402 = CARTESIAN_POINT ( 'NONE',  ( -24.90458803171822311, 0.000000000000000000, 32.21288766753127675 ) ) ;
#403 = AXIS2_PLACEMENT_3D ( 'NONE', #104, #2, #388 ) ;
#404 = ORIENTED_EDGE ( 'NONE', *, *, #428, .F. ) ;
#405 = FACE_OUTER_BOUND ( 'NONE', #273, .T. ) ;
#406 = EDGE_CURVE ( 'NONE', #103, #438, #317, .T. ) ;
#407 = ORIENTED_EDGE ( 'NONE', *, *, #316, .T. ) ;
#408 = PLANE ( 'NONE',  #380 ) ;
#409 = EDGE_LOOP ( 'NONE', ( #384, #42, #68, #355 ) ) ;
#410 = CARTESIAN_POINT ( 'NONE',  ( -25.65458803171822311, 1.500000000000000000, 20.37795117699238290 ) ) ;
#411 = PLANE ( 'NONE',  #335 ) ;
#412 = AXIS2_PLACEMENT_3D ( 'NONE', #182, #318, #214 ) ;
#413 = EDGE_LOOP ( 'NONE', ( #197, #199, #138, #8 ) ) ;
#414 = DIRECTION ( 'NONE',  ( 0.000000000000000000, 1.000000000000000000, -0.000000000000000000 ) ) ;
#415 = ADVANCED_FACE ( 'NONE', ( #116, #358, #187 ), #411, .F. ) ;
#416 = DIRECTION ( 'NONE',  ( 0.000000000000000000, 1.000000000000000000, -0.000000000000000000 ) ) ;
#417 = CARTESIAN_POINT ( 'NONE',  ( -27.65458803171821955, 3.799999999999999822, 37.87795117699238290 ) ) ;
#418 = CIRCLE ( 'NONE', #400, 3.500000000000003109 ) ;
#419 = DIRECTION ( 'NONE',  ( -0.000000000000000000, -1.000000000000000000, -0.000000000000000000 ) ) ;
#420 = CIRCLE ( 'NONE', #188, 2.500000000000002220 ) ;
#421 = ORIENTED_EDGE ( 'NONE', *, *, #47, .T. ) ;
#422 = DIRECTION ( 'NONE',  ( 0.000000000000000000, 1.000000000000000000, -0.000000000000000000 ) ) ;
#423 = PLANE ( 'NONE',  #180 ) ;
#424 = CARTESIAN_POINT ( 'NONE',  ( 0.000000000000000000, 3.799999999999999822, 0.000000000000000000 ) ) ;
#425 = EDGE_CURVE ( 'NONE', #112, #76, #391, .T. ) ;
#426 = VECTOR ( 'NONE', #57, 1000.000000000000000 ) ;
#427 = DIRECTION ( 'NONE',  ( 0.000000000000000000, 0.000000000000000000, 1.000000000000000000 ) ) ;
#428 = EDGE_CURVE ( 'NONE', #342, #280, #185, .T. ) ;
#429 = PRODUCT_DEFINITION_FORMATION_WITH_SPECIFIED_SOURCE ( 'ANY', '', #126, .NOT_KNOWN. ) ;
#430 = AXIS2_PLACEMENT_3D ( 'NONE', #266, #444, #26 ) ;
#431 = VERTEX_POINT ( 'NONE', #288 ) ;
#432 = VECTOR ( 'NONE', #55, 1000.000000000000000 ) ;
#433 = DIRECTION ( 'NONE',  ( 0.000000000000000000, 0.000000000000000000, 1.000000000000000000 ) ) ;
#434 = DIRECTION ( 'NONE',  ( -0.000000000000000000, -1.000000000000000000, -0.000000000000000000 ) ) ;
#435 = ORIENTED_EDGE ( 'NONE', *, *, #95, .T. ) ;
#436 = VECTOR ( 'NONE', #401, 1000.000000000000000 ) ;
#437 = CARTESIAN_POINT ( 'NONE',  ( -27.65458803171821955, 0.000000000000000000, 20.04522580946149901 ) ) ;
#438 = VERTEX_POINT ( 'NONE', #219 ) ;
#439 = VERTEX_POINT ( 'NONE', #341 ) ;
#440 = CARTESIAN_POINT ( 'NONE',  ( -27.65458803171821955, 0.000000000000000000, 34.37795117699238290 ) ) ;
#441 = APPLICATION_PROTOCOL_DEFINITION ( 'draft international standard', 'automotive_design', 1998, #291 ) ;
#442 = EDGE_CURVE ( 'NONE', #208, #342, #24, .T. ) ;
#443 = EDGE_LOOP ( 'NONE', ( #404, #123, #339, #62, #61, #332 ) ) ;
#444 = DIRECTION ( 'NONE',  ( -0.000000000000000000, -1.000000000000000000, -0.000000000000000000 ) ) ;
ENDSEC;
END-ISO-10303-21;
